<?xml version="1.0" encoding="UTF-8"?>
<svg id="Capa_1" data-name="Capa 1" xmlns="http://www.w3.org/2000/svg" viewBox="0 0 348.03 313.94">
  <defs>
    <style>
      .cls-1, .cls-2 {
        fill: gray;
      }

      .cls-3 {
        stroke-width: .5px;
      }

      .cls-3, .cls-4 {
        fill: none;
        stroke: gray;
        stroke-linecap: round;
        stroke-linejoin: round;
      }

      .cls-4 {
        stroke-width: .25px;
      }

      .cls-2 {
        font-family: MyriadPro-Regular, 'Myriad Pro';
        font-size: 10px;
      }
    </style>
  </defs>
  <path class="cls-3" d="m270.85,273.49v-12.89m-5.92,3.46h-1.23m-2.96-192.64v-11.16m8.88,213.24l-.17.89-.5.78-.78.5-.89.17-.89-.17-.78-.5-.5-.78-.17-.89m0,0v-9.43m-5.42-192.14l4.19,4.13m0,188.01v9.43m0,0l.28,1.4.78,1.12,1.17.78,1.34.28,1.4-.28,1.12-.78.78-1.12.28-1.4m-1.23-12.39v12.39m1.23-12.89l-5.92-5.92m0,0V75.55m0,0l-4.19-4.13m2.96,183.76l5.92,5.92m-8.88-200.85h-1.23m0,0v11.67m4.19,4.13v179.13m-147.48,5.64l-5.92,5.92m5.92-5.92h150.44m0,12.67v-12.67m0,12.67h1.23m0,0v-12.67m0,0v-.22l-.11-.28-.11-.17-.11-.22-.22-.11-.17-.11-.28-.11h-.22m0,0H115.73m0,0l-5.92,5.92m-12.39,0h12.39m-12.39,0l-.89-.17-.78-.56-.5-.73-.17-.89.17-.89.5-.78.78-.5.89-.17m9.43,0h-9.43m9.43,0v-1.23m-9.43,0h9.43m-9.43,7.14l-1.39-.28-1.12-.78-.78-1.17-.28-1.34.28-1.4.78-1.12,1.12-.78,1.39-.28m0,7.14h12.9m-68.05,6.75l.28,1.4.78,1.12,1.12.78,1.4.28,1.34-.28,1.17-.78.78-1.12.28-1.4m0,0v-9.43m0,0h-1.23m0,0v9.43m0,0l-.17.89-.56.78-.73.5-.89.17-.89-.17-.78-.5-.5-.78-.17-.89m0,0v-12.39m0,0l5.92-5.92m0,0V76.05m0,0l4.19-4.13m0,0v-11.67m0,0h-1.23m0,0v11.16m0,0l-4.19,4.13m0,0v179.13m0,0l-5.92,5.92m0,0v12.89m10.66-229.48l-.95.11-.89.28-.84.45-.67.56-.61.73-.45.84-.28.89-.06.89m0,0v22.94m0,0l.11.62.34.5.56.39.61.11.61-.11.5-.39.34-.5.17-.62m0,0v-11.44m0,0l.11-.56.33-.56.5-.33.61-.11.61.11.5.33.33.56.11.56m0,0v13.06m0,0h1.23m0,0v-13.06m0,0l-.22-1.06-.61-.89-.89-.61-1.06-.22-1.06.22-.95.61-.56.89-.22,1.06m0,0v11.44m0,0l-.06.17-.06.11-.17.05-.11.06-.17-.06-.11-.05-.11-.11v-.17m0,0v-22.94m0,0l.06-.67.17-.67.33-.61.45-.5.56-.45.61-.33.61-.22.73-.06m0,0h207.27m0,0l.67.06.67.22.61.33.56.45.45.5.33.61.17.67.06.67m0,0v22.94m0,0v.17l-.11.11-.11.05-.17.06-.11-.06-.17-.05-.06-.11-.06-.17m0,0v-11.44m0,0l-.22-1.06-.61-.89-.89-.61-1.06-.22-1.06.22-.89.61-.61.89-.22,1.06m0,0v13.06m0,0h1.23m0,0v-13.06m0,0l.11-.56.33-.56.5-.33.61-.11.61.11.5.33.34.56.11.56m0,0v11.44m0,0l.17.62.33.5.5.39.61.11.61-.11.56-.39.34-.5.11-.62m0,0v-22.94m0,0l-.06-.89-.28-.89-.45-.84-.61-.73-.72-.56-.78-.45-.89-.28-.95-.11m0,0H52.93"/>
  <line class="cls-4" x1="282.42" y1="42.51" x2="305.77" y2="42.51"/>
  <line class="cls-4" x1="300.99" y1="53.51" x2="300.99" y2="262.31"/>
  <polygon class="cls-1" points="300.99 42.51 298.93 53.23 303.04 53.23 300.99 42.51"/>
  <polygon class="cls-4" points="300.99 42.51 298.93 53.23 303.04 53.23 300.99 42.51"/>
  <polygon class="cls-1" points="300.99 262.23 298.93 251.51 303.04 251.51 300.99 262.23"/>
  <polygon class="cls-4" points="300.99 262.23 298.93 251.51 303.04 251.51 300.99 262.23"/>
  <line class="cls-4" x1="282.42" y1="262.31" x2="305.77" y2="262.31"/>
  <text class="cls-2" transform="translate(298.34 190.42) rotate(-90)"><tspan x="0" y="0">137 / 165 / 180 / 205</tspan></text>
  <line class="cls-4" x1="265.46" y1="11.23" x2="265.46" y2="34.58"/>
  <line class="cls-4" x1="254.46" y1="16.8" x2="46.66" y2="16.8"/>
  <polygon class="cls-1" points="265.46 16.8 254.73 14.74 254.73 18.85 265.46 16.8"/>
  <polygon class="cls-4" points="265.46 16.8 254.73 14.74 254.73 18.85 265.46 16.8"/>
  <polygon class="cls-1" points="46.73 16.8 57.46 14.74 57.46 18.85 46.73 16.8"/>
  <polygon class="cls-4" points="46.73 16.8 57.46 14.74 57.46 18.85 46.73 16.8"/>
  <line class="cls-4" x1="46.66" y1="11.23" x2="46.66" y2="34.58"/>
  <text class="cls-2" transform="translate(113.54 14.15)"><tspan x="0" y="0">137 / 165 / 180 / 205</tspan></text>
</svg>