<?xml version="1.0" encoding="UTF-8"?>
<svg id="Capa_1" data-name="Capa 1" xmlns="http://www.w3.org/2000/svg" viewBox="0 0 358 351">
  <defs>
    <style>
      .cls-1 {
        fill: gray;
      }

      .cls-2 {
        stroke-width: 2px;
      }

      .cls-2, .cls-3, .cls-4 {
        fill: none;
        stroke: gray;
        stroke-miterlimit: 10;
      }

      .cls-3 {
        stroke-dasharray: 0 0 4.97 4.97;
        stroke-width: .75px;
      }

      .cls-4 {
        stroke-width: .5px;
      }
    </style>
  </defs>
  <path class="cls-2" d="m75.29,313.4v13.71c0,.67-1.37,4.11-4.11,4.11-2.16,0-4.11-1.87-4.11-4.11v-17.83l6.86-6.86s-.02-223.67,0-230.38c0-2.75,1.37-4.11,1.37-4.11,1.45-1.45,3.68-1.37,4.11-1.37,3.2,0,231.75-1.37,245.47-1.37,2.89,0,5.49,2.74,5.49,2.74,1.2,1.63,1.37,3.4,1.37,4.11v26.06c0,4.11-3.43,4.11-3.43,0v-17.83c0-2.74-6.86-2.74-6.86,0v21.94"/>
  <path class="cls-2" d="m324.88,81.65v21.48l6.86,3.21c0,13.71-1.36,133.94-1.37,137.13l-61.71,76.79c-6.71.02-112.45,0-112.45,0l-6.86,6.86h-17.83c-2.25,0-4.11-1.96-4.11-4.11,0-2.74,3.45-4.11,4.11-4.11h13.71"/>
  <g>
    <line class="cls-4" x1="79.2" y1="35.02" x2="331.95" y2="35.02"/>
    <polygon class="cls-1" points="80.68 37.2 72.55 35.02 80.68 32.84 80.68 37.2"/>
    <polygon class="cls-1" points="330.46 37.2 338.59 35.02 330.46 32.84 330.46 37.2"/>
  </g>
  <g>
    <line class="cls-4" x1="40.33" y1="71.84" x2="40.33" y2="324.58"/>
    <polygon class="cls-1" points="38.15 73.32 40.32 65.19 42.51 73.32 38.15 73.32"/>
    <polygon class="cls-1" points="38.15 323.1 40.32 331.23 42.51 323.1 38.15 323.1"/>
  </g>
  <g>
    <path class="cls-1" d="m189,24.41h.93c.58,0,1.04-.16,1.38-.46.33-.3.5-.7.5-1.21,0-1.14-.57-1.71-1.71-1.71-.54,0-.96.15-1.28.46-.32.31-.48.71-.48,1.22h-1.24c0-.77.28-1.41.85-1.92.56-.51,1.28-.77,2.15-.77.92,0,1.64.24,2.16.73s.78,1.16.78,2.03c0,.42-.14.83-.41,1.23s-.65.69-1.12.89c.54.17.95.45,1.24.84s.44.87.44,1.44c0,.88-.29,1.57-.86,2.08-.57.51-1.32.77-2.23.77s-1.66-.25-2.23-.74c-.57-.5-.86-1.15-.86-1.96h1.25c0,.51.17.92.5,1.23.33.31.78.46,1.35.46.6,0,1.06-.16,1.37-.47.32-.31.48-.76.48-1.35s-.17-1-.52-1.31c-.35-.3-.85-.46-1.51-.47h-.93v-1.01Z"/>
    <path class="cls-1" d="m201.02,25.73c0,1.45-.25,2.53-.74,3.23-.5.71-1.27,1.06-2.32,1.06s-1.81-.34-2.31-1.03-.76-1.72-.78-3.09v-1.65c0-1.43.25-2.5.74-3.19.5-.7,1.27-1.04,2.33-1.04s1.82.34,2.32,1.01c.5.67.75,1.71.76,3.11v1.61Zm-1.24-1.69c0-1.05-.15-1.81-.44-2.29-.29-.48-.76-.72-1.4-.72s-1.1.24-1.39.72c-.29.48-.44,1.21-.45,2.2v1.98c0,1.05.15,1.83.46,2.33.31.5.77.75,1.39.75s1.07-.24,1.36-.71c.3-.47.45-1.22.46-2.24v-2.03Z"/>
    <path class="cls-1" d="m208.72,25.73c0,1.45-.25,2.53-.74,3.23-.5.71-1.27,1.06-2.32,1.06s-1.81-.34-2.31-1.03-.76-1.72-.78-3.09v-1.65c0-1.43.25-2.5.74-3.19.5-.7,1.27-1.04,2.33-1.04s1.82.34,2.32,1.01c.5.67.75,1.71.76,3.11v1.61Zm-1.24-1.69c0-1.05-.15-1.81-.44-2.29-.29-.48-.76-.72-1.4-.72s-1.1.24-1.39.72c-.29.48-.44,1.21-.45,2.2v1.98c0,1.05.15,1.83.46,2.33.31.5.77.75,1.39.75s1.07-.24,1.36-.71c.3-.47.45-1.22.46-2.24v-2.03Z"/>
  </g>
  <g>
    <path class="cls-1" d="m30.94,201.59v-.93c0-.58-.16-1.04-.46-1.38-.3-.33-.7-.5-1.21-.5-1.14,0-1.71.57-1.71,1.71,0,.54.15.96.46,1.28.31.32.71.48,1.22.48v1.24c-.77,0-1.41-.28-1.92-.85-.51-.56-.77-1.28-.77-2.15,0-.92.24-1.64.73-2.16s1.16-.78,2.03-.78c.42,0,.83.14,1.23.41s.69.65.89,1.12c.17-.54.45-.95.84-1.24s.87-.44,1.44-.44c.88,0,1.57.29,2.08.86.51.57.77,1.32.77,2.23s-.25,1.66-.74,2.23c-.5.57-1.15.86-1.96.86v-1.25c.51,0,.92-.17,1.23-.5.31-.33.46-.78.46-1.35,0-.6-.16-1.06-.47-1.37-.31-.32-.76-.48-1.35-.48s-1,.17-1.31.52c-.3.35-.46.85-.47,1.51v.93h-1.01Z"/>
    <path class="cls-1" d="m32.26,189.57c1.45,0,2.53.25,3.23.74.71.5,1.06,1.27,1.06,2.32s-.34,1.81-1.03,2.31-1.72.76-3.09.78h-1.65c-1.43,0-2.5-.25-3.19-.74-.7-.5-1.04-1.27-1.04-2.33s.34-1.82,1.01-2.32c.67-.5,1.71-.75,3.11-.76h1.61Zm-1.69,1.24c-1.05,0-1.81.15-2.29.44-.48.29-.72.76-.72,1.4s.24,1.1.72,1.39c.48.29,1.21.44,2.2.45h1.98c1.05,0,1.83-.15,2.33-.46.5-.31.75-.77.75-1.39s-.24-1.07-.71-1.36c-.47-.3-1.22-.45-2.24-.46h-2.03Z"/>
    <path class="cls-1" d="m32.26,181.87c1.45,0,2.53.25,3.23.74.71.5,1.06,1.27,1.06,2.32s-.34,1.81-1.03,2.31-1.72.76-3.09.78h-1.65c-1.43,0-2.5-.25-3.19-.74-.7-.5-1.04-1.27-1.04-2.33s.34-1.82,1.01-2.32c.67-.5,1.71-.75,3.11-.76h1.61Zm-1.69,1.24c-1.05,0-1.81.15-2.29.44-.48.29-.72.76-.72,1.4s.24,1.1.72,1.39c.48.29,1.21.44,2.2.45h1.98c1.05,0,1.83-.15,2.33-.46.5-.31.75-.77.75-1.39s-.24-1.07-.71-1.36c-.47-.3-1.22-.45-2.24-.46h-2.03Z"/>
  </g>
  <circle class="cls-3" cx="202.83" cy="192.72" r="123.42" transform="translate(-76.87 199.87) rotate(-45)"/>
  <g>
    <g>
      <line class="cls-4" x1="120.73" y1="274.88" x2="285.88" y2="109.74"/>
      <polygon class="cls-1" points="123.32 275.37 116.04 279.58 120.24 272.29 123.32 275.37"/>
      <polygon class="cls-1" points="286.37 112.33 290.58 105.04 283.29 109.25 286.37 112.33"/>
    </g>
    <g>
      <path class="cls-1" d="m197.08,191.38l-4.52,4.52-.63-.63-.27-5.04c-.05-.75-.13-1.32-.25-1.71-.12-.39-.31-.71-.58-.98-.36-.36-.76-.55-1.21-.56s-.85.16-1.22.53c-.44.44-.65.9-.64,1.39,0,.49.23.95.67,1.4l-.88.88c-.63-.63-.94-1.35-.93-2.15.02-.8.37-1.54,1.05-2.23.64-.64,1.32-.98,2.02-1.02.71-.04,1.34.23,1.9.78.68.68,1.05,1.92,1.13,3.72l.16,3.85,3.46-3.46.71.71Z"/>
      <path class="cls-1" d="m198.33,184.07c.03.4,0,.8-.13,1.18-.12.39-.33.73-.64,1.03-.4.4-.84.65-1.33.75-.49.1-.99.05-1.51-.14-.52-.19-.99-.51-1.42-.94-.46-.46-.79-.96-.98-1.51-.19-.54-.23-1.08-.1-1.59.13-.52.4-.99.83-1.42.68-.68,1.47-.96,2.38-.85.9.12,1.79.62,2.68,1.5l.26.26c1.34,1.34,2.05,2.59,2.14,3.73s-.4,2.26-1.45,3.35l-.17.17-.74-.74.19-.19c.71-.74,1.08-1.48,1.1-2.23.02-.75-.34-1.54-1.09-2.36Zm-1.35,1.35c.29-.29.47-.65.54-1.08.07-.43.03-.83-.13-1.21l-.35-.35c-.58-.58-1.17-.92-1.78-1.03-.61-.11-1.1.03-1.49.41s-.55.84-.49,1.37c.06.53.33,1.03.82,1.52s.97.74,1.5.82.98-.07,1.36-.45Z"/>
      <path class="cls-1" d="m204.83,178.99l.96-.96.71.71-.96.96,1.6,1.6-.88.88-1.6-1.6-3.14,3.14-.52-.52-1.69-7.86.93-.93,4.58,4.58Zm-3.03,3.03l2.14-2.14-3.38-3.38.09.29,1.15,5.23Z"/>
    </g>
  </g>
</svg>