<?xml version="1.0" encoding="UTF-8"?>
<svg id="Capa_1" data-name="Capa 1" xmlns="http://www.w3.org/2000/svg" xmlns:xlink="http://www.w3.org/1999/xlink" viewBox="0 0 348.03 310.4">
  <defs>
    <style>
      .cls-1 {
        clip-path: url(#clippath-1);
      }

      .cls-2, .cls-3 {
        fill: gray;
      }

      .cls-4 {
        stroke-width: .5px;
      }

      .cls-4, .cls-5, .cls-6 {
        fill: none;
      }

      .cls-4, .cls-6 {
        stroke: gray;
        stroke-linecap: round;
        stroke-linejoin: round;
      }

      .cls-7 {
        clip-path: url(#clippath);
      }

      .cls-6 {
        stroke-width: .25px;
      }

      .cls-3 {
        font-family: MyriadPro-Regular, 'Myriad Pro';
        font-size: 10px;
      }
    </style>
    <clipPath id="clippath">
      <rect class="cls-5" x="48.25" y="45.68" width="221.21" height="220.27"/>
    </clipPath>
    <clipPath id="clippath-1">
      <rect class="cls-5" x="48.25" y="45.68" width="221.21" height="220.27"/>
    </clipPath>
  </defs>
  <g class="cls-7">
    <g class="cls-1">
      <polygon points="261.68 263 267.28 264.71 265.61 263.86 267.28 262.23 267.28 260.14 267.28 258.05 265.61 256.43 267.28 255.57 261.68 257.28 259.72 255.14 260.57 254.33 261.98 255.91 266.94 254.42 267.19 254.37 267.5 254.37 267.75 254.46 268 254.59 268.22 254.8 268.35 255.02 268.43 255.31 268.47 255.57 268.47 264.71 268.43 265.01 268.35 265.27 268.22 265.48 268 265.69 267.75 265.82 267.5 265.91 267.19 265.91 266.94 265.86 261.98 264.37 260.57 265.95 259.72 265.14 261.68 263"/>
      <polygon points="259.12 46.92 260.78 52.47 258.69 54.48 257.88 53.62 259.46 52.21 257.92 47.26 257.88 46.96 257.92 46.7 257.97 46.41 258.14 46.19 258.31 45.98 258.56 45.81 258.83 45.72 259.12 45.68 268.26 45.68 268.52 45.72 268.77 45.81 269.03 45.98 269.2 46.19 269.37 46.41 269.42 46.7 269.46 46.96 269.42 47.26 267.88 52.21 269.46 53.62 268.64 54.48 266.55 52.47 268.26 46.92 267.41 48.54 265.74 46.92 263.69 46.92 261.6 46.92 259.93 48.54 259.12 46.92"/>
      <polygon points="49.78 52.21 48.29 47.26 48.25 46.96 48.25 46.7 48.33 46.41 48.5 46.19 48.67 45.98 48.93 45.81 49.19 45.72 49.44 45.68 58.58 45.68 58.88 45.72 59.14 45.81 59.39 45.98 59.56 46.19 59.69 46.41 59.78 46.7 59.83 46.96 59.78 47.26 58.25 52.21 59.83 53.62 59.01 54.48 56.92 52.47 58.58 46.92 57.77 48.54 56.1 46.92 54.01 46.92 51.96 46.92 50.3 48.54 49.44 46.92 51.15 52.47 49.01 54.48 48.25 53.62 49.78 52.21"/>
    </g>
  </g>
  <line class="cls-4" x1="52.59" y1="55.56" x2="52.35" y2="53.37"/>
  <polyline class="cls-4" points="52.35 53.37 52.34 53.37 52.22 53.37"/>
  <polyline class="cls-4" points="52.13 54.56 51.88 55.16 51.76 55.34 51.53 55.67 51.11 56.1"/>
  <line class="cls-4" x1="49.44" y1="56.83" x2="48.12" y2="57"/>
  <line class="cls-4" x1="48.12" y1="264.24" x2="48.2" y2="264.24"/>
  <polyline class="cls-4" points="48.33 263.81 48.37 263.77 48.42 263.69 48.46 263.64"/>
  <line class="cls-4" x1="48.2" y1="264.24" x2="48.25" y2="264.16"/>
  <line class="cls-4" x1="48.46" y1="263.64" x2="51.53" y2="260.57"/>
  <line class="cls-4" x1="51.53" y1="260.57" x2="51.53" y2="260.53"/>
  <polyline class="cls-4" points="52.47 125.08 54.08 119.21 59.91 97.83"/>
  <line class="cls-4" x1="59.91" y1="97.83" x2="59.91" y2="58.24"/>
  <polyline class="cls-4" points="53.29 58.15 53.16 58.11 53.08 58.02 52.99 57.94 52.9 57.81"/>
  <polyline class="cls-4" points="48.46 263.6 48.42 263.69 48.37 263.73 48.33 263.81 48.29 263.9 48.25 263.99 48.25 264.07 48.25 264.11 48.25 264.16 48.25 264.2"/>
  <line class="cls-4" x1="48.25" y1="264.2" x2="48.25" y2="268.64"/>
  <line class="cls-4" x1="48.25" y1="268.64" x2="49.06" y2="268.64"/>
  <line class="cls-4" x1="49.06" y1="268.64" x2="49.06" y2="264.2"/>
  <line class="cls-4" x1="49.06" y1="264.2" x2="52.39" y2="260.91"/>
  <line class="cls-4" x1="52.39" y1="260.91" x2="53.33" y2="125.04"/>
  <line class="cls-4" x1="53.33" y1="125.04" x2="60.76" y2="97.83"/>
  <line class="cls-4" x1="60.76" y1="97.83" x2="60.76" y2="58.24"/>
  <polyline class="cls-4" points="60.76 58.24 60.76 58.07 60.72 57.9 60.63 57.77 60.55 57.64 60.42 57.51 60.25 57.43 60.08 57.38 59.95 57.38"/>
  <line class="cls-4" x1="59.95" y1="57.38" x2="53.63" y2="57.38"/>
  <line class="cls-4" x1="53.63" y1="57.38" x2="52.82" y2="49.95"/>
  <polyline class="cls-4" points="52.82 49.95 52.94 49.52 53.2 49.18 53.58 48.93 54.01 48.84 54.48 48.93 54.87 49.18 55.12 49.52 55.25 49.95"/>
  <line class="cls-4" x1="55.25" y1="49.95" x2="54.83" y2="53.62"/>
  <line class="cls-4" x1="54.83" y1="53.62" x2="55.68" y2="53.71"/>
  <line class="cls-4" x1="55.68" y1="53.71" x2="56.1" y2="49.99"/>
  <polyline class="cls-4" points="56.1 49.99 55.93 49.22 55.46 48.58 54.83 48.16 54.01 47.99 53.25 48.16 52.6 48.58 52.13 49.22 51.96 49.99"/>
  <polyline class="cls-4" points="51.96 49.99 52.34 53.37 52.59 55.56 52.82 57.55"/>
  <polyline class="cls-4" points="52.82 57.55 52.86 57.68 52.9 57.81 52.99 57.9 53.08 58.02 53.2 58.11 53.29 58.15 53.41 58.19 53.54 58.24"/>
  <polyline class="cls-4" points="53.54 58.24 59.91 58.24 59.95 58.24"/>
  <line class="cls-4" x1="59.95" y1="58.24" x2="59.95" y2="97.83"/>
  <polyline class="cls-4" points="59.95 97.83 54.08 119.21 52.47 125.04"/>
  <polyline class="cls-4" points="52.47 125.04 52.47 125.08 51.53 260.53"/>
  <line class="cls-4" x1="51.53" y1="260.53" x2="48.46" y2="263.6"/>
  <line class="cls-4" x1="47.26" y1="56.96" x2="47.26" y2="268.64"/>
  <polyline class="cls-4" points="47.26 268.64 47.39 269.15 47.69 269.62 48.12 269.92 48.67 270.01 49.19 269.92 49.65 269.62 49.95 269.15 50.04 268.64"/>
  <line class="cls-4" x1="50.04" y1="268.64" x2="50.04" y2="264.33"/>
  <line class="cls-4" x1="50.04" y1="264.33" x2="49.19" y2="264.33"/>
  <line class="cls-4" x1="49.19" y1="264.33" x2="49.19" y2="268.64"/>
  <polyline class="cls-4" points="49.19 268.64 49.14 268.85 49.06 269.03 48.84 269.15 48.67 269.2 48.46 269.15 48.29 269.03 48.16 268.85 48.12 268.64"/>
  <polyline class="cls-4" points="48.12 268.64 48.12 264.24 48.12 57 48.12 56.96"/>
  <line class="cls-4" x1="48.12" y1="56.96" x2="49.44" y2="56.83"/>
  <polyline class="cls-4" points="49.44 56.83 50.04 56.7 50.64 56.44 51.11 56.1 51.58 55.67 51.76 55.34 51.88 55.12 52.13 54.56 52.22 53.97 52.22 53.37"/>
  <line class="cls-4" x1="52.22" y1="53.37" x2="51.83" y2="49.99"/>
  <polyline class="cls-4" points="51.83 49.99 52.05 49.18 52.52 48.5 53.2 48.03 54.01 47.86 54.87 48.03 55.55 48.5 56.02 49.18 56.19 49.99"/>
  <line class="cls-4" x1="56.19" y1="49.99" x2="55.51" y2="56.23"/>
  <line class="cls-4" x1="55.51" y1="56.23" x2="56.36" y2="56.36"/>
  <polyline class="cls-4" points="56.36 56.36 56.78 52.46 57.04 50.04"/>
  <polyline class="cls-4" points="57.04 50.04 56.83 48.88 56.15 47.9 55.16 47.26 54.01 47 52.86 47.26 51.88 47.9 51.24 48.88 51.02 50.04"/>
  <polyline class="cls-4" points="51.02 50.04 51.26 52.46 51.36 53.45"/>
  <polyline class="cls-4" points="51.36 53.45 51.41 53.88 51.33 54.35 51.15 54.73 50.89 55.12 50.59 55.46 50.21 55.72 49.78 55.89 49.36 55.97"/>
  <line class="cls-4" x1="49.36" y1="55.97" x2="48.12" y2="56.1"/>
  <polyline class="cls-4" points="48.12 56.1 47.95 56.14 47.82 56.19 47.65 56.27 47.52 56.36 47.43 56.49 47.35 56.66 47.31 56.78 47.26 56.96"/>
  <polyline class="cls-4" points="93.35 264.8 93.35 265.05 93.31 265.12 93.26 265.22 93.23 265.31 93.18 265.44 93.05 265.61 92.88 265.74 92.8 265.77 92.67 265.82"/>
  <line class="cls-4" x1="92.24" y1="265.91" x2="92.24" y2="266.04"/>
  <line class="cls-4" x1="260.83" y1="261.94" x2="260.83" y2="261.85"/>
  <line class="cls-4" x1="260.83" y1="261.85" x2="256.72" y2="261.35"/>
  <polyline class="cls-4" points="91.21 265.22 91.39 265.52 91.68 265.78 92.07 265.91 92.24 265.91 92.45 265.91 92.67 265.82 92.79 265.78 92.8 265.77 93.09 265.52 93.23 265.31 93.31 265.18 93.31 265.12 93.35 264.8"/>
  <line class="cls-4" x1="128.59" y1="260.82" x2="101.34" y2="253.39"/>
  <line class="cls-4" x1="101.34" y1="253.39" x2="92.67" y2="260.95"/>
  <line class="cls-4" x1="90.83" y1="261.81" x2="90.02" y2="262.11"/>
  <polyline class="cls-4" points="92.5 264.8 92.5 264.92 92.45 264.97 92.37 265.05 92.28 265.05 92.2 265.05 92.11 265.05 92.07 264.97 91.98 264.92"/>
  <polyline class="cls-4" points="92.67 260.95 92.62 261 92.58 261.04 92.54 261.08 92.54 261.12 92.54 261.21 92.5 261.25 92.5 261.29"/>
  <line class="cls-4" x1="90.02" y1="262.11" x2="91.21" y2="265.22"/>
  <line class="cls-4" x1="101.59" y1="254.29" x2="128.59" y2="261.68"/>
  <line class="cls-4" x1="91.98" y1="264.92" x2="90.83" y2="261.81"/>
  <line class="cls-4" x1="93.35" y1="264.8" x2="93.35" y2="261.47"/>
  <line class="cls-4" x1="93.35" y1="261.47" x2="101.59" y2="254.29"/>
  <line class="cls-4" x1="255.96" y1="253.39" x2="216.36" y2="253.39"/>
  <line class="cls-4" x1="216.36" y1="253.39" x2="189.11" y2="260.82"/>
  <line class="cls-4" x1="189.11" y1="260.82" x2="128.59" y2="260.82"/>
  <line class="cls-4" x1="92.5" y1="261.29" x2="92.5" y2="264.8"/>
  <line class="cls-4" x1="128.59" y1="261.68" x2="189.11" y2="261.68"/>
  <line class="cls-4" x1="189.11" y1="261.68" x2="216.36" y2="254.25"/>
  <line class="cls-4" x1="216.36" y1="254.25" x2="255.96" y2="254.25"/>
  <line class="cls-4" x1="255.96" y1="254.25" x2="255.96" y2="260.61"/>
  <polyline class="cls-4" points="255.96 260.61 255.96 260.74 256 260.87 256.09 261 256.17 261.08 256.26 261.17 256.39 261.25 256.47 261.34 256.6 261.34"/>
  <polyline class="cls-4" points="256.6 261.34 256.72 261.35 264.16 262.19"/>
  <polyline class="cls-4" points="264.16 262.19 264.93 262.02 265.61 261.59 266.04 260.91 266.17 260.14 266.04 259.37 265.61 258.69 264.93 258.26 264.16 258.09"/>
  <line class="cls-4" x1="264.16" y1="258.09" x2="260.49" y2="258.52"/>
  <line class="cls-4" x1="260.49" y1="258.52" x2="260.58" y2="259.33"/>
  <line class="cls-4" x1="260.58" y1="259.33" x2="264.2" y2="258.95"/>
  <polyline class="cls-4" points="264.2 258.95 264.63 259.03 265.01 259.33 265.27 259.71 265.36 260.14 265.27 260.57 265.01 260.95 264.63 261.25 264.2 261.34"/>
  <line class="cls-4" x1="264.2" y1="261.34" x2="256.81" y2="260.53"/>
  <polyline class="cls-4" points="256.81 260.53 256.81 254.46 256.81 254.25"/>
  <polyline class="cls-4" points="256.81 254.25 256.77 254.08 256.73 253.91 256.64 253.78 256.56 253.65 256.43 253.52 256.26 253.48 256.13 253.39 255.96 253.39"/>
  <polyline class="cls-4" points="89.93 262.15 89.89 261.94 89.93 261.72 90.06 261.55 90.23 261.42 90.45 261.42 90.66 261.47 90.83 261.59 90.96 261.76"/>
  <line class="cls-4" x1="90.96" y1="261.76" x2="91.51" y2="263.26"/>
  <line class="cls-4" x1="92.28" y1="262.96" x2="91.73" y2="261.47"/>
  <line class="cls-4" x1="91.39" y1="266.04" x2="89.93" y2="262.15"/>
  <polyline class="cls-4" points="257.2 266.04 92.24 266.04 91.39 266.04"/>
  <polyline class="cls-4" points="91.73 261.47 91.43 261 91 260.7 90.49 260.57 89.93 260.65 89.46 260.95 89.16 261.38 89.04 261.89 89.12 262.45"/>
  <line class="cls-4" x1="91.39" y1="266.89" x2="257.2" y2="266.89"/>
  <line class="cls-4" x1="91.51" y1="263.26" x2="92.28" y2="262.96"/>
  <polyline class="cls-4" points="90.62 266.33 90.66 266.46 90.75 266.55 90.83 266.68 90.92 266.76 91.04 266.8 91.13 266.85 91.26 266.89 91.39 266.89"/>
  <polyline class="cls-4" points="257.2 266.89 257.37 266.89 257.54 266.85 257.67 266.76 257.79 266.63 257.92 266.51 257.97 266.38 258.05 266.21 258.05 266.04"/>
  <polyline class="cls-4" points="258.05 266.04 258.09 265.82 258.22 264.8"/>
  <polyline class="cls-4" points="258.22 264.8 258.31 264.37 258.48 263.94 258.73 263.6 259.03 263.26 259.42 263.05 259.85 262.87 260.27 262.79 260.75 262.79"/>
  <polyline class="cls-4" points="260.75 262.79 261.69 262.9 264.12 263.17"/>
  <polyline class="cls-4" points="264.12 263.17 265.27 262.96 266.25 262.28 266.94 261.29 267.15 260.14 266.94 258.99 266.25 258.01 265.27 257.36 264.12 257.11"/>
  <polyline class="cls-4" points="264.12 257.11 261.7 257.39 257.84 257.83"/>
  <line class="cls-4" x1="257.84" y1="257.83" x2="257.92" y2="258.65"/>
  <line class="cls-4" x1="257.92" y1="258.65" x2="264.16" y2="257.96"/>
  <polyline class="cls-4" points="264.16 257.96 264.97 258.13 265.7 258.6 266.12 259.33 266.29 260.14 266.12 260.95 265.7 261.68 264.97 262.15 264.16 262.32"/>
  <line class="cls-4" x1="264.16" y1="262.32" x2="260.83" y2="261.94"/>
  <polyline class="cls-4" points="260.83 261.94 260.19 261.94 259.59 262.06 259.03 262.28 258.52 262.62 258.09 263.05 257.71 263.56 257.5 264.11 257.37 264.71"/>
  <line class="cls-4" x1="257.37" y1="264.71" x2="257.2" y2="266.04"/>
  <line class="cls-4" x1="89.12" y1="262.45" x2="90.62" y2="266.33"/>
  <polyline class="cls-4" points="265.36 53.33 265.17 55.04 265.07 55.94"/>
  <line class="cls-4" x1="257.75" y1="254.2" x2="257.88" y2="254.2"/>
  <line class="cls-4" x1="269.46" y1="254.25" x2="269.59" y2="254.25"/>
  <polyline class="cls-4" points="265.48 53.37 265.36 53.33 265.36 53.33"/>
  <line class="cls-4" x1="262.02" y1="53.71" x2="262.88" y2="53.62"/>
  <line class="cls-4" x1="256.94" y1="58.24" x2="256.94" y2="97.83"/>
  <line class="cls-4" x1="256.94" y1="97.83" x2="264.37" y2="125.04"/>
  <line class="cls-4" x1="264.37" y1="125.04" x2="264.37" y2="185.61"/>
  <line class="cls-4" x1="264.37" y1="185.61" x2="256.94" y2="212.82"/>
  <line class="cls-4" x1="256.94" y1="212.82" x2="256.94" y2="254.25"/>
  <polyline class="cls-4" points="256.94 254.25 256.94 254.29 256.94 254.33 256.94 254.42 256.94 254.46 256.98 254.5 256.98 254.55 257.03 254.63 257.03 254.67"/>
  <line class="cls-4" x1="257.03" y1="254.67" x2="257.84" y2="256.04"/>
  <polyline class="cls-4" points="257.84 256.04 258.05 256.3 258.39 256.43 258.73 256.47 259.03 256.34 259.34 256.13 259.46 255.78 259.5 255.44 259.43 255.25 259.38 255.1"/>
  <line class="cls-4" x1="259.38" y1="255.1" x2="258.91" y2="254.25"/>
  <polyline class="cls-4" points="258.91 254.25 260.57 254.25 268.6 254.25"/>
  <line class="cls-4" x1="268.6" y1="254.25" x2="268.6" y2="265.91"/>
  <line class="cls-4" x1="268.6" y1="265.91" x2="269.46" y2="265.91"/>
  <line class="cls-4" x1="269.46" y1="265.91" x2="269.46" y2="254.25"/>
  <polyline class="cls-4" points="269.46 254.25 269.46 254.08 269.42 253.91 269.33 253.78 269.2 253.61 269.08 253.52 268.94 253.44 268.77 253.39 268.6 253.39"/>
  <line class="cls-4" x1="268.6" y1="253.39" x2="258.73" y2="253.39"/>
  <polyline class="cls-4" points="258.73 253.39 258.56 253.39 258.39 253.44 258.26 253.52 258.14 253.61 258.05 253.73 257.97 253.86 257.92 254.03 257.88 254.2"/>
  <line class="cls-4" x1="257.88" y1="254.2" x2="258.65" y2="255.53"/>
  <polyline class="cls-4" points="258.65 255.53 258.65 255.57 258.65 255.61 258.61 255.61 258.56 255.61"/>
  <line class="cls-4" x1="258.56" y1="255.61" x2="257.75" y2="254.25"/>
  <polyline class="cls-4" points="257.75 254.25 257.75 254.2 257.75 212.82"/>
  <line class="cls-4" x1="257.75" y1="212.82" x2="265.23" y2="185.61"/>
  <line class="cls-4" x1="265.23" y1="185.61" x2="265.23" y2="125.04"/>
  <line class="cls-4" x1="265.23" y1="125.04" x2="257.75" y2="97.83"/>
  <line class="cls-4" x1="257.75" y1="97.83" x2="257.75" y2="58.24"/>
  <line class="cls-4" x1="257.75" y1="58.24" x2="264.16" y2="58.24"/>
  <polyline class="cls-4" points="264.16 58.24 264.29 58.19 264.42 58.15 264.5 58.11 264.63 58.02 264.71 57.9 264.8 57.81 264.84 57.68 264.89 57.55"/>
  <polyline class="cls-4" points="264.89 57.55 265.07 55.94 265.17 55.04 265.36 53.33 265.74 49.99"/>
  <polyline class="cls-4" points="265.74 49.99 265.57 49.22 265.1 48.58 264.46 48.16 263.69 47.99 262.88 48.16 262.24 48.58 261.77 49.22 261.6 49.99"/>
  <line class="cls-4" x1="261.6" y1="49.99" x2="262.02" y2="53.71"/>
  <line class="cls-4" x1="262.88" y1="53.62" x2="262.45" y2="49.95"/>
  <polyline class="cls-4" points="262.45 49.95 262.58 49.52 262.84 49.18 263.22 48.93 263.69 48.84 264.12 48.93 264.5 49.18 264.76 49.52 264.89 49.95"/>
  <line class="cls-4" x1="264.89" y1="49.95" x2="264.08" y2="57.38"/>
  <polyline class="cls-4" points="264.08 57.38 257.92 57.38 257.75 57.38"/>
  <polyline class="cls-4" points="257.75 57.38 257.59 57.38 257.45 57.43 257.28 57.51 257.15 57.64 257.07 57.77 256.98 57.9 256.94 58.07 256.94 58.24"/>
  <line class="cls-4" x1="262.19" y1="56.23" x2="261.51" y2="49.99"/>
  <line class="cls-4" x1="269.46" y1="269.11" x2="269.46" y2="266.89"/>
  <polyline class="cls-4" points="269.46 266.89 269.46 266.72 269.42 266.59 269.33 266.42 269.25 266.29 269.11 266.21 268.94 266.12 268.77 266.08 268.64 266.04"/>
  <polyline class="cls-4" points="268.64 266.04 260.58 266.04 258.95 266.04"/>
  <polyline class="cls-4" points="258.95 266.04 259.54 265.03 259.76 264.67"/>
  <line class="cls-4" x1="259.76" y1="264.67" x2="259.03" y2="264.24"/>
  <line class="cls-4" x1="259.03" y1="264.24" x2="258.22" y2="265.61"/>
  <polyline class="cls-4" points="258.22 265.61 258.14 265.82 258.14 266.04 258.14 266.25 258.22 266.46 258.35 266.63 258.52 266.76 258.73 266.85 258.95 266.89"/>
  <line class="cls-4" x1="258.95" y1="266.89" x2="268.64" y2="266.89"/>
  <line class="cls-4" x1="268.64" y1="266.89" x2="268.64" y2="269.11"/>
  <polyline class="cls-4" points="268.64 269.11 268.69 269.45 268.9 269.75 269.2 269.97 269.54 270.01 269.88 269.97 270.14 269.75 270.35 269.45 270.44 269.11"/>
  <line class="cls-4" x1="270.44" y1="269.11" x2="270.44" y2="56.96"/>
  <polyline class="cls-4" points="270.44 56.96 270.4 56.78 270.35 56.66 270.27 56.49 270.18 56.36 270.05 56.27 269.88 56.19 269.75 56.14 269.59 56.1"/>
  <line class="cls-4" x1="269.59" y1="56.1" x2="268.35" y2="55.97"/>
  <polyline class="cls-4" points="268.35 55.97 267.88 55.89 267.5 55.72 267.11 55.46 266.81 55.12 266.55 54.73 266.38 54.35 266.29 53.88 266.34 53.45"/>
  <polyline class="cls-4" points="266.34 53.45 266.44 52.46 266.68 50.04"/>
  <polyline class="cls-4" points="266.68 50.04 266.47 48.88 265.82 47.9 264.84 47.26 263.69 47 262.5 47.26 261.51 47.9 260.87 48.88 260.66 50.04"/>
  <polyline class="cls-4" points="260.66 50.04 260.92 52.46 261.34 56.36"/>
  <line class="cls-4" x1="261.34" y1="56.36" x2="262.19" y2="56.23"/>
  <polyline class="cls-4" points="261.51 49.99 261.68 49.18 262.15 48.5 262.84 48.03 263.69 47.86 264.5 48.03 265.18 48.5 265.65 49.18 265.87 49.99"/>
  <line class="cls-4" x1="265.87" y1="49.99" x2="265.48" y2="53.37"/>
  <polyline class="cls-4" points="265.48 53.37 265.48 53.97 265.57 54.56 265.83 55.12 266.12 55.67 266.55 56.1 267.06 56.44 267.62 56.7 268.26 56.83"/>
  <line class="cls-4" x1="268.26" y1="56.83" x2="269.59" y2="56.96"/>
  <polyline class="cls-4" points="269.59 56.96 269.59 254.25 269.59 269.11"/>
  <polyline class="cls-4" points="269.59 269.11 269.59 269.15 269.54 269.15 269.54 269.2 269.5 269.2 269.5 269.15 269.46 269.11"/>
  <line class="cls-4" x1="260.58" y1="265.95" x2="261.98" y2="264.37"/>
  <line class="cls-4" x1="261.98" y1="264.37" x2="266.94" y2="265.86"/>
  <polyline class="cls-4" points="266.94 265.86 267.19 265.91 267.5 265.91 267.75 265.82 268 265.69 268.22 265.48 268.35 265.27 268.43 265.01 268.47 264.71"/>
  <line class="cls-4" x1="268.47" y1="264.71" x2="268.47" y2="255.57"/>
  <polyline class="cls-4" points="268.47 255.57 268.43 255.31 268.35 255.02 268.22 254.8 268 254.59 267.75 254.46 267.5 254.37 267.19 254.37 266.94 254.42"/>
  <line class="cls-4" x1="266.94" y1="254.42" x2="261.98" y2="255.91"/>
  <line class="cls-4" x1="261.98" y1="255.91" x2="260.58" y2="254.33"/>
  <line class="cls-4" x1="260.58" y1="254.33" x2="259.72" y2="255.14"/>
  <line class="cls-4" x1="259.72" y1="255.14" x2="261.68" y2="257.28"/>
  <line class="cls-4" x1="261.68" y1="257.28" x2="267.28" y2="255.57"/>
  <line class="cls-4" x1="267.28" y1="255.57" x2="265.61" y2="256.43"/>
  <line class="cls-4" x1="265.61" y1="256.43" x2="267.28" y2="258.05"/>
  <polyline class="cls-4" points="267.28 258.05 267.28 260.14 267.28 262.23"/>
  <line class="cls-4" x1="267.28" y1="262.23" x2="265.61" y2="263.86"/>
  <line class="cls-4" x1="265.61" y1="263.86" x2="267.28" y2="264.71"/>
  <line class="cls-4" x1="267.28" y1="264.71" x2="261.68" y2="263"/>
  <line class="cls-4" x1="261.68" y1="263" x2="259.72" y2="265.14"/>
  <line class="cls-4" x1="259.72" y1="265.14" x2="260.58" y2="265.95"/>
  <line class="cls-4" x1="58.58" y1="45.68" x2="49.44" y2="45.68"/>
  <line class="cls-4" x1="48.25" y1="53.62" x2="49.01" y2="54.48"/>
  <line class="cls-4" x1="59.83" y1="53.62" x2="58.25" y2="52.21"/>
  <line class="cls-4" x1="58.25" y1="52.21" x2="59.78" y2="47.26"/>
  <polyline class="cls-4" points="59.78 47.26 59.83 46.96 59.78 46.7 59.69 46.41 59.56 46.19 59.39 45.98 59.14 45.81 58.88 45.72 58.58 45.68"/>
  <polyline class="cls-4" points="49.44 45.68 49.19 45.72 48.93 45.81 48.67 45.98 48.5 46.19 48.33 46.41 48.25 46.7 48.25 46.96 48.29 47.26"/>
  <line class="cls-4" x1="48.29" y1="47.26" x2="49.78" y2="52.21"/>
  <line class="cls-4" x1="49.78" y1="52.21" x2="48.25" y2="53.62"/>
  <line class="cls-4" x1="49.01" y1="54.48" x2="51.15" y2="52.47"/>
  <line class="cls-4" x1="51.15" y1="52.47" x2="49.44" y2="46.92"/>
  <line class="cls-4" x1="49.44" y1="46.92" x2="50.3" y2="48.54"/>
  <line class="cls-4" x1="50.3" y1="48.54" x2="51.96" y2="46.92"/>
  <polyline class="cls-4" points="51.96 46.92 54.01 46.92 56.1 46.92"/>
  <line class="cls-4" x1="56.1" y1="46.92" x2="57.77" y2="48.54"/>
  <line class="cls-4" x1="57.77" y1="48.54" x2="58.58" y2="46.92"/>
  <line class="cls-4" x1="58.58" y1="46.92" x2="56.92" y2="52.47"/>
  <line class="cls-4" x1="56.92" y1="52.47" x2="59.01" y2="54.48"/>
  <line class="cls-4" x1="59.01" y1="54.48" x2="59.83" y2="53.62"/>
  <polyline class="cls-4" points="259.12 45.68 258.83 45.72 258.56 45.81 258.31 45.98 258.14 46.19 257.97 46.41 257.92 46.7 257.88 46.96 257.92 47.26"/>
  <line class="cls-4" x1="269.46" y1="53.62" x2="267.88" y2="52.21"/>
  <line class="cls-4" x1="267.88" y1="52.21" x2="269.42" y2="47.26"/>
  <polyline class="cls-4" points="269.42 47.26 269.46 46.96 269.42 46.7 269.37 46.41 269.2 46.19 269.03 45.98 268.77 45.81 268.52 45.72 268.26 45.68"/>
  <line class="cls-4" x1="268.26" y1="45.68" x2="259.12" y2="45.68"/>
  <line class="cls-4" x1="257.92" y1="47.26" x2="259.46" y2="52.21"/>
  <line class="cls-4" x1="259.46" y1="52.21" x2="257.88" y2="53.62"/>
  <line class="cls-4" x1="257.88" y1="53.62" x2="258.69" y2="54.48"/>
  <line class="cls-4" x1="258.69" y1="54.48" x2="260.78" y2="52.47"/>
  <line class="cls-4" x1="260.78" y1="52.47" x2="259.12" y2="46.92"/>
  <line class="cls-4" x1="259.12" y1="46.92" x2="259.93" y2="48.54"/>
  <line class="cls-4" x1="259.93" y1="48.54" x2="261.6" y2="46.92"/>
  <polyline class="cls-4" points="261.6 46.92 263.69 46.92 265.74 46.92"/>
  <line class="cls-4" x1="265.74" y1="46.92" x2="267.41" y2="48.54"/>
  <line class="cls-4" x1="267.41" y1="48.54" x2="268.26" y2="46.92"/>
  <line class="cls-4" x1="268.26" y1="46.92" x2="266.55" y2="52.47"/>
  <line class="cls-4" x1="266.55" y1="52.47" x2="268.64" y2="54.48"/>
  <line class="cls-4" x1="268.64" y1="54.48" x2="269.46" y2="53.62"/>
  <line class="cls-4" x1="59.95" y1="44.74" x2="48.25" y2="44.74"/>
  <line class="cls-4" x1="58.67" y1="55.5" x2="59.56" y2="56.06"/>
  <line class="cls-4" x1="48.25" y1="44.74" x2="48.25" y2="45.55"/>
  <line class="cls-4" x1="101.34" y1="57.25" x2="128.59" y2="49.82"/>
  <line class="cls-4" x1="128.59" y1="49.82" x2="189.11" y2="49.82"/>
  <line class="cls-4" x1="189.11" y1="49.82" x2="216.36" y2="57.25"/>
  <line class="cls-4" x1="216.36" y1="57.25" x2="257.75" y2="57.25"/>
  <polyline class="cls-4" points="257.75 57.25 257.84 57.25 257.88 57.25 257.92 57.25 258.01 57.21 258.05 57.21 258.09 57.17 258.14 57.17 258.18 57.13"/>
  <line class="cls-4" x1="258.18" y1="57.13" x2="259.55" y2="56.36"/>
  <polyline class="cls-4" points="259.55 56.36 259.8 56.1 259.97 55.8 259.97 55.46 259.89 55.12 259.63 54.86 259.34 54.69 259 54.69 258.65 54.78"/>
  <line class="cls-4" x1="258.65" y1="54.78" x2="257.75" y2="55.29"/>
  <line class="cls-4" x1="257.75" y1="55.29" x2="257.75" y2="45.55"/>
  <line class="cls-4" x1="257.75" y1="45.55" x2="269.46" y2="45.55"/>
  <line class="cls-4" x1="269.46" y1="45.55" x2="269.46" y2="44.7"/>
  <line class="cls-4" x1="269.46" y1="44.7" x2="257.75" y2="44.7"/>
  <polyline class="cls-4" points="257.45 44.78 257.28 44.83 257.15 44.95"/>
  <line class="cls-4" x1="257.71" y1="56.27" x2="259.03" y2="55.5"/>
  <polyline class="cls-4" points="259.03 55.5 259.08 55.5 259.12 55.5 259.12 55.55 259.17 55.55 259.17 55.59 259.12 55.63"/>
  <line class="cls-4" x1="259.12" y1="55.63" x2="257.75" y2="56.4"/>
  <line class="cls-4" x1="257.75" y1="56.4" x2="257.71" y2="56.4"/>
  <line class="cls-4" x1="59.95" y1="56.4" x2="58.58" y2="55.63"/>
  <polyline class="cls-4" points="58.58 55.63 58.54 55.59 58.54 55.55 58.58 55.55 58.58 55.5 58.62 55.5 58.67 55.5"/>
  <polyline class="cls-4" points="60.72 55.59 60.76 55.5 60.76 55.46"/>
  <polyline class="cls-4" points="59.97 56.14 60 56.14 60.2 56.1 60.38 56.02 60.43 55.96 60.55 55.85 60.67 55.67"/>
  <polyline class="cls-4" points="59.56 56.06 59.78 56.1 59.96 56.14"/>
  <line class="cls-4" x1="48.25" y1="45.55" x2="59.95" y2="45.55"/>
  <line class="cls-4" x1="59.95" y1="45.55" x2="59.95" y2="55.29"/>
  <line class="cls-4" x1="59.95" y1="55.29" x2="59.05" y2="54.78"/>
  <polyline class="cls-4" points="59.05 54.78 58.71 54.69 58.37 54.69 58.07 54.86 57.81 55.12 57.73 55.46 57.73 55.8 57.9 56.1 58.15 56.36"/>
  <line class="cls-4" x1="58.15" y1="56.36" x2="59.52" y2="57.13"/>
  <polyline class="cls-4" points="59.52 57.13 59.56 57.17 59.61 57.17 59.65 57.21 59.69 57.21 59.78 57.25 59.83 57.25 59.86 57.25 59.95 57.25"/>
  <polyline class="cls-4" points="59.95 57.25 60.08 57.25 101.34 57.25"/>
  <polyline class="cls-4" points="49.48 54.44 49.11 54.65 48.12 55.2"/>
  <polyline class="cls-4" points="48.12 55.2 48.12 53.62 48.12 44.61"/>
  <line class="cls-4" x1="257.75" y1="44.61" x2="269.59" y2="44.61"/>
  <line class="cls-4" x1="48.12" y1="44.61" x2="59.95" y2="44.61"/>
  <polyline class="cls-4" points="47.26 55.2 47.31 55.42 47.39 55.63 47.52 55.8 47.69 55.93 47.9 56.02 48.12 56.06 48.33 56.02 48.54 55.93"/>
  <line class="cls-4" x1="48.54" y1="55.93" x2="49.91" y2="55.16"/>
  <line class="cls-4" x1="49.91" y1="55.16" x2="49.48" y2="54.44"/>
  <line class="cls-4" x1="269.59" y1="44.61" x2="269.59" y2="55.2"/>
  <polyline class="cls-4" points="269.59 55.2 268.56 54.63 268.22 54.44"/>
  <line class="cls-4" x1="268.22" y1="54.44" x2="267.79" y2="55.16"/>
  <line class="cls-4" x1="267.79" y1="55.16" x2="269.16" y2="55.93"/>
  <polyline class="cls-4" points="269.16 55.93 269.37 56.02 269.59 56.06 269.8 56.02 270.01 55.93 270.18 55.8 270.31 55.63 270.4 55.42 270.44 55.2"/>
  <line class="cls-4" x1="270.44" y1="55.2" x2="270.44" y2="43.76"/>
  <line class="cls-4" x1="270.44" y1="43.76" x2="47.26" y2="43.76"/>
  <line class="cls-4" x1="47.26" y1="43.76" x2="47.26" y2="55.2"/>
  <line class="cls-4" x1="60.76" y1="45.55" x2="60.76" y2="55.29"/>
  <polyline class="cls-4" points="60.76 55.29 60.76 55.46 60.72 55.59 60.67 55.67 60.63 55.76 60.55 55.89 60.43 55.96 60.42 55.97 60.25 56.06 60.08 56.1 59.97 56.14 59.96 56.14 59.95 56.14"/>
  <line class="cls-4" x1="59.95" y1="56.14" x2="59.95" y2="56.4"/>
  <line class="cls-4" x1="59.95" y1="56.4" x2="101.34" y2="56.4"/>
  <line class="cls-4" x1="257.75" y1="44.61" x2="59.95" y2="44.61"/>
  <line class="cls-4" x1="59.95" y1="44.61" x2="59.95" y2="44.74"/>
  <line class="cls-4" x1="101.34" y1="56.4" x2="128.59" y2="48.97"/>
  <line class="cls-4" x1="128.59" y1="48.97" x2="189.11" y2="48.97"/>
  <line class="cls-4" x1="189.11" y1="48.97" x2="216.36" y2="56.4"/>
  <line class="cls-4" x1="216.36" y1="56.4" x2="257.71" y2="56.4"/>
  <line class="cls-4" x1="257.71" y1="56.4" x2="257.71" y2="56.27"/>
  <polyline class="cls-4" points="257.71 56.27 257.54 56.27 257.42 56.23 257.24 56.14 257.15 56.02 257.03 55.89 256.94 55.76 256.9 55.59 256.9 55.46"/>
  <line class="cls-4" x1="256.9" y1="55.46" x2="256.9" y2="45.59"/>
  <polyline class="cls-4" points="256.9 45.59 256.9 45.42 256.98 45.25 257.03 45.08 257.15 44.95 257.28 44.87 257.45 44.78 257.59 44.7 257.75 44.7"/>
  <line class="cls-4" x1="257.75" y1="44.7" x2="257.75" y2="44.61"/>
  <polyline class="cls-4" points="59.95 44.74 60.08 44.74 60.25 44.78 60.42 44.87 60.55 44.95 60.63 45.08 60.72 45.25 60.76 45.42 60.76 45.55"/>
  <line class="cls-6" x1="277.42" y1="42.48" x2="300.77" y2="42.48"/>
  <line class="cls-6" x1="295.99" y1="53.48" x2="295.99" y2="267.28"/>
  <polygon class="cls-2" points="295.99 42.48 293.93 53.21 298.04 53.21 295.99 42.48"/>
  <polygon class="cls-6" points="295.99 42.48 293.93 53.21 298.04 53.21 295.99 42.48"/>
  <polygon class="cls-2" points="295.99 267.21 293.93 256.48 298.04 256.48 295.99 267.21"/>
  <polygon class="cls-6" points="295.99 267.21 293.93 256.48 298.04 256.48 295.99 267.21"/>
  <line class="cls-6" x1="277.42" y1="267.28" x2="300.77" y2="267.28"/>
  <text class="cls-3" transform="translate(293.34 186.39) rotate(-90)"><tspan x="0" y="0">155 / 185 / 215</tspan></text>
  <line class="cls-6" x1="270.46" y1="11.2" x2="270.46" y2="34.55"/>
  <polygon class="cls-2" points="270.46 16.77 259.73 14.71 259.73 18.83 270.46 16.77"/>
  <polygon class="cls-6" points="270.46 16.77 259.73 14.71 259.73 18.83 270.46 16.77"/>
  <polygon class="cls-2" points="47.73 16.77 58.46 14.71 58.46 18.83 47.73 16.77"/>
  <polygon class="cls-6" points="47.73 16.77 58.46 14.71 58.46 18.83 47.73 16.77"/>
  <line class="cls-6" x1="47.66" y1="11.2" x2="47.66" y2="34.55"/>
  <text class="cls-3" transform="translate(127.55 14.13)"><tspan x="0" y="0">155 / 185 / 215</tspan></text>
</svg>