<?xml version="1.0" encoding="UTF-8"?>
<svg id="Capa_1" data-name="Capa 1" xmlns="http://www.w3.org/2000/svg" viewBox="0 0 348.03 313.94">
  <defs>
    <style>
      .cls-1, .cls-2 {
        fill: gray;
      }

      .cls-3 {
        stroke-width: .5px;
      }

      .cls-3, .cls-4 {
        fill: none;
        stroke: gray;
        stroke-linecap: round;
        stroke-linejoin: round;
      }

      .cls-4 {
        stroke-width: .25px;
      }

      .cls-2 {
        font-family: MyriadPro-Regular, 'Myriad Pro';
        font-size: 10px;
      }
    </style>
  </defs>
  <path class="cls-3" d="m63.69,262.29v3.85m114-1.15v-8.05m-18.8,8.05h18.8m-18.8-6.25v6.25m18.8-8.05l-2.35.4-2.35.35-2.3.3-2.35.25-2.35.25-2.4.1-2.35.1-2.35.05m53.2-5.65v11.9m5.9-11.9h-5.9m5.9,11.9v-11.9m-5.9,11.9h5.9m-60.1,0v-6.25m-18.75,6.25h18.75m-18.75-8.05v8.05m18.75-6.25l-2.35-.05-2.35-.1-2.35-.1-2.4-.25-2.35-.25-2.3-.3-2.35-.35-2.3-.4m39.5-.2v8.25m13.35-11.9l-1.65.55-1.65.5-1.65.5-1.65.5-1.65.45-1.7.4-1.7.4-1.7.35m26.65-3.65h-13.3m13.3,11.9v-11.9m-26.65,11.9h26.65m-120,0v-11.85m-20.45,11.85h20.45m-20.45-11.85v11.85m20.45-11.85h-20.45m-1.15,3.2v4.8m0,0h-3.45m0,0h-.1l-.05.05h-.1l-.05.05-.05.05m0,0l-.65.35-.7.2h-.7l-.7-.1-.65-.3-.6-.45-.45-.55-.35-.65m0,0h-1.15m0,0l.35.95.55.8.75.65.85.5.95.25,1,.05.95-.2.9-.4m0,0l.05-.05h.1v-.05h.15m0,0h3.15m0,3.85h158.75m0,0v-4.2m0,0h-1m0,0v3.05m0,0h-2.45m0,0v-11.9m0,0h2.45m0,0v3.05m0,0h1m0,0v-4.2m0,0h-30.65m0,0l-7.2,2.25-7.4,1.65-7.45,1.15-7.55.55h-7.6l-7.55-.55-7.45-1.15-7.4-1.65-7.2-2.25m0,0h-61.3m0,0v3.25m0,0h-3.15m0,0h-.15l-.05-.05h-.05m0,0l-.9-.45-1-.2-1,.05-.95.25-.85.5-.75.65-.55.8-.35.95m0,0h1.15m0,0l.35-.65.45-.55.6-.45.65-.3.7-.1.75.05.65.2.65.35m0,0h.05v.05h.1l.05.05h.1m0,0h3.5m74.45,8.65v-8.25m-18.8,8.25h18.8m-18.8-11.9v11.9m5.45-11.9h-5.45m18.8,3.65l-1.7-.35-1.7-.4-1.7-.4-1.65-.45-1.65-.5-1.65-.5-1.65-.5-1.65-.55m-6.6,6.7v-2.95m0,4.25l-.2-.05-.25-.15-.1-.2-.05-.25.05-.25.1-.2.25-.15.2-.05m0,5.2v-3.9m-4.5,3.9h4.5m-4.5-3.9v3.9m0-5.2l.25.05.2.15.1.2.05.25-.05.25-.1.2-.2.15-.25.05m0-4.25v2.95m0-4.25l.25.05.2.15.1.2.05.25-.05.25-.1.2-.2.15-.25.05m0-3.75v2.45m4.5-2.45h-4.5m4.5,2.45v-2.45m0,3.75l-.2-.05-.25-.15-.1-.2-.05-.25.05-.25.1-.2.25-.15.2-.05m-26.1-2.45v11.95m20.45-11.95h-20.45m20.45,11.95v-11.95m-20.45,11.95h20.45m93.9-11.95v2.45m4.55-2.45h-4.55m4.55,2.45v-2.45m0,3.75l-.25-.05-.2-.15-.15-.2-.05-.25.05-.25.15-.2.2-.15.25-.05m0,4.25v-2.95m0,4.25l-.25-.05-.2-.15-.15-.2-.05-.25.05-.25.15-.2.2-.15.25-.05m0,5.2v-3.9m-4.55,3.9h4.55m-4.55-3.9v3.9m0-5.2l.25.05.2.15.15.2.05.25-.05.25-.15.2-.2.15-.25.05m0-4.25v2.95m0-4.25l.25.05.2.15.15.2.05.25-.05.25-.15.2-.2.15-.25.05m-115.5,3v-3m0,4.25l-.2-.05-.25-.1-.1-.2-.05-.25.05-.25.1-.2.25-.15.2-.05m0,5.15v-3.9m-4.5,3.9h4.5m-4.5-3.9v3.9m0-5.15l.25.05.2.15.15.2v.5l-.15.2-.2.1-.25.05m0-4.25v3m0-4.25l.25.05.2.15.15.2v.5l-.15.2-.2.1-.25.05m0-3.75v2.5m4.5-2.5h-4.5m4.5,2.5v-2.5m0,3.75l-.2-.05-.25-.1-.1-.2-.05-.25.05-.25.1-.2.25-.15.2-.05m165.65-144.8l.85.65,1,.4,1.1.15,1.05-.15,1-.4.85-.65.7-.85.4-1m-1.95,156.8v.15l.05.05.05.05.05.05.05.05h.05l.1.05m0,0h5.35m0,0v6.15m0,0l.1.35.2.3.3.2.35.05.35-.05.3-.2.2-.3.05-.35m0,0v-6.15m0,0v-.3l-.05-.3-.15-.25-.15-.25-.15-.2-.25-.2-.2-.15-.3-.1m0,0l-.05-.05h-.05v-.05l-.05-.05-.05-.05v-.15m0,0V85.19m0,0v-.4l.05-.2.1-.2.1-.2.1-.2.1-.15.15-.15m0,0l1.3-1.3m0,0l.15-.15.1-.2.15-.15.05-.2.1-.2.05-.2v-.2l.05-.2m0,0v-33.45m0,0l-.1-.4-.2-.3-.35-.25-.35-.05-.4.05-.3.25-.25.3-.05.4m0,0v33.45m0,0h-3.4m0,0v-1.15m0,0l-1.65-5.5m0,0l-.3-.4-.3-.4-.4-.35-.4-.3-.45-.25-.5-.15-.5-.15h-.5m0,0l-.7.05-.7.25-.65.4-.5.5-.4.6-.25.7-.05.7.05.75m0,0l.8,2.7m0,0v2.1m0,0l.1.3.15.25.2.15.3.05.25-.05.25-.15.15-.25.05-.3m0,0v-2.35m0,0l.15-1.35m0,0l-.45-1.6m0,0l-.05-.25.05-.3.1-.25.15-.2.2-.2.25-.15.25-.1.3-.05m0,0l.2.05.25.05.2.05.2.1.2.1.15.15.15.15.15.2m0,0l1.5,5m0,0v.85m0,0l.15.4.2.4.25.3.35.3.35.25.4.15.45.15h.4m0,0v23.85m0,0h-1.85m0,0l-.4-1-.7-.85-.85-.65-1-.45-1.05-.1-1.1.1-1,.4-.85.65m0,0l-.2.35-.1.35.1.35.2.35.3.2.35.05.4-.05.3-.2m0,0l.8-.5.95-.15.95.25.7.65.4.9v.95l-.4.85-.7.65-.95.25-.95-.1-.8-.5m0,0l-.3-.2-.4-.1-.35.1-.3.2-.2.3-.1.35.1.4.2.3m6.95-1.85h1.85m0,0v105.75m0,0h-1.85m0,0l-.4-1-.7-.85-.85-.65-1-.45-1.05-.1-1.1.1-1,.45-.85.65m0,0l-.2.3-.1.35.1.35.2.35.3.2.35.05.4-.05.3-.2m0,0l.8-.5.95-.15.95.3.7.6.4.9v.95l-.4.85-.7.65-.95.25-.95-.1-.8-.5m0,0l-.3-.2-.4-.1-.35.1-.3.2-.2.3-.1.4.1.35.2.3m0,0l.85.65,1,.4,1.1.15,1.05-.15,1-.4.85-.65.7-.85.4-1m0,0h1.85m0,0v19.4m0,0h-3.45m0,0h-.1l-.05.05h-.05l-.05.05-.05.05-.05.1v.1m0,0v4.7m0,0v.15l.05.05.05.05.05.05h.05l.05.05h.1m0,0h.7m0,0h.05l.1-.05h.05l.05-.05.05-.05v-.05l.05-.1v-.05m0,0v-2.9m0,0v-.1l.05-.05.05-.05.05-.05.1-.05h.05m0,0h1.85m0,0h.05l.05.05h.05l.05.05v.05l.05.05v.1m0,0v12.6m0,0v.1l-.05.05v.05l-.05.05h-.05l-.05.05h-.05m0,0h-1.85m0,0h-.05l-.1-.05-.05-.05-.05-.05-.05-.05v-.1m0,0v-2.9m0,0v-.05l-.05-.1v-.05l-.05-.05-.05-.05-.05-.05h-.15m0,0h-.7m0,0h-.15l-.05.05-.05.05-.05.05-.05.05v.15m0,0v6.8m0,0v.15l.05.05.05.05.05.05.05.05h.15m0,0h.7m0,0h.15l.05-.05.05-.05.05-.05v-.05l.05-.1v-.05m0,0v-1.5m0,0v-.1l.05-.05.05-.05h.05v-.05h.15m0,0h1.85m0,0h.1l.05.05h.05v.05l.05.05v.1m0,0v10.5m0,0v.1l-.05.05v.05l-.05.05h-.05l-.05.05h-.05m0,0h-1.85m0,0h-.05l-.1-.05-.05-.05-.05-.05-.05-.05v-.1m0,0v-1.5m0,0v-.05l-.05-.05v-.1l-.05-.05-.05-.05h-.05l-.1-.05h-.05m0,0h-.7m0,0h-.1l-.05.05h-.05l-.05.05-.05.05-.05.1v.1m0,0v3.25M59.09,105.54l-.05.25-.1.2-.25.15-.2.05-.25-.05-.2-.15-.15-.2-.05-.25m-8.15,50.25h6.25m-6.25-20.5v20.5m8.4-20.5h-8.4m6.25,20.5v-2.6l.15-2.55.15-2.6.25-2.55.3-2.55.35-2.55.45-2.55.5-2.55m-.25,87.75h-3m4.25,0l-.05.25-.1.2-.25.15h-.45l-.2-.15-.15-.2-.05-.25m3.75,0h-2.5m2.5,4.5v-4.5m-2.5,4.5h2.5m-3.75,0l.05-.2.15-.25.2-.1.25-.05.2.05.25.1.1.25.05.2m-4.25,0h3m-4.25,0l.05-.2.15-.25.2-.1.25-.05.2.05.25.1.1.25.05.2m-5.15,0h3.9m-3.9-4.5v4.5m3.9-4.5h-3.9m5.15,0l-.05.25-.1.2-.25.15h-.45l-.2-.15-.15-.2-.05-.25m8-100.4v-11.45m-3.3,23.1l.35-1.45.35-1.45.4-1.5.4-1.45.4-1.45.45-1.45.45-1.45.5-1.45m-11.9,11.65h8.6m-8.6-23.1v23.1m11.9-23.1h-11.9m0-6.8h11.9m-11.9-21.55v21.55m2.45-22.4l-2.45.85m9.45-.85h-7m9.45.85l-2.45-.85m2.45,22.4v-21.55m-3.4-4.45l1-1.1.55-1.4.05-1.45-.5-1.45-.9-1.15-1.3-.75-1.45-.25-1.45.25-1.3.75-.95,1.15-.45,1.45.05,1.45.55,1.4,1,1.1m5.1,2.5v-2.5m-5.1,2.5h5.1m-5.1-2.5v2.5m9.65,108.8l-2.25-7.25-1.7-7.35-1.1-7.5-.55-7.55v-7.55l.55-7.55,1.1-7.5,1.7-7.35,2.25-7.25m0,0v-40.85m0,0l-3.4-1.1m0,0v-2m0,0l1-1.35.55-1.6v-1.65l-.5-1.6-.95-1.4-1.35-1-1.6-.5h-1.7l-1.6.5-1.35,1-1,1.4-.5,1.6.05,1.65.55,1.6,1,1.35m0,0v2m0,0l-3.4,1.1m0,0v182.4m0,0h0v.1l-.05.05-.05.05m0,0l-.2.15-.15.15-.15.2-.1.15-.1.2-.05.25-.05.2v.25m0,0v6.15m0,0l.05.2.1.2.2.1.2.05.2-.05.2-.1.1-.2.05-.2m0,0v-6.15m0,0h14m0,0v-3m0,0l-.05-.1v-.05h-.05l-.05-.05-.05-.05h-.05l-.05-.05h-.05m0,0h-.7m0,0h-.1l-.05.05-.05.05h-.05l-.05.05-.05.1v.1m0,0v1.8m0,0h-1.45m0,0v-1.8m0,0v-.1l-.05-.1-.05-.05h-.05l-.05-.05-.1-.05h-.05m0,0h-.7m0,0h-.05l-.1.05-.05.05h-.05l-.05.05-.05.1v.1m0,0v1.8m0,0h-8.8m0,0v-12.5m0,0h8.8m0,0v1.8m0,0v.15l.05.05.05.05.05.05h.05l.1.05h.05m0,0h.7m0,0h.05l.1-.05h.05l.05-.05.05-.05.05-.05v-.15m0,0v-1.8m0,0h1.45m0,0v1.8m0,0v.15l.05.05.05.05.05.05h.05l.05.05h.1m0,0h.7m0,0h.1l.05-.05.05-.05h.05l.05-.05v-.05l.05-.05m0,0v-64.7m-1.15,39h-11.9m11.9,22.7v-22.7m-11.9,22.7h11.9m-11.9-22.7v22.7m8.35-74.3h-8.35m11.9,12.8l-.55-1.55-.5-1.6-.45-1.6-.45-1.6-.45-1.6-.4-1.6-.4-1.6-.35-1.65m3.55,22.5v-9.7m-11.9,9.7h11.9m-11.9-22.5v22.5m6.25-42.8h-6.25m8.15,19.3l-.45-2.35-.35-2.4-.35-2.45-.25-2.4-.25-2.45-.15-2.4-.1-2.45v-2.4m-6.25,19.3h8.15m-8.15-19.3v19.3m11.9,24.5h-11.9m11.9,21.3v-21.3m-11.9,21.3h11.9m-11.9-21.3v21.3m8.15-116.35h-3m6.75,0h-2.5m2.5,4.5v-4.5m-2.5,4.5h2.5m-3.75,0l.05-.2.15-.25.2-.1.25-.05.2.05.25.1.1.25.05.2m-4.25.05l3-.05m-4.25.05l.05-.25.15-.2.2-.15.25-.05.2.05.25.15.1.2.05.25m-5.15-.05l3.9.05m-3.9-4.55v4.5m3.9-4.5h-3.9m5.15,0l-.05.25-.1.2-.25.15-.2.05-.25-.05-.2-.15-.15-.2-.05-.25m154.35-57.95v11.9m25.6-11.9h-25.6m25.6,11.9v-11.9m-25.6,11.9h25.6m-124.7,0v-11.9m-25.6,11.9h25.6m-25.6-11.9v11.9m25.6-11.9h-25.6m50.15,9.3v-9.3m-8.6,11.9l1.05-.4,1.05-.35,1.1-.3,1.05-.35,1.1-.3,1.05-.3,1.1-.3,1.1-.3m-23.55,2.6h14.95m-14.95-11.9v11.9m23.55-11.9h-23.55m156.85,1.05l-11.65,11.7m12.05-10.35v-.35l-.05-.2-.05-.15-.05-.15-.05-.2-.1-.15-.1-.15m.4,18.65v-17.3m-11.9,17.3h11.9m-11.9-6.35v6.35m-.15-6.95l.05.05v.1l.05.05v.1l.05.05v.25m-.85-1.3l11.65-11.7m-12.3,11.55h.35l.05.05h.1l.1.05.05.05m-13.95-.15h13.3m-13.3-11.9v11.9m24.3-11.9h-24.3m25.6.35l-.15-.05-.15-.1-.15-.05-.15-.05-.2-.05-.15-.05h-.35m-106.8,6.2v-6.2m-23.5,9.05l2.85-.65,2.95-.55,2.9-.5,2.95-.4,2.95-.3,2.95-.25,3-.15,2.95-.05m-23.5-6.2v9.05m23.5-9.05h-23.5m-9.4,13l7.2-2.2,7.4-1.7,7.45-1.1,7.55-.6h7.6l7.55.6,7.45,1.1,7.4,1.7,7.2,2.2m0,0h61.9m0,0h.1l.05.05.05.05h.05l.05.05.05.1v.1m0,0v19.95m0,0h3.4m0,0v-1.15m0,0h-2.25m0,0v-11.35m0,0h11.9m0,0v11.35m0,0h-2.25m0,0v1.15m0,0h3.4m0,0v-30.9m0,0l-.05-.7-.25-.65-.3-.65-.45-.5-.55-.45-.6-.35-.65-.2-.7-.05m0,0H52.09m0,0l-.7.05-.65.2-.6.35-.55.45-.45.5-.3.65-.2.65-.1.7m0,0v30.9m0,0h3.4m0,0v-1.15m0,0h-2.25m0,0v-11.35m0,0h11.9m0,0v11.35m0,0h-2.25m0,0v1.15m0,0h3.4m0,0v-19.95m0,0v-.1l.05-.1.05-.05h.05l.05-.05.05-.05h.1m0,0h61.9m-75.3-10.6v17.3m.4-18.65l-.1.15-.1.15-.05.2-.05.15-.05.15-.05.2v.35m12.05,10.35l-11.65-11.7m11.5,12.3v-.25l.05-.05v-.1l.05-.05v-.1l.05-.05m-.15,6.95v-6.35m-11.9,6.35h11.9m-10.8-19.35l11.65,11.7m-10.35-12.05h-.35l-.15.05-.2.05-.15.05-.15.05-.15.1-.15.05m25.6-.35h-24.3m24.3,11.9v-11.9m-13.3,11.9h13.3m-13.95.15l.05-.05.1-.05h.1l.05-.05h.35m128.9,0h14.95m-23.55-2.6l1.1.3,1.1.3,1.05.3,1.1.3,1.05.35,1.1.3,1.05.35,1.05.4m-8.6-11.9v9.3m23.55-9.3h-23.55m23.55,11.9v-11.9m-124.85,8.15v-3m0,4.25l-.25-.05-.2-.15-.15-.2-.05-.25.05-.25.15-.2.2-.15h.25m0,3.75v-2.5m-4.55,2.5h4.55m-4.55-2.5v2.5m0-3.75h.25l.2.15.15.2.05.25-.05.25-.15.2-.2.15-.25.05m0-4.25v3m0-4.3l.25.05.2.15.15.2.05.25-.05.25-.15.2-.2.15-.25.05m0-5.15v3.85m4.55-3.85h-4.55m4.55,3.85v-3.85m0,5.15l-.25-.05-.2-.15-.15-.2-.05-.25.05-.25.15-.2.2-.15.25-.05m76.8,2.35l2.95.05,3,.15,2.95.25,2.95.3,2.95.4,2.9.5,2.95.55,2.85.65m-23.5-9.05v6.2m23.5-6.2h-23.5m23.5,9.05v-9.05m52.3,5.15v3m0-4.3l.25.05.2.15.15.2.05.25-.05.25-.15.2-.2.15-.25.05m0-5.15v3.85m4.55-3.85h-4.55m4.55,3.85v-3.85m0,5.15l-.25-.05-.2-.15-.15-.2-.05-.25.05-.25.15-.2.2-.15.25-.05m0,4.3v-3m0,4.25l-.25-.05-.2-.15-.15-.2-.05-.25.05-.25.15-.2.2-.15h.25m0,3.75v-2.5m-4.55,2.5h4.55m-4.55-2.5v2.5m0-3.75h.25l.2.15.15.2.05.25-.05.25-.15.2-.2.15-.25.05"/>
  <line class="cls-4" x1="277.05" y1="46.38" x2="300.4" y2="46.38"/>
  <line class="cls-4" x1="295.62" y1="57.38" x2="295.62" y2="265.18"/>
  <polygon class="cls-1" points="295.62 46.38 293.56 57.11 297.67 57.11 295.62 46.38"/>
  <polygon class="cls-4" points="295.62 46.38 293.56 57.11 297.67 57.11 295.62 46.38"/>
  <polygon class="cls-1" points="295.62 265.11 293.56 254.38 297.67 254.38 295.62 265.11"/>
  <polygon class="cls-4" points="295.62 265.11 293.56 254.38 297.67 254.38 295.62 265.11"/>
  <line class="cls-4" x1="277.05" y1="265.18" x2="300.4" y2="265.18"/>
  <text class="cls-2" transform="translate(292.97 176.29) rotate(-90)"><tspan x="0" y="0">155 / 185</tspan></text>
  <line class="cls-4" x1="270.08" y1="15.1" x2="270.08" y2="38.45"/>
  <line class="cls-4" x1="259.08" y1="20.67" x2="49.28" y2="20.67"/>
  <polygon class="cls-1" points="270.08 20.67 259.36 18.62 259.36 22.73 270.08 20.67"/>
  <polygon class="cls-4" points="270.08 20.67 259.36 18.62 259.36 22.73 270.08 20.67"/>
  <polygon class="cls-1" points="49.36 20.67 60.08 18.62 60.08 22.73 49.36 20.67"/>
  <polygon class="cls-4" points="49.36 20.67 60.08 18.62 60.08 22.73 49.36 20.67"/>
  <line class="cls-4" x1="49.28" y1="15.1" x2="49.28" y2="38.45"/>
  <text class="cls-2" transform="translate(140.17 18.03)"><tspan x="0" y="0">155 / 185</tspan></text>
</svg>