<?xml version="1.0" encoding="UTF-8"?>
<svg id="Capa_1" data-name="Capa 1" xmlns="http://www.w3.org/2000/svg" viewBox="0 0 348.03 310.4">
  <defs>
    <style>
      .cls-1, .cls-2 {
        fill: gray;
      }

      .cls-3 {
        stroke-width: .5px;
      }

      .cls-3, .cls-4 {
        fill: none;
        stroke: gray;
        stroke-linecap: round;
        stroke-linejoin: round;
      }

      .cls-4 {
        stroke-width: .25px;
      }

      .cls-2 {
        font-family: MyriadPro-Regular, 'Myriad Pro';
        font-size: 10px;
      }
    </style>
  </defs>
  <path class="cls-3" d="m268.19,268.68l.05.35.2.3.3.2.35.05.35-.05.3-.2.2-.3.1-.35m-4.35-192.55l-1.65-5.5m-1.6,191.5v.1l.05.05v.05l.05.05.05.05.05.05h.15m0,0h5.4m0,0v6.2m-10.7-53.5l.85.65,1,.4,1.05.15,1.1-.15,1-.45.85-.65.65-.85.45-.95m5.6,55.35v-6.2m0,0l-.05-.25-.05-.3-.1-.25-.15-.25-.2-.25-.2-.15-.25-.15-.25-.15m0,0h-.05l-.05-.05h-.05l-.05-.05v-.05l-.05-.05v-.1m0,0V81.58m0,0v-.25l.05-.2.05-.2.05-.2.1-.15.1-.2.15-.15.1-.15m0,0l1.35-1.35m0,0l.1-.15.15-.15.1-.2.1-.15.05-.2.05-.2.05-.25v-.2m0,0v-33.45m0,0l-.1-.35-.2-.35-.3-.2-.4-.05-.35.05-.35.2-.2.35-.1.35m0,0v33.45m0,0h-3.4m0,0v-1.1m.6,158.7v12.65m-2.25-176.85l-.25-.45-.35-.4-.35-.35-.4-.3-.5-.2-.45-.2-.5-.1-.55-.05m0,0l-.7.1-.7.25-.6.4-.5.5-.4.6-.25.7-.1.7.1.75m0,0l.8,2.7m0,0v2.1m0,0l.05.3.15.2.25.15.25.05.25-.05.25-.15.15-.2.05-.3m0,0v-2.35m0,0l.2-1.35m0,0l-.5-1.6m0,0v-.3l.05-.25.1-.25.15-.25.2-.2.25-.15.25-.05.25-.05m0,0h.25l.2.05.25.1.2.1.15.1.2.15.15.15.1.2m0,0l1.55,5m0,0v.8m0,0l.1.45.25.35.25.35.3.3.4.25.4.15.4.1.45.05m0,0v23.8m0,0h-1.85m0,0l-.45-1-.65-.85-.85-.65-1-.4-1.1-.15-1.05.15-1,.4-.85.65m0,0l-.25.3-.05.4.05.35.2.3.3.2.4.1.35-.05.3-.25m0,0l.85-.5.95-.1.9.25.7.65.4.85v.95l-.4.9-.7.65-.9.25-.95-.15-.85-.5m0,0l-.3-.2-.35-.05-.4.05-.3.25-.2.3-.05.35.05.35.25.35m0,0l.85.65,1,.4,1.05.1,1.1-.1,1-.45.85-.65.65-.85.45-1m0,0h1.85m0,0v105.75m0,0h-1.85m0,0l-.45-1-.65-.85-.85-.65-1-.4-1.1-.15-1.05.15-1,.4-.85.65m0,0l-.25.3-.05.4.05.35.2.3.3.2.4.1.35-.05.3-.2m0,0l.85-.55.95-.1.9.25.7.65.4.85v1l-.4.85-.7.65-.9.25-.95-.1-.85-.55m0,0l-.3-.2-.35-.05-.4.05-.3.25-.2.3-.05.35.05.35.25.35m5.3,29.05h-.15l-.05.05-.05.05-.05.05v.05l-.05.05v.1m2-31.25h1.85m0,0v19.4m0,0h-3.5m0,0h-.15l-.05.05-.05.05-.05.05v.05l-.05.1v.05m0,0v4.7m0,0v.05l.05.05v.1l.05.05h.05l.05.05.1.05h.05m0,0h.7m0,0h.1l.05-.05.05-.05h.05l.05-.05.05-.1v-.1m0,0v-2.95m0,0l.05-.05v-.1l.05-.05h.05l.05-.05h.1m0,0h1.85m0,0h.1l.05.05h.05l.05.05v.05l.05.05v.05m-2.45,25.55v-1.5m2.45-11.4v.05l-.05.05v.05l-.05.05h-.05l-.05.05h-.1m0,0h-1.85m0,0h-.1l-.05-.05h-.05l-.05-.05v-.1l-.05-.05m0,0v-2.9m0,0v-.15l-.05-.05-.05-.05-.05-.05-.05-.05h-.15m0,0h-.7m3.5,16.15v.05l-.05.05v.05l-.05.05h-.05l-.05.05h-.1m-3.55-16.05v6.8m0,0v.05l.05.05v.1l.05.05.05.05h.05l.1.05h.05m0,0h.7m0,0h.1l.05-.05h.05l.05-.05.05-.05.05-.1v-.1m0,0v-1.5m0,0l.05-.05v-.1l.05-.05.05-.05h.05l.05-.05h.05m0,0h1.85m0,0h.05l.05.05h.05l.05.05.05.05v.05l.05.05v.05m0,0v10.5m-2.8-1.85h-.7m3.2,2.1h-1.85m0,0h-.1l-.05-.05h-.05l-.05-.05v-.1l-.05-.05m0-1.5v-.15l-.05-.05-.05-.05-.05-.05-.05-.05h-.15m-.7,0h-.15l-.05.05-.05.05-.05.05v.05l-.05.1v.05m0,0v3.25M57.79,70.58l.3.05.25.05.25.15.2.2.15.25.1.25.05.25v.3m5,178.95h.15m-14.8-173.8v-33.45m0,0l-.1-.35-.2-.35-.35-.2-.35-.05-.4.05-.3.2-.25.35-.05.35m0,0v33.45m0,0v.2l.05.25.05.2.05.2.1.15.1.2.15.15.1.15m0,0l1.3,1.35m0,0l.15.15.15.15.1.2.1.15.05.2.05.2.05.2v.25m0,0v178.85m0,0v.1l-.05.05v.05l-.05.05h-.05l-.05.05h-.05m0,0l-.25.15-.25.15-.2.15-.2.25-.15.25-.1.25-.05.3-.05.25m0,0v6.2m0,0l.1.35.2.3.3.2.35.05.35-.05.3-.2.2-.3.05-.35m0,0v-6.2m0,0h13.9m0,0h.15l.05-.05.05-.05.05-.05v-.05l.05-.05v-.1m0,0v-2.55m0,0v-.05l-.05-.1v-.05l-.05-.05-.05-.05h-.05l-.1-.05h-.05m-.7,0h-.1l-.05.05h-.05l-.05.05-.05.05-.05.05v.15m0,0v1.05m0,0h-1.45m0,0v-1.05m0,0v-.15l-.05-.05-.05-.05-.05-.05h-.05l-.1-.05h-.05m-.7,0h-.05l-.1.05h-.05l-.05.05-.05.05-.05.05v.15m0,0v1.05m0,0h-8.1m0,0v-11.05m0,0h8.1m0,0v1.1m0,0v.1l.05.05.05.1h.05l.05.05h.1l.05.05m.7,0l.05-.05h.1l.05-.05h.05l.05-.1.05-.05v-.1m0,0v-1.1m0,0h1.45m0,0v1.1m0,0v.1l.05.05.05.1h.05l.05.05h.05l.1.05m.7,0l.05-.05h.1l.05-.05h.05l.05-.1v-.05l.05-.05v-.05m0,0v-2.6m0,0v-.05l-.05-.05v-.05l-.05-.1h-.05l-.05-.05h-.1l-.05-.05m0,0h-12m0,0v-24.95m0,0h1.85m0,0l.45,1,.65.85.85.65,1,.4,1.1.15,1.05-.1,1-.45.85-.65m0,0l.25-.3.05-.35-.05-.35-.2-.35-.35-.2-.35-.05-.35.05-.3.2m0,0l-.85.5-.95.15-.9-.3-.75-.6-.4-.9v-.95l.4-.85.75-.65.9-.3.95.15.85.5m0,0l.3.2.35.1.35-.1.35-.2.2-.3.05-.4-.05-.35-.25-.3m0,0l-.85-.65-1-.4-1.05-.15-1.1.15-1,.4-.85.65-.65.85-.45,1m0,0h-1.85m0,0v-115.25m0,0h1.85m0,0l.45,1,.65.85.85.65,1,.45,1.1.1,1.05-.1,1-.4.85-.65m0,0l.25-.35.05-.35-.05-.35-.2-.3-.35-.25-.35-.05-.35.05-.3.2m0,0l-.85.5-.95.15-.9-.25-.75-.65-.4-.9v-.95l.4-.85.75-.65.9-.25.95.1.85.5m0,0l.3.25.35.05.35-.1.35-.2.2-.3.05-.35-.05-.4-.25-.3m0,0l-.85-.65-1-.4-1.05-.15-1.1.15-1,.4-.85.65-.65.85-.45,1m0,0h-1.85m0,0v-23.8m0,0l.45-.05.4-.1.4-.15.4-.25.3-.3.25-.35.2-.35.15-.45m0,0v-.8m0,0l1.5-5m0,0l.15-.2.15-.15.2-.15.15-.1.2-.1.25-.1.2-.05h.2m1.3,1.5l-.5,1.6m0,0l.2,1.35m0,0v2.35m0,0l.05.3.15.2.2.15.3.05.25-.05.25-.15.15-.2.05-.3m0,0v-2.1m0,0l.8-2.7m0,0l.1-.75-.1-.7-.25-.7-.4-.6-.5-.5-.6-.4-.7-.25-.75-.1m0,0l-.5.05-.5.1-.5.2-.45.2-.4.3-.4.35-.3.4-.25.45m0,0l-1.65,5.5m0,0v1.1m0,0h-3.4m14.1,173.8h-2.15m2.7,1.8l.35-.05.3-.2.2-.3.05-.35-.05-.35-.2-.3-.3-.2-.35-.05m.15,8.2h.75m0,0v3.25m0,0h162.95m0,0h.15l.15-.05.1-.1.15-.1.05-.15.1-.15v-.3m0,0l-.65-3.1m0,0l-.1-.25-.2-.2-.25-.1h-.25l-.25.1-.2.2-.1.25v.25m0,0l.3,1.65m0,0v.2l-.05.05-.05.1-.05.05-.1.05-.05.05h-.1m0,0h-.95m0,0h-.15l-.05-.05-.1-.05-.05-.05v-.05l-.05-.05v-.1m0,0l-2.05-10.2m0,0v-.2l.05-.05.05-.1.05-.05.1-.05.1-.05h.05m0,0h.95m0,0h.15l.1.05.05.05.05.05.05.05v.05l.05.1m0,0l.35,1.9m0,0l.1.25.2.2.25.1h.3l.25-.1.2-.2.1-.25v-.25m0,0l-.65-3.3m0,0v-.05l-.05-.05v-.05l-.05-.05h-.05l-.05-.05h-.15m0,0h-4.6m0,0h-.15l-.15.05-.15.1-.1.1-.1.15-.05.1v.35m0,0l2.2,11.15m0,0v.1l-.05.05v.05l-.05.05-.05.05h-.15m0,0h-10.75m0,0h-.1l-.05-.05h-.05v-.05l-.05-.05v-.1m0,0v-1.25m0,0l.95-.4.85-.55.7-.8.5-.95.2-1v-1.05l-.25-1-.5-.9m0,0l-.3-.25-.35-.15h-.4l-.35.2-.25.25-.15.4v.35l.2.35m0,0l.35.9v.9l-.35.9-.7.6-.9.3-.95-.1-.8-.45-.6-.8-.15-.9m0,0v-4.4m0,0l-.05-.25-.1-.3-.1-.25-.2-.2-.2-.15-.25-.15-.25-.1h-.3m0,0h-9.25m0,0l-.35.05-.25.2-.2.25-.05.35.05.3.2.3.25.15.35.1m0,0h8.7m0,0v4.1m0,0l.05.7.2.7.25.65.4.6.5.5.55.45.65.3.65.25m0,0v1.25m0,0v.1l-.05.05-.05.05-.05.05h-.15m0,0h-112.8m0,0h-.1l-.05-.05h-.05l-.05-.05v-.05l-.05-.05v-.05m0,0v-1.25m0,0l.7-.25.6-.3.6-.45.45-.5.4-.6.3-.65.15-.7.1-.7m0,0v-4.1m0,0h8.7m0,0l.3-.1.3-.15.2-.3.05-.3-.05-.35-.2-.25-.3-.2-.3-.05m0,0h-9.3m0,0h-.25l-.3.1-.25.15-.2.15-.15.2-.15.25-.1.3v.25m0,0v4.4m0,0l-.2.9-.55.8-.8.45-.95.1-.9-.3-.7-.6-.4-.9v-.9l.4-.9m0,0l.15-.35v-.35l-.1-.4-.3-.25-.35-.2h-.35l-.4.15-.25.25m0,0l-.5.9-.3,1v1.05l.25,1,.45.95.7.8.85.55,1,.4m0,0v1.25m0,0v.05l-.05.05v.05l-.05.05h-.05l-.05.05h-.1m0,0h-26.35m0,0h-.1l-.05-.05h-.05l-.05-.05v-.05l-.05-.05v-.05m0,0v-2.7m0,0v-.1l-.05-.05-.05-.05v-.05h-.05l-.05-.05h-.1m0,0h-8.9m0,0l-.9-.15-.7-.5-.5-.75-.2-.85.2-.9.5-.7.7-.5.9-.2m0,0h6.3m-2.7,6.4h2.15m-2.85-8.2h-2.9m0,0l-1.6.3-1.3.9-.9,1.3-.3,1.6.3,1.55.9,1.35,1.3.9,1.6.3m0,0h2.9M208.8,43.93v11.9m25.65-11.9h-25.65m25.65,11.9v-11.9m-25.65,11.9h25.65m-124.7,0v-11.9m-25.65,11.9h25.65m-25.65-11.9v11.9m25.65-11.9h-25.65m50.15,9.35v-9.35m-8.6,11.9l1.05-.35,1.1-.35,1.05-.35,1.1-.3,1.05-.35,1.1-.3,1.05-.25,1.1-.3m-23.5,2.55h14.9m-14.9-11.9v11.9m23.5-11.9h-23.5m156.85,1.1l-11.65,11.65m12.05-10.35l-.05-.15v-.2l-.05-.15v-.15l-.1-.2-.05-.15-.05-.15-.1-.15m.4,18.6v-17.3m-11.95,17.3h11.95m-11.95-6.3v6.3m-.1-6.95v.1l.05.05v.1l.05.05v.35m-.8-1.35l11.65-11.65m-12.3,11.5h.15l.1.05h.15l.05.05.1.05h.1m-14-.15h13.35m-13.35-11.9v11.9m24.3-11.9h-24.3m25.65.4l-.15-.1-.15-.05-.2-.1-.15-.05-.15-.05h-.2l-.15-.05h-.2m-106.75,6.25v-6.25m-23.55,9.1l2.9-.65,2.9-.55,2.95-.5,2.95-.4,2.95-.3,2.95-.25,2.95-.15,3-.05m-23.55-6.25v9.1m23.55-9.1h-23.55m-9.4,13.05l7.25-2.25,7.35-1.65,7.5-1.15,7.55-.55h7.55l7.55.55,7.5,1.15,7.35,1.65,7.25,2.25m0,0h61.9m0,0h.05l.05.05h.1l.05.05.05.05v.05l.05.1v.05m0,0v19.9m0,0h3.4m0,0v-1.1m0,0h-2.3m0,0v-11.35m0,0h11.95m0,0v11.35m0,0h-2.3m0,0v1.1m0,0h3.4m0,0v-30.9m0,0l-.05-.65-.2-.7-.35-.6-.4-.55-.55-.45-.6-.3-.7-.2-.7-.05m0,0H52.94m0,0l-.65.05-.7.2-.6.3-.55.45-.4.55-.35.6-.2.7-.05.65m0,0v30.9m0,0h3.4m0,0v-1.1m0,0h-2.3m0,0v-11.35m0,0h11.9m0,0v11.35m0,0h-2.25m0,0v1.1m0,0h3.4m0,0v-19.9m0,0v-.05l.05-.1v-.05l.05-.05.05-.05h.05l.1-.05h.05m0,0h61.9m-75.3-10.65v17.3m.4-18.6l-.1.15-.05.15-.1.15-.05.2-.05.15v.15l-.05.2v.15m12.05,10.35l-11.65-11.65m11.5,12.3v-.1l.05-.05v-.2l.05-.05v-.1l.05-.05v-.1m-.15,6.95v-6.3m-11.9,6.3h11.9m-10.8-19.3l11.65,11.65m-10.35-12.05h-.15l-.15.05h-.2l-.15.05-.2.05-.15.1-.15.05-.15.1m25.65-.4h-24.35m24.35,11.9v-11.9m-13.35,11.9h13.35m-14,.15h.1l.05-.05.1-.05h.15l.1-.05h.15m128.95,0h14.9m-23.5-2.55l1.05.3,1.1.25,1.1.3,1.05.35,1.1.3,1.05.35,1.05.35,1.1.35m-8.6-11.9v9.35m23.5-9.35h-23.5m23.5,11.9v-11.9m-124.85,8.15v-2.95m0,4.25l-.25-.05-.2-.15-.15-.2v-.5l.15-.2.2-.15.25-.05m0,3.75v-2.45m-4.5,2.45h4.5m-4.5-2.45v2.45m0-3.75l.2.05.25.15.1.2.05.25-.05.25-.1.2-.25.15-.2.05m0-4.25v2.95m0-4.25l.2.05.25.15.1.2.05.25-.05.25-.1.2-.25.15-.2.05m0-5.2v3.9m4.5-3.9h-4.5m4.5,3.9v-3.9m0,5.2l-.25-.05-.2-.15-.15-.2v-.5l.15-.2.2-.15.25-.05m76.8,2.35l3,.05,2.95.15,2.95.25,2.95.3,2.95.4,2.95.5,2.9.55,2.9.65m-23.55-9.1v6.25m23.55-6.25h-23.55m23.55,9.1v-9.1m52.3,5.2v2.95m0-4.25l.2.05.25.15.1.2.05.25-.05.25-.1.2-.25.15-.2.05m0-5.2v3.9m4.5-3.9h-4.5m4.5,3.9v-3.9m0,5.2l-.25-.05-.2-.15-.1-.2-.05-.25.05-.25.1-.2.2-.15.25-.05m0,4.25v-2.95m0,4.25l-.25-.05-.2-.15-.1-.2-.05-.25.05-.25.1-.2.2-.15.25-.05m0,3.75v-2.45m-4.5,2.45h4.5m-4.5-2.45v2.45m0-3.75l.2.05.25.15.1.2.05.25-.05.25-.1.2-.25.15-.2.05"/>
  <line class="cls-4" x1="277.24" y1="42.9" x2="300.59" y2="42.9"/>
  <line class="cls-4" x1="295.81" y1="53.9" x2="295.81" y2="262.7"/>
  <polygon class="cls-1" points="295.81 42.9 293.75 53.63 297.86 53.63 295.81 42.9"/>
  <polygon class="cls-4" points="295.81 42.9 293.75 53.63 297.86 53.63 295.81 42.9"/>
  <polygon class="cls-1" points="295.81 262.63 293.75 251.9 297.86 251.9 295.81 262.63"/>
  <polygon class="cls-4" points="295.81 262.63 293.75 251.9 297.86 251.9 295.81 262.63"/>
  <line class="cls-4" x1="277.24" y1="262.7" x2="300.59" y2="262.7"/>
  <text class="cls-2" transform="translate(293.16 170.81) rotate(-90)"><tspan x="0" y="0">155 / 185</tspan></text>
  <line class="cls-4" x1="270.28" y1="11.62" x2="270.28" y2="34.97"/>
  <line class="cls-4" x1="259.28" y1="17.19" x2="47.48" y2="17.19"/>
  <polygon class="cls-1" points="270.28 17.19 259.55 15.14 259.55 19.25 270.28 17.19"/>
  <polygon class="cls-4" points="270.28 17.19 259.55 15.14 259.55 19.25 270.28 17.19"/>
  <polygon class="cls-1" points="47.55 17.19 58.28 15.14 58.28 19.25 47.55 17.19"/>
  <polygon class="cls-4" points="47.55 17.19 58.28 15.14 58.28 19.25 47.55 17.19"/>
  <line class="cls-4" x1="47.48" y1="11.62" x2="47.48" y2="34.97"/>
  <text class="cls-2" transform="translate(138.37 14.55)"><tspan x="0" y="0">155 / 185</tspan></text>
</svg>