<?xml version="1.0" encoding="UTF-8"?>
<svg id="Capa_1" data-name="Capa 1" xmlns="http://www.w3.org/2000/svg" viewBox="0 0 335.98 310.4">
  <defs>
    <style>
      .cls-1 {
        stroke-dashoffset: 7.49px;
      }

      .cls-1, .cls-2, .cls-3, .cls-4, .cls-5, .cls-6, .cls-7, .cls-8, .cls-9, .cls-10, .cls-11, .cls-12, .cls-13, .cls-14, .cls-15, .cls-16, .cls-17, .cls-18, .cls-19, .cls-20, .cls-21, .cls-22, .cls-23, .cls-24, .cls-25, .cls-26, .cls-27 {
        fill: none;
        stroke: gray;
      }

      .cls-1, .cls-2, .cls-3, .cls-4, .cls-5, .cls-6, .cls-7, .cls-8, .cls-9, .cls-10, .cls-11, .cls-12, .cls-13, .cls-14, .cls-15, .cls-16, .cls-18, .cls-19, .cls-20, .cls-21, .cls-22, .cls-23, .cls-24, .cls-25, .cls-26, .cls-27 {
        stroke-width: .5px;
      }

      .cls-1, .cls-2, .cls-3, .cls-4, .cls-5, .cls-6, .cls-7, .cls-8, .cls-9, .cls-10, .cls-11, .cls-13, .cls-14, .cls-15, .cls-16, .cls-18, .cls-19, .cls-20, .cls-21, .cls-22, .cls-23, .cls-24, .cls-25, .cls-27 {
        stroke-dasharray: 0 0 0 0 43.2 3.6 3.6 3.6;
      }

      .cls-1, .cls-4, .cls-10, .cls-11, .cls-23, .cls-26 {
        stroke-miterlimit: 10;
      }

      .cls-2 {
        stroke-dashoffset: 36.69px;
      }

      .cls-2, .cls-3, .cls-5, .cls-6, .cls-7, .cls-8, .cls-9, .cls-12, .cls-13, .cls-14, .cls-15, .cls-16, .cls-17, .cls-18, .cls-19, .cls-20, .cls-21, .cls-22, .cls-24, .cls-25, .cls-27 {
        stroke-linecap: round;
        stroke-linejoin: round;
      }

      .cls-3 {
        stroke-dashoffset: 18.84px;
      }

      .cls-5 {
        stroke-dashoffset: 25.07px;
      }

      .cls-6 {
        stroke-dashoffset: 17.7px;
      }

      .cls-7 {
        stroke-dashoffset: 42.29px;
      }

      .cls-8 {
        stroke-dashoffset: 28.69px;
      }

      .cls-9 {
        stroke-dashoffset: 36.69px;
      }

      .cls-28, .cls-29 {
        fill: gray;
      }

      .cls-10 {
        stroke-dashoffset: 39.62px;
      }

      .cls-11 {
        stroke-dashoffset: 24.85px;
      }

      .cls-13 {
        stroke-dashoffset: 37.26px;
      }

      .cls-14 {
        stroke-dashoffset: 13.7px;
      }

      .cls-15 {
        stroke-dashoffset: 39.26px;
      }

      .cls-16 {
        stroke-dashoffset: 33.67px;
      }

      .cls-17 {
        stroke-width: .25px;
      }

      .cls-18 {
        stroke-dashoffset: 31.31px;
      }

      .cls-19 {
        stroke-dashoffset: 22.96px;
      }

      .cls-20 {
        stroke-dashoffset: 39.51px;
      }

      .cls-21 {
        stroke-dashoffset: 35.26px;
      }

      .cls-22 {
        stroke-dashoffset: 42.36px;
      }

      .cls-29 {
        font-family: MyriadPro-Regular, 'Myriad Pro';
        font-size: 10px;
      }

      .cls-23 {
        stroke-dashoffset: 43.04px;
      }

      .cls-25 {
        stroke-dashoffset: 24.28px;
      }

      .cls-27 {
        stroke-dashoffset: 32.11px;
      }
    </style>
  </defs>
  <path class="cls-26" d="m80.99,256.21l.1.05.15.05.15.05.1.1.05.15.05.1v.3l-.05.15-.05.1-.1.1-.15.1-.15.05h-.1m0-5.55l.1.05.15.05.15.05.1.1.05.15.05.1v.3l-.05.15-.05.1-.1.1-.15.1-.15.05h-.1m4.5-1.3l-.15.05-.1.05-.15.05-.1.1-.05.15-.05.1v.3l.05.15.05.1.1.1.15.1.1.05h.15m0,2.95l-.15.05-.1.05-.15.05-.1.1-.05.15-.05.1v.3l.05.15.05.1.1.1.15.1.1.05h.15m100.85-9.15l-1.6.5-1.6.55-1.65.5-1.65.45-1.65.45-1.65.4-1.65.4-1.65.35-1.7.3-1.65.3-1.7.3-1.65.25-1.7.2-1.7.2-1.7.15-1.7.1-1.7.1-1.7.1-1.7.05h-3.4l-1.7-.05-1.7-.1-1.7-.1-1.7-.1-1.7-.15-1.7-.2-1.7-.2-1.65-.25-1.7-.3-1.7-.3-1.65-.3-1.65-.35-1.7-.4-1.65-.4-1.65-.45-1.6-.45-1.65-.5-1.6-.55-1.65-.5m67.05,1.1l-1.65.55-1.65.55-1.65.5-1.65.45-1.7.45-1.65.4-1.7.4-1.7.35m-118.45-.4h-.2l-.05-.05-.05-.05m.65-1h-.05l-.05-.05h-.1l-.05-.05h-.05m.3,7.15h-.05v.05h-.15l-.05.05h-.05m-.05-1.2h-.15l-.05.05h-.1v.05m-4.8-1.45l.15.25.15.3.15.25.2.25.2.2.25.2.25.15.25.15.3.1.3.1.3.05.3.05h.3l.3-.05.3-.05.3-.1.25-.1.3-.15.25-.15m-5.95-1.45l.1.35.1.3.2.35.15.3.25.3.2.25.3.25.25.25.3.2.3.15.35.15.35.15.35.1.35.05.35.05h.35l.4-.05.35-.05.35-.1.3-.1.35-.15.3-.2m-.35-6.15l-.25-.15-.3-.15-.25-.1-.3-.1-.3-.05-.3-.05h-.3l-.3.05-.3.05-.3.1-.3.1-.25.15-.25.15-.25.2-.2.25-.2.2-.15.25-.15.3-.15.25m83.05-.95l-1.7-.35-1.7-.4-1.7-.4-1.65-.45-1.65-.45-1.7-.5-1.65-.55-1.6-.55m86.2,2.5h-.15l-.15.05-.1.1-.1.1-.1.1-.05.15v.25l.05.15.1.15.1.1.1.05.15.05h.15m-4.55-1.25h.15l.1.05.15.1.1.1.05.1.05.15.05.15-.05.1-.05.15-.05.15-.1.1-.15.05-.1.05h-.15m0,3h.15l.1.05.15.1.1.1.05.1.05.15.05.15-.05.1-.05.15-.05.15-.1.1-.15.05-.1.05h-.15m4.55-1.25h-.15l-.15.05-.1.1-.1.1-.1.1-.05.15v.25l.05.15.1.15.1.1.1.05.15.05h.15m-33.35-4.15l-1.65.3-1.7.3-1.7.25-1.7.2-1.7.2-1.75.2-1.7.1-1.7.1-1.75.1-1.7.05-1.7.05m-1,0l-1.7-.05-1.75-.05-1.7-.1-1.7-.1-1.75-.1-1.7-.2-1.7-.2-1.7-.2-1.7-.25-1.7-.3-1.7-.3m-78.85-1.8l-.3-.15-.3-.15-.35-.15-.35-.1-.35-.05h-1.1l-.35.05-.35.1-.35.15-.3.15-.35.15-.3.2-.25.25-.3.25-.2.25-.25.3-.15.3-.2.35-.1.3-.1.35m64.25,2.15h-.15l-.1.05-.15.1-.1.1-.05.1-.05.15v.25l.05.15.05.15.1.1.15.05.1.05h.15m-4.5-5.5h.1l.15.05.15.1.1.1.05.1.05.15v.25l-.05.15-.05.15-.1.1-.15.05-.15.05h-.1m4.5-1.25h-.15l-.1.05-.15.1-.1.1-.05.1-.05.15v.25l.05.15.05.15.1.1.15.05.1.05h.15m-4.5,3h.1l.15.05.15.1.1.1.05.1.05.15v.25l-.05.15-.05.15-.1.1-.15.05-.15.05h-.1M253.44,77.41l-.05.15-.05.15-.05.1-.1.1-.1.1-.15.05-.15.05h-.15l-.15-.05-.15-.05-.1-.1-.1-.1-.05-.1-.05-.15-.05-.15m3.9-5.95l-.15-.2-.15-.15-.15-.15-.2-.15-.2-.1-.2-.05-.25-.05h-.2m3.35.05l-.2-.3-.2-.3-.2-.25-.25-.25-.25-.2-.3-.2-.3-.15-.3-.15-.35-.1-.35-.1h-.3l-.35-.05m0,2h-.2l-.2.05-.2.1-.15.1-.15.1-.15.2-.1.15-.1.2-.05.2v.2l.05.2m1.25-3.5h-.3l-.3.05-.3.1-.3.1-.3.1-.25.15-.25.2-.25.2-.2.2-.2.25-.15.25-.15.25-.15.3-.05.3-.1.3v.9l.05.3m8.75,6.7l-.3-.05h-.25l-.3-.1-.25-.1-.25-.15-.25-.15-.25-.2-.2-.2-.15-.25-.15-.25-.1-.25-.1-.3m.7,28.05l-.1.35-.15.3-.15.3-.2.3-.2.3-.25.25-.25.25-.25.2-.3.2-.3.15-.3.15-.35.1-.3.1-.35.05-.35.05h-.7l-.35-.05-.3-.1-.35-.1-.3-.15-.35-.15-.25-.2-.3-.2-.25-.25m11.65-63.35v-.15l.05-.2.05-.15.1-.15.15-.1.15-.1.15-.1h.15l.2-.05.15.05h.15l.15.1.15.1.15.1.1.15.05.15.05.2v.15m-12.25,58.75l.2-.15.2-.15.25-.15.2-.05.25-.1.25-.05h.3l.25.05.25.05.25.05.25.1.2.15.2.15.2.2.15.2.15.2.1.25.1.25.05.25.05.25v.25l-.05.25-.05.25-.1.25-.1.25-.15.2-.15.2-.2.2-.2.15-.2.15-.25.1-.25.1-.25.05h-.55l-.25-.05-.25-.05-.2-.1-.25-.15-.2-.15-.2-.15m0-3.25l-.15.1-.15.1-.15.05-.15.05h-.2l-.15-.05-.15-.05-.15-.1-.1-.1-.1-.15-.1-.15-.05-.15-.05-.15v-.15l.05-.2.05-.15.1-.15.1-.1m13.6-23.95v.4l-.05.2-.1.2-.1.2-.1.2-.1.15-.15.15m-1.95,2.8l.05-.2v-.2l.05-.2.1-.2.05-.2.15-.15.1-.2.15-.15m-10.35,25.75l-.15-.1-.15-.1-.15-.05h-.5l-.15.05-.15.1-.1.1-.1.15-.1.15-.05.15-.05.15v.2l.05.15.05.15.1.15.1.1m0-5.95l.25-.25.3-.2.25-.2.35-.15.3-.15.35-.1.3-.05.35-.05.35-.05h.35l.35.05.35.05.3.1.35.1.3.15.3.15.3.2.25.25.25.2.25.3.2.25.2.3.15.3.15.3.1.35m4.35,157.7l.2.1.2.1.2.15.15.15.15.2.15.15.1.25.05.2.05.2v.25m-5.6-49.2l-.1.35-.15.3-.15.3-.2.3-.2.3-.25.25-.25.25-.25.2-.3.2-.3.15-.3.15-.35.15-.3.05-.35.1h-1.05l-.35-.05-.3-.1-.35-.1-.3-.15-.35-.15-.25-.2-.3-.2-.25-.25m1.35-1.35l-.15-.1-.15-.1-.15-.05h-.5l-.15.05-.15.1-.1.1-.1.15-.1.15-.05.15-.05.15v.2l.05.15.05.15.1.15.1.1m1.35-4.6l.2-.15.2-.15.25-.1.2-.1.25-.1h.25l.3-.05.25.05.25.05.25.05.25.15.2.1.2.15.2.2.15.2.15.2.1.25.1.25.05.25.05.25v.25l-.05.25-.05.25-.1.25-.1.25-.15.2-.15.2-.2.2-.2.15-.2.15-.25.1-.25.1-.25.05h-.55l-.25-.05-.25-.05-.2-.1-.25-.15-.2-.1-.2-.2m0-3.25l-.15.1-.15.1-.15.05-.15.05h-.2l-.15-.05-.15-.05-.15-.1-.1-.1-.1-.15-.1-.1-.05-.2-.05-.15v-.15l.05-.2.05-.15.1-.15.1-.1m0,0l.25-.25.3-.2.25-.2.35-.15.3-.15.35-.1.3-.05.35-.05.35-.05h.35l.35.05.35.05.3.1.35.1.3.15.3.15.3.2.25.25.25.2.25.3.2.25.2.3.15.3.15.3.1.35m4.1,49.35v.1l.05.05v.05l.05.05.05.05.05.05h.05m-4.9-9.4v.1l-.05.05v.05l-.05.05-.05.05-.1.05h-.05l-.05.05m-.7,0l-.1-.05h-.05l-.05-.05-.05-.05-.05-.05-.05-.05v-.05l-.05-.1m1.45,7.55v-.1l-.05-.05v-.05l-.05-.05-.05-.05-.1-.05h-.1m-.7,0h-.15l-.05.05-.05.05-.05.05-.05.05v.05l-.05.1m0,3.25l.05.05v.1l.05.05.05.05.05.05h.05l.05.05h.1m7.2,6.15v.2l-.05.15-.1.15-.1.15-.1.1-.15.1-.15.05-.2.05h-.15l-.15-.05-.15-.05-.15-.1-.15-.1-.1-.15-.05-.15-.05-.15-.05-.2m-4-19.05h-.15l-.05.05v.05l-.05.05-.05.05v.1m2.4,0v-.1l-.05-.05-.05-.05v-.05l-.05-.05h-.15m0,11.05h.15l.05-.05v-.05h.05l.05-.05v-.15m-2.4,0v.15l.05.05h.05v.05l.05.05h.15m0-26.05h-.15l-.05.05-.05.05-.05.05v.1m2.1-.25h.15l.05.05.05.05.05.05v.1m-.3,12.9h.15l.05-.05.05-.05.05-.05v-.1m-2.4,0v.1l.05.05.05.05.05.05h.15m-.3-3.2v-.05l-.05-.05v-.1l-.05-.05h-.05l-.1-.05-.05-.05h-.05m-.7,0h-.1l-.05.05-.05.05h-.05l-.05.05-.05.1v.05l-.05.05m.4-6.45h-.15l-.05-.05-.05-.05-.05-.05-.05-.05v-.05l-.05-.1m1.45,0v.1l-.05.05v.05l-.05.05-.05.05-.1.05h-.1m-1.1-5l.05-.1v-.05l.05-.05.05-.05.05-.05.05-.05h.15m-214.3,35.9v.2l.05.15.05.15.1.15.15.1.15.1.15.05.15.05h.2l.15-.05.15-.05.15-.1.15-.1.1-.15.05-.15.05-.15v-.2m14.25-6.5v.15l-.05.05-.05.05-.05.05h-.05l-.05.05h-.1m0-3.25h.15l.05.05.05.05.05.05.05.05v.15m-1.4,0v-.05l.05-.1v-.05l.05-.05.05-.05.05-.05h.15m-2.1,0h.1l.05.05.1.05v.05l.05.05.05.1v.05m-1.45,0v-.05l.05-.1v-.05l.05-.05.05-.05.1-.05h.1m3.9-11.15v-.1l-.05-.1-.05-.05-.05-.05h-.05l-.05-.05h-.1m0,3.25h.15l.05-.05.05-.05.05-.05.05-.05v-.15m-1.4,0v.1l.05.05v.05l.05.05.05.05.05.05h.15m-2.1,0h.1l.05-.05.1-.05v-.05l.05-.05.05-.05v-.1m-1.45,0v.1l.05.05v.05l.05.05.05.05.1.05h.1m-10.7,9.4v.2l-.05.05h-.05v.05l-.05.05h-.05m11.3-42.05l-.25-.25-.3-.2-.3-.2-.3-.15-.3-.15-.35-.1-.35-.1-.3-.05h-.7l-.35.05-.35.05-.35.1-.3.1-.3.15-.35.15-.25.2-.3.2-.25.25-.2.25-.2.3-.2.3-.15.3-.15.3-.1.35m5.6-.5l.15.1.1.1.2.05h.5l.15-.05.15-.1.1-.1.1-.15.1-.15.05-.15v-.5l-.05-.15-.1-.15-.1-.1m-1.35,1.35l-.2-.15-.2-.15-.25-.15-.25-.1-.25-.05-.25-.05h-.25l-.25.05-.25.05-.25.05-.25.1-.2.15-.2.15-.2.2-.15.2-.15.2-.1.25-.1.25-.05.25-.05.25v.25l.05.25.05.25.1.25.1.25.15.2.15.2.2.2.2.15.2.15.25.1.25.05.25.05.25.05h.25l.25-.05.25-.05.25-.1.25-.15.2-.15.2-.15m0,0l.15-.1.1-.1.2-.05.15-.05h.15l.2.05.15.05.15.1.1.1.1.15.1.15.05.15v.5l-.05.15-.1.15-.1.1m-6.95-1.85l.1.35.15.3.15.3.2.3.2.3.2.25.25.25.3.2.25.2.35.15.3.15.3.1.35.1.35.05.35.05h.7l.3-.05.35-.1.35-.1.3-.15.3-.15.3-.2.3-.2.25-.25m-11.3,36.1l-.25.1-.2.1-.15.15-.2.15-.15.2-.1.15-.1.25-.05.2-.05.2v.25m12.55-161.3l-.25-.25-.3-.2-.3-.2-.3-.15-.3-.15-.35-.1-.35-.05-.3-.05-.35-.05h-.35l-.35.05-.35.05-.35.1-.3.1-.3.15-.35.15-.25.2-.3.25-.25.2-.2.3-.2.25-.2.3-.15.3-.15.3-.1.35m5.6,2.75l.15-.1.1-.1.2-.05h.5l.15.05.15.1.1.1.1.15.1.15.05.15v.5l-.05.15-.1.15-.1.1m-11.1-25.6v-.4l-.05-.2-.1-.2-.1-.2-.1-.15-.1-.2-.15-.15m-1.95-2.8l.05.2v.2l.05.2.1.2.05.2.15.2.1.15.15.15m11.65,23.8l.15.1.1.1.2.05.15.05h.15l.2-.05.15-.05.15-.1.1-.1.1-.15.1-.15.05-.15v-.5l-.05-.15-.1-.15-.1-.1m-1.35,1.35l-.2-.15-.2-.15-.25-.15-.25-.05-.25-.1-.25-.05h-.25l-.25.05-.25.05-.25.05-.25.1-.2.15-.2.15-.2.2-.15.2-.15.2-.1.25-.1.25-.05.25-.05.25v.25l.05.25.05.25.1.25.1.25.15.2.15.2.2.2.2.15.2.15.25.1.25.1.25.05h.5l.25-.05.25-.05.25-.1.25-.15.2-.15.2-.15m-10.3-62v-.15l-.05-.2-.1-.15-.1-.15-.1-.1-.15-.1-.15-.1h-.15l-.2-.05-.15.05h-.2l-.15.1-.15.1-.1.1-.1.15-.05.15-.05.2-.05.15m6.7,61.5l.1.35.15.3.15.3.2.3.2.3.2.25.25.25.3.2.25.2.35.15.3.15.3.1.35.1.35.05.35.05h.7l.3-.05.35-.1.35-.1.3-.15.3-.15.3-.2.3-.2.25-.25m-8.8-27.9l.25-.05h.3l.3-.1.25-.1.25-.15.25-.15.2-.2.2-.2.2-.25.15-.25.1-.25.1-.3m3-8.65h.3l.3.05.3.1.3.1.25.1.3.15.25.2.25.2.2.2.2.25.15.25.15.25.1.3.1.3.05.3.05.3v.6l-.05.3m-3.2-1.95h.2l.2.05.2.1.15.1.15.1.15.2.1.15.05.2.05.2.05.2-.05.2m-4.6-1.45l.2-.3.15-.3.25-.25.25-.25.25-.2.3-.2.3-.15.3-.15.35-.1.3-.1h.35l.35-.05m-1.5,2.85l.1-.2.2-.15.15-.15.2-.15.2-.1.2-.05.2-.05h.25m.95,6.8v.15l.05.15.1.1.1.1.1.1.15.05.15.05h.15l.15-.05.1-.05.15-.1.1-.1.05-.1.05-.15v-.15m195.75-20.7l.05.1v.05l.05.1v.05l.05.1v.25m10.8-13l-.15-.1-.15-.1-.15-.05-.15-.05-.2-.05-.15-.05h-.35m-82.3,9.1l-1.75-.4-1.8-.4-1.8-.35-1.8-.3-1.8-.3-1.8-.25-1.8-.25-1.85-.15-1.8-.15-1.85-.15-1.8-.1-1.85-.05h-1.8m80.35-1.1h-.15l-.15-.05-.1-.05-.1-.1-.1-.15-.05-.1v-.3l.05-.15.1-.1.1-.1.1-.1.15-.05h.15m0,5.5h-.15l-.15-.05-.1-.05-.1-.1-.1-.15-.05-.1v-.3l.05-.15.1-.1.1-.1.1-.1.15-.05h.15m-4.55,1.25h.15l.15-.05.1-.05.1-.1.1-.15v-.1l.05-.15-.05-.15v-.15l-.1-.1-.1-.1-.1-.1-.15-.05h-.15m0-3h.15l.15-.05.1-.05.1-.1.1-.15v-.1l.05-.15-.05-.15v-.15l-.1-.1-.1-.1-.1-.1-.15-.05h-.15m-76.8,2.35h-1.85l-1.8.05-1.85.1-1.8.15-1.8.15-1.85.15-1.8.25-1.8.25-1.8.3-1.8.3-1.8.35-1.8.4-1.8.4m-.95.25l-1.1.25-1.1.3-1.05.3-1.1.35-1.05.3-1.1.35-1.05.35-1.05.35m-42.7-6.75h-.15l-.15-.05-.1-.05-.1-.1-.1-.15-.05-.1v-.3l.05-.15.1-.1.1-.1.1-.1.15-.05h.15m0,5.5h-.15l-.15-.05-.1-.05-.1-.1-.1-.15-.05-.1v-.3l.05-.15.1-.1.1-.1.1-.1.15-.05h.15m-4.55,1.25h.15l.15-.05.1-.05.1-.1.1-.15v-.1l.05-.15-.05-.15v-.15l-.1-.1-.1-.1-.1-.1-.15-.05h-.15m0-3h.15l.15-.05.1-.05.1-.1.1-.15v-.1l.05-.15-.05-.15v-.15l-.1-.1-.1-.1-.1-.1-.15-.05h-.15m-15.8,8.85l-.05.1-.05.05v.15l-.05.1v.25m-10.8-13l.15-.1.15-.1.15-.05.15-.05.2-.05.15-.05h.35m11,11.9h-.25l-.1.05h-.1l-.05.05h-.1l-.05.05m129.55-.15l-1.05-.35-1.05-.35-1.1-.35-1.05-.3-1.1-.35-1.05-.3-1.1-.3-1.1-.25m70.3,3.7h.15l.05.05.05.05.05.05.05.05v.15m13.05-11v-.35l-.05-.15-.05-.2-.05-.15-.05-.15-.1-.15-.1-.15m-217,1.3v-.35l.05-.15.05-.2.05-.15.05-.15.1-.15.1-.15m218.15,1.3l-.05-.3v-.35l-.1-.3-.1-.3-.15-.3-.15-.3-.2-.3-.2-.25-.2-.2-.25-.2-.3-.2-.3-.15-.3-.15-.3-.1-.3-.1h-.35l-.3-.05m-216.15,3.55v-.3l.05-.35.1-.3.1-.3.1-.3.2-.3.15-.3.25-.25.2-.2.25-.2.3-.2.25-.15.3-.15.35-.1.3-.1h.3l.35-.05m201.6,13.05h.25l.1.05h.05l.1.05h.05l.1.05m-191.25,1h-.15l-.05.05-.05.05-.05.05-.05.05v.05l-.05.1m129.1-.35l-1.6-.55-1.6-.55-1.65-.45-1.65-.5-1.65-.45-1.65-.4-1.65-.35-1.65-.4-1.7-.3-1.65-.3-1.7-.25-1.65-.25-1.7-.25-1.7-.15-1.7-.15-1.7-.15-1.7-.1-1.7-.05-1.7-.05-1.7-.05-1.7.05-1.7.05-1.7.05-1.7.1-1.7.15-1.7.15-1.7.15-1.7.25-1.65.25-1.7.25-1.7.3-1.65.3-1.65.4-1.7.35-1.65.4-1.65.45-1.6.5-1.65.45-1.6.55-1.65.55"/>
  <polyline class="cls-1" points="119.54 248.31 121.15 248.86 122.77 249.38 124.4 249.88 126.04 250.34 127.68 250.78 129.34 251.19 130.99 251.58 132.66 251.93 134.33 252.26 136.01 252.56 137.69 252.83 139.37 253.07 141.06 253.28 142.76 253.47 144.45 253.63 146.15 253.75 147.85 253.85 149.55 253.93 151.25 253.97 152.96 253.98 154.66 253.97 156.36 253.93 158.06 253.85 159.76 253.75 161.46 253.63 163.16 253.47 164.85 253.28 166.54 253.07 168.22 252.83 169.91 252.56 171.58 252.26 173.25 251.93 174.92 251.58 176.58 251.19 178.23 250.78 179.88 250.34 181.51 249.88 183.14 249.38 184.76 248.86 186.38 248.31"/>
  <polyline class="cls-23" points="46.66 262.49 46.33 262.47 46.01 262.43 45.69 262.35 45.38 262.25 45.08 262.12 44.79 261.96 44.52 261.77 44.27 261.56 44.04 261.33 43.83 261.08 43.64 260.81 43.48 260.52 43.35 260.22 43.25 259.92 43.17 259.6 43.13 259.27 43.11 258.95"/>
  <polyline class="cls-1" points="186.38 56.98 184.76 56.43 183.14 55.91 181.51 55.41 179.87 54.95 178.23 54.51 176.58 54.1 174.92 53.71 173.25 53.36 171.58 53.03 169.91 52.73 168.22 52.46 166.54 52.22 164.85 52.01 163.16 51.82 161.46 51.66 159.76 51.54 158.06 51.44 156.36 51.36 154.66 51.32 152.96 51.31 151.25 51.32 149.55 51.36 147.85 51.44 146.15 51.54 144.45 51.66 142.76 51.82 141.06 52.01 139.37 52.22 137.69 52.46 136.01 52.73 134.33 53.03 132.66 53.36 130.99 53.71 129.34 54.1 127.68 54.51 126.04 54.95 124.4 55.41 122.77 55.91 121.15 56.43 119.54 56.98"/>
  <polyline class="cls-1" points="119.54 248.31 121.15 248.86 122.77 249.38 124.4 249.88 126.04 250.34 127.68 250.78 129.34 251.19 130.99 251.58 132.66 251.93 134.33 252.26 136.01 252.56 137.69 252.83 139.37 253.07 141.06 253.28 142.76 253.47 144.45 253.63 146.15 253.75 147.85 253.85 149.55 253.93 151.25 253.97 152.96 253.98 154.66 253.97 156.36 253.93 158.06 253.85 159.76 253.75 161.46 253.63 163.16 253.47 164.85 253.28 166.54 253.07 168.22 252.83 169.91 252.56 171.58 252.26 173.25 251.93 174.92 251.58 176.58 251.19 178.23 250.78 179.88 250.34 181.51 249.88 183.14 249.38 184.76 248.86 186.38 248.31"/>
  <polyline class="cls-4" points="57.64 56.98 57.57 56.98 57.51 57 57.44 57.04 57.39 57.08 57.35 57.13 57.31 57.2 57.29 57.26 57.29 57.33"/>
  <polyline class="cls-4" points="248.27 55.84 248.35 55.85 248.44 55.85 248.52 55.86 248.6 55.88 248.68 55.9 248.76 55.92 248.84 55.95 248.91 55.99"/>
  <polyline class="cls-23" points="46.66 262.49 46.33 262.47 46.01 262.43 45.69 262.35 45.38 262.25 45.08 262.12 44.79 261.96 44.52 261.77 44.27 261.56 44.04 261.33 43.83 261.08 43.64 260.81 43.48 260.52 43.35 260.22 43.25 259.92 43.17 259.6 43.13 259.27 43.11 258.95"/>
  <polyline class="cls-23" points="43.11 46.35 43.13 46.02 43.17 45.7 43.25 45.38 43.35 45.07 43.49 44.77 43.64 44.48 43.83 44.21 44.04 43.96 44.27 43.73 44.52 43.52 44.79 43.33 45.08 43.17 45.38 43.04 45.69 42.94 46.01 42.86 46.33 42.82 46.66 42.8"/>
  <polyline class="cls-23" points="262.8 46.35 262.78 46.02 262.74 45.7 262.66 45.38 262.56 45.07 262.43 44.77 262.27 44.48 262.08 44.21 261.87 43.96 261.64 43.73 261.39 43.52 261.12 43.33 260.83 43.17 260.54 43.04 260.23 42.94 259.91 42.86 259.58 42.82 259.25 42.8"/>
  <polyline class="cls-4" points="44.25 46.35 44.25 46.17 44.27 46 44.3 45.83 44.35 45.66 44.4 45.49 44.47 45.33 44.55 45.18 44.64 45.03"/>
  <polyline class="cls-4" points="261.67 46.35 261.66 46.17 261.64 46 261.61 45.83 261.56 45.66 261.51 45.49 261.44 45.33 261.36 45.18 261.27 45.03"/>
  <polyline class="cls-4" points="248.27 56.98 248.34 56.98 248.41 57 248.47 57.04 248.52 57.08 248.57 57.13 248.6 57.2 248.62 57.26 248.62 57.33"/>
  <polyline class="cls-10" points="186.57 55.84 185.51 55.48 184.44 55.13 183.37 54.79 182.3 54.46 181.22 54.15 180.14 53.85 179.06 53.55 177.97 53.27"/>
  <polyline class="cls-4" points="57.64 55.84 57.56 55.85 57.48 55.85 57.39 55.86 57.31 55.88 57.23 55.9 57.15 55.92 57.08 55.95 57 55.99"/>
  <polyline class="cls-4" points="45.34 44.33 45.49 44.24 45.65 44.16 45.81 44.09 45.97 44.04 46.14 43.99 46.31 43.96 46.48 43.94 46.66 43.94"/>
  <polyline class="cls-4" points="56.3 56.69 56.26 56.77 56.24 56.84 56.21 56.92 56.19 57 56.17 57.08 56.16 57.17 56.16 57.25 56.15 57.33"/>
  <polyline class="cls-4" points="72.11 49.11 72.25 49.09 72.39 49.05 72.51 48.97 72.61 48.87 72.69 48.75 72.73 48.61 72.75 48.47 72.73 48.33 72.69 48.2 72.61 48.07 72.51 47.97 72.39 47.9 72.25 47.85 72.11 47.83"/>
  <polyline class="cls-4" points="72.11 53.36 72.25 53.35 72.39 53.3 72.51 53.22 72.61 53.12 72.69 53 72.73 52.87 72.75 52.72 72.73 52.58 72.69 52.45 72.61 52.33 72.51 52.22 72.39 52.15 72.25 52.1 72.11 52.09"/>
  <polyline class="cls-4" points="76.65 53.36 76.51 53.35 76.37 53.3 76.25 53.22 76.15 53.12 76.07 53 76.03 52.87 76.01 52.72 76.03 52.58 76.07 52.45 76.15 52.33 76.25 52.22 76.37 52.15 76.51 52.1 76.65 52.09"/>
  <polyline class="cls-4" points="76.65 49.11 76.51 49.09 76.37 49.05 76.25 48.97 76.15 48.87 76.07 48.75 76.03 48.61 76.01 48.47 76.03 48.33 76.07 48.2 76.15 48.07 76.25 47.97 76.37 47.9 76.51 47.85 76.65 47.83"/>
  <polyline class="cls-10" points="127.94 53.27 126.85 53.55 125.77 53.85 124.69 54.15 123.61 54.46 122.54 54.79 121.47 55.13 120.41 55.48 119.34 55.84"/>
  <polyline class="cls-11" points="152.46 50.17 150.63 50.2 148.81 50.26 146.98 50.35 145.16 50.47 143.34 50.62 141.52 50.81 139.71 51.03 137.9 51.29 136.09 51.57 134.29 51.89 132.5 52.24 130.71 52.62 128.93 53.03"/>
  <polyline class="cls-4" points="229.26 49.11 229.41 49.09 229.54 49.05 229.66 48.97 229.76 48.87 229.84 48.75 229.89 48.61 229.9 48.47 229.89 48.33 229.84 48.2 229.76 48.07 229.66 47.97 229.54 47.9 229.41 47.85 229.26 47.83"/>
  <polyline class="cls-4" points="229.26 53.36 229.41 53.35 229.54 53.3 229.66 53.22 229.76 53.12 229.84 53 229.89 52.87 229.9 52.72 229.89 52.58 229.84 52.45 229.76 52.33 229.66 52.22 229.54 52.15 229.41 52.1 229.26 52.09"/>
  <polyline class="cls-4" points="233.8 53.36 233.66 53.35 233.52 53.3 233.4 53.22 233.3 53.12 233.23 53 233.18 52.87 233.16 52.72 233.18 52.58 233.23 52.45 233.3 52.33 233.4 52.22 233.52 52.15 233.66 52.1 233.8 52.09"/>
  <polyline class="cls-4" points="233.8 49.11 233.66 49.09 233.52 49.05 233.4 48.97 233.3 48.87 233.23 48.75 233.18 48.61 233.16 48.47 233.18 48.33 233.23 48.2 233.3 48.07 233.4 47.97 233.52 47.9 233.66 47.85 233.8 47.83"/>
  <polyline class="cls-11" points="176.98 53.03 175.2 52.62 173.41 52.24 171.62 51.89 169.82 51.57 168.01 51.29 166.2 51.03 164.39 50.81 162.57 50.62 160.75 50.47 158.93 50.35 157.1 50.26 155.28 50.2 153.45 50.17"/>
  <polyline class="cls-4" points="260.57 44.33 260.42 44.24 260.27 44.16 260.11 44.09 259.94 44.04 259.77 43.99 259.6 43.96 259.43 43.94 259.26 43.94"/>
  <polyline class="cls-4" points="249.61 56.69 249.65 56.77 249.68 56.84 249.7 56.92 249.72 57 249.74 57.08 249.75 57.17 249.76 57.25 249.76 57.33"/>
  <path class="cls-12" d="m119.49,248.36h-61.25m0,14.15h158.75m-157.6-1.15h20.45m5.65-5.15v-2.95m0-1.3v-2.5m-5.65,11.9v-11.85m1.15,11.85h4.5m1.15.05h20.45m-26.1-.05v-3.85m4.5,3.85v-3.85m1.15,3.9v-11.95m-5.65,6.75v-2.95m0-1.3v-2.5m4.5,0h-4.5m-1.15.05h-20.45m59.95-.05h-5.45m103.1-1.1h-30.65m-32.9,13h18.75m-19.75,0v-6.2m1,6.2v-6.2m62.55-5.7h-2.45m3.45,3.05v-4.15m-1,4.15v-3.05m0,8.85h1m-1-5.8h1m-1,8.85v-3.05m1,4.2v-4.2m-157.6-8.8v11.85m-1.15-13v3.25m0,7.05v3.85m-9.75-6.3h1.15m8.6-3.5v4.85m-9.75-3.5h1.15m57.45-4.6h-20.45m-28.4,8.1h-3.5m118.45,3.8v-8.25m-60.45-3.65h-4.5m63.95,11.9v-8.05m-113.95-.6h-3.5m3.5,5.95h-3.15m158.45,2.7h2.45m-3.45-11.9h-5.9m0,11.9h5.9m-7-11.9h-4.55m0,11.9h4.55m-5.7,0v-11.9m1.15,2.5v-2.5m0,6.75v-3m0,8.15v-3.9m12.55,3.9v-11.9m-8,2.5v-2.5m1.1,11.9v-11.9m-1.1,6.75v-3m-5.7-3.75h-13.3m19,11.9v-3.9m7,3.9v-11.9m-154.3,2.15h-3.15m78.55,9.75h18.8m-38.55,0h18.8m.95,0v-8.05m-.95,8.05v-8.25m-19.95,3.1v-3m-4.5,8.15v-3.9m-1.15,3.95v-11.95m5.65,2.5v-2.5m-4.5,6.75v-3m64.95,8.15h26.65m-85.95,0v-11.9m-5.65,2.5v-2.5m4.5,11.9v-3.9m-4.5,3.9h4.5m146.65-184.1h3.4m-10.8.15v-2.15m7.4,2v-1.15m-5.95,1.3v-2.4m0,0l.15-1.3m5.8,2.4l-1.65-5.45m-5.75,4.6l-.8-2.7m8.75,30.5h-1.85m-.7-25.8v-.85m0,0l-1.5-4.95m-2.3,2.25l-.45-1.6m6.8,7.15v23.8m0,2.25h-1.85m6.05-26.55l-1.3,1.3m-.05-2.8v-33.45m1.95,33.45v-33.45m-4.8,61.5v105.75m0,2.25h-1.85m1.85-2.25h-1.85m3.75,51.45v6.15m-4-20.9h1.8m.3,2.15v10.45m-2.1-10.75h1.8m-3.15,8.95h.7m.35.35v1.45m-1.45,1.8v-3.25m0-14.35v6.8m1.45,0v-1.45m-1.05,1.85h.7m6.5,10.75v6.15m-1.5-187.1v178.85m-4.65-15.85v2.95m-1.05-3.3h.7m2.75-9.35v12.65m-3.45-9.4h.7m.65-3.5h1.8m-3.55-1.5v4.65m1.45,0v-2.9m-1.05-2.1h3.45m-3.45,29.75h5.35m-1.9-49.2v19.45m-2.1,27.9h1.8m-217.45,1.85v6.15m15.7-17.65h-.7m-.35-.35v-1.05m-1.4,0v1.05m-1.45,0v-1.05m1.1,1.4h-.75m3.9-2.9v2.55m0,11.5v-2.55m-4.25,1.05h-8.05m9.15-1.4h-.75m-.35.35v1.05m1.45,0v-1.05m1.4,0v1.05m1.05-1.4h-.7m-3.2-9.65h-8.05m0,0v11.05m11.95-12.9h-11.95m10.9,1.85h-1.4m1.4,11.05h-1.4m-11.45,1.85v6.15m0-6.15h13.9m-11.95-39.7v24.95m0-27.2h1.85m-1.85,2.25h1.85m-1.85-117.5v115.25m-4.85-143.3v-33.45m2,33.45v-33.45m-1.35,34.95l1.3,1.3m2.9,25.25h1.85m-1.85-26.05v23.8m6.35-29.35l.45-1.6m-4.25,4.3l1.5-4.95m-1.5,5.8v-.85m-4.85,5.15v178.85m2.3-157.35h1.85m6.05-27.8l.85-2.7m-8.2,3.55l1.65-5.45m4.3,4.35l-.15-1.3m.15,3.7v-2.4m-5.95,2.25v-1.15m7.35,1.3v-2.15m-7.35,2h-3.4m10.75,0v-1.15m195.9-12.45v-6.3m11.9,7.45v11.3m-33.55-20.25h-25.6m31.3,0h-4.55m5.65-11.9h24.35m-30,0h4.55m-32.3,11.9h-14.95m15.95-11.9h25.6m-50.15,0h23.55m60.15,20.85h-11.9m11.9-1.15h-11.9m9.65,13.6h3.4m-3.4-1.15h2.25m-11.9,0h2.25m-3.4,1.15h3.4m9.25-32.2l-11.65,11.65m10.95-12.35l-11.65,11.65m-14-12.05v11.9m-1.1-11.9v3.9m0,1.25v3m0,1.25v2.5m-4.55-6.75v3m0,1.25v2.5m0-11.9v3.9m-1.15-3.9v11.9m-26.6-11.9v11.9m1-11.9v11.9m-25.55-11.9v9.1m1-9.1v9.35m-24.5-9.35v6.25m-97.3,14.6v11.3m-11.9-11.3v11.3m0-12.45h11.9m72.75-19.7h23.55m-49.05,11.9h-25.65m26.65-11.9h23.55m-57,11.9h-13.3m19,0h-4.55m0-2.5v2.5m0-6.75v3m5.65-8.15v11.9m-1.1-11.9v3.9m-4.55-3.9v3.9m-27.85,16.95h11.9m21.6-20.85h25.65m-31.3,0h4.55m-5.7,0v11.9m32.45-11.9v11.9m1-11.9v11.9m-27.75-2.5v2.5m0-6.75v3m51.3-8.15v9.35m.95-9.35v9.1m23.55-9.1v6.25m-107.1-5.85l11.65,11.65m-12.35-10.95l11.65,11.65m97.15-12.75h23.5M46.49,76.11h-2.25m11.9,0h-2.3m205.55,1.15v-1.15m-7.4,1.15v-1.15m-205.5,1.15h-3.4m13.05-19.9v6.3m63.2-7.8h-14.95m143.85,0h-13.35m14.85,20.25v-11.3m11.9-18.45v17.3M46.64,43.96h24.3m177.65,33.3v-19.9m-204.35-11v17.3m13,13.6h-3.4m-7.35,0v-1.15m216.3-29.75v30.9M43.09,46.36v30.9m3.55-34.45h212.6m-11,14.2h-61.9m-129.1.35v19.9m62.25-20.25h-61.85"/>
  <line class="cls-3" x1="62.78" y1="248.31" x2="119.54" y2="248.31"/>
  <line class="cls-24" x1="248.48" y1="95.45" x2="248.63" y2="95.45"/>
  <line class="cls-14" x1="119.54" y1="56.98" x2="57.64" y2="56.98"/>
  <line class="cls-3" x1="62.78" y1="248.31" x2="119.54" y2="248.31"/>
  <line class="cls-8" x1="57.29" y1="57.33" x2="57.29" y2="77.24"/>
  <line class="cls-14" x1="248.27" y1="56.98" x2="186.38" y2="56.98"/>
  <line class="cls-24" x1="248.48" y1="95.45" x2="248.63" y2="95.45"/>
  <line class="cls-24" x1="46.66" y1="42.8" x2="259.26" y2="42.8"/>
  <line class="cls-6" x1="43.11" y1="46.35" x2="43.11" y2="77.24"/>
  <line class="cls-6" x1="262.8" y1="46.35" x2="262.8" y2="77.24"/>
  <line class="cls-24" x1="57.29" y1="77.24" x2="53.89" y2="77.24"/>
  <line class="cls-18" x1="44.25" y1="46.35" x2="44.25" y2="63.64"/>
  <line class="cls-8" x1="248.63" y1="77.24" x2="248.63" y2="57.33"/>
  <line class="cls-25" x1="46.66" y1="43.94" x2="70.98" y2="43.94"/>
  <line class="cls-18" x1="261.67" y1="46.35" x2="261.67" y2="63.64"/>
  <line class="cls-13" x1="249.76" y1="76.11" x2="249.76" y2="64.77"/>
  <line class="cls-21" x1="248.27" y1="55.84" x2="234.93" y2="55.84"/>
  <line class="cls-16" x1="119.34" y1="55.84" x2="104.41" y2="55.84"/>
  <line class="cls-7" x1="56.15" y1="57.33" x2="56.15" y2="63.64"/>
  <line class="cls-24" x1="252.03" y1="77.24" x2="252.03" y2="76.11"/>
  <line class="cls-24" x1="56.15" y1="76.11" x2="53.89" y2="76.11"/>
  <line class="cls-24" x1="46.52" y1="76.11" x2="44.25" y2="76.11"/>
  <line class="cls-5" x1="153.45" y1="43.94" x2="176.98" y2="43.94"/>
  <line class="cls-27" x1="44.64" y1="45.03" x2="56.3" y2="56.69"/>
  <line class="cls-27" x1="45.34" y1="44.33" x2="57" y2="55.99"/>
  <line class="cls-22" x1="152.46" y1="43.94" x2="152.46" y2="50.17"/>
  <line class="cls-20" x1="128.93" y1="43.94" x2="128.93" y2="53.03"/>
  <line class="cls-15" x1="127.94" y1="43.94" x2="127.94" y2="53.27"/>
  <line class="cls-24" x1="76.65" y1="49.11" x2="76.65" y2="52.09"/>
  <line class="cls-24" x1="76.65" y1="53.36" x2="76.65" y2="55.84"/>
  <line class="cls-2" x1="104.41" y1="43.94" x2="104.41" y2="55.84"/>
  <line class="cls-2" x1="103.42" y1="43.94" x2="103.42" y2="55.84"/>
  <line class="cls-2" x1="70.98" y1="43.94" x2="70.98" y2="55.84"/>
  <line class="cls-24" x1="72.11" y1="43.94" x2="76.65" y2="43.94"/>
  <line class="cls-19" x1="77.78" y1="43.94" x2="103.42" y2="43.94"/>
  <line class="cls-2" x1="44.25" y1="64.77" x2="56.15" y2="64.77"/>
  <line class="cls-24" x1="72.11" y1="43.94" x2="72.11" y2="47.83"/>
  <line class="cls-24" x1="76.65" y1="43.94" x2="76.65" y2="47.83"/>
  <line class="cls-2" x1="77.78" y1="43.94" x2="77.78" y2="55.84"/>
  <line class="cls-24" x1="72.11" y1="49.11" x2="72.11" y2="52.09"/>
  <line class="cls-24" x1="72.11" y1="53.36" x2="72.11" y2="55.84"/>
  <line class="cls-24" x1="76.65" y1="55.84" x2="72.11" y2="55.84"/>
  <line class="cls-21" x1="70.98" y1="55.84" x2="57.64" y2="55.84"/>
  <line class="cls-5" x1="104.41" y1="43.94" x2="127.94" y2="43.94"/>
  <line class="cls-19" x1="103.42" y1="55.84" x2="77.78" y2="55.84"/>
  <line class="cls-5" x1="128.93" y1="43.94" x2="152.46" y2="43.94"/>
  <line class="cls-2" x1="44.25" y1="63.64" x2="56.15" y2="63.64"/>
  <line class="cls-13" x1="44.25" y1="64.77" x2="44.25" y2="76.11"/>
  <line class="cls-13" x1="56.15" y1="64.77" x2="56.15" y2="76.11"/>
  <line class="cls-22" x1="153.45" y1="43.94" x2="153.45" y2="50.17"/>
  <line class="cls-15" x1="177.97" y1="43.94" x2="177.97" y2="53.27"/>
  <line class="cls-20" x1="176.98" y1="43.94" x2="176.98" y2="53.03"/>
  <line class="cls-2" x1="202.49" y1="43.94" x2="202.49" y2="55.84"/>
  <line class="cls-2" x1="201.5" y1="43.94" x2="201.5" y2="55.84"/>
  <line class="cls-2" x1="228.13" y1="43.94" x2="228.13" y2="55.84"/>
  <line class="cls-24" x1="229.26" y1="43.94" x2="229.26" y2="47.83"/>
  <line class="cls-24" x1="229.26" y1="53.36" x2="229.26" y2="55.84"/>
  <line class="cls-24" x1="229.26" y1="49.11" x2="229.26" y2="52.09"/>
  <line class="cls-24" x1="233.8" y1="53.36" x2="233.8" y2="55.84"/>
  <line class="cls-24" x1="233.8" y1="49.11" x2="233.8" y2="52.09"/>
  <line class="cls-24" x1="233.8" y1="43.94" x2="233.8" y2="47.83"/>
  <line class="cls-2" x1="234.93" y1="43.94" x2="234.93" y2="55.84"/>
  <line class="cls-27" x1="260.57" y1="44.33" x2="248.91" y2="55.99"/>
  <line class="cls-27" x1="261.27" y1="45.03" x2="249.61" y2="56.69"/>
  <line class="cls-24" x1="248.63" y1="77.24" x2="252.03" y2="77.24"/>
  <line class="cls-24" x1="249.76" y1="76.11" x2="252.03" y2="76.11"/>
  <line class="cls-24" x1="259.4" y1="76.11" x2="261.66" y2="76.11"/>
  <line class="cls-24" x1="259.4" y1="77.24" x2="262.8" y2="77.24"/>
  <line class="cls-9" x1="261.67" y1="63.64" x2="249.76" y2="63.64"/>
  <line class="cls-9" x1="261.67" y1="64.77" x2="249.76" y2="64.77"/>
  <line class="cls-5" x1="177.97" y1="43.94" x2="201.5" y2="43.94"/>
  <line class="cls-19" x1="202.49" y1="43.94" x2="228.13" y2="43.94"/>
  <line class="cls-16" x1="201.5" y1="55.84" x2="186.57" y2="55.84"/>
  <line class="cls-24" x1="229.26" y1="43.94" x2="233.8" y2="43.94"/>
  <line class="cls-25" x1="234.93" y1="43.94" x2="259.26" y2="43.94"/>
  <line class="cls-24" x1="233.8" y1="55.84" x2="229.26" y2="55.84"/>
  <line class="cls-19" x1="228.13" y1="55.84" x2="202.49" y2="55.84"/>
  <line class="cls-13" x1="261.67" y1="64.77" x2="261.67" y2="76.11"/>
  <line class="cls-7" x1="249.76" y1="63.64" x2="249.76" y2="57.33"/>
  <line class="cls-24" x1="46.52" y1="77.24" x2="46.52" y2="76.11"/>
  <line class="cls-24" x1="53.89" y1="77.24" x2="53.89" y2="76.11"/>
  <line class="cls-24" x1="259.4" y1="77.24" x2="259.4" y2="76.11"/>
  <line class="cls-24" x1="252.03" y1="77.24" x2="252.03" y2="76.11"/>
  <line class="cls-24" x1="259.4" y1="77.24" x2="259.4" y2="76.11"/>
  <line class="cls-6" x1="262.8" y1="46.35" x2="262.8" y2="77.24"/>
  <line class="cls-17" x1="271.55" y1="42.87" x2="294.9" y2="42.87"/>
  <line class="cls-17" x1="290.12" y1="53.87" x2="290.12" y2="262.67"/>
  <polygon class="cls-28" points="290.12 42.87 288.06 53.6 292.17 53.6 290.12 42.87"/>
  <polygon class="cls-17" points="290.12 42.87 288.06 53.6 292.17 53.6 290.12 42.87"/>
  <polygon class="cls-28" points="290.12 262.6 288.06 251.87 292.17 251.87 290.12 262.6"/>
  <polygon class="cls-17" points="290.12 262.6 288.06 251.87 292.17 251.87 290.12 262.6"/>
  <line class="cls-17" x1="271.55" y1="262.67" x2="294.9" y2="262.67"/>
  <text class="cls-29" transform="translate(287.47 170.78) rotate(-90)"><tspan x="0" y="0">155 / 185</tspan></text>
  <line class="cls-17" x1="264.58" y1="11.59" x2="264.58" y2="34.94"/>
  <line class="cls-17" x1="253.58" y1="17.16" x2="41.78" y2="17.16"/>
  <polygon class="cls-28" points="264.58 17.16 253.86 15.11 253.86 19.22 264.58 17.16"/>
  <polygon class="cls-17" points="264.58 17.16 253.86 15.11 253.86 19.22 264.58 17.16"/>
  <polygon class="cls-28" points="41.86 17.16 52.58 15.11 52.58 19.22 41.86 17.16"/>
  <polygon class="cls-17" points="41.86 17.16 52.58 15.11 52.58 19.22 41.86 17.16"/>
  <line class="cls-17" x1="41.78" y1="11.59" x2="41.78" y2="34.94"/>
  <text class="cls-29" transform="translate(132.67 14.52)"><tspan x="0" y="0">155 / 185</tspan></text>
</svg>