<?xml version="1.0" encoding="utf-8"?>
<!-- Generator: Adobe Illustrator 27.2.0, SVG Export Plug-In . SVG Version: 6.00 Build 0)  -->
<svg version="1.1" id="Capa_1" xmlns="http://www.w3.org/2000/svg" xmlns:xlink="http://www.w3.org/1999/xlink" x="0px" y="0px"
	 viewBox="0 0 85 85" style="enable-background:new 0 0 85 85;" xml:space="preserve">
<style type="text/css">
	.st0{fill:#C7B299;}
	.st1{fill:#736357;}
	.st2{fill:none;stroke:#B3B3B3;stroke-width:5;stroke-miterlimit:10;}
	.st3{fill:#B3B3B3;}
	.st4{fill:none;stroke:#FFFFFF;stroke-width:5;stroke-miterlimit:10;}
	.st5{fill:#FFFFFF;}
</style>
<g>
	<g>
		<g>
			<g>
				<path id="XMLID_00000118376314696209167680000001492619922214087592_" class="st0" d="M85.1,42.5C85.1,66,66,85.1,42.5,85.1
					C19,85.1-0.1,66-0.1,42.5C-0.1,19,19-0.1,42.5-0.1C66-0.1,85.1,19,85.1,42.5"/>
				<path id="XMLID_00000176726527832040058220000008477087617114108034_" class="st1" d="M42.5-0.1C66-0.1,85.1,19,85.1,42.5
					C85.1,66,66,85.1,42.5,85.1"/>
			</g>
		</g>
	</g>
	<g>
		<g>
			<polyline class="st2" points="27.2,12.3 27.2,54.1 50.8,54.1 			"/>
			<path class="st3" d="M50.8,54.1v16.3c0,2-2.1,3.5-4.6,3.5h0c-2.5,0-4.6-1.6-4.6-3.5V54.1H50.8z"/>
		</g>
		<g>
			<g>
				<polyline class="st4" points="27.2,12.3 27.2,54.1 50.8,54.1 				"/>
				<path class="st5" d="M50.8,54.1v16.3c0,2-2.1,3.5-4.6,3.5h0c-2.5,0-4.6-1.6-4.6-3.5V54.1H50.8z"/>
			</g>
		</g>
	</g>
</g>
</svg>
