<?xml version="1.0" encoding="UTF-8"?>
<svg id="Capa_1" data-name="Capa 1" xmlns="http://www.w3.org/2000/svg" viewBox="0 0 330.32 167">
  <defs>
    <style>
      .cls-1 {
        fill: #c59;
      }

      .cls-2 {
        fill: #ea0029;
      }

      .cls-3 {
        fill: #9594d2;
      }

      .cls-4, .cls-5, .cls-6 {
        fill: #fff;
      }

      .cls-5, .cls-6, .cls-7, .cls-8, .cls-9, .cls-10, .cls-11 {
        stroke: #fff;
      }

      .cls-5, .cls-6, .cls-7, .cls-8, .cls-10, .cls-11 {
        stroke-miterlimit: 10;
      }

      .cls-5, .cls-9, .cls-10 {
        stroke-width: .25px;
      }

      .cls-12 {
        fill: #402020;
      }

      .cls-13 {
        fill: #61a60e;
      }

      .cls-14 {
        letter-spacing: -.01em;
      }

      .cls-6, .cls-8 {
        stroke-width: .5px;
      }

      .cls-15 {
        letter-spacing: 0em;
      }

      .cls-16 {
        fill: #1d1d1b;
        font-family: Roboto-Light, Roboto;
        font-size: 10.74px;
        font-weight: 300;
      }

      .cls-7, .cls-8, .cls-9, .cls-10, .cls-11 {
        fill: none;
      }

      .cls-7, .cls-9, .cls-11 {
        stroke-linecap: round;
      }

      .cls-17 {
        fill: #7f2854;
      }

      .cls-18 {
        letter-spacing: 0em;
      }

      .cls-19 {
        fill: #7d8035;
      }

      .cls-20 {
        letter-spacing: 0em;
      }

      .cls-21 {
        fill: #3f3a60;
      }

      .cls-22 {
        fill: #535335;
      }

      .cls-23 {
        fill: #3a8dde;
      }

      .cls-24 {
        fill: #f2672e;
      }

      .cls-25 {
        fill: #f8982d;
      }

      .cls-26 {
        fill: #006937;
      }

      .cls-9 {
        stroke-linejoin: round;
      }

      .cls-27 {
        fill: #004987;
      }

      .cls-11 {
        stroke-width: .75px;
      }

      .cls-28 {
        letter-spacing: 0em;
      }
    </style>
  </defs>
  <g>
    <g>
      <path class="cls-19" d="m139.16,108.1c0,11.19-9.07,20.25-20.27,20.25s-20.26-9.06-20.26-20.25,9.07-20.26,20.26-20.26,20.27,9.07,20.27,20.26"/>
      <path class="cls-22" d="m118.89,87.84c11.19,0,20.27,9.07,20.27,20.26s-9.08,20.25-20.27,20.25"/>
      <path class="cls-4" d="m118.89,111.91s1.45-5.36,5.69-7.17c0,0-8.23,1.72-6.39,15.71h-1.63s-.16-4.13,0-6.01c-1.14-4.16-3.55-4.49-3.99-4.52h-.07.07c3.06.04,3.96,2.39,4.17,3.1.21-1.29.6-2.72,1.28-4.09l-.03.07c-1.59-6.67-5.86-6.82-5.86-6.82,3.72,1.74,4.81,5.34,4.81,5.34-6-.58-5.85-6.39-5.85-6.39,8.83,0,7.11,7.44,7.11,7.44l-.02.05c1.45-2.72,4.12-5.12,8.95-5.63,0,0,.52,7.98-8.25,8.92m.28-19.97s-13.99,10.6-15.06,11.38c-1.07.79-2.52,2.29,0,2.29h2.66v14.84h24.71v-14.84h2.66c2.29,0,1.05-1.49,0-2.29l-14.97-11.38Zm14.97,11.38"/>
    </g>
    <g>
      <text class="cls-16" transform="translate(90.39 148.47)"><tspan x="0" y="0">EFICIENC</tspan><tspan class="cls-15" x="45.56" y="0">I</tspan><tspan x="48.49" y="0">A</tspan></text>
      <text class="cls-16" transform="translate(86.39 161.35)"><tspan x="0" y="0">ENERGÉTICA</tspan></text>
    </g>
  </g>
  <g>
    <g>
      <path class="cls-13" d="m226.99,108.11c0,11.19-9.07,20.25-20.26,20.25s-20.26-9.06-20.26-20.25,9.07-20.26,20.26-20.26,20.26,9.07,20.26,20.26"/>
      <path class="cls-26" d="m206.73,87.84c11.19,0,20.26,9.07,20.26,20.26s-9.07,20.25-20.26,20.25"/>
      <path class="cls-4" d="m193.04,108.03h3.09c.23,0,.44-.06.63-.16.2-.1.37-.25.51-.44.14-.18.26-.4.34-.65.08-.25.12-.52.12-.81s-.05-.57-.14-.82c-.09-.25-.22-.47-.38-.65-.16-.19-.35-.33-.55-.43-.21-.1-.42-.15-.63-.15h-2.98v4.11Zm-2.46,6.4v-12.67h5.6c.58,0,1.13.12,1.62.37.5.24.92.56,1.27.96.35.4.64.85.84,1.35.21.51.31,1.02.31,1.53,0,.82-.21,1.57-.62,2.24-.41.67-.96,1.16-1.67,1.45l2.89,4.77h-2.77l-2.59-4.25h-2.43v4.25h-2.46Z"/>
      <path class="cls-4" d="m204.91,108.03h2.86c.45,0,.83-.19,1.13-.56.31-.36.46-.86.46-1.49,0-.32-.05-.61-.15-.87-.09-.25-.22-.47-.37-.66-.15-.18-.33-.31-.54-.4-.21-.09-.42-.14-.64-.14h-2.75v4.11Zm-2.46,6.4v-12.67h5.37c.59,0,1.13.12,1.62.37.49.24.92.56,1.27.96.35.4.63.85.84,1.35.2.51.31,1.02.31,1.53s-.1,1.05-.29,1.56c-.19.51-.46.95-.8,1.35-.34.39-.76.71-1.25.95-.49.23-1.02.35-1.61.35h-3v4.25h-2.46Z"/>
      <polygon class="cls-4" points="223.04 103.93 218.99 103.93 218.99 114.44 216.55 114.44 216.55 103.93 212.49 103.93 212.49 101.77 223.04 101.77 223.04 103.93"/>
    </g>
    <text class="cls-16" transform="translate(196.68 148.47)"><tspan x="0" y="0">RPT</tspan></text>
  </g>
  <g>
    <g>
      <path class="cls-23" d="m314.82,108.11c0,11.19-9.07,20.26-20.26,20.26s-20.26-9.07-20.26-20.26,9.07-20.27,20.26-20.27,20.26,9.07,20.26,20.27"/>
      <path class="cls-27" d="m294.56,87.84c11.19,0,20.26,9.07,20.26,20.27s-9.07,20.26-20.26,20.26"/>
      <g>
        <path class="cls-4" d="m294.64,110.26c-1.6,0-2.93-1.29-2.96-2.86-.03-1.63,1.34-3.05,2.96-3.06,1.61,0,2.99,1.42,2.96,3.05-.03,1.59-1.34,2.86-2.96,2.87m4.89-2.78c.01-2.82-2.11-5.05-4.83-5.08-2.77-.03-4.96,2.21-4.96,5.09,0,1.52.06,8,.02,9.7-.03,1.16.58,1.63,1.64,1.64,2.11.02,4.22.01,6.34,0,1.19,0,1.8-.5,1.79-1.79-.04-3.19,0-6.38,0-9.57"/>
        <path class="cls-4" d="m296.25,107.3c0,.89-.72,1.61-1.61,1.61s-1.61-.72-1.61-1.61.72-1.6,1.61-1.6,1.61.72,1.61,1.6"/>
        <path class="cls-4" d="m298.99,103.03c-.25,0-.5-.1-.68-.3-1.05-1.09-2.19-1.65-3.4-1.67-.01,0-.03,0-.04,0-2.11,0-3.83,1.67-3.85,1.69-.37.37-.97.37-1.34,0-.37-.37-.37-.97,0-1.34.09-.09,2.27-2.24,5.18-2.24h.06c1.73.02,3.33.78,4.74,2.25.36.38.35.98-.03,1.34-.18.18-.42.26-.65.26"/>
        <path class="cls-4" d="m298.99,99.36c-.25,0-.5-.1-.68-.3-1.05-1.09-2.19-1.65-3.4-1.67-.01,0-.03,0-.04,0-2.11,0-3.83,1.67-3.85,1.69-.37.37-.97.37-1.34,0-.37-.37-.37-.97,0-1.34.09-.09,2.27-2.24,5.18-2.24h.06c1.73.02,3.33.78,4.74,2.25.36.38.35.98-.03,1.34-.18.18-.42.26-.65.26"/>
      </g>
    </g>
    <text class="cls-16" transform="translate(258.92 148.47)"><tspan x="0" y="0">MOTORIZABLE</tspan></text>
  </g>
  <g>
    <g>
      <text class="cls-16" transform="translate(15.55 148.47)"><tspan class="cls-18" x="0" y="0">L</tspan><tspan x="5.76" y="0">ARGA</tspan></text>
      <text class="cls-16" transform="translate(6.05 161.35)"><tspan x="0" y="0">DUR</tspan><tspan class="cls-20" x="20.91" y="0">A</tspan><tspan x="27.57" y="0">CIÓN</tspan></text>
    </g>
    <g>
      <path class="cls-3" d="m51.32,108.1c0,11.19-9.07,20.26-20.26,20.26s-20.26-9.07-20.26-20.26,9.07-20.26,20.26-20.26,20.26,9.07,20.26,20.26"/>
      <path class="cls-21" d="m31.02,87.84c11.19,0,20.26,9.07,20.26,20.26s-9.07,20.26-20.26,20.26"/>
      <g>
        <path class="cls-4" d="m39.04,111.12s-2.03,5.28-7.89,5.28c-4.25,0-8.64-3.62-8.42-8.61.37-8.32,8.34-8.32,8.34-8.32l.08,8.35,7.89,3.29Z"/>
        <path class="cls-4" d="m31.15,118.65c-5.86,0-10.62-4.73-10.62-10.58s4.76-10.58,10.62-10.58,10.62,4.74,10.62,10.58-4.75,10.58-10.62,10.58m1.43-23.43h-2.73c-6.55.64-11.66,6.14-11.66,12.85,0,7.13,5.8,12.92,12.96,12.92s12.97-5.79,12.97-12.92c0-6.66-5.05-12.14-11.54-12.85m0,0"/>
      </g>
    </g>
  </g>
  <g>
    <text class="cls-16" transform="translate(87.84 64.79)"><tspan x="0" y="0">SEGURIDAD</tspan></text>
    <g>
      <path class="cls-2" d="m137.31,25.91c0,11.15-9.03,20.17-20.18,20.17s-20.17-9.02-20.17-20.17,9.03-20.17,20.17-20.17,20.18,9.03,20.18,20.17"/>
      <path class="cls-12" d="m117.31,5.74c11.14,0,20.17,9.03,20.17,20.17s-9.03,20.17-20.17,20.17"/>
      <g>
        <path class="cls-4" d="m123.28,22.81h-11.93c-1.23,0-2.24,1-2.24,2.24v7.46c0,2.06,1.67,3.73,3.73,3.73h8.95c2.06,0,3.73-1.67,3.73-3.73v-7.46c0-1.23-1-2.24-2.24-2.24Zm-4.97,10.15c-.37.45-1.92.41-2.34,0-.58-.58,0-3.26,0-3.26-.59-.39-1-1.02-1-1.77,0-1.2.97-2.16,2.16-2.16s2.16.97,2.16,2.16c0,.75-.41,1.39-1,1.77,0,0,.51,2.62,0,3.26Z"/>
        <path class="cls-4" d="m112.84,19.83c0-2.47,2.01-4.47,4.47-4.47s4.47,2.01,4.47,4.47v1.49h1.49v-1.49c0-3.29-2.68-5.97-5.97-5.97s-5.97,2.68-5.97,5.97v1.49h1.49v-1.49Z"/>
      </g>
    </g>
  </g>
  <g>
    <g>
      <text class="cls-16" transform="translate(256.69 65.04)"><tspan x="0" y="0">AIS</tspan><tspan class="cls-28" x="15.93" y="0">L</tspan><tspan x="21.67" y="0">AMIE</tspan><tspan class="cls-14" x="46.64" y="0">NT</tspan><tspan x="60.41" y="0">O</tspan></text>
      <text class="cls-16" transform="translate(265.21 77.93)"><tspan class="cls-20" x="0" y="0">A</tspan><tspan x="6.65" y="0">CÚSTICO</tspan></text>
    </g>
    <g>
      <line class="cls-7" x1="301.45" y1="14.3" x2="301.45" y2="38.13"/>
      <path class="cls-1" d="m310.38,26.01c0,11.19-9.07,20.26-20.26,20.26s-20.26-9.07-20.26-20.26,9.07-20.26,20.26-20.26,20.26,9.07,20.26,20.26"/>
      <path class="cls-17" d="m290.11,5.74c11.19,0,20.26,9.07,20.26,20.26s-9.07,20.26-20.26,20.26"/>
      <g>
        <path class="cls-5" d="m284.29,26.21v-7.91h-1.96c0,1.96-1.62,3.26-2.57,3.84-.39.24-.84.36-1.31.36h-1.39v7.4h1.39c.47,0,.92.12,1.31.36.95.59,2.57,1.88,2.57,3.84h1.96v-7.91Z"/>
        <g>
          <path class="cls-8" d="m288.43,32.38c2.37-1,4.04-3.35,4.04-6.09h0c0-2.74-1.66-5.09-4.04-6.09"/>
          <path class="cls-8" d="m291.53,33.6c2.62-1.38,4.4-4.12,4.4-7.28h0c0-3.16-1.78-5.91-4.4-7.28"/>
          <path class="cls-8" d="m285.72,30.89c2.01-.57,3.48-2.41,3.48-4.6h0c0-2.19-1.47-4.04-3.48-4.6"/>
        </g>
      </g>
      <line class="cls-11" x1="301.45" y1="14.3" x2="301.45" y2="38.13"/>
    </g>
  </g>
  <g>
    <text class="cls-16" transform="translate(-.09 64.79)"><tspan x="0" y="0">PROTECCION</tspan></text>
    <text class="cls-16" transform="translate(15.97 77.68)"><tspan x="0" y="0">SOLAR</tspan></text>
  </g>
  <g>
    <g>
      <text class="cls-16" transform="translate(172.02 64.76)"><tspan x="0" y="0">AIS</tspan><tspan class="cls-28" x="15.93" y="0">L</tspan><tspan x="21.67" y="0">AMIE</tspan><tspan class="cls-14" x="46.64" y="0">NT</tspan><tspan x="60.41" y="0">O</tspan></text>
      <text class="cls-16" transform="translate(183 77.65)"><tspan x="0" y="0">TÉRMICO</tspan></text>
    </g>
    <g>
      <path class="cls-2" d="m225.32,26c0,11.19-9.07,20.26-20.26,20.26s-20.26-9.07-20.26-20.26,9.07-20.26,20.26-20.26,20.26,9.07,20.26,20.26"/>
      <path class="cls-23" d="m205.05,5.74c11.19,0,20.26,9.07,20.26,20.26s-9.07,20.26-20.26,20.26"/>
      <path class="cls-4" d="m207.03,32v-13.77c0-.99-.81-1.8-1.8-1.8s-1.8.81-1.8,1.8l-.02,13.77c-2.04.74-3.5,2.7-3.5,5,0,2.93,2.38,5.31,5.31,5.31s5.31-2.38,5.31-5.31c0-2.3-1.46-4.26-3.51-5Zm-1.8,6.8c-.99,0-1.8-.81-1.8-1.8s.81-1.8,1.8-1.8,1.8.81,1.8,1.8-.81,1.8-1.8,1.8Z"/>
      <g>
        <line class="cls-10" x1="209.67" y1="27.23" x2="209.64" y2="9.9"/>
        <line class="cls-10" x1="209.65" y1="18.92" x2="216.75" y2="18.91"/>
        <line class="cls-10" x1="209.65" y1="18.86" x2="214.7" y2="23.9"/>
        <line class="cls-10" x1="209.65" y1="18.86" x2="214.63" y2="13.87"/>
        <line class="cls-10" x1="212.66" y1="24.2" x2="212.7" y2="21.9"/>
        <line class="cls-10" x1="215.03" y1="21.85" x2="212.7" y2="21.9"/>
        <polyline class="cls-10" points="215.5 20.58 213.83 18.92 215.57 17.17"/>
        <line class="cls-10" x1="215.02" y1="15.95" x2="212.57" y2="15.94"/>
        <line class="cls-10" x1="212.54" y1="13.54" x2="212.57" y2="15.94"/>
        <line class="cls-10" x1="211.4" y1="13.02" x2="209.67" y2="14.76"/>
        <line class="cls-10" x1="211.4" y1="24.75" x2="209.69" y2="23.03"/>
      </g>
      <g>
        <path class="cls-10" d="m200.37,22.46c-1.05.02-2.12-.36-2.94-1.14-1.64-1.57-1.69-4.17-.12-5.81.78-.82,1.82-1.24,2.87-1.26"/>
        <line class="cls-10" x1="193.49" y1="18.56" x2="196.18" y2="18.5"/>
        <line class="cls-10" x1="195.43" y1="13.7" x2="197.31" y2="15.51"/>
        <line class="cls-10" x1="195.62" y1="23.21" x2="197.44" y2="21.32"/>
        <line class="cls-10" x1="193.38" y1="21.38" x2="196.52" y2="20"/>
        <line class="cls-10" x1="193.24" y1="15.62" x2="196.29" y2="16.84"/>
        <line class="cls-10" x1="197.27" y1="11.48" x2="198.6" y2="14.46"/>
        <line class="cls-10" x1="197.6" y1="25.4" x2="198.74" y2="22.27"/>
        <line class="cls-10" x1="200.55" y1="27.29" x2="200.55" y2="9.84"/>
      </g>
    </g>
  </g>
  <g>
    <path class="cls-25" d="m49.65,26c0,11.19-9.07,20.26-20.26,20.26s-20.26-9.07-20.26-20.26S18.2,5.74,29.39,5.74s20.26,9.07,20.26,20.26"/>
    <path class="cls-24" d="m29.39,5.74c11.19,0,20.26,9.07,20.26,20.26s-9.07,20.26-20.26,20.26"/>
    <g>
      <line class="cls-6" x1="30.5" y1="26.74" x2="26.22" y2="22.64"/>
      <line class="cls-6" x1="19.92" y1="31.31" x2="19.79" y2="25.54"/>
      <line class="cls-6" x1="34.42" y1="16.16" x2="28.63" y2="16.29"/>
      <line class="cls-6" x1="35.05" y1="22.5" x2="28.02" y2="19.78"/>
      <line class="cls-6" x1="26.32" y1="31.72" x2="23.46" y2="25.07"/>
      <line class="cls-6" x1="13.59" y1="31.89" x2="16.16" y2="25.17"/>
      <line class="cls-6" x1="34.73" y1="9.68" x2="28.09" y2="12.78"/>
    </g>
    <line class="cls-11" x1="41.4" y1="14.66" x2="41.4" y2="38.49"/>
    <g>
      <polyline class="cls-9" points="35.8 25.16 41.4 28.95 29.86 35.79"/>
      <polygon class="cls-4" points="29.62 34.85 28.71 36.48 30.58 36.45 29.62 34.85"/>
    </g>
    <path class="cls-6" d="m14.3,21.75l-1.23,1.29c1.67,1.6,3.95,2.55,6.44,2.5,5-.11,8.96-4.24,8.85-9.24-.05-2.5-1.12-4.75-2.8-6.35l-11.27,11.8Z"/>
  </g>
</svg>