<?xml version="1.0" encoding="utf-8"?>
<!-- Generator: Adobe Illustrator 27.2.0, SVG Export Plug-In . SVG Version: 6.00 Build 0)  -->
<svg version="1.1" id="Capa_1" xmlns="http://www.w3.org/2000/svg" xmlns:xlink="http://www.w3.org/1999/xlink" x="0px" y="0px"
	 viewBox="0 0 85 85" style="enable-background:new 0 0 85 85;" xml:space="preserve">
<style type="text/css">
	.st0{fill:#3A8DDE;}
	.st1{fill:#004987;}
	.st2{fill:#FFFFFF;}
</style>
<g>
	<g>
		<g>
			<path id="XMLID_00000013153441736307930510000012716694640211422354_" class="st0" d="M85.2,42.5c0,23.5-19.1,42.6-42.6,42.6
				C19.1,85.1,0,66,0,42.5C0,19,19.1-0.1,42.6-0.1C66.1-0.1,85.2,19,85.2,42.5"/>
			<path id="XMLID_00000150086834793060372420000000169272801905151123_" class="st1" d="M42.6-0.1c23.5,0,42.6,19.1,42.6,42.6
				c0,23.5-19.1,42.6-42.6,42.6"/>
			<g>
				<path id="XMLID_00000003064913714142384070000000863622281636095909_" class="st2" d="M42.8,47c-3.4,0-6.2-2.7-6.2-6
					c-0.1-3.4,2.8-6.4,6.2-6.4c3.4,0,6.3,3,6.2,6.4C49,44.3,46.2,47,42.8,47 M53.1,41.2c0-5.9-4.4-10.6-10.2-10.7
					c-5.8-0.1-10.4,4.6-10.4,10.7c0,3.2,0.1,16.8,0,20.4c-0.1,2.4,1.2,3.4,3.4,3.5c4.4,0,8.9,0,13.3,0c2.5,0,3.8-1.1,3.8-3.8
					C53,54.6,53.1,47.9,53.1,41.2"/>
				<path id="XMLID_00000101810567741253751350000005565538916252293552_" class="st2" d="M46.2,40.8c0,1.9-1.5,3.4-3.4,3.4
					c-1.9,0-3.4-1.5-3.4-3.4c0-1.9,1.5-3.4,3.4-3.4C44.6,37.4,46.2,38.9,46.2,40.8"/>
				<path id="XMLID_00000064317943399329698740000018251837198964549543_" class="st2" d="M51.9,31.8c-0.5,0-1-0.2-1.4-0.6
					c-2.2-2.3-4.6-3.5-7.1-3.5c0,0-0.1,0-0.1,0c-4.4,0-8.1,3.5-8.1,3.5c-0.8,0.8-2,0.8-2.8,0c-0.8-0.8-0.8-2,0-2.8
					c0.2-0.2,4.8-4.7,10.9-4.7h0.1c3.6,0,7,1.6,10,4.7c0.8,0.8,0.7,2.1-0.1,2.8C52.9,31.6,52.4,31.8,51.9,31.8"/>
				<path id="XMLID_00000062194110629077933210000007934014299721553550_" class="st2" d="M51.9,24.1c-0.5,0-1-0.2-1.4-0.6
					c-2.2-2.3-4.6-3.5-7.1-3.5c0,0-0.1,0-0.1,0c-4.4,0-8.1,3.5-8.1,3.5c-0.8,0.8-2,0.8-2.8,0c-0.8-0.8-0.8-2,0-2.8
					c0.2-0.2,4.8-4.7,10.9-4.7h0.1c3.6,0,7,1.6,10,4.7c0.8,0.8,0.7,2.1-0.1,2.8C52.9,23.9,52.4,24.1,51.9,24.1"/>
			</g>
		</g>
	</g>
</g>
</svg>
