<?xml version="1.0" encoding="UTF-8"?>
<svg id="Capa_1" data-name="Capa 1" xmlns="http://www.w3.org/2000/svg" viewBox="0 0 338 247">
  <defs>
    <style>
      .cls-1 {
        fill-rule: evenodd;
      }

      .cls-1, .cls-2 {
        fill: #93c01f;
      }
    </style>
  </defs>
  <g>
    <path class="cls-2" d="m25.59,0h197.98v197.97H25.59V0Zm187.9,10.07H35.66v177.83h177.83V10.07Z"/>
    <path class="cls-2" d="m52.44,247c10.91-9.3,55.7-55.73,66.16-67.39-16.75-20.38-44.96-47.64-44.52-92.65.26-24.79,16.49-55.14,55.9-58.5C31.05,3.06-61.29,111.5,52.44,247c10.91-9.3,55.7-55.73,66.16-67.39"/>
    <path class="cls-2" d="m189.28,84.47c0,29.06-23.58,52.66-52.69,52.66s-52.64-23.6-52.64-52.66,23.58-52.65,52.64-52.65,52.69,23.56,52.69,52.65"/>
  </g>
  <path class="cls-1" d="m328.19,79.04c-13.4-10.2-6.44-4.9-103.93-79.04,0,0-.28.21-.69.52v197.45h31.15s-.71-6.04.04-14.48c-4.7-17.17-14.17-19.87-17.29-20.3,13.16.55,17.17,10.76,18.07,13.89.96-5.84,2.75-12.27,5.79-18.47l-.13.3c-7.19-30.15-26.42-30.79-26.42-30.79,16.8,7.87,21.71,24.14,21.71,24.14-27.09-2.61-26.44-28.88-26.44-28.88,39.89,0,32.13,33.62,32.13,33.62l-.09.2c6.56-12.29,18.59-23.13,40.43-25.41,0,0,4.22,33.57-35.37,37.82,0,0,5.95-21.03,23.82-29.95,0,0-33.1,4.2-28.88,58.31h47.63v-103.03h18.47c15.89,0,7.29-10.35,0-15.9Z"/>
</svg>