<?xml version="1.0" encoding="UTF-8"?>
<svg id="Capa_1" data-name="Capa 1" xmlns="http://www.w3.org/2000/svg" viewBox="0 0 2212 332">
  <defs>
    <style>
      .cls-1 {
        fill: #c59;
      }

      .cls-2 {
        fill: #ea0029;
      }

      .cls-3 {
        fill: #9594d2;
      }

      .cls-4, .cls-5, .cls-6 {
        fill: #fff;
      }

      .cls-4, .cls-7 {
        stroke-width: .15px;
      }

      .cls-4, .cls-7, .cls-6, .cls-8, .cls-9, .cls-10 {
        stroke: #fff;
      }

      .cls-4, .cls-7, .cls-6, .cls-8, .cls-10 {
        stroke-miterlimit: 10;
      }

      .cls-7, .cls-8, .cls-9, .cls-10 {
        fill: none;
      }

      .cls-7, .cls-9, .cls-10 {
        stroke-linecap: round;
      }

      .cls-11 {
        fill: #61a60e;
      }

      .cls-12 {
        fill: #eb5d22;
      }

      .cls-6, .cls-8, .cls-9 {
        stroke-width: 2px;
      }

      .cls-13 {
        fill: #7f2854;
      }

      .cls-14 {
        font-family: Roboto-Light, Roboto;
        font-size: 34.11px;
        font-weight: 300;
      }

      .cls-14, .cls-15 {
        fill: #1d1d1b;
      }

      .cls-16 {
        fill: #7d8035;
      }

      .cls-17 {
        fill: #3f3a60;
      }

      .cls-18 {
        fill: #535335;
      }

      .cls-19 {
        fill: #3a8dde;
      }

      .cls-9 {
        stroke-linejoin: round;
      }

      .cls-20 {
        fill: #006937;
      }

      .cls-21 {
        fill: #b1b1b1;
      }

      .cls-22 {
        fill: #004987;
      }

      .cls-23 {
        fill: #f4971b;
      }

      .cls-24 {
        fill: #d9d9d9;
      }

      .cls-10 {
        stroke-width: 3px;
      }
    </style>
  </defs>
  <g>
    <g>
      <g>
        <path class="cls-21" d="m323.01,254.17c0-1.37-.48-2.46-1.45-3.26-.96-.8-2.73-1.56-5.29-2.28s-4.44-1.51-5.62-2.36c-1.68-1.2-2.52-2.78-2.52-4.73s.78-3.44,2.34-4.62c1.56-1.19,3.55-1.78,5.98-1.78,1.64,0,3.12.32,4.42.95,1.3.64,2.31,1.52,3.02,2.66s1.07,2.4,1.07,3.8h-2.11c0-1.7-.58-3.06-1.74-4.09s-2.71-1.54-4.66-1.54-3.4.42-4.53,1.27c-1.12.85-1.68,1.95-1.68,3.32,0,1.26.5,2.29,1.51,3.09,1.01.79,2.63,1.5,4.85,2.11,2.22.61,3.91,1.24,5.06,1.89,1.15.65,2.01,1.43,2.59,2.34.58.91.87,1.98.87,3.22,0,1.95-.78,3.52-2.34,4.7-1.56,1.18-3.62,1.77-6.17,1.77-1.75,0-3.35-.31-4.81-.94-1.46-.62-2.57-1.5-3.32-2.62-.75-1.12-1.13-2.41-1.13-3.86h2.09c0,1.75.65,3.13,1.96,4.14s3.04,1.51,5.21,1.51c1.93,0,3.48-.43,4.65-1.28,1.17-.85,1.75-1.98,1.75-3.39Z"/>
        <path class="cls-21" d="m343.31,248.38h-11.59v10.11h13.33v1.77h-15.42v-24.78h15.34v1.77h-13.24v9.36h11.59v1.77Z"/>
        <path class="cls-21" d="m367.35,257.32c-.73,1.03-1.86,1.84-3.41,2.42-1.55.58-3.28.87-5.2.87s-3.67-.47-5.17-1.4c-1.51-.93-2.68-2.25-3.51-3.95s-1.25-3.65-1.26-5.86v-3.13c0-3.44.87-6.15,2.6-8.14s4.07-2.99,7-2.99c2.55,0,4.61.65,6.16,1.95,1.55,1.3,2.48,3.09,2.77,5.37h-2.09c-.31-1.82-1.05-3.2-2.22-4.14-1.17-.94-2.71-1.41-4.6-1.41-2.31,0-4.15.82-5.5,2.47s-2.03,3.97-2.03,6.97v2.93c0,1.89.32,3.55.96,5,.64,1.45,1.56,2.57,2.76,3.36s2.57,1.19,4.13,1.19c1.8,0,3.35-.28,4.65-.85.84-.37,1.46-.81,1.87-1.31v-6.4h-6.66v-1.77h8.75v8.82Z"/>
        <path class="cls-21" d="m390.36,235.48v16.92c-.01,1.67-.38,3.12-1.11,4.36-.73,1.24-1.75,2.19-3.07,2.85-1.32.66-2.84,1-4.55,1-2.61,0-4.7-.71-6.27-2.14-1.57-1.42-2.39-3.4-2.44-5.92v-17.07h2.08v16.77c0,2.09.6,3.71,1.79,4.86s2.81,1.73,4.85,1.73,3.66-.58,4.84-1.74,1.78-2.77,1.78-4.83v-16.78h2.11Z"/>
        <path class="cls-21" d="m405.46,249.93h-7.2v10.33h-2.11v-24.78h8.05c2.64,0,4.71.64,6.2,1.92s2.23,3.07,2.23,5.37c0,1.59-.46,2.99-1.4,4.2s-2.18,2.05-3.74,2.52l6.2,10.55v.22h-2.23l-5.99-10.33Zm-7.2-1.77h6.42c1.76,0,3.17-.5,4.24-1.5,1.07-1,1.6-2.29,1.6-3.89,0-1.75-.56-3.11-1.67-4.07s-2.67-1.45-4.68-1.45h-5.91v10.91Z"/>
        <path class="cls-21" d="m420.88,260.26h-2.09v-24.78h2.09v24.78Z"/>
        <path class="cls-21" d="m427.6,260.26v-24.78h6.93c2.03,0,3.85.46,5.46,1.39s2.87,2.25,3.77,3.97c.9,1.72,1.35,3.69,1.35,5.89v2.28c0,2.21-.45,4.18-1.34,5.89-.9,1.71-2.16,3.04-3.79,3.97-1.63.93-3.5,1.4-5.61,1.4h-6.77Zm2.09-23.01v21.24h4.7c2.61,0,4.7-.87,6.28-2.6,1.58-1.73,2.37-4.07,2.37-7.03v-2.18c0-2.85-.78-5.13-2.33-6.85s-3.6-2.58-6.14-2.59h-4.87Z"/>
        <path class="cls-21" d="m463.81,253.3h-11.25l-2.55,6.96h-2.2l9.38-24.78h1.99l9.38,24.78h-2.18l-2.57-6.96Zm-10.6-1.77h9.94l-4.97-13.5-4.97,13.5Z"/>
        <path class="cls-21" d="m472.2,260.26v-24.78h6.93c2.03,0,3.85.46,5.46,1.39s2.87,2.25,3.77,3.97c.9,1.72,1.35,3.69,1.35,5.89v2.28c0,2.21-.45,4.18-1.34,5.89-.9,1.71-2.16,3.04-3.79,3.97-1.63.93-3.5,1.4-5.61,1.4h-6.77Zm2.09-23.01v21.24h4.7c2.61,0,4.7-.87,6.28-2.6,1.58-1.73,2.37-4.07,2.37-7.03v-2.18c0-2.85-.78-5.13-2.33-6.85s-3.6-2.58-6.14-2.59h-4.87Z"/>
      </g>
      <g>
        <path class="cls-24" d="m466.41,134.07c0,36.17-29.32,65.45-65.49,65.45s-65.45-29.28-65.45-65.45,29.32-65.46,65.45-65.46,65.49,29.3,65.49,65.46"/>
        <path class="cls-21" d="m401.5,68.61c36.15,0,65.47,29.3,65.47,65.46s-29.32,65.45-65.47,65.45"/>
        <g>
          <path class="cls-5" d="m420.86,124.01h-38.72c-4,0-7.26,3.26-7.26,7.26v24.2c0,6.67,5.43,12.1,12.1,12.1h29.04c6.67,0,12.1-5.43,12.1-12.1v-24.2c0-4-3.26-7.26-7.26-7.26Zm-16.13,32.93c-1.19,1.47-6.25,1.34-7.59,0-1.87-1.87,0-10.57,0-10.57-1.9-1.26-3.23-3.31-3.23-5.76,0-3.88,3.15-7.02,7.03-7.02s7.02,3.14,7.02,7.02c0,2.45-1.33,4.5-3.23,5.76,0,0,1.66,8.51,0,10.57Z"/>
          <path class="cls-5" d="m386.98,114.33c0-8.01,6.51-14.52,14.52-14.52s14.52,6.51,14.52,14.52v4.84h4.84v-4.84c0-10.68-8.69-19.36-19.36-19.36s-19.36,8.69-19.36,19.36v4.84h4.84v-4.84Z"/>
        </g>
      </g>
    </g>
    <g>
      <g>
        <g>
          <path class="cls-16" d="m1576.12,134.36c0,36.31-29.44,65.73-65.77,65.73s-65.74-29.41-65.74-65.73,29.44-65.75,65.74-65.75,65.77,29.43,65.77,65.75"/>
          <path class="cls-18" d="m1510.35,68.61c36.31,0,65.77,29.43,65.77,65.75s-29.45,65.73-65.77,65.73"/>
          <path class="cls-5" d="m1510.36,146.73s4.72-17.4,18.47-23.27c0,0-26.71,5.59-20.75,50.99h-5.3s-.53-13.42.03-19.5c-3.69-13.51-11.53-14.56-12.94-14.66h-.24.24c9.92.12,12.85,7.75,13.52,10.05.68-4.2,1.96-8.83,4.15-13.27l-.09.23c-5.17-21.66-19-22.14-19-22.14,12.08,5.65,15.6,17.34,15.6,17.34-19.46-1.89-18.99-20.75-18.99-20.75,28.66,0,23.08,24.15,23.08,24.15l-.06.15c4.71-8.84,13.36-16.61,29.05-18.28,0,0,1.67,25.89-26.77,28.94m.92-64.8s-45.4,34.41-48.87,36.93c-3.46,2.55-8.17,7.45,0,7.45h8.63v48.15h80.19v-48.15h8.63c7.42,0,3.4-4.85,0-7.45l-48.58-36.93Zm48.58,36.93"/>
        </g>
        <g>
          <g>
            <path class="cls-15" d="m1434.69,253.47h-11.59v10.11h13.33v1.77h-15.42v-24.78h15.34v1.77h-13.24v9.36h11.59v1.77Z"/>
            <path class="cls-15" d="m1454.48,253.76h-11.56v11.59h-2.09v-24.78h15.35v1.77h-13.26v9.65h11.56v1.77Z"/>
            <path class="cls-15" d="m1462.99,265.35h-2.09v-24.78h2.09v24.78Z"/>
            <path class="cls-15" d="m1487.26,257.63c-.29,2.61-1.22,4.61-2.8,5.99-1.58,1.38-3.69,2.08-6.32,2.08-1.84,0-3.46-.46-4.88-1.38-1.41-.92-2.51-2.22-3.28-3.91-.77-1.69-1.16-3.61-1.17-5.78v-3.22c0-2.2.38-4.15,1.16-5.85.77-1.7,1.88-3.02,3.33-3.94,1.45-.92,3.11-1.39,5-1.39,2.65,0,4.75.71,6.29,2.14,1.54,1.43,2.43,3.41,2.68,5.94h-2.11c-.52-4.21-2.81-6.31-6.86-6.31-2.25,0-4.04.84-5.37,2.52-1.33,1.68-2,4-2,6.97v3.03c0,2.86.65,5.14,1.95,6.85,1.3,1.7,3.06,2.56,5.27,2.56s3.84-.52,4.95-1.57c1.11-1.05,1.8-2.62,2.06-4.72h2.11Z"/>
            <path class="cls-15" d="m1494.9,265.35h-2.09v-24.78h2.09v24.78Z"/>
            <path class="cls-15" d="m1515.31,253.47h-11.59v10.11h13.33v1.77h-15.42v-24.78h15.34v1.77h-13.24v9.36h11.59v1.77Z"/>
            <path class="cls-15" d="m1539.91,265.35h-2.09l-14.25-21.21v21.21h-2.11v-24.78h2.11l14.26,21.23v-21.23h2.08v24.78Z"/>
            <path class="cls-15" d="m1563.76,257.63c-.29,2.61-1.22,4.61-2.8,5.99-1.58,1.38-3.69,2.08-6.32,2.08-1.84,0-3.46-.46-4.88-1.38-1.41-.92-2.51-2.22-3.28-3.91-.77-1.69-1.16-3.61-1.17-5.78v-3.22c0-2.2.38-4.15,1.16-5.85.77-1.7,1.88-3.02,3.33-3.94,1.45-.92,3.11-1.39,5-1.39,2.65,0,4.75.71,6.29,2.14,1.54,1.43,2.43,3.41,2.68,5.94h-2.11c-.52-4.21-2.81-6.31-6.86-6.31-2.25,0-4.04.84-5.37,2.52-1.33,1.68-2,4-2,6.97v3.03c0,2.86.65,5.14,1.95,6.85,1.3,1.7,3.06,2.56,5.27,2.56s3.84-.52,4.95-1.57c1.11-1.05,1.8-2.62,2.06-4.72h2.11Z"/>
            <path class="cls-15" d="m1571.4,265.35h-2.09v-24.78h2.09v24.78Z"/>
            <path class="cls-15" d="m1591.5,258.39h-11.25l-2.55,6.96h-2.2l9.38-24.78h1.99l9.38,24.78h-2.18l-2.57-6.96Zm-10.6-1.77h9.94l-4.97-13.5-4.97,13.5Z"/>
          </g>
          <g>
            <path class="cls-15" d="m1421.67,295.29h-11.59v10.11h13.33v1.77h-15.42v-24.78h15.34v1.77h-13.24v9.36h11.59v1.77Z"/>
            <path class="cls-15" d="m1446.27,307.17h-2.09l-14.25-21.21v21.21h-2.11v-24.78h2.11l14.26,21.23v-21.23h2.08v24.78Z"/>
            <path class="cls-15" d="m1466.25,295.29h-11.59v10.11h13.33v1.77h-15.42v-24.78h15.34v1.77h-13.24v9.36h11.59v1.77Z"/>
            <path class="cls-15" d="m1481.65,296.84h-7.2v10.33h-2.11v-24.78h8.05c2.64,0,4.71.64,6.2,1.92s2.23,3.07,2.23,5.37c0,1.59-.46,2.99-1.4,4.2-.93,1.21-2.18,2.05-3.74,2.52l6.2,10.55v.22h-2.23l-5.99-10.33Zm-7.2-1.77h6.42c1.76,0,3.17-.5,4.24-1.5s1.6-2.3,1.6-3.89c0-1.75-.55-3.11-1.67-4.07-1.11-.97-2.67-1.45-4.68-1.45h-5.91v10.91Z"/>
            <path class="cls-15" d="m1512.41,304.22c-.73,1.03-1.86,1.84-3.41,2.42s-3.28.87-5.2.87-3.66-.46-5.17-1.4-2.68-2.25-3.51-3.95-1.25-3.65-1.26-5.86v-3.13c0-3.44.87-6.15,2.6-8.14,1.74-1.99,4.07-2.99,7-2.99,2.55,0,4.61.65,6.16,1.95,1.55,1.3,2.48,3.09,2.77,5.37h-2.09c-.31-1.82-1.05-3.2-2.22-4.14s-2.71-1.41-4.6-1.41c-2.31,0-4.15.82-5.5,2.47-1.35,1.65-2.03,3.97-2.03,6.97v2.93c0,1.88.32,3.55.96,5,.64,1.45,1.56,2.57,2.76,3.36s2.57,1.19,4.13,1.19c1.8,0,3.35-.28,4.65-.85.84-.38,1.46-.81,1.87-1.31v-6.4h-6.65v-1.77h8.75v8.82Z"/>
            <path class="cls-15" d="m1532.04,295.29h-11.59v10.11h13.33v1.77h-15.42v-24.78h15.34v1.77h-13.24v9.36h11.59v1.77Zm-4.24-19.73h2.47l-3.93,4.77h-1.79s3.25-4.77,3.25-4.77Z"/>
            <path class="cls-15" d="m1555,284.16h-8.49v23.01h-2.09v-23.01h-8.48v-1.77h19.06v1.77Z"/>
            <path class="cls-15" d="m1561.55,307.17h-2.09v-24.78h2.09v24.78Z"/>
            <path class="cls-15" d="m1585.82,299.44c-.29,2.61-1.22,4.61-2.8,5.99-1.58,1.38-3.69,2.08-6.32,2.08-1.84,0-3.46-.46-4.88-1.38-1.41-.92-2.51-2.22-3.28-3.91s-1.16-3.61-1.17-5.78v-3.22c0-2.2.38-4.15,1.16-5.85.77-1.7,1.88-3.02,3.33-3.94,1.45-.92,3.11-1.39,5-1.39,2.65,0,4.75.71,6.29,2.14,1.54,1.43,2.43,3.41,2.68,5.94h-2.11c-.52-4.21-2.81-6.31-6.86-6.31-2.25,0-4.04.84-5.37,2.52-1.33,1.68-2,4-2,6.97v3.03c0,2.86.65,5.15,1.95,6.85,1.3,1.7,3.06,2.55,5.27,2.55s3.84-.52,4.95-1.57c1.11-1.05,1.8-2.62,2.06-4.72h2.11Z"/>
            <path class="cls-15" d="m1604.29,300.21h-11.25l-2.55,6.96h-2.2l9.38-24.78h1.99l9.38,24.78h-2.18l-2.57-6.96Zm-10.6-1.77h9.94l-4.97-13.5-4.97,13.5Z"/>
          </g>
        </g>
      </g>
      <g>
        <g>
          <path class="cls-11" d="m1861.15,134.37c0,36.31-29.45,65.73-65.74,65.73s-65.76-29.41-65.76-65.73,29.45-65.76,65.76-65.76,65.74,29.45,65.74,65.76"/>
          <path class="cls-20" d="m1795.42,68.61c36.31,0,65.73,29.45,65.73,65.76s-29.42,65.73-65.73,65.73"/>
          <path class="cls-5" d="m1750.99,134.13h10.03c.74,0,1.43-.19,2.06-.53.64-.34,1.19-.83,1.66-1.42.47-.6.83-1.29,1.1-2.1.26-.82.4-1.69.4-2.61s-.15-1.86-.46-2.66c-.31-.81-.72-1.52-1.24-2.12-.51-.6-1.12-1.06-1.8-1.39-.68-.33-1.36-.49-2.06-.49h-9.68v13.33Zm-7.97,20.78v-41.11h18.17c1.89,0,3.65.38,5.25,1.19,1.61.78,2.99,1.83,4.14,3.12,1.15,1.28,2.07,2.76,2.72,4.39.68,1.64,1,3.3,1,4.96,0,2.66-.67,5.09-2.02,7.26-1.34,2.17-3.13,3.76-5.4,4.71l9.38,15.47h-8.98l-8.39-13.8h-7.89v13.8h-7.97Z"/>
          <path class="cls-5" d="m1789.51,134.13h9.27c1.47,0,2.71-.61,3.68-1.81,1-1.18,1.49-2.8,1.49-4.85,0-1.05-.16-1.98-.48-2.81-.3-.83-.71-1.54-1.21-2.13-.5-.57-1.08-1.01-1.75-1.28-.69-.29-1.37-.44-2.08-.44h-8.92v13.33Zm-7.97,20.78v-41.11h17.41c1.91,0,3.65.38,5.25,1.19,1.6.78,2.97,1.83,4.14,3.12,1.15,1.28,2.06,2.76,2.72,4.39.65,1.64,1,3.3,1,4.96s-.31,3.42-.94,5.05c-.61,1.66-1.48,3.1-2.6,4.37-1.12,1.27-2.46,2.29-4.05,3.08-1.57.75-3.31,1.14-5.22,1.14h-9.73v13.8h-7.97Z"/>
          <polygon class="cls-5" points="1848.34 120.81 1835.2 120.81 1835.2 154.92 1827.27 154.92 1827.27 120.81 1814.11 120.81 1814.11 113.8 1848.34 113.8 1848.34 120.81"/>
        </g>
        <g>
          <path class="cls-15" d="m1775.2,255.02h-7.2v10.33h-2.11v-24.78h8.05c2.64,0,4.71.64,6.2,1.92s2.23,3.07,2.23,5.37c0,1.59-.46,2.99-1.39,4.2-.93,1.21-2.18,2.05-3.74,2.52l6.2,10.55v.22h-2.23l-5.99-10.33Zm-7.2-1.77h6.42c1.76,0,3.17-.5,4.24-1.5s1.6-2.3,1.6-3.89c0-1.75-.56-3.11-1.67-4.07-1.11-.97-2.67-1.45-4.68-1.45h-5.91v10.91Z"/>
          <path class="cls-15" d="m1790.16,255.26v10.09h-2.09v-24.78h8.44c2.58,0,4.61.66,6.1,1.97,1.49,1.32,2.24,3.13,2.24,5.43s-.72,4.12-2.15,5.39-3.52,1.9-6.24,1.9h-6.3Zm0-1.77h6.35c2.03,0,3.58-.48,4.65-1.45s1.6-2.31,1.6-4.04-.53-3.08-1.59-4.1c-1.06-1.02-2.57-1.54-4.52-1.56h-6.48v11.15Z"/>
          <path class="cls-15" d="m1826.35,242.34h-8.49v23.01h-2.09v-23.01h-8.48v-1.77h19.06v1.77Z"/>
        </g>
      </g>
      <g>
        <g>
          <path class="cls-19" d="m2146.19,134.38c0,36.31-29.45,65.74-65.76,65.74s-65.74-29.44-65.74-65.74,29.45-65.77,65.74-65.77,65.76,29.45,65.76,65.77"/>
          <path class="cls-22" d="m2080.44,68.61c36.32,0,65.75,29.45,65.75,65.77s-29.43,65.74-65.75,65.74"/>
          <g>
            <path class="cls-5" d="m2080.72,141.38c-5.19,0-9.52-4.17-9.62-9.29-.08-5.3,4.36-9.91,9.61-9.91,5.23,0,9.71,4.6,9.61,9.89-.08,5.15-4.36,9.29-9.6,9.32m15.88-9.02c.03-9.16-6.85-16.37-15.68-16.49-8.98-.11-16.11,7.17-16.1,16.53,0,4.94.18,25.95.07,31.48-.09,3.76,1.87,5.3,5.32,5.34,6.86.05,13.71.03,20.56.02,3.86,0,5.86-1.63,5.81-5.82-.13-10.35,0-20.7.03-31.05"/>
            <path class="cls-5" d="m2085.94,131.76c0,2.9-2.34,5.23-5.23,5.23s-5.23-2.33-5.23-5.23,2.35-5.2,5.23-5.2,5.23,2.32,5.23,5.2"/>
            <path class="cls-5" d="m2094.82,117.91c-.81,0-1.61-.33-2.21-.96-3.41-3.54-7.12-5.36-11.02-5.4-.03,0-.08,0-.14,0-6.83,0-12.43,5.41-12.48,5.47-1.21,1.19-3.16,1.19-4.35,0-1.2-1.21-1.2-3.14,0-4.35.3-.3,7.37-7.26,16.83-7.26h.2c5.63.07,10.79,2.52,15.38,7.3,1.17,1.23,1.13,3.17-.08,4.35-.59.57-1.36.86-2.12.86"/>
            <path class="cls-5" d="m2094.82,106.01c-.81,0-1.61-.33-2.21-.96-3.41-3.54-7.12-5.36-11.02-5.4-.03,0-.08,0-.14,0-6.83,0-12.43,5.41-12.48,5.47-1.21,1.19-3.16,1.19-4.35,0-1.2-1.21-1.2-3.14,0-4.35.3-.3,7.37-7.26,16.83-7.26h.2c5.63.07,10.79,2.52,15.38,7.3,1.17,1.23,1.13,3.17-.08,4.35-.59.57-1.36.86-2.12.86"/>
          </g>
        </g>
        <g>
          <path class="cls-15" d="m1970.67,240.57l9.14,21.87,9.17-21.87h2.79v24.78h-2.09v-10.79l.17-11.06-9.23,21.85h-1.62l-9.19-21.77.17,10.91v10.86h-2.09v-24.78h2.77Z"/>
          <path class="cls-15" d="m2016.37,254.31c0,2.28-.39,4.28-1.18,6.01-.79,1.72-1.92,3.05-3.38,3.98-1.46.93-3.15,1.4-5.07,1.4-2.89,0-5.23-1.04-7.01-3.11-1.78-2.07-2.67-4.86-2.67-8.38v-2.55c0-2.26.4-4.26,1.2-6,.8-1.74,1.93-3.08,3.4-4.02,1.46-.94,3.15-1.4,5.05-1.4s3.59.46,5.05,1.38c1.46.92,2.58,2.22,3.38,3.9.79,1.68,1.21,3.63,1.24,5.84v2.96Zm-2.09-2.69c0-2.98-.67-5.32-2.03-7.01-1.35-1.69-3.2-2.54-5.55-2.54s-4.14.85-5.51,2.54c-1.37,1.7-2.05,4.07-2.05,7.11v2.59c0,2.94.68,5.27,2.04,6.99s3.21,2.58,5.55,2.58,4.22-.85,5.55-2.54,1.99-4.06,1.99-7.09v-2.62Z"/>
          <path class="cls-15" d="m2038.46,242.34h-8.49v23.01h-2.09v-23.01h-8.48v-1.77h19.06v1.77Z"/>
          <path class="cls-15" d="m2060.78,254.31c0,2.28-.39,4.28-1.18,6.01-.79,1.72-1.92,3.05-3.38,3.98-1.46.93-3.15,1.4-5.07,1.4-2.89,0-5.23-1.04-7.01-3.11-1.78-2.07-2.67-4.86-2.67-8.38v-2.55c0-2.26.4-4.26,1.2-6,.8-1.74,1.93-3.08,3.4-4.02,1.46-.94,3.15-1.4,5.05-1.4s3.59.46,5.05,1.38c1.46.92,2.58,2.22,3.38,3.9.79,1.68,1.21,3.63,1.24,5.84v2.96Zm-2.09-2.69c0-2.98-.67-5.32-2.03-7.01-1.35-1.69-3.2-2.54-5.55-2.54s-4.14.85-5.51,2.54c-1.37,1.7-2.05,4.07-2.05,7.11v2.59c0,2.94.68,5.27,2.04,6.99s3.21,2.58,5.55,2.58,4.22-.85,5.55-2.54,1.99-4.06,1.99-7.09v-2.62Z"/>
          <path class="cls-15" d="m2075.31,255.02h-7.2v10.33h-2.11v-24.78h8.05c2.64,0,4.71.64,6.2,1.92s2.23,3.07,2.23,5.37c0,1.59-.46,2.99-1.39,4.2-.93,1.21-2.18,2.05-3.74,2.52l6.2,10.55v.22h-2.23l-5.99-10.33Zm-7.2-1.77h6.42c1.76,0,3.17-.5,4.24-1.5s1.6-2.3,1.6-3.89c0-1.75-.56-3.11-1.67-4.07-1.11-.97-2.67-1.45-4.68-1.45h-5.91v10.91Z"/>
          <path class="cls-15" d="m2090.73,265.35h-2.09v-24.78h2.09v24.78Z"/>
          <path class="cls-15" d="m2098.39,263.58h15.3v1.77h-17.84v-1.58l14.71-21.43h-14.26v-1.77h16.85v1.48l-14.76,21.53Z"/>
          <path class="cls-15" d="m2131.69,258.39h-11.25l-2.55,6.96h-2.2l9.38-24.78h1.99l9.38,24.78h-2.18l-2.57-6.96Zm-10.61-1.77h9.94l-4.97-13.5-4.97,13.5Z"/>
          <path class="cls-15" d="m2140.08,265.35v-24.78h7.32c2.65,0,4.67.55,6.04,1.64s2.06,2.71,2.06,4.85c0,1.28-.35,2.4-1.05,3.35s-1.65,1.63-2.87,2.04c1.44.32,2.6,1.03,3.48,2.13.88,1.1,1.32,2.37,1.32,3.81,0,2.19-.71,3.9-2.12,5.13s-3.38,1.85-5.9,1.85h-8.29Zm2.09-13.67h5.72c1.75-.03,3.1-.45,4.06-1.24.96-.79,1.44-1.94,1.44-3.45,0-1.59-.5-2.77-1.49-3.52-.99-.76-2.49-1.13-4.5-1.13h-5.23v9.34Zm0,1.77v10.13h6.28c1.79,0,3.21-.46,4.26-1.37,1.05-.91,1.57-2.18,1.57-3.8,0-1.53-.5-2.74-1.51-3.63-1-.89-2.39-1.33-4.16-1.33h-6.45Z"/>
          <path class="cls-15" d="m2163.55,263.58h12.24v1.77h-14.35v-24.78h2.11v23.01Z"/>
          <path class="cls-15" d="m2193.49,253.47h-11.59v10.11h13.33v1.77h-15.42v-24.78h15.34v1.77h-13.24v9.36h11.59v1.77Z"/>
        </g>
      </g>
      <g>
        <g>
          <g>
            <path class="cls-15" d="m1180.21,263.58h12.24v1.77h-14.35v-24.78h2.11v23.01Z"/>
            <path class="cls-15" d="m1210.16,258.39h-11.25l-2.55,6.96h-2.2l9.38-24.78h1.99l9.38,24.78h-2.18l-2.57-6.96Zm-10.6-1.77h9.94l-4.97-13.5-4.97,13.5Z"/>
            <path class="cls-15" d="m1227.81,255.02h-7.2v10.33h-2.11v-24.78h8.05c2.64,0,4.71.64,6.2,1.92s2.23,3.07,2.23,5.37c0,1.59-.46,2.99-1.4,4.2-.93,1.21-2.18,2.05-3.74,2.52l6.2,10.55v.22h-2.23l-5.99-10.33Zm-7.2-1.77h6.42c1.76,0,3.17-.5,4.24-1.5s1.6-2.3,1.6-3.89c0-1.75-.55-3.11-1.67-4.07-1.11-.97-2.67-1.45-4.68-1.45h-5.91v10.91Z"/>
            <path class="cls-15" d="m1258.56,262.41c-.72,1.03-1.86,1.84-3.41,2.42-1.55.58-3.28.87-5.2.87s-3.67-.46-5.17-1.4c-1.51-.93-2.68-2.25-3.51-3.95-.83-1.7-1.25-3.65-1.26-5.85v-3.13c0-3.44.87-6.15,2.61-8.14,1.74-1.99,4.07-2.99,7-2.99,2.55,0,4.61.65,6.16,1.95,1.55,1.3,2.48,3.09,2.78,5.37h-2.09c-.31-1.82-1.05-3.2-2.22-4.14-1.18-.94-2.71-1.41-4.61-1.41-2.31,0-4.15.82-5.5,2.47-1.35,1.65-2.03,3.97-2.03,6.97v2.93c0,1.88.32,3.55.96,5,.64,1.45,1.56,2.57,2.76,3.36s2.57,1.19,4.13,1.19c1.8,0,3.35-.28,4.65-.85.84-.37,1.46-.81,1.87-1.31v-6.4h-6.66v-1.77h8.75v8.82Z"/>
            <path class="cls-15" d="m1277.88,258.39h-11.25l-2.55,6.96h-2.2l9.38-24.78h1.99l9.38,24.78h-2.18l-2.57-6.96Zm-10.6-1.77h9.94l-4.97-13.5-4.97,13.5Z"/>
          </g>
          <g>
            <path class="cls-15" d="m1147.3,307.17v-24.78h6.93c2.03,0,3.85.46,5.46,1.39,1.61.93,2.87,2.25,3.77,3.97.9,1.73,1.35,3.69,1.35,5.89v2.28c0,2.21-.45,4.18-1.34,5.89-.9,1.71-2.16,3.04-3.79,3.97-1.63.93-3.5,1.4-5.61,1.4h-6.77Zm2.09-23.01v21.24h4.7c2.61,0,4.7-.87,6.28-2.6,1.58-1.73,2.37-4.07,2.37-7.03v-2.18c0-2.85-.78-5.13-2.33-6.85s-3.6-2.58-6.14-2.59h-4.87Z"/>
            <path class="cls-15" d="m1187.2,282.39v16.92c-.01,1.67-.38,3.12-1.11,4.36-.73,1.24-1.75,2.19-3.07,2.85s-2.84,1-4.55,1c-2.61,0-4.7-.71-6.27-2.14-1.57-1.42-2.39-3.4-2.44-5.91v-17.07h2.08v16.77c0,2.09.6,3.71,1.79,4.86,1.19,1.15,2.81,1.73,4.85,1.73s3.66-.58,4.84-1.74c1.19-1.16,1.78-2.77,1.78-4.83v-16.78h2.11Z"/>
            <path class="cls-15" d="m1202.3,296.84h-7.2v10.33h-2.11v-24.78h8.05c2.64,0,4.71.64,6.2,1.92s2.23,3.07,2.23,5.37c0,1.59-.46,2.99-1.39,4.2-.93,1.21-2.18,2.05-3.74,2.52l6.2,10.55v.22h-2.23l-5.99-10.33Zm-7.2-1.77h6.42c1.76,0,3.17-.5,4.24-1.5s1.6-2.3,1.6-3.89c0-1.75-.56-3.11-1.67-4.07-1.11-.97-2.67-1.45-4.68-1.45h-5.91v10.91Z"/>
            <path class="cls-15" d="m1228.54,300.21h-11.25l-2.55,6.96h-2.2l9.38-24.78h1.99l9.38,24.78h-2.18l-2.57-6.96Zm-10.61-1.77h9.94l-4.97-13.5-4.97,13.5Z"/>
            <path class="cls-15" d="m1254.31,299.44c-.29,2.61-1.22,4.61-2.8,5.99-1.58,1.38-3.69,2.08-6.32,2.08-1.84,0-3.46-.46-4.88-1.38-1.41-.92-2.51-2.22-3.28-3.91s-1.16-3.61-1.17-5.78v-3.22c0-2.2.38-4.15,1.16-5.85.77-1.7,1.88-3.02,3.33-3.94,1.45-.92,3.11-1.39,5-1.39,2.65,0,4.75.71,6.29,2.14,1.54,1.43,2.43,3.41,2.68,5.94h-2.11c-.52-4.21-2.81-6.31-6.86-6.31-2.25,0-4.04.84-5.37,2.52-1.33,1.68-2,4-2,6.97v3.03c0,2.86.65,5.15,1.95,6.85,1.3,1.7,3.06,2.55,5.27,2.55s3.84-.52,4.95-1.57c1.11-1.05,1.8-2.62,2.06-4.72h2.11Z"/>
            <path class="cls-15" d="m1261.95,307.17h-2.09v-24.78h2.09v24.78Z"/>
            <path class="cls-15" d="m1286.99,296.12c0,2.28-.39,4.28-1.18,6.01-.79,1.72-1.92,3.05-3.38,3.98-1.46.93-3.15,1.4-5.07,1.4-2.89,0-5.23-1.04-7.01-3.11-1.78-2.07-2.67-4.87-2.67-8.38v-2.55c0-2.26.4-4.26,1.2-6,.8-1.74,1.93-3.08,3.4-4.02,1.46-.94,3.15-1.4,5.05-1.4s3.59.46,5.05,1.38c1.46.92,2.58,2.22,3.38,3.9.79,1.68,1.21,3.63,1.24,5.84v2.96Zm-2.09-2.69c0-2.98-.67-5.32-2.03-7.01-1.35-1.69-3.2-2.54-5.55-2.54s-4.14.85-5.51,2.54c-1.37,1.7-2.05,4.07-2.05,7.11v2.59c0,2.94.68,5.27,2.04,6.99,1.36,1.72,3.21,2.58,5.55,2.58s4.22-.85,5.55-2.54,1.99-4.06,1.99-7.09v-2.62Zm-5.55-17.97h2.47l-3.93,4.77h-1.79s3.25-4.77,3.25-4.77Z"/>
            <path class="cls-15" d="m1310.72,307.17h-2.09l-14.25-21.21v21.21h-2.11v-24.78h2.11l14.26,21.23v-21.23h2.08v24.78Z"/>
          </g>
        </g>
        <g>
          <path class="cls-3" d="m1291.08,134.36c0,36.31-29.44,65.74-65.75,65.74s-65.76-29.44-65.76-65.74,29.45-65.75,65.76-65.75,65.75,29.44,65.75,65.75"/>
          <path class="cls-17" d="m1225.2,68.61c36.32,0,65.75,29.44,65.75,65.75s-29.43,65.74-65.75,65.74"/>
          <g>
            <path class="cls-5" d="m1251.21,144.17s-6.58,17.13-25.6,17.13c-13.79,0-28.05-11.74-27.32-27.93,1.21-26.99,27.06-26.99,27.06-26.99l.26,27.1,25.61,10.69Z"/>
            <path class="cls-5" d="m1225.6,168.6c-19.03,0-34.46-15.36-34.46-34.33s15.44-34.34,34.46-34.34,34.46,15.37,34.46,34.34-15.43,34.33-34.46,34.33m4.63-76.03l-8.85-.04c-21.26,2.11-37.85,19.99-37.85,41.74,0,23.15,18.83,41.94,42.07,41.94s42.09-18.78,42.09-41.94c0-21.61-16.39-39.39-37.45-41.69m0,0"/>
          </g>
        </g>
      </g>
      <g>
        <g>
          <g>
            <path class="cls-15" d="m870.3,254.1h-11.25l-2.55,6.96h-2.2l9.38-24.78h1.99l9.38,24.78h-2.18l-2.57-6.96Zm-10.6-1.77h9.94l-4.97-13.5-4.97,13.5Z"/>
            <path class="cls-15" d="m881.24,261.06h-2.09v-24.78h2.09v24.78Z"/>
            <path class="cls-15" d="m901.99,254.97c0-1.37-.48-2.46-1.45-3.26-.96-.8-2.73-1.56-5.29-2.28s-4.44-1.51-5.62-2.36c-1.68-1.2-2.52-2.78-2.52-4.73s.78-3.44,2.34-4.62c1.56-1.19,3.55-1.78,5.98-1.78,1.64,0,3.12.32,4.42.95,1.3.64,2.31,1.52,3.02,2.66s1.07,2.4,1.07,3.8h-2.11c0-1.7-.58-3.06-1.74-4.09s-2.71-1.54-4.66-1.54-3.4.42-4.53,1.27c-1.12.85-1.68,1.95-1.68,3.32,0,1.26.5,2.29,1.51,3.09,1.01.79,2.63,1.5,4.85,2.11,2.22.61,3.91,1.24,5.06,1.89,1.15.65,2.01,1.43,2.59,2.34.58.91.87,1.98.87,3.22,0,1.95-.78,3.52-2.34,4.7-1.56,1.18-3.62,1.77-6.17,1.77-1.75,0-3.35-.31-4.81-.94-1.46-.62-2.57-1.5-3.32-2.62-.75-1.12-1.13-2.41-1.13-3.86h2.09c0,1.75.65,3.13,1.96,4.14s3.04,1.51,5.21,1.51c1.93,0,3.48-.43,4.65-1.28,1.17-.85,1.75-1.98,1.75-3.39Z"/>
            <path class="cls-15" d="m910.72,259.29h12.24v1.77h-14.35v-24.78h2.11v23.01Z"/>
            <path class="cls-15" d="m940.64,254.1h-11.25l-2.55,6.96h-2.2l9.38-24.78h1.99l9.38,24.78h-2.18l-2.57-6.96Zm-10.6-1.77h9.94l-4.97-13.5-4.97,13.5Z"/>
            <path class="cls-15" d="m951.8,236.28l9.14,21.87,9.17-21.87h2.79v24.78h-2.09v-10.79l.17-11.06-9.23,21.85h-1.62l-9.19-21.77.17,10.91v10.86h-2.09v-24.78h2.77Z"/>
            <path class="cls-15" d="m981.74,261.06h-2.09v-24.78h2.09v24.78Z"/>
            <path class="cls-15" d="m1002.15,249.18h-11.59v10.11h13.33v1.77h-15.42v-24.78h15.34v1.77h-13.24v9.36h11.59v1.77Z"/>
            <path class="cls-15" d="m1026.75,261.06h-2.09l-14.25-21.21v21.21h-2.11v-24.78h2.11l14.26,21.22v-21.22h2.08v24.78Z"/>
            <path class="cls-15" d="m1049.41,238.05h-8.49v23.01h-2.09v-23.01h-8.48v-1.77h19.06v1.77Z"/>
            <path class="cls-15" d="m1071.27,250.01c0,2.28-.39,4.28-1.18,6.01-.79,1.72-1.92,3.05-3.38,3.98-1.46.93-3.15,1.4-5.07,1.4-2.89,0-5.23-1.04-7.01-3.11-1.78-2.07-2.67-4.87-2.67-8.38v-2.55c0-2.26.4-4.26,1.2-6,.8-1.74,1.93-3.08,3.4-4.02s3.15-1.4,5.05-1.4,3.59.46,5.05,1.38,2.58,2.22,3.38,3.9c.79,1.68,1.21,3.63,1.24,5.84v2.96Zm-2.09-2.69c0-2.98-.67-5.32-2.03-7.01-1.35-1.69-3.2-2.54-5.55-2.54s-4.14.85-5.51,2.54c-1.37,1.7-2.05,4.07-2.05,7.11v2.59c0,2.94.68,5.27,2.04,6.99s3.21,2.58,5.55,2.58,4.22-.85,5.55-2.54c1.33-1.7,1.99-4.06,1.99-7.09v-2.62Z"/>
          </g>
          <g>
            <path class="cls-15" d="m897.99,295.91h-11.25l-2.55,6.96h-2.2l9.38-24.78h1.99l9.38,24.78h-2.18l-2.57-6.96Zm-10.6-1.77h9.94l-4.97-13.5-4.97,13.5Z"/>
            <path class="cls-15" d="m923.76,295.15c-.28,2.61-1.22,4.61-2.8,5.99-1.58,1.38-3.69,2.08-6.32,2.08-1.84,0-3.46-.46-4.88-1.38-1.41-.92-2.5-2.22-3.28-3.91-.77-1.69-1.16-3.61-1.17-5.78v-3.22c0-2.2.39-4.15,1.16-5.86.77-1.7,1.88-3.01,3.33-3.94,1.45-.92,3.11-1.39,5-1.39,2.66,0,4.75.71,6.29,2.14,1.54,1.43,2.43,3.41,2.68,5.94h-2.11c-.52-4.21-2.81-6.31-6.86-6.31-2.25,0-4.04.84-5.37,2.52-1.33,1.68-2,4-2,6.97v3.03c0,2.86.65,5.14,1.95,6.85,1.3,1.7,3.06,2.55,5.27,2.55s3.84-.52,4.95-1.57c1.11-1.05,1.8-2.62,2.06-4.72h2.11Z"/>
            <path class="cls-15" d="m945.92,278.09v16.92c-.01,1.67-.38,3.12-1.11,4.36-.73,1.24-1.75,2.19-3.07,2.85-1.32.66-2.84,1-4.55,1-2.61,0-4.7-.71-6.27-2.14-1.57-1.42-2.39-3.4-2.44-5.91v-17.07h2.08v16.77c0,2.09.6,3.71,1.79,4.86s2.81,1.73,4.85,1.73,3.66-.58,4.84-1.74,1.78-2.77,1.78-4.83v-16.78h2.11Zm-6.55-6.72h2.47l-3.93,4.77h-1.79s3.25-4.77,3.25-4.77Z"/>
            <path class="cls-15" d="m965.78,296.78c0-1.37-.48-2.46-1.45-3.26-.96-.8-2.73-1.56-5.29-2.28s-4.44-1.51-5.62-2.36c-1.68-1.2-2.52-2.78-2.52-4.73s.78-3.44,2.34-4.62c1.56-1.19,3.55-1.78,5.98-1.78,1.64,0,3.12.32,4.42.95,1.3.64,2.31,1.52,3.02,2.66s1.07,2.4,1.07,3.8h-2.11c0-1.7-.58-3.06-1.74-4.09s-2.71-1.54-4.66-1.54-3.4.42-4.53,1.27c-1.12.85-1.68,1.95-1.68,3.32,0,1.26.5,2.29,1.51,3.09,1.01.79,2.63,1.5,4.85,2.11,2.22.61,3.91,1.24,5.06,1.89,1.15.65,2.01,1.43,2.59,2.34.58.91.87,1.98.87,3.22,0,1.95-.78,3.52-2.34,4.7-1.56,1.18-3.62,1.77-6.17,1.77-1.75,0-3.35-.31-4.81-.94-1.46-.62-2.57-1.5-3.32-2.62-.75-1.12-1.13-2.41-1.13-3.86h2.09c0,1.75.65,3.13,1.96,4.14s3.04,1.51,5.21,1.51c1.93,0,3.48-.43,4.65-1.28,1.17-.85,1.75-1.98,1.75-3.39Z"/>
            <path class="cls-15" d="m989.22,279.86h-8.49v23.01h-2.09v-23.01h-8.48v-1.77h19.06v1.77Z"/>
            <path class="cls-15" d="m995.77,302.87h-2.09v-24.78h2.09v24.78Z"/>
            <path class="cls-15" d="m1020.04,295.15c-.28,2.61-1.22,4.61-2.8,5.99-1.58,1.38-3.69,2.08-6.32,2.08-1.84,0-3.46-.46-4.88-1.38-1.41-.92-2.5-2.22-3.28-3.91-.77-1.69-1.16-3.61-1.17-5.78v-3.22c0-2.2.39-4.15,1.16-5.86.77-1.7,1.88-3.01,3.33-3.94,1.45-.92,3.11-1.39,5-1.39,2.66,0,4.75.71,6.29,2.14,1.54,1.43,2.43,3.41,2.68,5.94h-2.11c-.52-4.21-2.81-6.31-6.86-6.31-2.25,0-4.04.84-5.37,2.52-1.33,1.68-2,4-2,6.97v3.03c0,2.86.65,5.14,1.95,6.85,1.3,1.7,3.06,2.55,5.27,2.55s3.84-.52,4.95-1.57c1.11-1.05,1.8-2.62,2.06-4.72h2.11Z"/>
            <path class="cls-15" d="m1043.45,291.83c0,2.28-.39,4.28-1.18,6.01-.79,1.72-1.92,3.05-3.38,3.98-1.46.93-3.15,1.4-5.07,1.4-2.89,0-5.23-1.04-7.01-3.11-1.78-2.07-2.67-4.87-2.67-8.38v-2.55c0-2.26.4-4.26,1.2-6,.8-1.74,1.93-3.08,3.4-4.02s3.15-1.4,5.05-1.4,3.59.46,5.05,1.38,2.58,2.22,3.38,3.9c.79,1.68,1.21,3.63,1.24,5.84v2.96Zm-2.09-2.69c0-2.98-.67-5.32-2.03-7.01-1.35-1.69-3.2-2.54-5.55-2.54s-4.14.85-5.51,2.54c-1.37,1.7-2.05,4.07-2.05,7.11v2.59c0,2.94.68,5.27,2.04,6.99s3.21,2.58,5.55,2.58,4.22-.85,5.55-2.54c1.33-1.7,1.99-4.06,1.99-7.09v-2.62Z"/>
          </g>
        </g>
        <g>
          <line class="cls-7" x1="999.07" y1="96.39" x2="999.07" y2="173.71"/>
          <path class="cls-1" d="m1028.05,134.37c0,36.32-29.45,65.75-65.76,65.75s-65.75-29.43-65.75-65.75,29.45-65.76,65.75-65.76,65.76,29.44,65.76,65.76"/>
          <path class="cls-13" d="m962.29,68.61c36.32,0,65.75,29.44,65.75,65.76s-29.43,65.75-65.75,65.75"/>
          <g>
            <path class="cls-4" d="m943.38,135.05v-25.66h-6.34c0,6.37-5.26,10.57-8.33,12.47-1.26.78-2.72,1.18-4.24,1.18h-4.5v24.02h4.5c1.52,0,2.98.4,4.24,1.18,3.07,1.9,8.33,6.1,8.33,12.47h6.34v-25.66Z"/>
            <g>
              <path class="cls-8" d="m956.81,155.05c7.7-3.26,13.1-10.88,13.1-19.77h0c0-8.89-5.4-16.51-13.1-19.77"/>
              <path class="cls-8" d="m966.89,159c8.49-4.47,14.28-13.37,14.28-23.63h0c0-10.26-5.79-19.16-14.28-23.63"/>
              <path class="cls-8" d="m948.03,150.21c6.52-1.84,11.3-7.83,11.3-14.93h0c0-7.11-4.78-13.1-11.3-14.93"/>
            </g>
          </g>
          <line class="cls-10" x1="999.07" y1="96.39" x2="999.07" y2="173.71"/>
        </g>
      </g>
      <g>
        <g>
          <g>
            <path class="cls-15" d="m595.54,253.2h-11.25l-2.55,6.96h-2.2l9.38-24.78h1.99l9.38,24.78h-2.18l-2.57-6.96Zm-10.6-1.77h9.94l-4.97-13.5-4.97,13.5Z"/>
            <path class="cls-15" d="m606.49,260.16h-2.09v-24.78h2.09v24.78Z"/>
            <path class="cls-15" d="m627.24,254.06c0-1.37-.48-2.46-1.45-3.26-.96-.8-2.73-1.56-5.29-2.28s-4.44-1.51-5.62-2.36c-1.68-1.2-2.52-2.78-2.52-4.73s.78-3.44,2.34-4.62c1.56-1.19,3.55-1.78,5.98-1.78,1.64,0,3.12.32,4.42.95,1.3.64,2.31,1.52,3.02,2.66s1.07,2.4,1.07,3.8h-2.11c0-1.7-.58-3.06-1.74-4.09s-2.71-1.54-4.66-1.54-3.4.42-4.53,1.27c-1.12.85-1.68,1.95-1.68,3.32,0,1.26.5,2.29,1.51,3.09,1.01.79,2.63,1.5,4.85,2.11,2.22.61,3.91,1.24,5.06,1.89,1.15.65,2.01,1.43,2.59,2.34.58.91.87,1.98.87,3.22,0,1.95-.78,3.52-2.34,4.7-1.56,1.18-3.62,1.77-6.17,1.77-1.75,0-3.35-.31-4.81-.94-1.46-.62-2.57-1.5-3.32-2.62-.75-1.12-1.13-2.41-1.13-3.86h2.09c0,1.75.65,3.13,1.96,4.14s3.04,1.51,5.21,1.51c1.93,0,3.48-.43,4.65-1.28,1.17-.85,1.75-1.98,1.75-3.39Z"/>
            <path class="cls-15" d="m635.97,258.39h12.24v1.77h-14.35v-24.78h2.11v23.01Z"/>
            <path class="cls-15" d="m665.88,253.2h-11.25l-2.55,6.96h-2.2l9.38-24.78h1.99l9.38,24.78h-2.18l-2.57-6.96Zm-10.6-1.77h9.94l-4.97-13.5-4.97,13.5Z"/>
            <path class="cls-15" d="m677.05,235.38l9.14,21.87,9.17-21.87h2.79v24.78h-2.09v-10.79l.17-11.06-9.23,21.85h-1.62l-9.19-21.77.17,10.91v10.86h-2.09v-24.78h2.77Z"/>
            <path class="cls-15" d="m706.99,260.16h-2.09v-24.78h2.09v24.78Z"/>
            <path class="cls-15" d="m727.39,248.28h-11.59v10.11h13.33v1.77h-15.42v-24.78h15.34v1.77h-13.24v9.36h11.59v1.77Z"/>
            <path class="cls-15" d="m751.99,260.16h-2.09l-14.25-21.21v21.21h-2.11v-24.78h2.11l14.26,21.22v-21.22h2.08v24.78Z"/>
            <path class="cls-15" d="m774.65,237.15h-8.49v23.01h-2.09v-23.01h-8.48v-1.77h19.06v1.77Z"/>
            <path class="cls-15" d="m796.51,249.11c0,2.28-.39,4.28-1.18,6.01-.79,1.72-1.92,3.05-3.38,3.98-1.46.93-3.15,1.4-5.07,1.4-2.89,0-5.23-1.04-7.01-3.11-1.78-2.07-2.67-4.87-2.67-8.38v-2.55c0-2.26.4-4.26,1.2-6,.8-1.74,1.93-3.08,3.4-4.02s3.15-1.4,5.05-1.4,3.59.46,5.05,1.38,2.58,2.22,3.38,3.9c.79,1.68,1.21,3.63,1.24,5.84v2.96Zm-2.09-2.69c0-2.98-.67-5.32-2.03-7.01-1.35-1.69-3.2-2.54-5.55-2.54s-4.14.85-5.51,2.54c-1.37,1.7-2.05,4.07-2.05,7.11v2.59c0,2.94.68,5.27,2.04,6.99s3.21,2.58,5.55,2.58,4.22-.85,5.55-2.54c1.33-1.7,1.99-4.06,1.99-7.09v-2.62Z"/>
          </g>
          <g>
            <path class="cls-15" d="m634.52,279.52l-8.49.09.24,23.01-2.09.02-.24-23.01-8.48.09-.02-1.77,19.06-.2.02,1.77Z"/>
            <path class="cls-15" d="m652.31,290.47l-11.59.12.1,10.11,13.33-.14.02,1.77-15.42.16-.25-24.78,15.33-.16.02,1.77-13.24.14.1,9.36,11.59-.12.02,1.77Zm-4.44-19.68l2.47-.03-3.88,4.81h-1.79s3.2-4.78,3.2-4.78Z"/>
            <path class="cls-15" d="m667.73,291.86l-7.2.07.11,10.33-2.11.02-.25-24.78,8.05-.08c2.64-.03,4.71.59,6.21,1.86,1.5,1.27,2.26,3.05,2.28,5.35.02,1.59-.43,2.99-1.35,4.21-.92,1.22-2.16,2.07-3.72,2.55l6.3,10.49v.22s-2.23.02-2.23.02l-6.1-10.27Zm-7.22-1.7l6.42-.07c1.76-.02,3.17-.53,4.22-1.54,1.06-1.01,1.58-2.31,1.56-3.9-.02-1.75-.59-3.1-1.71-4.06-1.12-.96-2.69-1.42-4.69-1.4l-5.91.06.11,10.91Z"/>
            <path class="cls-15" d="m683.23,277.25l9.36,21.78,8.95-21.96,2.79-.03.25,24.78-2.09.02-.11-10.79.06-11.06-9,21.95-1.62.02-9.41-21.67.28,10.91.11,10.86-2.09.02-.25-24.78,2.77-.03Z"/>
            <path class="cls-15" d="m713.42,301.72l-2.09.02-.25-24.78,2.09-.02.25,24.78Z"/>
            <path class="cls-15" d="m737.61,293.75c-.26,2.61-1.17,4.62-2.74,6.02-1.57,1.4-3.67,2.11-6.3,2.14-1.84.02-3.47-.42-4.89-1.33-1.42-.9-2.53-2.2-3.32-3.87-.79-1.68-1.2-3.6-1.23-5.77l-.03-3.22c-.02-2.2.34-4.16,1.1-5.87.75-1.71,1.85-3.03,3.29-3.97,1.44-.94,3.1-1.42,4.98-1.44,2.66-.03,4.76.67,6.31,2.08,1.55,1.41,2.47,3.38,2.74,5.91l-2.11.02c-.57-4.2-2.87-6.29-6.93-6.24-2.25.02-4.03.88-5.34,2.58s-1.96,4.02-1.93,6.99l.03,3.03c.03,2.86.7,5.14,2.02,6.83,1.32,1.69,3.08,2.52,5.29,2.5,2.19-.02,3.84-.56,4.94-1.62,1.1-1.06,1.77-2.64,2.01-4.75l2.11-.02Z"/>
            <path class="cls-15" d="m760.98,290.19c.02,2.28-.35,4.29-1.12,6.02-.77,1.73-1.88,3.07-3.34,4.02-1.45.95-3.14,1.43-5.06,1.45-2.89.03-5.24-.98-7.04-3.03-1.8-2.05-2.72-4.84-2.76-8.36l-.03-2.55c-.02-2.26.36-4.26,1.14-6.01.78-1.75,1.9-3.1,3.35-4.05,1.45-.95,3.13-1.44,5.04-1.46s3.59.42,5.06,1.33c1.47.9,2.61,2.19,3.42,3.86.81,1.67,1.25,3.61,1.3,5.83l.03,2.96Zm-2.12-2.67c-.03-2.98-.73-5.31-2.1-6.99-1.37-1.68-3.23-2.5-5.58-2.48-2.3.02-4.13.89-5.48,2.6-1.35,1.71-2.01,4.08-1.98,7.13l.03,2.59c.03,2.94.74,5.26,2.11,6.97,1.38,1.7,3.24,2.54,5.58,2.52,2.37-.02,4.21-.89,5.52-2.6,1.31-1.71,1.95-4.08,1.92-7.11l-.03-2.62Z"/>
          </g>
        </g>
        <g>
          <path class="cls-2" d="m752.01,134.36c0,36.32-29.44,65.75-65.75,65.75s-65.75-29.43-65.75-65.75,29.44-65.75,65.75-65.75,65.75,29.44,65.75,65.75"/>
          <path class="cls-19" d="m686.25,68.61c36.32,0,65.76,29.44,65.76,65.75s-29.44,65.75-65.76,65.75"/>
          <path class="cls-5" d="m692.66,153.83v-44.68c0-3.22-2.62-5.84-5.84-5.84s-5.84,2.61-5.84,5.84l-.06,44.7c-6.62,2.41-11.35,8.76-11.35,16.21,0,9.52,7.72,17.25,17.25,17.25s17.25-7.72,17.25-17.25c0-7.47-4.75-13.84-11.41-16.23Zm-5.84,22.07c-3.22,0-5.84-2.61-5.84-5.84s2.62-5.84,5.84-5.84,5.84,2.61,5.84,5.84-2.62,5.84-5.84,5.84Z"/>
          <g>
            <line class="cls-8" x1="701.22" y1="138.34" x2="701.14" y2="82.11"/>
            <line class="cls-8" x1="701.17" y1="111.39" x2="724.19" y2="111.36"/>
            <line class="cls-8" x1="701.15" y1="111.19" x2="717.56" y2="127.55"/>
            <line class="cls-8" x1="701.18" y1="111.19" x2="717.32" y2="95"/>
            <line class="cls-8" x1="710.94" y1="128.5" x2="711.07" y2="121.05"/>
            <line class="cls-8" x1="718.63" y1="120.89" x2="711.07" y2="121.05"/>
            <polyline class="cls-8" points="720.16 116.75 714.72 111.37 720.36 105.71"/>
            <line class="cls-8" x1="718.6" y1="101.75" x2="710.64" y2="101.71"/>
            <line class="cls-8" x1="710.56" y1="93.92" x2="710.64" y2="101.71"/>
            <line class="cls-8" x1="706.85" y1="92.24" x2="701.22" y2="97.89"/>
            <line class="cls-8" x1="706.86" y1="130.29" x2="701.28" y2="124.73"/>
          </g>
          <g>
            <path class="cls-8" d="m671.04,122.86c-3.42.07-6.87-1.16-9.53-3.72-5.31-5.1-5.48-13.54-.38-18.85,2.54-2.65,5.92-4.02,9.32-4.09"/>
            <line class="cls-8" x1="648.71" y1="110.2" x2="657.44" y2="110.03"/>
            <line class="cls-8" x1="655" y1="94.42" x2="661.13" y2="100.31"/>
            <line class="cls-8" x1="655.62" y1="125.31" x2="661.53" y2="119.16"/>
            <line class="cls-8" x1="648.37" y1="119.36" x2="658.54" y2="114.88"/>
            <line class="cls-8" x1="647.9" y1="100.66" x2="657.79" y2="104.62"/>
            <line class="cls-8" x1="661" y1="87.24" x2="665.3" y2="96.92"/>
            <line class="cls-8" x1="662.05" y1="132.39" x2="665.75" y2="122.25"/>
            <line class="cls-8" x1="671.63" y1="138.55" x2="671.63" y2="81.9"/>
          </g>
        </g>
      </g>
      <g>
        <g>
          <g>
            <path class="cls-15" d="m25.72,250.17v10.09h-2.09v-24.78h8.44c2.58,0,4.61.66,6.1,1.97,1.49,1.32,2.24,3.13,2.24,5.43s-.72,4.12-2.15,5.39c-1.44,1.27-3.52,1.9-6.24,1.9h-6.3Zm0-1.77h6.35c2.03,0,3.58-.48,4.65-1.45s1.6-2.31,1.6-4.04-.53-3.08-1.59-4.1c-1.06-1.02-2.57-1.54-4.52-1.56h-6.48v11.15Z"/>
            <path class="cls-15" d="m54.35,249.93h-7.2v10.33h-2.11v-24.78h8.05c2.64,0,4.71.64,6.2,1.92s2.23,3.07,2.23,5.37c0,1.59-.46,2.99-1.4,4.2s-2.18,2.05-3.74,2.52l6.2,10.55v.22h-2.23l-5.99-10.33Zm-7.2-1.77h6.42c1.76,0,3.17-.5,4.24-1.5,1.07-1,1.6-2.29,1.6-3.89,0-1.75-.56-3.11-1.67-4.07s-2.67-1.45-4.68-1.45h-5.91v10.91Z"/>
            <path class="cls-15" d="m85.53,249.22c0,2.28-.39,4.28-1.18,6.01-.79,1.72-1.92,3.05-3.38,3.98-1.46.93-3.15,1.4-5.07,1.4-2.89,0-5.23-1.04-7.01-3.11-1.78-2.07-2.67-4.87-2.67-8.38v-2.55c0-2.26.4-4.26,1.2-6,.8-1.74,1.93-3.08,3.4-4.02s3.15-1.4,5.05-1.4,3.59.46,5.05,1.38,2.58,2.22,3.38,3.9c.79,1.68,1.21,3.63,1.24,5.84v2.96Zm-2.09-2.69c0-2.98-.67-5.32-2.03-7.01-1.35-1.69-3.2-2.54-5.55-2.54s-4.14.85-5.51,2.54c-1.37,1.7-2.05,4.07-2.05,7.11v2.59c0,2.94.68,5.27,2.04,6.99s3.21,2.58,5.55,2.58,4.22-.85,5.55-2.54c1.33-1.7,1.99-4.06,1.99-7.09v-2.62Z"/>
            <path class="cls-15" d="m107.63,237.25h-8.49v23.01h-2.09v-23.01h-8.48v-1.77h19.06v1.77Z"/>
            <path class="cls-15" d="m125.31,248.38h-11.59v10.11h13.33v1.77h-15.42v-24.78h15.34v1.77h-13.24v9.36h11.59v1.77Z"/>
            <path class="cls-15" d="m149,252.54c-.28,2.61-1.22,4.61-2.8,5.99-1.58,1.38-3.69,2.08-6.32,2.08-1.84,0-3.46-.46-4.88-1.38s-2.5-2.22-3.28-3.91c-.77-1.69-1.16-3.61-1.17-5.78v-3.22c0-2.2.39-4.15,1.16-5.86.77-1.7,1.88-3.01,3.33-3.94,1.45-.92,3.11-1.39,5-1.39,2.66,0,4.75.71,6.29,2.14,1.54,1.43,2.43,3.41,2.68,5.94h-2.11c-.52-4.21-2.81-6.31-6.86-6.31-2.25,0-4.04.84-5.37,2.52-1.33,1.68-2,4-2,6.97v3.03c0,2.86.65,5.14,1.95,6.85,1.3,1.7,3.06,2.55,5.27,2.55s3.84-.52,4.95-1.57c1.11-1.05,1.8-2.62,2.06-4.72h2.11Z"/>
            <path class="cls-15" d="m171.64,252.54c-.28,2.61-1.22,4.61-2.8,5.99-1.58,1.38-3.69,2.08-6.32,2.08-1.84,0-3.46-.46-4.88-1.38s-2.5-2.22-3.28-3.91c-.77-1.69-1.16-3.61-1.17-5.78v-3.22c0-2.2.39-4.15,1.16-5.86.77-1.7,1.88-3.01,3.33-3.94,1.45-.92,3.11-1.39,5-1.39,2.66,0,4.75.71,6.29,2.14,1.54,1.43,2.43,3.41,2.68,5.94h-2.11c-.52-4.21-2.81-6.31-6.86-6.31-2.25,0-4.04.84-5.37,2.52-1.33,1.68-2,4-2,6.97v3.03c0,2.86.65,5.14,1.95,6.85,1.3,1.7,3.06,2.55,5.27,2.55s3.84-.52,4.95-1.57c1.11-1.05,1.8-2.62,2.06-4.72h2.11Z"/>
            <path class="cls-15" d="m179.28,260.26h-2.09v-24.78h2.09v24.78Z"/>
            <path class="cls-15" d="m204.32,249.22c0,2.28-.39,4.28-1.18,6.01-.79,1.72-1.92,3.05-3.38,3.98-1.46.93-3.15,1.4-5.07,1.4-2.89,0-5.23-1.04-7.01-3.11-1.78-2.07-2.67-4.87-2.67-8.38v-2.55c0-2.26.4-4.26,1.2-6,.8-1.74,1.93-3.08,3.4-4.02s3.15-1.4,5.05-1.4,3.59.46,5.05,1.38,2.58,2.22,3.38,3.9c.79,1.68,1.21,3.63,1.24,5.84v2.96Zm-2.09-2.69c0-2.98-.67-5.32-2.03-7.01-1.35-1.69-3.2-2.54-5.55-2.54s-4.14.85-5.51,2.54c-1.37,1.7-2.05,4.07-2.05,7.11v2.59c0,2.94.68,5.27,2.04,6.99s3.21,2.58,5.55,2.58,4.22-.85,5.55-2.54c1.33-1.7,1.99-4.06,1.99-7.09v-2.62Z"/>
            <path class="cls-15" d="m228.05,260.26h-2.09l-14.25-21.21v21.21h-2.11v-24.78h2.11l14.26,21.22v-21.22h2.08v24.78Z"/>
          </g>
          <g>
            <path class="cls-15" d="m89.75,295.98c0-1.37-.48-2.46-1.45-3.26-.96-.8-2.73-1.56-5.29-2.28s-4.44-1.51-5.62-2.36c-1.68-1.2-2.52-2.78-2.52-4.73s.78-3.44,2.34-4.62c1.56-1.19,3.55-1.78,5.98-1.78,1.64,0,3.12.32,4.42.95,1.3.64,2.31,1.52,3.02,2.66s1.07,2.4,1.07,3.8h-2.11c0-1.7-.58-3.06-1.74-4.09s-2.71-1.54-4.66-1.54-3.4.42-4.53,1.27c-1.12.85-1.68,1.95-1.68,3.32,0,1.26.5,2.29,1.51,3.09,1.01.79,2.63,1.5,4.85,2.11,2.22.61,3.91,1.24,5.06,1.89,1.15.65,2.01,1.43,2.59,2.34.58.91.87,1.98.87,3.22,0,1.95-.78,3.52-2.34,4.7-1.56,1.18-3.62,1.77-6.17,1.77-1.75,0-3.35-.31-4.81-.94-1.46-.62-2.57-1.5-3.32-2.62-.75-1.12-1.13-2.41-1.13-3.86h2.09c0,1.75.65,3.13,1.96,4.14s3.04,1.51,5.21,1.51c1.93,0,3.48-.43,4.65-1.28,1.17-.85,1.75-1.98,1.75-3.39Z"/>
            <path class="cls-15" d="m114.69,291.03c0,2.28-.39,4.28-1.18,6.01-.79,1.72-1.92,3.05-3.38,3.98-1.46.93-3.15,1.4-5.07,1.4-2.89,0-5.23-1.04-7.01-3.11-1.78-2.07-2.67-4.87-2.67-8.38v-2.55c0-2.26.4-4.26,1.2-6,.8-1.74,1.93-3.08,3.4-4.02s3.15-1.4,5.05-1.4,3.59.46,5.05,1.38,2.58,2.22,3.38,3.9c.79,1.68,1.21,3.63,1.24,5.84v2.96Zm-2.09-2.69c0-2.98-.67-5.32-2.03-7.01-1.35-1.69-3.2-2.54-5.55-2.54s-4.14.85-5.51,2.54c-1.37,1.7-2.05,4.07-2.05,7.11v2.59c0,2.94.68,5.27,2.04,6.99s3.21,2.58,5.55,2.58,4.22-.85,5.55-2.54c1.33-1.7,1.99-4.06,1.99-7.09v-2.62Z"/>
            <path class="cls-15" d="m122.08,300.31h12.24v1.77h-14.35v-24.78h2.11v23.01Z"/>
            <path class="cls-15" d="m151.71,295.11h-11.25l-2.55,6.96h-2.2l9.38-24.78h1.99l9.38,24.78h-2.18l-2.57-6.96Zm-10.6-1.77h9.94l-4.97-13.5-4.97,13.5Z"/>
            <path class="cls-15" d="m169.36,291.74h-7.2v10.33h-2.11v-24.78h8.05c2.64,0,4.71.64,6.2,1.92s2.23,3.07,2.23,5.37c0,1.59-.46,2.99-1.4,4.2s-2.18,2.05-3.74,2.52l6.2,10.55v.22h-2.23l-5.99-10.33Zm-7.2-1.77h6.42c1.76,0,3.17-.5,4.24-1.5,1.07-1,1.6-2.29,1.6-3.89,0-1.75-.56-3.11-1.67-4.07s-2.67-1.45-4.68-1.45h-5.91v10.91Z"/>
          </g>
        </g>
        <g>
          <path class="cls-23" d="m181.93,134.36c0,36.32-29.44,65.75-65.75,65.75s-65.75-29.43-65.75-65.75,29.44-65.75,65.75-65.75,65.75,29.44,65.75,65.75"/>
          <path class="cls-12" d="m116.17,68.61c36.32,0,65.76,29.44,65.76,65.75s-29.44,65.75-65.76,65.75"/>
          <g>
            <line class="cls-6" x1="119.79" y1="136.76" x2="105.9" y2="123.45"/>
            <line class="cls-6" x1="85.42" y1="151.59" x2="85.02" y2="132.87"/>
            <line class="cls-6" x1="132.51" y1="102.43" x2="113.71" y2="102.83"/>
            <line class="cls-6" x1="134.55" y1="122.99" x2="111.71" y2="114.17"/>
            <line class="cls-6" x1="106.2" y1="152.9" x2="96.93" y2="131.32"/>
            <line class="cls-6" x1="64.89" y1="153.46" x2="73.24" y2="131.67"/>
            <line class="cls-6" x1="133.5" y1="81.38" x2="111.94" y2="91.45"/>
          </g>
          <line class="cls-10" x1="155.15" y1="97.56" x2="155.15" y2="174.88"/>
          <g>
            <polyline class="cls-9" points="136.97 131.61 155.15 143.94 123.21 162.86"/>
            <polygon class="cls-5" points="121.28 155.31 113.95 168.35 128.9 168.18 121.28 155.31"/>
          </g>
          <path class="cls-4" d="m67.19,120.56l-3.99,4.18c5.42,5.18,12.82,8.29,20.9,8.12,16.22-.35,29.08-13.77,28.74-29.99-.17-8.13-3.63-15.42-9.08-20.62l-36.56,38.31Z"/>
        </g>
      </g>
    </g>
  </g>
  <text class="cls-14" transform="translate(101.96 -36.89)"><tspan x="0" y="0">SOLAR</tspan></text>
</svg>