<?xml version="1.0" encoding="UTF-8"?>
<svg id="Capa_1" data-name="Capa 1" xmlns="http://www.w3.org/2000/svg" viewBox="0 0 317 232">
  <defs>
    <style>
      .cls-1 {
        fill: #402020;
      }
    </style>
  </defs>
  <g>
    <path class="cls-1" d="m24.08,0h186.35v186.33H24.08V0Zm176.86,9.48H33.56v167.38h167.38V9.48Z"/>
    <path class="cls-1" d="m49.36,232.49c10.26-8.75,52.43-52.46,62.28-63.43-15.76-19.19-42.32-44.84-41.9-87.21.25-23.33,15.52-51.9,52.62-55.06C29.23,2.88-57.69,104.95,49.36,232.49c10.26-8.75,52.43-52.46,62.28-63.43"/>
    <path class="cls-1" d="m178.16,79.5c0,27.35-22.19,49.56-49.59,49.56s-49.55-22.21-49.55-49.56,22.19-49.56,49.55-49.56,49.59,22.17,49.59,49.56"/>
  </g>
  <g>
    <path class="cls-1" d="m308.81,74.37c-6.88-5.23-33.16-25.24-33.16-25.24v-28.05c0-16.13-24.67-15.87-24.67,0v9.32L211,0s-.11.09-.31.23v97.78h80.74v-8.69h17.39c14.95,0,6.85-9.73,0-14.96Z"/>
    <g>
      <rect class="cls-1" x="210.43" y="157.04" width="80.93" height="4.21"/>
      <rect class="cls-1" x="210.43" y="135.96" width="80.93" height="4.21"/>
      <rect class="cls-1" x="210.43" y="167.58" width="80.93" height="4.22"/>
      <rect class="cls-1" x="210.43" y="146.5" width="80.93" height="4.22"/>
      <rect class="cls-1" x="210.43" y="104.34" width="80.93" height="4.22"/>
      <rect class="cls-1" x="210.43" y="178.12" width="80.93" height="8.38"/>
      <rect class="cls-1" x="210.43" y="125.42" width="80.93" height="4.22"/>
      <rect class="cls-1" x="210.43" y="114.88" width="80.93" height="4.21"/>
    </g>
  </g>
</svg>