<?xml version="1.0" encoding="UTF-8"?>
<svg id="Capa_1" data-name="Capa 1" xmlns="http://www.w3.org/2000/svg" viewBox="0 0 338 247">
  <defs>
    <style>
      .cls-1 {
        fill: #3c3c3b;
      }
    </style>
  </defs>
  <g>
    <path class="cls-1" d="m25.65,0h198.47v198.46H25.65V0Zm188.36,10.09H35.74v178.27h178.27V10.09Z"/>
    <path class="cls-1" d="m52.57,247.61c10.93-9.32,55.84-55.87,66.33-67.56-16.79-20.44-45.07-47.76-44.63-92.88.26-24.85,16.53-55.28,56.04-58.65C31.13,3.07-61.44,111.78,52.57,247.61c10.93-9.32,55.84-55.87,66.33-67.56"/>
    <path class="cls-1" d="m189.75,84.68c0,29.13-23.64,52.79-52.82,52.79s-52.77-23.66-52.77-52.79,23.64-52.78,52.77-52.78,52.82,23.62,52.82,52.78"/>
  </g>
  <g>
    <path class="cls-1" d="m249.48,108.58c-.72-.15-1.36-.22-1.92-.22-2.06,0-3.09,1.36-3.09,4.09v1.64l10.09,2.46v-1.64c0-1.64-.26-2.87-.78-3.72-.77-1.19-2.2-2.05-4.3-2.6Z"/>
    <path class="cls-1" d="m249.16,150.69c-.64-.15-1.2-.23-1.67-.23-2,0-3.02,1.54-3.02,4.61v1.71l10.09,2.46v-2.16c0-3.37-1.8-5.5-5.4-6.39Z"/>
    <path class="cls-1" d="m329,79.23c-13.44-10.22-6.45-4.91-104.19-79.23,0,0-.28.21-.69.52v197.93h86.37v-103.29h18.51c15.93,0,7.31-10.37,0-15.94Zm-47.93,78.37c-.29.19-.81.3-1.54.3-1.16,0-2.84-.27-5.07-.82-.72-.19-1.85-.45-3.37-.74-1.52-.3-2.69-.54-3.51-.74-.81-.19-1.52-.3-2.12-.3-1.63,0-2.44,1.09-2.44,3.28v2.75l18.04,4.47v14.88l-45.84-11.31v-22.32c0-8.13,2.77-12.21,8.28-12.21,1.11,0,2.35.17,3.73.52,6.64,1.64,10.31,5.5,11.04,11.61h.14c.29-4.36,2.28-6.55,5.97-6.55,1.24,0,3.08.3,5.51.9l3.79.96c2.83.7,4.63.9,5.4.6.64-.19,1.09-.6,1.35-1.19l.64.15v15.78Zm0-19.64l-45.84-11.31v-19.71c0-9.53,3.19-14.29,9.58-14.29,1.41,0,2.96.2,4.68.6,4.88,1.24,8.55,3.82,10.98,7.74,2.23,3.52,3.34,7.96,3.34,13.31v4.54l17.27,4.24v14.88Zm0-48.28l-35.06-8.63v10.12l-10.79-2.68v-35.11l10.79,2.67v10.12l35.06,8.64v14.88Z"/>
  </g>
</svg>