<?xml version="1.0" encoding="UTF-8"?>
<svg id="Capa_1" data-name="Capa 1" xmlns="http://www.w3.org/2000/svg" viewBox="0 0 338 247">
  <defs>
    <style>
      .cls-1, .cls-2 {
        fill: #ea0029;
      }

      .cls-3 {
        fill: #fff;
      }

      .cls-4 {
        fill: #e03c41;
      }

      .cls-2 {
        fill-rule: evenodd;
      }
    </style>
  </defs>
  <g>
    <path class="cls-1" d="m25.62,0h198.25v198.24H25.62V0Zm188.15,10.08H35.71v178.07h178.07V10.08Z"/>
    <path class="cls-1" d="m52.51,247.34c10.92-9.31,55.78-55.81,66.25-67.48-16.77-20.41-45.02-47.71-44.58-92.78.26-24.82,16.51-55.22,55.98-58.58C31.1,3.06-61.37,111.65,52.51,247.34c10.92-9.31,55.78-55.81,66.25-67.48"/>
    <path class="cls-1" d="m189.54,84.58c0,29.1-23.61,52.73-52.76,52.73s-52.71-23.63-52.71-52.73,23.61-52.73,52.71-52.73,52.76,23.59,52.76,52.73"/>
  </g>
  <line class="cls-4" x1="293.08" y1="157.21" x2="292.98" y2="157.42"/>
  <path class="cls-2" d="m328.64,79.15c-13.42-10.21-6.45-4.9-104.08-79.15,0,0-.28.21-.69.52v197.72h86.27v-103.17h18.49c15.92,0,7.3-10.36,0-15.92Z"/>
  <path class="cls-3" d="m280.13,119.61h-38.82c-4.01,0-7.28,3.26-7.28,7.28v24.26c0,6.69,5.44,12.13,12.13,12.13h29.11c6.69,0,12.13-5.44,12.13-12.13v-24.26c0-4.01-3.26-7.28-7.28-7.28Z"/>
  <path class="cls-3" d="m246.17,109.91c0-8.03,6.53-14.56,14.56-14.56s14.56,6.53,14.56,14.56v4.85h4.85v-4.85c0-10.7-8.71-19.41-19.41-19.41s-19.41,8.71-19.41,19.41v4.85h4.85v-4.85Z"/>
  <path class="cls-1" d="m265.29,139.4c0-2.52-2.04-4.57-4.57-4.57s-4.57,2.05-4.57,4.57c0,1.59.87,2.93,2.1,3.75,0,0-1.22,5.66,0,6.88.87.87,4.16.96,4.93,0,1.08-1.34,0-6.88,0-6.88,1.24-.82,2.1-2.15,2.1-3.75Z"/>
</svg>