<?xml version="1.0" encoding="UTF-8"?>
<svg id="Capa_1" data-name="Capa 1" xmlns="http://www.w3.org/2000/svg" viewBox="0 0 236.21 255">
  <defs>
    <style>
      .cls-1 {
        stroke-miterlimit: 10;
      }

      .cls-1, .cls-2, .cls-3 {
        fill: none;
        stroke: #5d5c60;
      }

      .cls-1, .cls-3 {
        stroke-width: .35px;
      }

      .cls-2 {
        stroke-width: .7px;
      }

      .cls-2, .cls-3 {
        stroke-linecap: round;
        stroke-linejoin: round;
      }

      .cls-4 {
        font-family: MyriadPro-Regular, 'Myriad Pro';
        font-size: 13.91px;
      }

      .cls-4, .cls-5 {
        fill: #5d5c60;
      }
    </style>
  </defs>
  <line class="cls-3" x1="76.83" y1="20.46" x2="109.32" y2="20.46"/>
  <line class="cls-3" x1="102.66" y1="20.46" x2="102.66" y2="188.51"/>
  <line class="cls-3" x1="34.65" y1="200.37" x2="34.65" y2="232.85"/>
  <line class="cls-3" x1="68.03" y1="200.37" x2="68.03" y2="232.85"/>
  <line class="cls-3" x1="68.03" y1="226.2" x2="34.65" y2="226.2"/>
  <polygon class="cls-5" points="102.66 20.46 99.8 35.38 105.53 35.38 102.66 20.46"/>
  <polygon class="cls-3" points="102.66 20.46 99.8 35.38 105.53 35.38 102.66 20.46"/>
  <polygon class="cls-5" points="102.66 188.41 99.8 173.48 105.53 173.48 102.66 188.41"/>
  <polygon class="cls-3" points="102.66 188.41 99.8 173.48 105.53 173.48 102.66 188.41"/>
  <polygon class="cls-5" points="68.03 226.2 82.95 223.34 82.95 229.06 68.03 226.2"/>
  <polygon class="cls-1" points="68.03 226.2 82.95 223.34 82.95 229.06 68.03 226.2"/>
  <polygon class="cls-5" points="34.4 226.12 19.48 228.98 19.48 223.25 34.4 226.12"/>
  <polygon class="cls-1" points="34.4 226.12 19.48 228.98 19.48 223.25 34.4 226.12"/>
  <line class="cls-3" x1="76.83" y1="188.79" x2="109.32" y2="188.79"/>
  <text class="cls-4" transform="translate(98.91 112.06) rotate(-90)"><tspan x="0" y="0">39</tspan></text>
  <text class="cls-4" transform="translate(47.42 221.78)"><tspan x="0" y="0">9</tspan></text>
  <line class="cls-3" x1="152.89" y1="200.37" x2="152.89" y2="232.85"/>
  <line class="cls-3" x1="180.71" y1="200.37" x2="180.71" y2="232.85"/>
  <line class="cls-3" x1="180.71" y1="226.2" x2="152.89" y2="226.2"/>
  <polygon class="cls-5" points="180.71 226.2 195.63 223.34 195.63 229.06 180.71 226.2"/>
  <polygon class="cls-1" points="180.71 226.2 195.63 223.34 195.63 229.06 180.71 226.2"/>
  <polygon class="cls-5" points="152.65 226.12 137.73 228.98 137.73 223.25 152.65 226.12"/>
  <polygon class="cls-1" points="152.65 226.12 137.73 228.98 137.73 223.25 152.65 226.12"/>
  <text class="cls-4" transform="translate(158.71 221.78)"><tspan x="0" y="0">6.8</tspan></text>
  <line class="cls-3" x1="188.12" y1="130.36" x2="220.6" y2="130.36"/>
  <line class="cls-3" x1="213.95" y1="130.36" x2="213.95" y2="185.73"/>
  <polygon class="cls-5" points="213.95 130.36 211.09 145.28 216.81 145.28 213.95 130.36"/>
  <polygon class="cls-3" points="213.95 130.36 211.09 145.28 216.81 145.28 213.95 130.36"/>
  <polygon class="cls-5" points="213.95 185.62 211.09 170.7 216.81 170.7 213.95 185.62"/>
  <polygon class="cls-3" points="213.95 185.62 211.09 170.7 216.81 170.7 213.95 185.62"/>
  <line class="cls-3" x1="188.12" y1="186" x2="220.6" y2="186"/>
  <text class="cls-4" transform="translate(210.2 164.93) rotate(-90)"><tspan x="0" y="0">14</tspan></text>
  <polygon class="cls-5" points="166.06 130.57 162.97 131.31 159.99 132.65 157.32 134.52 155.11 136.79 153.46 139.65 152.48 142.7 152.16 145.94 152.02 160.62 152.09 160.92 152.19 161.09 152.29 161.26 152.38 161.44 152.65 161.51 152.75 161.68 153.01 161.74 153.19 161.65 154.64 161.62 155.96 161.55 157.27 161.48 158.73 161.44 160.01 161.51 161.46 161.48 162.78 161.4 164.2 161.51 167.76 162.19 170.82 164.19 173.21 167.02 174.28 170.48 174.13 174.18 172.63 177.52 170.04 180.14 166.82 181.84 163.14 182.14 162.07 181.83 161.07 181.28 160.45 180.38 160.17 179.3 160.2 178.15 160.62 177.12 161.41 176.32 162.44 175.74 162.96 175.45 163.33 175.11 163.62 174.61 163.64 174.04 163.47 173.57 163.05 173.01 162.55 172.73 161.97 172.72 160.93 172.87 159.84 173.15 158.81 173.74 157.88 174.49 157.23 175.31 156.66 176.31 156.36 177.38 156.21 178.49 156.38 179.98 156.71 181.37 157.49 182.75 158.34 183.85 159.53 184.75 160.8 185.39 162.11 185.89 163.53 185.99 166.77 185.73 169.9 184.85 172.76 183.34 175.21 181.26 177.33 178.81 178.84 175.92 179.83 172.87 180.1 169.77 180.12 155.5 169.02 155.47 167.2 155.26 165.5 154.65 163.86 153.77 162.44 152.66 161.26 151.17 160.43 149.5 159.88 147.76 159.66 145.97 159.74 143.55 159.92 141.87 160.4 140.13 161.38 138.65 162.6 137.4 164 136.49 165.5 135.74 167.28 135.52 169.01 135.56 170.22 135.9 171.41 136.8 172.13 137.86 172.64 139.15 172.57 140.43 172.21 141.78 171.47 142.87 170.37 143.73 169.83 144.15 169.54 144.65 169.5 145.36 169.61 145.97 170.04 146.53 170.68 146.83 171.34 147.03 171.99 146.76 174.29 145.23 175.89 143.08 176.76 140.43 176.66 137.66 175.77 135.1 174.2 132.95 171.87 131.45 169.36 130.61 166.06 130.57"/>
  <polyline class="cls-2" points="162.44 175.74 161.41 176.32 160.62 177.12 160.2 178.15 160.17 179.3 160.45 180.38 161.07 181.28 162.06 181.83 163.14 182.14"/>
  <polyline class="cls-2" points="161.97 172.72 162.55 172.73 163.05 173.01 163.47 173.57 163.64 174.04 163.62 174.61 163.33 175.11 162.96 175.45 162.44 175.74"/>
  <polyline class="cls-2" points="156.21 178.49 156.36 177.38 156.66 176.31 157.23 175.31 157.88 174.49 158.81 173.74 159.84 173.15 160.93 172.87 161.97 172.72"/>
  <polyline class="cls-2" points="163.53 185.99 162.11 185.89 160.8 185.39 159.53 184.75 158.34 183.85 157.49 182.75 156.71 181.37 156.38 179.98 156.21 178.49"/>
  <polyline class="cls-2" points="180.1 169.77 179.83 172.87 178.84 175.92 177.33 178.81 175.21 181.26 172.76 183.33 169.9 184.85 166.77 185.73 163.53 185.99"/>
  <line class="cls-2" x1="180.12" y1="155.5" x2="180.09" y2="169.77"/>
  <line class="cls-2" x1="169.02" y1="155.47" x2="180.12" y2="155.5"/>
  <polyline class="cls-2" points="159.66 145.97 159.88 147.76 160.43 149.5 161.26 151.17 162.44 152.66 163.86 153.77 165.5 154.65 167.2 155.26 169.02 155.47"/>
  <line class="cls-2" x1="159.74" y1="143.55" x2="159.66" y2="145.97"/>
  <polyline class="cls-2" points="169.01 135.56 167.28 135.52 165.5 135.74 164 136.49 162.59 137.4 161.38 138.65 160.4 140.13 159.92 141.87 159.74 143.55"/>
  <polyline class="cls-2" points="170.37 143.73 171.47 142.87 172.21 141.78 172.57 140.43 172.64 139.15 172.12 137.86 171.41 136.8 170.22 135.9 169.01 135.56"/>
  <polyline class="cls-2" points="171.98 146.76 171.34 147.03 170.68 146.83 170.04 146.53 169.61 145.97 169.49 145.36 169.54 144.65 169.83 144.15 170.37 143.73"/>
  <polyline class="cls-2" points="169.36 130.61 171.87 131.45 174.2 132.95 175.77 135.1 176.66 137.66 176.76 140.43 175.89 143.08 174.29 145.23 171.98 146.76"/>
  <polyline class="cls-2" points="152.16 145.94 152.48 142.7 153.46 139.65 155.11 136.79 157.32 134.52 159.99 132.65 162.97 131.31 166.06 130.57 169.36 130.61"/>
  <line class="cls-2" x1="152.02" y1="160.62" x2="152.16" y2="145.94"/>
  <polyline class="cls-2" points="153.19 161.65 153.01 161.74 152.75 161.67 152.65 161.51 152.38 161.44 152.29 161.26 152.19 161.09 152.09 160.92 152.02 160.62"/>
  <polyline class="cls-2" points="164.2 161.51 162.77 161.4 161.46 161.48 160.01 161.51 158.73 161.44 157.27 161.48 155.96 161.55 154.64 161.62 153.19 161.65"/>
  <polyline class="cls-2" points="163.14 182.14 166.82 181.84 170.04 180.14 172.62 177.52 174.13 174.18 174.28 170.48 173.21 167.02 170.82 164.19 167.76 162.19 164.2 161.51"/>
  <path class="cls-5" d="m34.47,107.2l-.28-.28-.14-.14-.14-.28v-.42l.84-6.26.97-6.12,1.11-6.26,1.25-6.12,1.53-6.12,1.53-6.12,1.81-6.12,1.95-5.98.14-.28.28-.42.28-.14.42-.14h.83l.28.28.28.28,1.11,1.11,1.11.97,1.39.83,1.39.7,1.39.56,1.53.28,1.53.14h2.09l.56.14.42.28.28.42.28.42.14.42v.56l-.14.42-2.09,5.29-1.81,5.28-1.53,5.29-1.39,5.43-1.25,5.43-.97,5.42-.84,5.43-.56,5.56-.14.28-.14.28-.14.28-.28.14-.42.14h-.28l-.28-.14-.28-.14-.56-.42h-.7l-.69.14-.56.42-.42.55-.14.56.14.69.28.7.56.7.42.83.28.97v.97l-.14.98-.28.83-.42.83-.7.69-.42.56-.14.7.14.7.42.69.56.42.7.14.7-.14.55-.28.28-.14h.83l.28.14.14.28.14.28v.28l.14,5.42.42,5.56.42,5.43.7,5.43.97,5.42,1.11,5.28,1.25,5.29,1.53,5.29v.83l-.14.42-.28.28-.28.28-.28.14h-.84l-1.67-.27-1.53-.14-1.67.14-1.67.27-1.53.42-1.39.7-1.39.83-1.39,1.11-.28.14-.28.14-.42.14-.42-.14-.28-.14-.28-.14-.28-.42-.14-.28-1.81-5.84-1.53-5.84-1.11-5.98-.97-5.98-.84-5.98-.42-6.12-.14-6.12.14-5.98v-.42l.14-.28.28-.28.28-.28h1.11l.28.28.56.28h.7l.7-.14.56-.28.28-.56.28-.7-.14-.7-.28-.56-.56-.83-.28-.83-.28-.84v-.97l.14-.97.28-.83.56-.83.56-.7.42-.56.14-.7-.14-.7-.28-.56-.56-.42-.7-.28-.56.14-.7.28-.28.14h-.56l-.28-.14Zm21.15-71.23l-2.37.42-2.23.83-2.09,1.39-1.67,1.67-1.39,1.95-3.2,8.63-2.92,8.62-2.64,8.77-2.23,8.9-1.95,9.04-1.67,9.04-1.25,9.04-.83,9.18-.56,7.51v7.65l.42,7.65.84,7.51,1.11,7.51,1.67,7.51,1.95,7.37,2.5,7.24.28.83.56.7.7.56.83.28h.97l.84-.42.7-.56.56-.7,1.67-2.23,2.23-1.53,2.5-.83,2.64-.28,2.65.7,2.36,1.25,1.95,1.95,1.25,2.37,1.25,3.06.56,2.09-.42,2.09-1.25,1.81-1.95,1.11-2.09.28-2.09-.56-1.67-1.39-.97-1.95-.28-.7-.56-.56-.7-.28h-.83l-.56.28-.56.7-.28.7.14.69,1.39,3.06,2.37,2.36,3.06,1.25,3.34.14,3.06-1.11,2.51-2.09,1.67-2.92.42-3.34-.84-3.2-1.11-2.92-4.73-13.63-3.2-14.05-1.95-14.33-.42-14.33.83-14.47,2.37-14.18,3.75-13.91,5.15-13.5.28-.84v-.69l-.14-.7-.42-.69-.42-.56-.69-.56-.7-.28h-5.84l-1.81-.14-1.67-.56-1.67-.83-1.39-1.11-1.25-1.39-.83-1.67-.56-1.67-.14-1.81.14-.56v-.7l.14-.55.14-.42.14-.56.28-.56.28-.56.28-.42.83-1.39,1.25-.97,1.25-.83,1.53-.7,1.53-.28h1.53l1.53.28,1.53.7.56.28.28.42.28.56v.55l-.14.56-.42.56-.42.28-.56.14-.7.14-.69.42-.42.55-.14.69.14.7.42.56.56.42.7.14,1.81-.28,1.53-.84,1.11-1.25.83-1.67.14-1.67-.42-1.81-.97-1.53-1.25-1.11-2.23-.97-2.37-.56h-2.36Z"/>
  <polyline class="cls-2" points="59.79 47.66 59.1 47.52 58.54 47.1 58.12 46.54 57.98 45.85 58.12 45.15 58.54 44.6 59.24 44.18 59.93 44.04"/>
  <polyline class="cls-2" points="62.57 37.5 63.83 38.62 64.8 40.15 65.22 41.96 65.08 43.62 64.24 45.29 63.13 46.54 61.6 47.38 59.79 47.66"/>
  <polyline class="cls-2" points="45.88 42.23 47.27 40.28 48.94 38.62 51.03 37.23 53.25 36.39 55.62 35.97 57.98 35.97 60.35 36.53 62.57 37.5"/>
  <polyline class="cls-2" points="29.19 113.46 30.02 104.28 31.27 95.23 32.94 86.19 34.89 77.15 37.12 68.25 39.76 59.48 42.68 50.86 45.88 42.23"/>
  <polyline class="cls-2" points="37.12 173.42 34.61 166.18 32.67 158.81 31 151.3 29.88 143.78 29.05 136.27 28.63 128.62 28.63 120.97 29.19 113.46"/>
  <polyline class="cls-2" points="42.54 174.11 41.99 174.81 41.29 175.36 40.46 175.78 39.48 175.78 38.65 175.5 37.95 174.95 37.39 174.25 37.12 173.42"/>
  <polyline class="cls-2" points="59.79 175.5 58.54 173.14 56.59 171.19 54.23 169.94 51.58 169.24 48.94 169.52 46.44 170.35 44.21 171.89 42.54 174.11"/>
  <line class="cls-2" x1="61.04" y1="178.56" x2="59.79" y2="175.5"/>
  <polyline class="cls-2" points="51.17 182.04 52.14 183.99 53.81 185.38 55.9 185.94 57.98 185.66 59.93 184.54 61.18 182.74 61.6 180.65 61.04 178.56"/>
  <polyline class="cls-2" points="47.55 182.87 47.41 182.18 47.69 181.48 48.25 180.79 48.8 180.51 49.64 180.51 50.33 180.79 50.89 181.34 51.17 182.04"/>
  <polyline class="cls-2" points="64.52 177.03 65.36 180.23 64.94 183.57 63.27 186.49 60.77 188.58 57.71 189.69 54.37 189.55 51.31 188.3 48.94 185.94 47.55 182.87"/>
  <line class="cls-2" x1="63.41" y1="174.11" x2="64.52" y2="177.03"/>
  <polyline class="cls-2" points="65.22 61.71 60.07 75.2 56.31 89.12 53.95 103.3 53.11 117.77 53.53 132.1 55.48 146.43 58.68 160.48 63.41 174.11"/>
  <polyline class="cls-2" points="62.43 57.4 63.13 57.4 63.83 57.67 64.52 58.23 64.94 58.79 65.36 59.48 65.5 60.18 65.5 60.88 65.22 61.71"/>
  <line class="cls-2" x1="57.29" y1="57.4" x2="62.43" y2="57.4"/>
  <polyline class="cls-2" points="47.97 48.22 48.11 50.02 48.66 51.69 49.5 53.36 50.75 54.75 52.14 55.87 53.81 56.7 55.48 57.26 57.29 57.4"/>
  <polyline class="cls-2" points="49.36 43.9 49.08 44.32 48.8 44.88 48.52 45.43 48.39 45.99 48.25 46.41 48.11 46.96 48.11 47.66 47.97 48.22"/>
  <polyline class="cls-2" points="60.35 40.7 58.82 40.01 57.29 39.73 55.76 39.73 54.23 40.01 52.7 40.7 51.45 41.54 50.19 42.51 49.36 43.9"/>
  <polyline class="cls-2" points="59.93 44.04 60.49 43.9 60.91 43.62 61.32 43.07 61.46 42.51 61.46 41.96 61.18 41.4 60.91 40.98 60.35 40.7"/>
  <polyline class="cls-2" points="50.05 106.92 49.91 107.2 49.78 107.48 49.64 107.75 49.36 107.89 48.94 108.03 48.66 108.03 48.39 107.89 48.11 107.75"/>
  <polyline class="cls-2" points="48.11 107.75 47.55 107.34 46.85 107.34 46.16 107.48 45.6 107.89 45.19 108.45 45.05 109.01 45.19 109.7 45.46 110.4"/>
  <polyline class="cls-2" points="45.46 110.4 46.02 111.09 46.44 111.93 46.72 112.9 46.72 113.88 46.58 114.85 46.3 115.68 45.88 116.52 45.19 117.21"/>
  <polyline class="cls-2" points="45.19 117.21 44.77 117.77 44.63 118.47 44.77 119.16 45.19 119.86 45.74 120.27 46.44 120.41 47.13 120.27 47.69 120"/>
  <polyline class="cls-2" points="47.69 120 47.97 119.86 48.25 119.86 48.52 119.86 48.8 119.86 49.08 120 49.22 120.27 49.36 120.55 49.36 120.83"/>
  <polyline class="cls-2" points="49.36 120.83 49.5 126.26 49.91 131.82 50.33 137.25 51.03 142.67 52 148.1 53.11 153.38 54.37 158.67 55.9 163.96"/>
  <polyline class="cls-2" points="55.9 163.96 55.9 164.37 55.9 164.79 55.76 165.21 55.48 165.49 55.2 165.76 54.92 165.9 54.51 165.9 54.09 165.9"/>
  <polyline class="cls-2" points="54.09 165.9 52.42 165.63 50.89 165.49 49.22 165.63 47.55 165.9 46.02 166.32 44.63 167.02 43.24 167.85 41.85 168.96"/>
  <polyline class="cls-2" points="41.85 168.96 41.57 169.1 41.29 169.24 40.87 169.38 40.46 169.24 40.18 169.1 39.9 168.96 39.62 168.55 39.48 168.27"/>
  <polyline class="cls-2" points="39.48 168.27 37.67 162.42 36.14 156.58 35.03 150.6 34.06 144.62 33.22 138.64 32.8 132.52 32.67 126.4 32.8 120.41"/>
  <polyline class="cls-2" points="32.8 120.41 32.8 120 32.94 119.72 33.22 119.44 33.5 119.16 33.92 119.16 34.2 119.16 34.61 119.16 34.89 119.44"/>
  <polyline class="cls-2" points="34.89 119.44 35.45 119.72 36.14 119.72 36.84 119.58 37.39 119.3 37.67 118.74 37.95 118.05 37.81 117.35 37.53 116.8"/>
  <polyline class="cls-2" points="37.53 116.8 36.98 115.96 36.7 115.13 36.42 114.29 36.42 113.32 36.56 112.35 36.84 111.51 37.39 110.68 37.95 109.98"/>
  <polyline class="cls-2" points="37.95 109.98 38.37 109.42 38.51 108.73 38.37 108.03 38.09 107.48 37.53 107.06 36.84 106.78 36.28 106.92 35.59 107.2"/>
  <polyline class="cls-2" points="35.59 107.2 35.31 107.34 35.03 107.34 34.75 107.34 34.47 107.2 34.2 106.92 34.06 106.78 33.92 106.5 33.92 106.09"/>
  <polyline class="cls-2" points="33.92 106.09 34.75 99.83 35.73 93.7 36.84 87.44 38.09 81.32 39.62 75.2 41.15 69.08 42.96 62.96 44.91 56.98"/>
  <polyline class="cls-2" points="44.91 56.98 45.05 56.7 45.32 56.28 45.6 56.14 46.02 56 46.44 56 46.85 56 47.13 56.28 47.41 56.56"/>
  <polyline class="cls-2" points="47.41 56.56 48.52 57.67 49.64 58.65 51.03 59.48 52.42 60.18 53.81 60.74 55.34 61.01 56.87 61.15 58.4 61.15"/>
  <polyline class="cls-2" points="58.4 61.15 58.96 61.15 59.51 61.29 59.93 61.57 60.21 61.99 60.49 62.4 60.63 62.82 60.63 63.38 60.49 63.79"/>
  <polyline class="cls-2" points="60.49 63.79 58.4 69.08 56.59 74.37 55.06 79.65 53.67 85.08 52.42 90.51 51.45 95.93 50.61 101.36 50.05 106.92"/>
</svg>