<?xml version="1.0" encoding="utf-8"?>
<!-- Generator: Adobe Illustrator 27.2.0, SVG Export Plug-In . SVG Version: 6.00 Build 0)  -->
<svg version="1.1" id="Capa_1" xmlns="http://www.w3.org/2000/svg" xmlns:xlink="http://www.w3.org/1999/xlink" x="0px" y="0px"
	 viewBox="0 0 129.7 255" style="enable-background:new 0 0 129.7 255;" xml:space="preserve">
<style type="text/css">
	.st0{fill:none;stroke:#5D6874;stroke-width:0.15;}
	.st1{fill:#5D6874;}
	.st2{enable-background:new    ;}
	.st3{fill:#231F20;}
</style>
<g>
	<line class="st0" x1="23.9" y1="217.8" x2="23.9" y2="43.7"/>
	<polygon class="st1" points="23.9,223.6 26.9,215.5 21,215.5 	"/>
	<polygon class="st1" points="23.9,34.9 21,42.6 26.9,42.6 	"/>
	<g class="st2">
		<path class="st1" d="M20.6,143.7h0.8v3.5h-0.8v-1.4h-3.8c0.1,0.1,0.2,0.1,0.2,0.3c0.1,0.1,0.2,0.3,0.2,0.4
			c0.1,0.2,0.1,0.3,0.2,0.5c0,0.2,0.1,0.3,0.1,0.4h-0.8c0-0.1,0-0.3-0.1-0.5c-0.1-0.2-0.2-0.3-0.3-0.5c-0.1-0.2-0.2-0.3-0.3-0.4
			c-0.1-0.1-0.2-0.2-0.2-0.2v-0.9h4.8V143.7z"/>
		<path class="st1" d="M18.6,138c0.6,0,1.1,0.1,1.5,0.3c0.4,0.2,0.8,0.5,1,0.9c0.2,0.4,0.4,0.8,0.4,1.3s-0.1,0.9-0.4,1.3
			c-0.2,0.4-0.6,0.7-1,0.9c-0.4,0.2-0.9,0.3-1.5,0.3c-0.6,0-1.1-0.1-1.5-0.3c-0.4-0.2-0.8-0.5-1-0.9c-0.3-0.4-0.4-0.8-0.4-1.3
			s0.1-0.9,0.4-1.3c0.3-0.4,0.6-0.7,1-0.9C17.5,138.1,18,138,18.6,138z M18.6,138.8c-0.4,0-0.8,0.1-1.1,0.2
			c-0.3,0.1-0.6,0.3-0.7,0.6c-0.2,0.2-0.3,0.5-0.3,0.8c0,0.3,0.1,0.6,0.3,0.8c0.2,0.2,0.4,0.4,0.7,0.6c0.3,0.1,0.7,0.2,1.1,0.2
			c0.4,0,0.8-0.1,1.1-0.2c0.3-0.1,0.6-0.3,0.7-0.6c0.2-0.2,0.3-0.5,0.3-0.8c0-0.3-0.1-0.6-0.3-0.8c-0.2-0.2-0.4-0.4-0.7-0.6
			C19.4,138.9,19,138.8,18.6,138.8z"/>
		<path class="st1" d="M18.6,132c0.6,0,1.1,0.1,1.5,0.3c0.4,0.2,0.8,0.5,1,0.9c0.2,0.4,0.4,0.8,0.4,1.3s-0.1,0.9-0.4,1.3
			c-0.2,0.4-0.6,0.7-1,0.9c-0.4,0.2-0.9,0.3-1.5,0.3c-0.6,0-1.1-0.1-1.5-0.3c-0.4-0.2-0.8-0.5-1-0.9c-0.3-0.4-0.4-0.8-0.4-1.3
			s0.1-0.9,0.4-1.3c0.3-0.4,0.6-0.7,1-0.9C17.5,132.1,18,132,18.6,132z M18.6,132.9c-0.4,0-0.8,0.1-1.1,0.2
			c-0.3,0.1-0.6,0.3-0.7,0.6c-0.2,0.2-0.3,0.5-0.3,0.8c0,0.3,0.1,0.6,0.3,0.8c0.2,0.2,0.4,0.4,0.7,0.6c0.3,0.1,0.7,0.2,1.1,0.2
			c0.4,0,0.8-0.1,1.1-0.2c0.3-0.1,0.6-0.3,0.7-0.6c0.2-0.2,0.3-0.5,0.3-0.8c0-0.3-0.1-0.6-0.3-0.8c-0.2-0.2-0.4-0.4-0.7-0.6
			C19.4,133,19,132.9,18.6,132.9z"/>
	</g>
	<line class="st0" x1="21.7" y1="43.5" x2="36.5" y2="43.5"/>
	<line class="st0" x1="21.7" y1="223.5" x2="36.5" y2="223.5"/>
	<line class="st0" x1="50.4" y1="244" x2="78.1" y2="244.1"/>
	<polygon class="st1" points="44.5,244 52.6,247 52.6,241.1 	"/>
	<polygon class="st1" points="83.9,244.1 75.8,241.1 75.8,247 	"/>
	<g class="st2">
		<path class="st1" d="M60.1,240.7v0.8h-3.5v-0.8H58v-3.8c-0.1,0.1-0.1,0.2-0.3,0.2c-0.1,0.1-0.3,0.2-0.4,0.2
			c-0.2,0.1-0.3,0.1-0.5,0.2c-0.2,0-0.3,0.1-0.4,0.1v-0.8c0.1,0,0.3,0,0.5-0.1s0.3-0.2,0.5-0.3c0.2-0.1,0.3-0.2,0.4-0.3
			c0.1-0.1,0.2-0.2,0.2-0.2h0.9v4.8H60.1z"/>
		<path class="st1" d="M62.9,242.9c-0.5,0-0.9-0.1-1.3-0.3c-0.4-0.2-0.7-0.5-0.9-0.9l0.5-0.5c0.2,0.3,0.4,0.5,0.7,0.7
			c0.3,0.2,0.6,0.3,1,0.3c0.3,0,0.6-0.1,0.8-0.2c0.2-0.1,0.4-0.3,0.6-0.5c0.1-0.2,0.2-0.5,0.2-0.8c0-0.3-0.1-0.5-0.2-0.8
			c-0.1-0.2-0.3-0.4-0.5-0.5c-0.2-0.1-0.5-0.2-0.8-0.2s-0.5,0.1-0.8,0.2c-0.2,0.1-0.4,0.3-0.6,0.5h-0.8l0.8-4h3.4v0.8h-2.7l-0.4,2.2
			c0.1-0.1,0.3-0.3,0.5-0.4c0.2-0.1,0.5-0.1,0.7-0.1c0.4,0,0.8,0.1,1.2,0.3c0.3,0.2,0.6,0.4,0.8,0.8c0.2,0.3,0.3,0.7,0.3,1.1
			c0,0.5-0.1,0.9-0.3,1.2c-0.2,0.3-0.5,0.6-0.9,0.8C63.7,242.8,63.3,242.9,62.9,242.9z"/>
		<path class="st1" d="M66.4,242.3l0.2-0.9h-0.3v-1h0.8v1l-0.3,0.9H66.4z"/>
		<path class="st1" d="M71.1,242.7v-1.6h-3.1v-0.8l3.4-4.4h0.6v4.4h0.9v0.8h-0.9v1.6H71.1z M68.8,240.3h2.3v-3L68.8,240.3z"/>
	</g>
	<line class="st0" x1="44.4" y1="246.2" x2="44.4" y2="231.5"/>
	<line class="st0" x1="83.8" y1="246.2" x2="83.8" y2="231.5"/>
</g>
<path class="st3" d="M64.4,197.4c1,1.1,1,3,0,4.1c-0.1,0.1-0.2,0.3-0.2,0.4v0.1c0,0.3,0.2,0.6,0.5,0.6h0.5c0.7,0,1.4-0.5,1.6-1.3
	c0.3-0.9,0.4-1.9,0.2-2.9c-0.1-0.3,0.1-0.6,0.4-0.7c0.1,0,0.2,0,0.3,0.1c4.4,2.8,7,8.4,6.4,14.2c0,0.3-0.2,0.5-0.5,0.5
	c0,0-0.1,0-0.1,0c-0.3,0.1-0.4,0.4-0.3,0.8c0.1,0.2,0.1,0.5,0.1,0.7c0.2,1.9-0.1,3.8-0.8,5.5c-0.5,1.3-1.9,1.8-3,1.2
	c-0.2-0.1-0.4-0.2-0.5-0.4c-0.5-0.5-1-1.1-1.4-1.8c-0.3-0.5-0.8-0.6-1.2-0.3c-0.5,0.3-0.6,1-0.4,1.5c0.4,0.8,0.8,1.5,1.3,2.1
	c0.8,1,1.9,1.6,3.1,1.6h2.9c0.4,0,0.7-0.3,0.8-0.7c0.8-2.9,1.4-5.9,1.9-8.9c0.2-1.1,0.3-2.2,0.3-3.3c0-9.4-6.6-16.9-14.7-16.9h-3.7
	c-0.3,0-0.7,0.2-0.8,0.6c-0.2,0.5,0,1.1,0.5,1.3c0.3,0.1,0.4,0.5,0.3,0.8c0,0,0,0.1,0,0.1c-0.4,0.8-0.7,1.7-0.8,2.6
	c0,0.3-0.2,0.5-0.5,0.5H53c-0.2,0-0.3-0.2-0.3-0.4v-6.7c0-0.1,0.1-0.3,0.2-0.4c0.1-0.1,0.2-0.2,0.3-0.3c0.1-0.3,0-0.6-0.3-0.8
	c-0.1-0.1-0.2-0.2-0.2-0.4V56.8c0-0.2,0.1-0.3,0.2-0.4s0.2-0.2,0.3-0.3c0.1-0.3,0-0.7-0.3-0.8c-0.1-0.1-0.2-0.2-0.2-0.4v-6.7
	c0-0.2,0.2-0.4,0.3-0.4h3.5c0.5,0,0.9,0.4,0.9,1c0,0.1,0,0.3-0.1,0.4v3c0,0.3,0.2,0.6,0.5,0.6c0.4,0,0.7-0.3,0.8-0.7
	c1.4-5.8,5-10.5,9.7-12.9c1.8-0.9,3.2-2.5,4.2-4.5l2.2-4.8c0.4-0.9,0.5-1.9,0.3-2.9c-0.2-0.8-0.4-1.6-0.6-2.5
	C74.4,24.3,74,24,73.6,24h-6.6c-0.9,0-1.8-0.6-2.2-1.5l-1.7-3.3c-0.5-1-0.7-2.2-0.5-3.4l0.5-3.2c0.3-2.1,1.9-3.6,3.8-3.6h2
	c0.7,0,1.3,0.6,1.4,1.5l0.1,1.3c-1.2,0.2-2,1.4-1.9,2.7c0.1,1.4,1.2,2.4,2.3,2.3c1.2-0.1,2.1-1.3,2-2.7l-0.3-3.7
	c-0.2-2.2-1.7-3.8-3.6-3.8h-2c-2.9,0-5.5,2.4-6,5.8l-1.5,10.1c-0.1,1-0.9,1.6-1.7,1.6h-3.5c-0.4,0-0.7,0.3-0.8,0.7
	c-1.8,7.1-2.9,14.4-3.2,21.8c0,0.8,0,1.5,0,2.3v149.7c0,0.8,0,1.5,0,2.3c0.4,7.4,1.5,14.7,3.2,21.8c0.1,0.4,0.5,0.7,0.8,0.7h2.1
	c1,0,1.9-0.7,2.3-1.8l0.4-1.3c0.1-0.3,0.2-0.6,0.2-0.9v-1.6c0-0.4-0.3-0.8-0.7-0.8h-0.3c-0.4,0-0.7,0.4-0.7,0.8v1.6
	c0,0.1,0,0.1,0,0.2l-0.3,1c-0.1,0.2-0.3,0.4-0.5,0.4h-1.2c-0.2,0-0.3-0.1-0.3-0.3c-0.9-4.2-1.6-8.4-2-12.6l0.3-0.4l-0.4-0.4
	c-0.1-0.7-0.1-1.4-0.2-2c0.1-0.1,0.2-0.2,0.3-0.4c0.1-0.3-0.1-0.6-0.4-0.7c0-0.3,0-0.6,0-0.8c0-0.3,0.2-0.6,0.5-0.6h3.4
	c0.3,0,0.5,0.3,0.5,0.6v2.2c0,0.6,0.4,1,0.9,1s0.9-0.4,0.9-1v-2.2c0-0.3,0.2-0.6,0.5-0.6h1c0.3,0,0.5-0.3,0.5-0.6V202
	c0-0.1,0-0.3-0.1-0.4c-1-1.2-1-3.1,0.1-4.2C61.8,196.2,63.4,196.2,64.4,197.4 M59.1,37.6c-0.7,0.7-0.9,2-0.2,2.8
	c0.5,0.7,1,1.2,1.7,1.5c0.3,0.1,0.4,0.5,0.3,0.8c0,0,0,0.1-0.1,0.2c-0.7,1-1.4,2-2,3c-0.2,0.3-0.5,0.4-0.7,0.2l0,0
	c-0.5-0.3-1-0.5-1.6-0.5h-3.4c-0.3,0-0.5-0.3-0.5-0.6v0c0.4-6.2,1.3-12.2,2.8-18.2c0-0.2,0.2-0.3,0.3-0.3h2c1.8,0,3.4-1.5,3.8-3.6
	l0-0.1c0-0.3,0.3-0.5,0.6-0.5c0.2,0,0.3,0.1,0.4,0.3l0.6,1.2c0.8,1.7,2.4,2.7,4.1,2.7h5.4c0.2,0,0.3,0.1,0.3,0.3
	c0.1,0.4,0.2,0.7,0.3,1.1c0.1,0.4,0,0.8-0.1,1.1l-2.2,4.8c-0.6,1.4-1.6,2.5-2.8,3.2c-0.3,0.2-0.6,0-0.7-0.3c0-0.1-0.1-0.1-0.1-0.2
	C67,34,65.4,32,63.3,31.7c0,0-0.1,0-0.1,0c-1-0.1-1.8,0.7-1.9,1.8c0,0.1,0,0.1,0,0.2c0.1,0.3,0.3,0.5,0.6,0.4
	c1.4-0.4,2.8,0.6,3.1,2.2c0.3,1.6-0.5,3.2-1.9,3.6c-1.3,0.4-2.7-0.5-3.1-2.1c0-0.1,0-0.1-0.1-0.2c-0.2-0.3-0.5-0.3-0.7-0.1
	C59.2,37.5,59.2,37.5,59.1,37.6"/>
</svg>
