<?xml version="1.0" encoding="utf-8"?>
<!-- Generator: Adobe Illustrator 27.2.0, SVG Export Plug-In . SVG Version: 6.00 Build 0)  -->
<svg version="1.1" id="Capa_1" xmlns="http://www.w3.org/2000/svg" xmlns:xlink="http://www.w3.org/1999/xlink" x="0px" y="0px"
	 viewBox="0 0 129.7 255" style="enable-background:new 0 0 129.7 255;" xml:space="preserve">
<style type="text/css">
	.st0{fill:none;stroke:#5D6874;stroke-width:0.15;}
	.st1{fill:#5D6874;}
	.st2{enable-background:new    ;}
	.st3{fill:#231F20;}
</style>
<g>
	<line class="st0" x1="27.7" y1="223" x2="27.7" y2="43.4"/>
	<polygon class="st1" points="27.7,229 30.8,220.6 24.7,220.6 	"/>
	<polygon class="st1" points="27.7,34.3 24.7,42.3 30.8,42.3 	"/>
	<g class="st2">
		<path class="st1" d="M24.3,146.5h0.8v3.6h-0.8v-1.4h-3.9c0.1,0.1,0.2,0.2,0.3,0.3c0.1,0.1,0.2,0.3,0.3,0.4s0.1,0.3,0.2,0.5
			s0.1,0.3,0.1,0.4h-0.8c0-0.1,0-0.3-0.1-0.5c-0.1-0.2-0.2-0.3-0.3-0.5s-0.2-0.3-0.3-0.4c-0.1-0.1-0.2-0.2-0.2-0.2v-0.9h4.9V146.5z"
			/>
		<path class="st1" d="M22.2,140.7c0.6,0,1.1,0.1,1.5,0.3c0.5,0.2,0.8,0.5,1.1,0.9c0.3,0.4,0.4,0.8,0.4,1.3c0,0.5-0.1,0.9-0.4,1.3
			c-0.3,0.4-0.6,0.7-1.1,0.9c-0.5,0.2-1,0.3-1.5,0.3s-1.1-0.1-1.5-0.3c-0.5-0.2-0.8-0.5-1.1-0.9s-0.4-0.8-0.4-1.3
			c0-0.5,0.1-0.9,0.4-1.3s0.6-0.7,1.1-0.9C21.1,140.8,21.6,140.7,22.2,140.7z M22.2,141.6c-0.4,0-0.8,0.1-1.1,0.2
			c-0.3,0.1-0.6,0.3-0.8,0.6c-0.2,0.2-0.3,0.5-0.3,0.9c0,0.3,0.1,0.6,0.3,0.9c0.2,0.2,0.4,0.4,0.8,0.6c0.3,0.1,0.7,0.2,1.1,0.2
			s0.8-0.1,1.1-0.2c0.3-0.1,0.6-0.3,0.8-0.6c0.2-0.2,0.3-0.5,0.3-0.9c0-0.3-0.1-0.6-0.3-0.9c-0.2-0.2-0.4-0.4-0.8-0.6
			C23,141.6,22.6,141.6,22.2,141.6z"/>
		<path class="st1" d="M22.2,134.5c0.6,0,1.1,0.1,1.5,0.3c0.5,0.2,0.8,0.5,1.1,0.9c0.3,0.4,0.4,0.8,0.4,1.3c0,0.5-0.1,0.9-0.4,1.3
			c-0.3,0.4-0.6,0.7-1.1,0.9c-0.5,0.2-1,0.3-1.5,0.3s-1.1-0.1-1.5-0.3c-0.5-0.2-0.8-0.5-1.1-0.9s-0.4-0.8-0.4-1.3
			c0-0.5,0.1-0.9,0.4-1.3s0.6-0.7,1.1-0.9C21.1,134.6,21.6,134.5,22.2,134.5z M22.2,135.4c-0.4,0-0.8,0.1-1.1,0.2
			c-0.3,0.1-0.6,0.3-0.8,0.6c-0.2,0.2-0.3,0.5-0.3,0.9c0,0.3,0.1,0.6,0.3,0.9c0.2,0.2,0.4,0.4,0.8,0.6c0.3,0.1,0.7,0.2,1.1,0.2
			s0.8-0.1,1.1-0.2c0.3-0.1,0.6-0.3,0.8-0.6c0.2-0.2,0.3-0.5,0.3-0.9c0-0.3-0.1-0.6-0.3-0.9c-0.2-0.2-0.4-0.4-0.8-0.6
			C23,135.5,22.6,135.4,22.2,135.4z"/>
	</g>
	<line class="st0" x1="25.5" y1="43.2" x2="40.7" y2="43.2"/>
	<line class="st0" x1="25.5" y1="228.9" x2="40.7" y2="228.9"/>
	<line class="st0" x1="55" y1="250.1" x2="83.6" y2="250.1"/>
	<polygon class="st1" points="48.9,250.1 57.3,253.1 57.3,247 	"/>
	<polygon class="st1" points="89.6,250.1 81.2,247.1 81.2,253.1 	"/>
	<g class="st2">
		<path class="st1" d="M65,246.6v0.8h-3.6v-0.8h1.4v-3.9c-0.1,0.1-0.2,0.2-0.3,0.3c-0.1,0.1-0.3,0.2-0.4,0.3s-0.3,0.1-0.5,0.2
			s-0.3,0.1-0.4,0.1v-0.8c0.1,0,0.3,0,0.5-0.1c0.2-0.1,0.3-0.2,0.5-0.3s0.3-0.2,0.4-0.3c0.1-0.1,0.2-0.2,0.2-0.2h0.9v4.9H65z"/>
		<path class="st1" d="M67.9,248.9c-0.5,0-1-0.1-1.4-0.4c-0.4-0.2-0.7-0.6-0.9-1l0.6-0.5c0.2,0.3,0.4,0.6,0.7,0.7
			c0.3,0.2,0.6,0.3,1,0.3c0.3,0,0.6-0.1,0.8-0.2s0.4-0.3,0.6-0.6s0.2-0.5,0.2-0.8c0-0.3-0.1-0.6-0.2-0.8c-0.1-0.2-0.3-0.4-0.6-0.5
			s-0.5-0.2-0.8-0.2c-0.3,0-0.6,0.1-0.8,0.2c-0.3,0.1-0.5,0.3-0.6,0.5h-0.8l0.8-4.1H70v0.8h-2.8l-0.4,2.3c0.1-0.2,0.3-0.3,0.6-0.4
			c0.2-0.1,0.5-0.1,0.7-0.1c0.4,0,0.8,0.1,1.2,0.3c0.4,0.2,0.6,0.5,0.8,0.8c0.2,0.3,0.3,0.7,0.3,1.2c0,0.5-0.1,0.9-0.3,1.2
			c-0.2,0.4-0.5,0.6-0.9,0.8C68.8,248.8,68.4,248.9,67.9,248.9z"/>
		<path class="st1" d="M71.5,248.3l0.2-0.9h-0.3v-1h0.8v1l-0.3,0.9H71.5z"/>
		<path class="st1" d="M76.3,248.7V247h-3.2v-0.8l3.5-4.5h0.6v4.5h0.9v0.8h-0.9v1.7H76.3z M74,246.2h2.4v-3.1L74,246.2z"/>
	</g>
	<line class="st0" x1="48.9" y1="252.4" x2="48.9" y2="237.1"/>
	<line class="st0" x1="89.5" y1="252.4" x2="89.5" y2="237.1"/>
</g>
<path class="st3" d="M69.5,202c1,1.2,1,3.1,0,4.3c-0.1,0.1-0.2,0.3-0.2,0.4v0.1c0,0.3,0.2,0.6,0.5,0.6h0.5c0.7,0,1.4-0.5,1.7-1.3
	c0.3-1,0.4-2,0.2-3c-0.1-0.3,0.1-0.7,0.4-0.7c0.1,0,0.2,0,0.4,0.1c4.6,2.9,7.2,8.6,6.6,14.6c0,0.3-0.2,0.5-0.5,0.6c0,0-0.1,0-0.1,0
	c-0.3,0.1-0.4,0.4-0.4,0.8c0.1,0.2,0.1,0.5,0.1,0.7c0.2,2-0.1,3.9-0.8,5.7c-0.6,1.3-1.9,1.9-3.1,1.2c-0.2-0.1-0.4-0.2-0.5-0.4
	c-0.5-0.5-1-1.1-1.4-1.8c-0.3-0.5-0.8-0.6-1.3-0.4c-0.5,0.3-0.7,1-0.4,1.5c0.4,0.8,0.8,1.5,1.4,2.2c0.8,1,2,1.6,3.2,1.6h3
	c0.4,0,0.7-0.3,0.9-0.7c0.8-3,1.4-6.1,2-9.2c0.2-1.1,0.3-2.3,0.3-3.4c0-9.7-6.8-17.5-15.2-17.5h-3.8c-0.4,0-0.7,0.2-0.8,0.6
	c-0.2,0.5,0,1.1,0.5,1.3c0.3,0.1,0.4,0.5,0.3,0.8c0,0,0,0.1,0,0.1c-0.5,0.8-0.7,1.8-0.8,2.7c0,0.3-0.3,0.6-0.5,0.6h-4
	c-0.2,0-0.4-0.2-0.4-0.4v-6.9c0-0.2,0.1-0.3,0.2-0.4c0.1-0.1,0.2-0.2,0.3-0.3c0.1-0.3,0-0.7-0.3-0.8c-0.1-0.1-0.2-0.2-0.2-0.4V57
	c0-0.2,0.1-0.3,0.2-0.4c0.1-0.1,0.2-0.2,0.3-0.3c0.1-0.3,0-0.7-0.3-0.8c-0.1-0.1-0.2-0.2-0.2-0.4v-6.9c0-0.2,0.2-0.4,0.4-0.4h3.6
	c0.5,0,0.9,0.5,0.9,1c0,0.1,0,0.3-0.1,0.4v3.1c0,0.3,0.2,0.6,0.5,0.6c0.4,0,0.8-0.3,0.9-0.8c1.4-6,5.1-10.8,10-13.3
	c1.8-0.9,3.3-2.5,4.3-4.6l2.3-4.9c0.4-0.9,0.5-2,0.3-3c-0.2-0.9-0.4-1.7-0.6-2.5c-0.1-0.4-0.5-0.8-0.9-0.8h-6.8
	c-1,0-1.8-0.6-2.3-1.5l-1.7-3.4c-0.5-1-0.7-2.3-0.5-3.5l0.5-3.3c0.3-2.2,2-3.7,3.9-3.7h2.1c0.7,0,1.4,0.6,1.4,1.5l0.1,1.3
	c-1.2,0.2-2,1.4-1.9,2.8c0.1,1.4,1.2,2.5,2.4,2.3c1.2-0.1,2.1-1.4,2-2.8l-0.3-3.8C77.7,6.7,76,5,74.1,5H72c-3,0-5.6,2.5-6.2,5.9
	l-1.6,10.5c-0.1,1-0.9,1.7-1.8,1.7h-3.6c-0.4,0-0.8,0.3-0.9,0.8c-1.8,7.3-3,14.9-3.3,22.5c0,0.8-0.1,1.6-0.1,2.4v154.4
	c0,0.8,0,1.6,0.1,2.4c0.4,7.6,1.5,15.2,3.3,22.5c0.1,0.4,0.5,0.8,0.9,0.8h2.2c1,0,2-0.7,2.3-1.9l0.5-1.4c0.1-0.3,0.1-0.6,0.1-1V223
	c0-0.5-0.3-0.8-0.7-0.8h-0.4c-0.4,0-0.7,0.4-0.7,0.8v1.6c0,0.1,0,0.1,0,0.2l-0.4,1.1c-0.1,0.2-0.3,0.4-0.5,0.4h-1.2
	c-0.2,0-0.3-0.1-0.3-0.3c-0.9-4.3-1.6-8.6-2-13l0.3-0.4l-0.4-0.4c-0.1-0.7-0.1-1.4-0.2-2.1c0.2-0.1,0.2-0.2,0.3-0.4
	c0.1-0.3-0.1-0.7-0.4-0.8c0-0.3,0-0.6,0-0.9c0-0.3,0.2-0.6,0.5-0.6h3.5c0.3,0,0.5,0.3,0.5,0.6v2.3c0,0.6,0.4,1,0.9,1s0.9-0.5,0.9-1
	V208c0-0.3,0.2-0.6,0.5-0.6h1c0.3,0,0.5-0.3,0.5-0.6v-0.1c0-0.2-0.1-0.3-0.1-0.4c-1-1.2-1-3.2,0.1-4.4
	C66.7,200.7,68.4,200.7,69.5,202 M64,37c-0.8,0.7-0.9,2-0.3,2.9c0.5,0.7,1.1,1.2,1.8,1.6c0.3,0.1,0.4,0.5,0.3,0.8
	c0,0-0.1,0.1-0.1,0.2c-0.8,1-1.4,2-2,3.2c-0.2,0.3-0.5,0.4-0.7,0.2l0,0c-0.5-0.4-1-0.5-1.6-0.5h-3.5c-0.3,0-0.5-0.3-0.5-0.6v0
	c0.4-6.3,1.4-12.6,2.8-18.8c0-0.2,0.2-0.3,0.3-0.3h2c1.9,0,3.5-1.6,3.9-3.7l0-0.1c0.1-0.3,0.3-0.6,0.6-0.5c0.2,0,0.3,0.1,0.4,0.3
	l0.6,1.3c0.9,1.7,2.4,2.8,4.2,2.8h5.6c0.2,0,0.3,0.1,0.3,0.3c0.1,0.4,0.2,0.8,0.3,1.1c0.1,0.4,0,0.8-0.1,1.2L76,33.1
	c-0.7,1.4-1.7,2.5-2.9,3.3c-0.3,0.2-0.6,0-0.7-0.3c0-0.1-0.1-0.1-0.1-0.2c-0.2-2.5-1.9-4.5-4-4.9c0,0-0.1,0-0.1,0
	c-1-0.1-1.8,0.7-1.9,1.8c0,0.1,0,0.1,0,0.2c0.1,0.3,0.4,0.5,0.7,0.5c1.4-0.4,2.9,0.6,3.2,2.3c0.3,1.7-0.5,3.3-2,3.7
	c-1.4,0.4-2.8-0.5-3.2-2.1c0-0.1,0-0.1-0.1-0.2C64.7,36.8,64.4,36.8,64,37C64.1,37,64.1,37,64,37"/>
</svg>
