<?xml version="1.0" encoding="UTF-8"?>
<svg id="Capa_1" data-name="Capa 1" xmlns="http://www.w3.org/2000/svg" viewBox="0 0 129.73 255">
  <defs>
    <style>
      .cls-1 {
        stroke-miterlimit: 10;
      }

      .cls-1, .cls-2, .cls-3, .cls-4 {
        fill: none;
      }

      .cls-1, .cls-2, .cls-4 {
        stroke-width: .35px;
      }

      .cls-1, .cls-3, .cls-4 {
        stroke: #5d5c60;
      }

      .cls-2 {
        stroke: #000100;
      }

      .cls-2, .cls-3, .cls-4 {
        stroke-linecap: round;
        stroke-linejoin: round;
      }

      .cls-3 {
        stroke-width: .7px;
      }

      .cls-5 {
        font-family: MyriadPro-Regular, 'Myriad Pro';
        font-size: 13.91px;
      }

      .cls-5, .cls-6 {
        fill: #5d5c60;
      }
    </style>
  </defs>
  <line class="cls-4" x1="75.7" y1="40.39" x2="108.18" y2="40.39"/>
  <line class="cls-2" x1="101.53" y1="41.78" x2="101.53" y2="200.09"/>
  <line class="cls-4" x1="33.51" y1="211.95" x2="33.51" y2="244.43"/>
  <line class="cls-4" x1="66.9" y1="211.95" x2="66.9" y2="244.43"/>
  <line class="cls-4" x1="66.9" y1="237.78" x2="33.51" y2="237.78"/>
  <polygon class="cls-6" points="101.53 40.39 98.67 55.31 104.39 55.31 101.53 40.39"/>
  <polygon class="cls-4" points="101.53 40.39 98.67 55.31 104.39 55.31 101.53 40.39"/>
  <polygon class="cls-6" points="101.53 199.99 98.67 185.07 104.39 185.07 101.53 199.99"/>
  <polygon class="cls-4" points="101.53 199.99 98.67 185.07 104.39 185.07 101.53 199.99"/>
  <polygon class="cls-6" points="66.9 237.78 81.82 234.92 81.82 240.64 66.9 237.78"/>
  <polygon class="cls-1" points="66.9 237.78 81.82 234.92 81.82 240.64 66.9 237.78"/>
  <polygon class="cls-6" points="33.27 237.7 18.35 240.56 18.35 234.83 33.27 237.7"/>
  <polygon class="cls-1" points="33.27 237.7 18.35 240.56 18.35 234.83 33.27 237.7"/>
  <line class="cls-4" x1="75.7" y1="200.37" x2="108.18" y2="200.37"/>
  <text class="cls-5" transform="translate(97.78 123.65) rotate(-90)"><tspan x="0" y="0">40.7</tspan></text>
  <text class="cls-5" transform="translate(42.12 233.36)"><tspan x="0" y="0">8.7</tspan></text>
  <polygon class="cls-6" points="54.07 8.88 52.4 9.3 50.73 9.85 49.2 10.83 47.81 12.08 46.83 13.47 46 15 45.44 16.67 45.44 32.25 45.44 32.81 45.3 33.5 45.16 33.92 44.88 34.48 44.47 34.89 44.05 35.31 43.63 35.73 43.08 36.01 40.16 36.56 39.74 36.56 39.46 36.7 39.18 36.98 38.9 37.12 38.62 37.4 38.49 37.82 38.35 38.09 38.35 38.37 35.84 57.01 34.17 75.79 33.45 87.81 37.23 88.03 37.65 81.91 38.07 75.65 38.62 69.53 39.18 63.41 39.88 57.15 40.57 51.03 41.41 44.91 41.55 44.21 41.83 43.52 42.38 42.82 42.94 42.26 43.63 41.85 44.33 41.71 45.02 41.57 45.86 41.57 57.13 43.24 57.96 43.52 58.8 43.94 59.49 44.49 59.91 45.19 60.33 45.88 60.47 46.72 60.47 47.69 60.33 48.53 58.52 53.95 57.59 57.4 61.3 58.4 66.45 43.1 66.59 42.68 66.59 42.26 66.45 41.85 66.31 41.43 66.03 41.15 65.75 40.88 65.34 40.6 64.92 40.46 52.81 38.65 52.12 38.51 51.42 38.23 50.87 37.82 50.45 37.26 50.03 36.7 49.62 36.15 49.48 35.45 49.48 34.75 49.48 17.09 49.75 16.11 50.31 15.28 51.01 14.44 51.7 13.89 52.68 13.33 53.65 12.91 54.62 12.77 55.6 12.77 56.43 12.77 56.43 20.84 56.57 21.54 56.99 22.23 57.55 22.65 58.38 22.79 59.08 22.65 59.77 22.23 60.19 21.54 60.33 20.84 60.33 8.88 54.07 8.88"/>
  <polygon class="cls-6" points="33.06 94.43 32.64 113.21 32.78 131.99 33.76 150.77 35.29 169.55 37.51 188.19 37.51 189.03 37.51 189.86 37.37 190.7 37.23 191.53 37.1 192.37 36.68 193.2 36.4 194.04 35.98 194.73 35.7 195.29 35.43 195.84 35.15 196.4 35.01 197.1 35.01 197.66 35.01 198.35 35.01 198.91 35.15 199.6 35.29 199.74 35.29 199.88 35.43 200.02 35.56 200.02 35.7 200.16 35.84 200.16 35.98 200.3 36.12 200.3 36.26 200.3 36.68 200.3 36.96 200.16 37.37 200.02 37.65 199.74 37.79 199.46 38.07 199.18 38.21 198.91 38.21 198.63 38.21 198.49 38.35 198.49 38.35 198.35 38.35 198.07 38.49 197.66 38.62 197.38 38.9 197.1 39.18 196.82 39.46 196.68 39.74 196.54 40.16 196.4 42.66 195.98 42.1 192.51 41.55 189.03 41.13 185.55 40.71 182.07 40.3 178.6 39.88 175.12 39.46 171.64 39.18 168.16 39.18 167.33 39.32 166.49 39.6 165.8 40.16 165.1 40.71 164.54 41.41 164.13 42.24 163.99 43.08 163.85 56.99 163.85 57.55 163.85 58.1 163.99 58.66 164.27 59.21 164.54 59.63 164.96 60.05 165.38 60.47 165.94 60.6 166.49 60.88 166.91 61.02 167.33 61.16 167.88 61.3 168.3 61.44 168.72 61.58 169.13 61.86 169.69 62 170.11 62 170.25 62 170.39 62.14 170.53 62.14 170.8 62.14 170.94 62.14 171.08 62.14 171.22 62.14 171.5 62.14 191.4 62.14 192.23 61.86 193.06 61.44 193.76 60.88 194.45 60.19 194.87 59.35 195.29 58.52 195.43 57.68 195.29 52.68 194.59 51.98 194.59 51.28 194.87 50.73 195.57 50.45 196.26 50.45 196.96 50.87 197.66 51.42 198.21 52.12 198.49 63.94 200.3 64.36 200.3 64.78 200.16 65.06 200.02 65.47 199.88 65.75 199.46 66.03 199.18 66.03 198.77 66.17 198.35 66.17 170.8 66.17 170.53 66.17 170.39 66.17 170.25 66.03 170.11 66.03 169.83 66.03 169.69 65.89 169.55 65.89 169.41 60.88 153.97 57.13 154.95 57.27 155.78 57.13 156.75 56.85 157.59 56.43 158.29 55.74 158.98 55.04 159.54 54.21 159.82 53.23 159.95 41.96 159.95 41.27 159.82 40.57 159.68 39.88 159.26 39.32 158.84 38.76 158.29 38.49 157.73 38.21 157.03 38.07 156.2 37.65 150.08 37.23 143.82 36.96 137.56 36.82 131.3 36.68 125.04 36.54 118.78 36.54 112.52 36.68 106.26 37.23 106.81 38.07 106.95 38.9 106.81 39.6 106.54 40.02 105.84 40.3 105.01 40.16 104.17 39.88 103.48 39.32 102.78 39.04 101.95 38.9 101.11 38.9 100.28 38.9 99.44 39.18 98.61 39.46 97.77 40.02 97.08 40.43 96.38 40.57 95.68 40.43 94.85 40.02 94.16 39.32 93.74 38.49 93.6 37.65 93.74 36.96 94.16 37.23 88.03 33.45 87.81 33.06 94.43"/>
  <polygon class="cls-6" points="61.3 58.4 57.68 74.12 55.32 90.12 54.62 106.26 55.18 122.26 57.41 138.25 60.88 153.97 57.13 154.95 55.6 149.1 54.34 143.26 53.23 137.28 52.26 131.44 51.56 125.46 51.01 119.47 50.73 113.35 50.59 107.37 49.89 107.93 49.2 108.07 48.36 107.93 47.67 107.51 47.25 106.81 46.97 105.98 47.11 105.14 47.67 104.45 48.36 103.75 48.92 102.78 49.34 101.67 49.48 100.69 49.34 99.58 49.06 98.47 48.64 97.49 47.95 96.66 47.53 95.96 47.39 95.13 47.67 94.43 48.08 93.74 48.92 93.32 49.62 93.32 50.45 93.46 51.15 94.01 51.56 88.17 52.26 82.47 53.23 76.63 54.21 70.92 55.46 65.22 56.99 59.66 57.59 57.4 61.3 58.4"/>
  <polyline class="cls-3" points="39.88 103.48 39.32 102.78 39.04 101.95 38.9 101.11 38.9 100.28 38.9 99.44 39.18 98.61 39.46 97.77 40.02 97.08"/>
  <polyline class="cls-3" points="39.88 103.48 40.16 104.17 40.29 105 40.02 105.84 39.6 106.54 38.9 106.81 38.07 106.95 37.23 106.81 36.68 106.26"/>
  <polyline class="cls-3" points="38.07 156.2 37.65 150.08 37.23 143.82 36.96 137.56 36.82 131.3 36.68 125.04 36.54 118.78 36.54 112.52 36.68 106.26"/>
  <polyline class="cls-3" points="38.07 156.2 38.21 157.03 38.49 157.73 38.76 158.29 39.32 158.84 39.88 159.26 40.57 159.68 41.27 159.82 41.96 159.95"/>
  <line class="cls-3" x1="53.23" y1="159.95" x2="41.96" y2="159.95"/>
  <polyline class="cls-3" points="53.23 159.95 54.21 159.82 55.04 159.54 55.74 158.98 56.43 158.29 56.85 157.59 57.13 156.75 57.27 155.78 57.13 154.95"/>
  <polyline class="cls-3" points="50.59 107.37 50.73 113.35 51.01 119.47 51.56 125.45 52.26 131.44 53.23 137.28 54.35 143.26 55.6 149.1 57.13 154.95"/>
  <polyline class="cls-3" points="50.59 107.37 49.89 107.93 49.2 108.07 48.36 107.93 47.67 107.51 47.25 106.81 46.97 105.98 47.11 105.14 47.67 104.45"/>
  <polyline class="cls-3" points="47.95 96.66 48.64 97.49 49.06 98.47 49.34 99.58 49.48 100.69 49.34 101.67 48.92 102.78 48.36 103.75 47.67 104.45"/>
  <polyline class="cls-3" points="47.95 96.66 47.53 95.96 47.39 95.13 47.67 94.43 48.09 93.74 48.92 93.32 49.62 93.32 50.45 93.46 51.15 94.01"/>
  <polyline class="cls-3" points="60.33 48.53 58.52 53.95 57.59 57.4 56.99 59.66 55.46 65.22 54.21 70.92 53.23 76.63 52.26 82.47 51.56 88.17 51.15 94.01"/>
  <polyline class="cls-3" points="60.33 48.53 60.47 47.69 60.47 46.72 60.33 45.88 59.91 45.19 59.49 44.49 58.8 43.94 57.96 43.52 57.13 43.24"/>
  <line class="cls-3" x1="57.13" y1="43.24" x2="45.86" y2="41.57"/>
  <polyline class="cls-3" points="41.41 44.91 41.55 44.21 41.82 43.52 42.38 42.82 42.94 42.27 43.63 41.85 44.33 41.71 45.02 41.57 45.86 41.57"/>
  <polyline class="cls-3" points="36.96 94.15 37.23 88.03 37.65 81.91 38.07 75.65 38.62 69.53 39.18 63.41 39.88 57.15 40.57 51.03 41.41 44.91"/>
  <polyline class="cls-3" points="35.15 199.6 35.29 199.74 35.29 199.88 35.43 200.02 35.56 200.02 35.7 200.16 35.84 200.16 35.98 200.3 36.12 200.3"/>
  <polyline class="cls-3" points="35.98 194.73 35.7 195.29 35.43 195.84 35.15 196.4 35.01 197.1 35.01 197.65 35.01 198.35 35.01 198.91 35.15 199.6"/>
  <polyline class="cls-3" points="37.51 188.19 37.51 189.03 37.51 189.86 37.37 190.7 37.23 191.53 37.1 192.37 36.68 193.2 36.4 194.04 35.98 194.73"/>
  <polyline class="cls-3" points="37.51 188.19 35.29 169.55 33.76 150.77 32.78 131.99 32.64 113.21 33.06 94.43 33.45 87.81 34.17 75.79 35.84 57.01 38.35 38.37"/>
  <polyline class="cls-3" points="38.35 38.37 38.35 38.09 38.49 37.81 38.62 37.4 38.9 37.12 39.18 36.98 39.46 36.7 39.74 36.56 40.16 36.56"/>
  <line class="cls-3" x1="43.08" y1="36.01" x2="40.16" y2="36.56"/>
  <polyline class="cls-3" points="45.44 32.25 45.44 32.81 45.3 33.5 45.16 33.92 44.89 34.48 44.47 34.89 44.05 35.31 43.63 35.73 43.08 36.01"/>
  <line class="cls-3" x1="45.44" y1="32.25" x2="45.44" y2="16.67"/>
  <polyline class="cls-3" points="55.88 8.88 54.07 8.88 52.4 9.3 50.73 9.85 49.2 10.83 47.81 12.08 46.83 13.47 46 15 45.44 16.67"/>
  <line class="cls-3" x1="60.33" y1="8.88" x2="55.88" y2="8.88"/>
  <line class="cls-3" x1="60.33" y1="8.88" x2="60.33" y2="20.84"/>
  <polyline class="cls-3" points="60.33 20.84 60.19 21.54 59.77 22.23 59.08 22.65 58.38 22.79 57.55 22.65 56.99 22.23 56.57 21.54 56.43 20.84"/>
  <line class="cls-3" x1="56.43" y1="12.77" x2="56.43" y2="20.84"/>
  <line class="cls-3" x1="56.43" y1="12.77" x2="55.6" y2="12.77"/>
  <polyline class="cls-3" points="55.6 12.77 54.62 12.77 53.65 12.91 52.68 13.33 51.7 13.89 51.01 14.44 50.31 15.28 49.75 16.11 49.48 17.09"/>
  <line class="cls-3" x1="49.48" y1="34.75" x2="49.48" y2="17.09"/>
  <polyline class="cls-3" points="49.48 34.75 49.48 35.45 49.62 36.15 50.03 36.7 50.45 37.26 50.87 37.82 51.42 38.23 52.12 38.51 52.81 38.65"/>
  <line class="cls-3" x1="64.92" y1="40.46" x2="52.81" y2="38.65"/>
  <polyline class="cls-3" points="64.92 40.46 65.33 40.6 65.75 40.87 66.03 41.15 66.31 41.43 66.45 41.85 66.59 42.26 66.59 42.68 66.45 43.1"/>
  <polyline class="cls-3" points="66.45 43.1 61.3 58.4 57.68 74.12 55.32 90.12 54.62 106.26 55.18 122.26 57.41 138.25 60.88 153.97 65.89 169.41"/>
  <polyline class="cls-3" points="65.89 169.41 65.89 169.55 66.03 169.69 66.03 169.83 66.03 170.11 66.17 170.25 66.17 170.39 66.17 170.53 66.17 170.8"/>
  <line class="cls-3" x1="66.17" y1="170.8" x2="66.17" y2="198.35"/>
  <polyline class="cls-3" points="63.94 200.3 64.36 200.3 64.78 200.16 65.06 200.02 65.47 199.88 65.75 199.46 66.03 199.18 66.03 198.77 66.17 198.35"/>
  <line class="cls-3" x1="63.94" y1="200.3" x2="52.12" y2="198.49"/>
  <polyline class="cls-3" points="52.12 198.49 51.42 198.21 50.87 197.65 50.45 196.96 50.45 196.26 50.73 195.57 51.28 194.87 51.98 194.59 52.68 194.59"/>
  <line class="cls-3" x1="57.68" y1="195.29" x2="52.68" y2="194.59"/>
  <polyline class="cls-3" points="62.14 191.39 62.14 192.23 61.86 193.06 61.44 193.76 60.88 194.45 60.19 194.87 59.35 195.29 58.52 195.43 57.68 195.29"/>
  <line class="cls-3" x1="62.14" y1="171.5" x2="62.14" y2="191.39"/>
  <polyline class="cls-3" points="62 170.11 62 170.25 62 170.39 62.14 170.53 62.14 170.8 62.14 170.94 62.14 171.08 62.14 171.22 62.14 171.5"/>
  <polyline class="cls-3" points="60.6 166.49 60.88 166.91 61.02 167.33 61.16 167.88 61.3 168.3 61.44 168.72 61.58 169.13 61.86 169.69 62 170.11"/>
  <polyline class="cls-3" points="60.6 166.49 60.47 165.94 60.05 165.38 59.63 164.96 59.21 164.54 58.66 164.27 58.1 163.99 57.54 163.85 56.99 163.85"/>
  <line class="cls-3" x1="56.99" y1="163.85" x2="43.08" y2="163.85"/>
  <polyline class="cls-3" points="39.18 168.16 39.18 167.33 39.32 166.49 39.6 165.8 40.16 165.1 40.71 164.54 41.41 164.13 42.24 163.99 43.08 163.85"/>
  <polyline class="cls-3" points="42.66 195.98 42.1 192.51 41.55 189.03 41.13 185.55 40.71 182.07 40.29 178.6 39.88 175.12 39.46 171.64 39.18 168.16"/>
  <line class="cls-3" x1="42.66" y1="195.98" x2="40.16" y2="196.4"/>
  <polyline class="cls-3" points="38.35 198.35 38.35 198.07 38.49 197.65 38.62 197.37 38.9 197.1 39.18 196.82 39.46 196.68 39.74 196.54 40.16 196.4"/>
  <polyline class="cls-3" points="38.21 198.63 38.21 198.49 38.35 198.49 38.35 198.35"/>
  <polyline class="cls-3" points="36.26 200.3 36.68 200.3 36.96 200.16 37.37 200.02 37.65 199.74 37.79 199.46 38.07 199.18 38.21 198.91 38.21 198.63"/>
  <line class="cls-3" x1="36.26" y1="200.3" x2="36.12" y2="200.3"/>
  <polyline class="cls-3" points="36.96 94.15 37.65 93.74 38.49 93.6 39.32 93.74 40.02 94.15 40.43 94.85 40.57 95.68 40.43 96.38 40.02 97.08"/>
</svg>