<?xml version="1.0" encoding="UTF-8"?>
<svg id="Capa_1" data-name="Capa 1" xmlns="http://www.w3.org/2000/svg" viewBox="0 0 129.73 255">
  <defs>
    <style>
      .cls-1, .cls-2, .cls-3, .cls-4 {
        fill: none;
        stroke: #5d5c60;
      }

      .cls-1, .cls-3 {
        stroke-width: .35px;
      }

      .cls-1, .cls-4 {
        stroke-miterlimit: 10;
      }

      .cls-2, .cls-3 {
        stroke-linecap: round;
        stroke-linejoin: round;
      }

      .cls-2, .cls-4 {
        stroke-width: .7px;
      }

      .cls-5 {
        font-family: MyriadPro-Regular, 'Myriad Pro';
        font-size: 13.91px;
      }

      .cls-5, .cls-6 {
        fill: #5d5c60;
      }
    </style>
  </defs>
  <path class="cls-6" d="m35.7,141.84l-.14-.14v-.28l-.56-6.54-.12-1.93-.15-1.96-.12-2.42v-.22s-.15-2.5-.15-2.5l-.05-2-.08-2.03v-13.07l.1-2.26.04-1.64.14-2.64.14-2.64.28-5.15.42-5.29v-.14h.14v-.14l.14-.14v-.14l.42-.28.14-.28.14-.42.14-.42v-.42l-.14-.28-.14-.42-.28-.28v-.14l-.14-.14v-.42l.56-4.87.55-4.73.38-2.17.18-1.45.81-4.8.17-1.18.14-.7,1.24-6.47v-.07s.43-2.37.43-2.37l.89-3.81.08-.36,1.53-6.54.17-.64.67-2.84.64-2.19.19-.74,1.81-6.4,5.29-1.95.14-.14h.14v-.14l.14-.14v-14.75l.42-1.95,1.11-1.67,1.64-1-1.5,1-1.11,1.67-.42,1.95v12.52l.1.38.18.46.28.56.42.55.42.42.35.35.35.21.42.21.28.07.56.14,7.65.97.28.14.14.14.14.14.14.14.14.28v.42l-.14.28-5.98,13.63-4.73,14.05-3.48,14.61-1.81,13.67-.14,1.77-.06.66-.5,13.53v.2s.77,13.38.77,13.38l.07.61.33,2.95,1.79,11.87.65,2.71.06.25,3.14,12.13,5.01,14.05,6.26,13.5.14.13v.28l.08,1.06.47,5.76h-.06l1.03,14.05-.14-.04v.04l-9.31-2.5,9.31,2.46-.97-14.01-.55-2.35-.03-.08-.2-.58-1.86-2.27-2.23-1.49-.14-.04-.46-.18-2.6-.38-2.6.5-.46.16h-.03s-2.34,1.57-2.34,1.57l-1.47,2.05-.2.32-.21.54-.49,2.52v12.52l-.14.56-.28.42-.28.28-.28.14-.28.14h-.83l-.56-.14-.42-.41-.14-.28-.14-.28v-.02l-1.39-4.71-.99-3.73-.26-.97-.97-3.51-1.53-6.54-1.39-6.54-1.25-6.54-.14-.7-.83-4.73-.7-4.87-.11-.92-.31-2.14-.7-6.68v-.42l.14-.14.28-.28.14-.42.14-.42v-.42l-.14-.42-.14-.28-.28-.42-.28-.28h-.14v-.14ZM59.21,10.93l-1.75-.38,1.89.38,1.67,1.11-1.81-1.11Zm-1.95-1.53l-2.37.56-2.09,1.25-1.39,2.09-.42,2.36v14.05l-.14.14v.14h-.14l-5.15,1.81v.14h-.14v.14l-1.95,6.54-1.67,6.54-1.67,6.68-1.39,6.68-1.25,6.68-1.11,6.82-.84,6.68-.83,6.82v.28l.14.14.14.14v.14h.14l.14.14.14.28.14.28v.56l-.14.14-.28.28-.28.14h-.14v.14l-.14.14-.14.14v.14l-.56,6.68-.42,6.68-.14,6.68-.14,6.68.14,6.68.28,6.68.28,6.68.56,6.68.14.14v.14l.14.14v.14h.14v.14h.14l.28.14.14.14.14.28.14.28-.14.28v.28l-.14.14-.28.14v.14l-.14.14-.14.14v.42l.7,6.68.97,6.82,1.11,6.68,1.25,6.68,1.53,6.68,1.53,6.54,1.67,6.54,1.95,6.54.42.84.7.7.97.42h.97l.83-.28.7-.7.56-.84.14-.83v-12.52l.56-2.5,1.53-2.09,2.23-1.53,2.5-.56,2.5.56,2.23,1.25,1.67,2.09.7,2.51.83,12.66-7.93-2.09-.28.98h-.14l-.14-.28-.14-.14v-.28l.14-.14.14-.14.28-.14h.14l3.06.83.28-.97-3.06-.84h-.56l-.56.14-.56.42-.28.56v.7l.14.56.42.42.56.28,9.74,2.64h.56l.14-.14.14-.14.14-.14v-.42l-1.53-21.7v-.14l-6.26-13.35-5.01-14.05-3.62-14.33-2.37-14.75-.83-14.75.56-14.89,1.95-14.61,3.34-14.47,4.73-14.05,5.98-13.63.14-.42.14-.56v-.42l-.14-.42-.28-.42-.42-.42-.42-.14-.42-.14-7.65-1.11h-.56l-.56-.28-.42-.28-.42-.42-.28-.42-.28-.42-.14-.56v-12.38l.28-1.53.97-1.39,1.39-.83,1.53-.42,1.67.42,1.25.83.97,1.39.28,1.53v2.5l.14.42.14.42.42.14.42.14.42-.14.28-.14.28-.42v-2.92l-.42-2.36-1.39-2.09-2.09-1.25-2.36-.56Z"/>
  <polyline class="cls-4" points="34.31 110.12 34.41 106.47 34.45 104.83 34.59 102.19 34.73 99.55 35.01 94.4 35.43 89.11"/>
  <polyline class="cls-4" points="34.59 128.34 34.45 125.84 34.4 123.84 34.31 120.55"/>
  <polyline class="cls-4" points="35.56 141.42 35.15 136.27 34.88 132.95 34.73 130.98 34.61 128.56"/>
  <polyline class="cls-4" points="41.27 52.11 41.41 51.55 42.52 46.82 42.97 44.93 43.63 42.09 44.27 39.91 45.02 37.37 46.28 32.77"/>
  <polyline class="cls-4" points="39.88 58.65 40.29 56.28 41.18 52.47"/>
  <polyline class="cls-4" points="35.84 85.08 36.4 80.21 36.96 75.48 37.33 73.31 37.79 70.61 38.32 67.06 38.49 65.88 38.63 65.19 39.46 61.01 39.86 58.72"/>
  <polyline class="cls-4" points="47.81 199.15 47.53 199.01 47.25 198.87 46.97 198.6 46.69 198.31"/>
  <polyline class="cls-4" points="49.89 197.62 49.75 197.9 49.61 198.31 49.48 198.6 49.2 198.87 48.92 199.01 48.64 199.15 48.36 199.15"/>
  <polyline class="cls-4" points="47.11 105.94 47.11 102.47 47.25 98.85 47.39 95.37 47.61 92.41 47.67 91.76 47.81 89.99 47.95 88.28 48.36 84.66 48.78 81.18 49.34 77.71 49.61 76.32 50.03 74.23 50.73 70.75 51.56 67.27 52.4 63.8 53.37 60.46 54.48 56.98 55.6 53.64 56.71 50.3 57.96 46.96 59.35 43.63 60.74 40.42 62.27 37.22 63.8 34.03"/>
  <polyline class="cls-4" points="65.2 177.59 63.67 174.39 62 171.19 60.61 167.99 59.21 164.79 57.82 161.45 56.57 158.11 55.46 154.78 54.35 151.44 53.23 147.96 52.4 144.62 51.42 141.14 50.78 137.91 50.73 137.66 50.07 134.95 49.89 134.19 49.34 130.71 48.78 127.23 48.36 123.75 48.28 123.08 47.95 120.14 47.88 119.52 47.53 116.66 47.39 113.04 47.25 109.56 47.12 106.14"/>
  <polyline class="cls-4" points="54.6 178.12 54.48 178.15 53.79 178.56 53.09 178.98 52.54 179.4 52.26 179.67 51.98 179.95 51.42 180.65 51.01 181.34 50.78 181.72 50.59 182.04 50.38 182.58 50.31 182.74 50.03 183.57 49.89 184.41 49.89 185.1"/>
  <polyline class="cls-4" points="65.17 182.39 64.97 181.8 64.92 181.62 64.5 180.93 63.94 180.37 63.53 179.82 62.83 179.26 62.27 178.7 61.58 178.28 60.88 178.05 60.74 178.01 60.29 177.82 60.05 177.73 59.21 177.59 58.38 177.45 57.68 177.45 56.85 177.45 56.01 177.59 55.32 177.87 55.08 177.95 54.62 178.1"/>
  <polyline class="cls-4" points="65.75 184.82 65.75 183.99 65.47 183.15 65.2 182.47"/>
  <polyline class="cls-4" points="43.91 188.6 43.91 188.58 42.66 183.85 41.55 179.12 40.57 174.39 39.6 169.66 38.76 165.49 38.63 164.79 37.79 160.06 37.09 155.19 36.98 154.27 36.54 150.32 35.98 145.45"/>
  <polyline class="cls-4" points="46.55 198.02 45.16 193.31 44.18 189.58"/>
  <polyline class="cls-4" points="52.12 28.18 52.22 28.56 52.26 28.74 52.4 29.29 52.68 29.71 53.09 30.13 53.51 30.55 53.86 30.9 53.93 30.96 54.34 31.24 54.62 31.31 54.9 31.38 55.46 31.52"/>
  <polyline class="cls-2" points="50.87 197.62 50.73 198.45 50.17 199.29 49.48 199.99 48.64 200.26 47.67 200.26 46.69 199.84 46 199.15 45.58 198.31"/>
  <polyline class="cls-2" points="45.58 198.31 43.63 191.78 41.96 185.24 40.43 178.7 38.9 172.02 37.65 165.35 36.54 158.67 35.56 151.85 34.87 145.18"/>
  <polyline class="cls-2" points="34.87 145.18 34.87 145.04 34.87 144.9 34.87 144.76 35.01 144.62 35.15 144.48 35.15 144.34"/>
  <polyline class="cls-2" points="35.15 144.34 35.43 144.2 35.56 144.06 35.56 143.79 35.7 143.5 35.56 143.23 35.43 142.95 35.29 142.81 35.01 142.67"/>
  <polyline class="cls-2" points="35.01 142.67 34.87 142.67 34.87 142.53 34.73 142.53 34.73 142.39 34.59 142.26 34.59 142.11 34.45 141.98"/>
  <polyline class="cls-2" points="34.45 141.98 33.9 135.3 33.62 128.62 33.34 121.94 33.2 115.27 33.34 108.59 33.48 101.91 33.9 95.23 34.45 88.56"/>
  <polyline class="cls-2" points="34.45 88.56 34.45 88.42 34.59 88.28 34.73 88.14 34.73 88 34.87 88"/>
  <polyline class="cls-2" points="34.87 88 35.15 87.86 35.43 87.58 35.56 87.45 35.56 87.16 35.56 86.89 35.43 86.61 35.29 86.33 35.15 86.19"/>
  <polyline class="cls-2" points="35.15 86.19 35.01 86.19 35.01 86.05 34.87 85.91 34.73 85.77 34.73 85.64 34.73 85.5"/>
  <polyline class="cls-2" points="34.73 85.5 35.56 78.68 36.4 72 37.51 65.19 38.76 58.51 40.15 51.83 41.82 45.15 43.49 38.61 45.44 32.08"/>
  <polyline class="cls-2" points="45.44 32.08 45.44 31.94 45.58 31.94 45.58 31.8"/>
  <line class="cls-2" x1="45.58" y1="31.8" x2="50.73" y2="29.99"/>
  <polyline class="cls-2" points="50.73 29.99 50.87 29.99 50.87 29.85 51.01 29.71"/>
  <line class="cls-2" x1="51.01" y1="29.71" x2="51.01" y2="15.66"/>
  <polyline class="cls-2" points="51.01 15.66 51.42 13.3 52.81 11.21 54.9 9.96 57.27 9.4 59.63 9.96 61.72 11.21 63.11 13.3 63.53 15.66"/>
  <line class="cls-2" x1="63.53" y1="15.66" x2="63.53" y2="18.17"/>
  <polyline class="cls-2" points="63.53 18.17 63.53 18.58 63.25 19 62.97 19.14 62.55 19.28 62.14 19.14 61.72 19 61.58 18.58 61.44 18.17"/>
  <line class="cls-2" x1="61.44" y1="18.17" x2="61.44" y2="15.66"/>
  <polyline class="cls-2" points="61.44 15.66 61.16 14.13 60.19 12.74 58.94 11.91 57.27 11.49 55.74 11.91 54.34 12.74 53.37 14.13 53.09 15.66"/>
  <line class="cls-2" x1="53.09" y1="15.66" x2="53.09" y2="27.49"/>
  <polyline class="cls-2" points="53.09 27.49 53.09 28.04 53.23 28.6 53.51 29.02 53.79 29.43 54.21 29.85 54.62 30.13 55.18 30.41 55.74 30.41"/>
  <line class="cls-2" x1="55.74" y1="30.41" x2="63.39" y2="31.52"/>
  <polyline class="cls-2" points="63.39 31.52 63.8 31.66 64.22 31.8 64.64 32.22 64.92 32.63 65.06 33.05 65.06 33.47 64.92 34.03 64.78 34.44"/>
  <polyline class="cls-2" points="64.78 34.44 58.8 48.08 54.07 62.13 50.73 76.59 48.78 91.2 48.22 106.09 49.06 120.83 51.42 135.58 55.04 149.91 60.05 163.96 66.31 177.31"/>
  <line class="cls-2" x1="66.31" y1="177.31" x2="66.31" y2="177.45"/>
  <line class="cls-2" x1="66.31" y1="177.45" x2="67.84" y2="199.15"/>
  <polyline class="cls-2" points="67.84 199.15 67.84 199.29 67.84 199.57 67.7 199.71 67.56 199.84 67.42 199.99 67.28 199.99 67 199.99 66.86 199.99"/>
  <line class="cls-2" x1="66.86" y1="199.99" x2="57.13" y2="197.34"/>
  <polyline class="cls-2" points="57.13 197.34 56.57 197.06 56.15 196.65 56.01 196.09 56.01 195.39 56.29 194.84 56.85 194.42 57.41 194.28 57.96 194.28"/>
  <line class="cls-2" x1="57.96" y1="194.28" x2="61.02" y2="195.12"/>
  <line class="cls-2" x1="61.02" y1="195.12" x2="60.74" y2="196.09"/>
  <line class="cls-2" x1="60.74" y1="196.09" x2="57.68" y2="195.26"/>
  <polyline class="cls-2" points="57.68 195.26 57.54 195.26 57.27 195.39 57.13 195.53 56.99 195.67 56.99 195.95 57.13 196.09 57.27 196.37 57.4 196.37"/>
  <polyline class="cls-2" points="57.42 196.37 66.73 198.83 66.86 198.87"/>
  <polyline class="cls-2" points="66.86 198.87 65.84 184.82 65.42 179.06 65.33 178.01"/>
  <polyline class="cls-2" points="65.33 178.01 65.33 177.87 65.33 177.73 65.2 177.59"/>
  <polyline class="cls-2" points="65.2 177.59 58.94 164.09 53.93 150.04 50.78 137.91 50.17 135.58 50.07 134.95 48.28 123.08 47.95 120.83 47.88 119.52 47.12 106.14 47.11 105.94 47.61 92.41 47.67 91.06 47.81 89.99 49.61 76.32 53.09 61.71 57.82 47.66 63.8 34.03"/>
  <polyline class="cls-2" points="63.8 34.03 63.94 33.75 63.94 33.61 63.94 33.33 63.8 33.05 63.67 32.91 63.53 32.77 63.39 32.63 63.11 32.5"/>
  <polyline class="cls-2" points="55.46 31.52 54.76 31.38 54.62 31.31 54.21 31.1 53.86 30.9 53.51 30.69 53.09 30.13 52.68 29.57 52.4 29.02 52.22 28.56 52.12 28.32 52.12 28.18 52.12 27.63"/>
  <line class="cls-2" x1="52.12" y1="27.63" x2="52.12" y2="15.66"/>
  <polyline class="cls-2" points="57.46 10.56 59.21 10.93 61.02 12.04"/>
  <polyline class="cls-2" points="52.12 15.66 52.54 13.72 53.65 12.04 55.15 11.04"/>
  <line class="cls-2" x1="62.55" y1="18.17" x2="62.55" y2="15.66"/>
  <polyline class="cls-2" points="62.55 15.66 62.14 13.72 61.02 12.04 59.35 10.93 57.46 10.56 57.27 10.52 55.32 10.93 55.15 11.04 53.51 12.04 52.4 13.72 51.98 15.66"/>
  <line class="cls-2" x1="51.98" y1="15.66" x2="51.98" y2="27.63"/>
  <polyline class="cls-2" points="51.98 30.13 51.98 30.27 51.98 30.41 51.84 30.55 51.84 30.69 51.7 30.69 51.56 30.83"/>
  <polyline class="cls-2" points="46.28 32.77 44.47 39.17 44.27 39.91 42.97 44.93 42.8 45.57 41.27 52.11 41.18 52.47 39.88 58.65 39.86 58.72 38.63 65.19 38.32 67.06 37.51 71.86 37.33 73.31 36.68 78.4 35.84 85.08"/>
  <polyline class="cls-2" points="35.84 85.08 35.84 85.22 35.84 85.36 35.84 85.5 35.98 85.64 35.98 85.77"/>
  <polyline class="cls-2" points="35.98 85.77 36.26 86.05 36.4 86.47 36.54 86.75 36.54 87.16 36.4 87.58 36.26 88 36.12 88.28 35.7 88.56"/>
  <polyline class="cls-2" points="35.7 88.56 35.7 88.7 35.56 88.84 35.56 88.97 35.43 88.97 35.43 89.11"/>
  <polyline class="cls-2" points="35.43 89.11 35.01 95.65 34.59 102.19 34.41 106.47 34.31 108.73 34.31 110.12 34.31 115.27 34.31 120.55 34.31 121.8 34.4 123.84 34.59 128.34 34.61 128.56 34.88 132.95 35.01 134.88 35.56 141.42"/>
  <polyline class="cls-2" points="35.56 141.42 35.56 141.56 35.56 141.7 35.7 141.84 35.7 141.98 35.84 141.98"/>
  <polyline class="cls-2" points="35.84 141.98 36.12 142.26 36.4 142.67 36.54 142.95 36.68 143.37 36.68 143.79 36.54 144.2 36.4 144.62 36.12 144.9"/>
  <polyline class="cls-2" points="36.12 144.9 35.98 145.04 35.98 145.18 35.98 145.31 35.98 145.45"/>
  <polyline class="cls-2" points="35.98 145.45 36.68 152.13 36.98 154.27 37.65 158.81 38.76 165.49 40.02 172.02 41.41 178.56 42.94 185.1 43.91 188.61 44.18 189.58 44.75 191.64 46.56 198.02 46.56 198.04"/>
  <polyline class="cls-2" points="46.55 198.04 46.69 198.31 46.83 198.6 47.25 199.01 47.81 199.15 48.36 199.15 48.92 199.01 49.48 198.6 49.75 198.18 49.89 197.62"/>
  <polyline class="cls-2" points="49.89 185.1 50.38 182.58 50.45 182.18 50.78 181.72 52.26 179.67 54.6 178.12 54.62 178.1 54.76 178.01 55.08 177.95 57.68 177.45 60.29 177.83 60.61 177.87 60.88 178.05 63.11 179.54 64.97 181.8 65.06 181.9 65.17 182.39 65.2 182.47 65.75 184.82"/>
  <polyline class="cls-2" points="65.75 184.82 66.73 198.83 66.73 198.87"/>
  <polyline class="cls-2" points="66.73 198.87 57.42 196.37 57.4 196.37"/>
  <line class="cls-2" x1="57.41" y1="196.37" x2="57.68" y2="195.39"/>
  <line class="cls-2" x1="57.68" y1="195.39" x2="65.61" y2="197.48"/>
  <line class="cls-2" x1="65.61" y1="197.48" x2="64.78" y2="184.82"/>
  <polyline class="cls-2" points="64.78 184.82 64.08 182.32 62.41 180.23 60.19 178.98 57.68 178.42 55.18 178.98 52.95 180.51 51.42 182.6 50.87 185.1"/>
  <line class="cls-2" x1="50.87" y1="185.1" x2="50.87" y2="197.62"/>
  <polyline class="cls-2" points="65.33 178.01 65.42 179.06 65.89 184.82"/>
  <line class="cls-2" x1="63.11" y1="32.5" x2="55.46" y2="31.52"/>
  <line class="cls-2" x1="49.89" y1="197.62" x2="49.89" y2="185.1"/>
  <line class="cls-2" x1="51.98" y1="30.13" x2="51.98" y2="27.63"/>
  <polyline class="cls-2" points="65.75 184.82 65.84 184.82 65.89 184.82"/>
  <line class="cls-2" x1="46.28" y1="32.77" x2="51.56" y2="30.83"/>
  <line class="cls-2" x1="52.12" y1="27.63" x2="51.98" y2="27.63"/>
  <line class="cls-3" x1="77.3" y1="31.52" x2="109.78" y2="31.52"/>
  <line class="cls-3" x1="103.13" y1="31.52" x2="103.13" y2="199.57"/>
  <line class="cls-3" x1="35.11" y1="211.43" x2="35.11" y2="243.91"/>
  <line class="cls-3" x1="68.5" y1="211.43" x2="68.5" y2="243.91"/>
  <line class="cls-3" x1="68.5" y1="237.26" x2="35.11" y2="237.26"/>
  <polygon class="cls-6" points="103.13 31.52 100.27 46.44 105.99 46.44 103.13 31.52"/>
  <polygon class="cls-3" points="103.13 31.52 100.27 46.44 105.99 46.44 103.13 31.52"/>
  <polygon class="cls-6" points="103.13 199.46 100.27 184.54 105.99 184.54 103.13 199.46"/>
  <polygon class="cls-3" points="103.13 199.46 100.27 184.54 105.99 184.54 103.13 199.46"/>
  <polygon class="cls-6" points="68.5 237.26 83.42 234.4 83.42 240.12 68.5 237.26"/>
  <polygon class="cls-1" points="68.5 237.26 83.42 234.4 83.42 240.12 68.5 237.26"/>
  <polygon class="cls-6" points="34.87 237.17 19.95 240.04 19.95 234.31 34.87 237.17"/>
  <polygon class="cls-1" points="34.87 237.17 19.95 240.04 19.95 234.31 34.87 237.17"/>
  <line class="cls-3" x1="77.3" y1="199.84" x2="109.78" y2="199.84"/>
  <text class="cls-5" transform="translate(99.38 123.12) rotate(-90)"><tspan x="0" y="0">43</tspan></text>
  <text class="cls-5" transform="translate(43.72 232.84)"><tspan x="0" y="0">8.8</tspan></text>
</svg>