<?xml version="1.0" encoding="UTF-8"?>
<svg id="Capa_1" data-name="Capa 1" xmlns="http://www.w3.org/2000/svg" viewBox="0 0 129.73 255">
  <defs>
    <style>
      .cls-1 {
        stroke-miterlimit: 10;
        stroke-width: 1.39px;
      }

      .cls-1, .cls-2, .cls-3 {
        fill: none;
        stroke: #5d5c60;
      }

      .cls-2 {
        stroke-width: .7px;
      }

      .cls-2, .cls-3 {
        stroke-linecap: round;
        stroke-linejoin: round;
      }

      .cls-3 {
        stroke-width: .35px;
      }

      .cls-4 {
        font-family: MyriadPro-Regular, 'Myriad Pro';
        font-size: 13.91px;
      }

      .cls-4, .cls-5 {
        fill: #5d5c60;
      }
    </style>
  </defs>
  <path class="cls-5" d="m41.75,170.32l-.83-3.9-.56-3.76-.7-3.9-.56-3.91-.56-3.88-.42-3.89-.4-3.81v-.08s14.32-1.11,14.32-1.11l13.49,35.75-11.27-5.01-11.82,1.39-.7-3.89Zm-4.19-29.24l-.26-3.17-.28-3.34-.28-3.48-.14-3.35-.14-3.33-.14-3.48v-6.82h11.55l3.75,26.02-14.05,1.11v-.17Zm-1.25-31.83l.14-2.92.14-3.06.14-2.92.14-3.06.28-2.93.14-3.05.28-2.92h10.85l-.7,23.93h-11.41v-3.06Zm1.81-26.29l.42-3.48.42-3.48.56-3.48.56-3.48.56-3.48.7-3.48.55-3.35h12.52l-5.84,27.7h-10.85l.42-3.48Zm4.87-29.09l.56-2.91.69-2.94.84-2.91.69-2.92.83-2.94.7-2.91.83-2.93,5.98-2.09.28.28.28.15.28.14.42.12.28.16.28.12.42.15h.28l7.65.96.14.43-9.46,22.95h-12.66l.7-2.93Zm9.18-37.97v14.19h-.14v.12h-.14l-5.01,1.81h-.28v.16l-10.71,53.82v.29h.14v.14h.14l.28.14.14.28v.7l-.14.14-.14.14-.28.14h-.14v.12h-.14v.29l-.14,52.86v.14h.14v.14l.14.12.28.15.14.14.14.14.14.27v.29l-.14.14-.14.26-.28.15h-.14v.28l11.41,57.16,2.22-.14-1.53-4.58-.83-2.93-.84-2.78-.7-2.78-.69-2.78-.7-2.78-.69-2.91-.7-2.78,11.41-1.25,11.69,5.01,1.39,19.48h1.81l-1.53-21.72v-.12h-.14l-6.26-13.49-5.01-13.91-3.62-14.47-2.23-14.61-.84-14.9.56-14.73,1.95-14.75,3.34-14.48,4.59-14.04,6.12-13.49-1.53-3.08-7.65-.97-.56-.12-.42-.14-.42-.43-.42-.27-.28-.43-.28-.54-.14-.42v-12.38h-2.22Z"/>
  <polygon class="cls-5" points="66.24 33.16 66.38 33.7 66.24 34.12 66.1 34.69 64.57 31.62 65.12 31.77 65.54 32.03 65.82 32.31 66.1 32.73 66.24 33.16"/>
  <polygon class="cls-5" points="52.05 142.08 65.54 177.83 63.46 173.52 61.37 169.21 59.56 164.76 57.75 160.31 56.08 155.86 54.69 151.39 53.3 146.81 52.05 142.08"/>
  <rect class="cls-5" x="62.76" y="15.91" width="2.09" height="2.49"/>
  <polygon class="cls-5" points="58.59 9.65 56.08 10.05 54.14 11.44 52.75 13.53 52.19 15.91 54.41 15.91 54.69 14.23 55.53 12.99 56.92 12.01 58.59 11.73 60.12 12.01 61.51 12.99 62.34 14.23 62.76 15.91 64.85 15.91 64.43 13.53 63.04 11.44 60.95 10.05 58.59 9.65"/>
  <polygon class="cls-5" points="62.76 18.4 62.76 18.82 63.04 19.09 63.32 19.39 63.73 19.39 64.15 19.39 64.57 19.09 64.71 18.82 64.85 18.4 62.76 18.4"/>
  <polygon class="cls-5" points="54.41 58.74 48.57 86.44 49.13 82.96 49.54 79.34 50.24 75.87 50.94 72.38 51.63 69.05 52.47 65.57 53.44 62.1 54.41 58.74"/>
  <polygon class="cls-5" points="47.88 114.12 51.63 140.14 50.94 136.94 50.24 133.74 49.68 130.52 49.27 127.2 48.71 124 48.43 120.66 48.15 117.46 47.88 114.12"/>
  <polygon class="cls-5" points="42.87 176.17 49.54 200.5 48.01 195.92 47.18 192.99 46.34 190.2 45.65 187.42 44.95 184.64 44.26 181.86 43.56 178.95 42.87 176.17"/>
  <polygon class="cls-5" points="48.15 91.31 47.88 94.35 47.74 97.29 47.6 100.35 47.6 103.27 47.6 106.33 47.6 109.25 47.74 112.31 48.43 88.39 48.15 91.31"/>
  <polygon class="cls-5" points="36.75 150.69 37.72 157.94 38.83 165.18 40.22 172.41 41.75 179.5 43.42 186.6 45.23 193.56 47.32 200.64 35.91 143.48 36.75 150.69"/>
  <polygon class="cls-5" points="46.62 32.19 35.91 86.01 36.75 79.21 37.58 72.38 38.69 65.7 39.95 58.89 41.34 52.2 43.01 45.53 44.68 38.86 46.62 32.19"/>
  <polygon class="cls-5" points="35.22 94.92 34.8 101.6 34.52 108.14 34.52 114.82 34.52 121.48 34.8 128.04 35.22 134.7 35.63 141.25 35.77 88.39 35.22 94.92"/>
  <polyline class="cls-2" points="36.19 86.44 36.05 86.44 36.05 86.3 35.91 86.3 35.91 86.16 35.91 86.01"/>
  <polyline class="cls-2" points="36.05 87.97 36.33 87.83 36.47 87.69 36.61 87.55 36.61 87.27 36.61 87 36.61 86.86 36.47 86.58 36.19 86.44"/>
  <polyline class="cls-2" points="35.77 88.39 35.77 88.25 35.77 88.09 35.91 88.09 35.91 87.97 36.05 87.97"/>
  <polyline class="cls-2" points="35.63 141.25 35.22 134.7 34.8 128.03 34.52 121.48 34.52 114.82 34.52 108.14 34.8 101.6 35.22 94.92 35.77 88.39"/>
  <polyline class="cls-2" points="35.91 141.65 35.77 141.53 35.77 141.39 35.63 141.39 35.63 141.25"/>
  <polyline class="cls-2" points="36.05 143.2 36.33 143.04 36.47 142.78 36.61 142.64 36.61 142.35 36.47 142.08 36.33 141.94 36.19 141.8 35.91 141.65"/>
  <polyline class="cls-2" points="35.91 143.48 35.91 143.33 35.91 143.2 36.05 143.2"/>
  <polyline class="cls-2" points="47.32 200.64 45.23 193.56 43.42 186.6 41.75 179.5 40.22 172.41 38.83 165.18 37.72 157.94 36.75 150.69 35.91 143.48"/>
  <line class="cls-2" x1="49.54" y1="200.5" x2="47.32" y2="200.64"/>
  <polyline class="cls-2" points="42.87 176.17 43.56 178.95 44.26 181.86 44.95 184.64 45.65 187.42 46.34 190.2 47.18 192.99 48.01 195.92 49.54 200.5"/>
  <line class="cls-2" x1="54.27" y1="174.91" x2="42.87" y2="176.17"/>
  <line class="cls-2" x1="65.96" y1="179.92" x2="54.27" y2="174.91"/>
  <line class="cls-2" x1="67.35" y1="199.4" x2="65.96" y2="179.92"/>
  <line class="cls-2" x1="69.16" y1="199.4" x2="67.35" y2="199.4"/>
  <line class="cls-2" x1="67.63" y1="177.68" x2="69.16" y2="199.4"/>
  <polyline class="cls-2" points="67.49 177.56 67.63 177.56 67.63 177.68"/>
  <polyline class="cls-2" points="66.1 34.69 59.98 48.18 55.39 62.22 52.05 76.7 50.1 91.45 49.54 106.18 50.38 121.08 52.6 135.68 56.22 150.15 61.23 164.06 67.49 177.56"/>
  <polyline class="cls-2" points="64.57 31.62 65.12 31.77 65.54 32.03 65.82 32.31 66.1 32.73 66.24 33.16 66.38 33.7 66.24 34.12 66.1 34.69"/>
  <line class="cls-2" x1="56.92" y1="30.64" x2="64.57" y2="31.62"/>
  <polyline class="cls-2" points="54.41 27.73 54.41 28.29 54.55 28.71 54.83 29.25 55.11 29.68 55.53 29.95 55.94 30.38 56.36 30.52 56.92 30.64"/>
  <line class="cls-2" x1="54.41" y1="15.91" x2="54.41" y2="27.73"/>
  <polyline class="cls-2" points="62.76 15.91 62.34 14.23 61.51 12.99 60.12 12.01 58.59 11.74 56.92 12.01 55.53 12.99 54.69 14.23 54.41 15.91"/>
  <line class="cls-2" x1="62.76" y1="18.4" x2="62.76" y2="15.91"/>
  <polyline class="cls-2" points="64.85 18.4 64.71 18.82 64.57 19.1 64.15 19.39 63.73 19.39 63.32 19.39 63.04 19.1 62.76 18.82 62.76 18.4"/>
  <line class="cls-2" x1="64.85" y1="15.91" x2="64.85" y2="18.4"/>
  <polyline class="cls-2" points="52.19 15.91 52.74 13.53 54.14 11.44 56.08 10.05 58.59 9.65 60.95 10.05 63.04 11.44 64.43 13.53 64.85 15.91"/>
  <line class="cls-2" x1="52.19" y1="29.82" x2="52.19" y2="15.91"/>
  <polyline class="cls-2" points="51.91 30.22 52.05 30.22 52.05 30.1 52.19 30.1 52.19 29.95 52.19 29.82"/>
  <line class="cls-2" x1="46.9" y1="32.03" x2="51.91" y2="30.22"/>
  <polyline class="cls-2" points="46.62 32.19 46.62 32.03 46.76 32.03 46.9 32.03"/>
  <polyline class="cls-2" points="35.91 86.01 36.75 79.2 37.58 72.38 38.69 65.7 39.95 58.89 41.34 52.2 43.01 45.53 44.68 38.86 46.62 32.19"/>
  <polyline class="cls-2" points="47.88 114.12 48.15 117.46 48.43 120.66 48.71 124 49.27 127.2 49.68 130.52 50.24 133.74 50.94 136.94 51.63 140.14"/>
  <line class="cls-2" x1="51.63" y1="140.14" x2="37.58" y2="141.25"/>
  <polyline class="cls-2" points="37.57 141.08 37.3 137.91 37.02 134.57 36.75 131.09 36.61 127.74 36.47 124.42 36.33 120.94 36.33 117.6 36.33 114.12"/>
  <line class="cls-2" x1="37.57" y1="141.08" x2="37.58" y2="141.25"/>
  <line class="cls-2" x1="36.33" y1="114.12" x2="47.88" y2="114.12"/>
  <polyline class="cls-2" points="54.14 31.34 54.41 31.62 54.69 31.77 54.97 31.91 55.39 32.03 55.67 32.18 55.94 32.31 56.36 32.46 56.64 32.46"/>
  <line class="cls-2" x1="56.64" y1="32.46" x2="64.29" y2="33.42"/>
  <line class="cls-2" x1="64.29" y1="33.42" x2="64.43" y2="33.86"/>
  <polyline class="cls-2" points="64.43 33.86 63.04 36.64 61.65 39.42 60.4 42.34 59.28 45.12 58.03 48.03 57.06 50.96 55.94 53.87 54.97 56.81"/>
  <line class="cls-2" x1="54.97" y1="56.81" x2="42.31" y2="56.81"/>
  <polyline class="cls-2" points="42.31 56.81 43.01 53.87 43.56 50.96 44.26 48.03 45.09 45.12 45.79 42.2 46.62 39.27 47.32 36.36 48.15 33.42"/>
  <line class="cls-2" x1="48.15" y1="33.42" x2="54.14" y2="31.34"/>
  <polyline class="cls-2" points="52.05 142.08 53.3 146.81 54.69 151.39 56.08 155.86 57.75 160.31 59.56 164.76 61.37 169.21 63.46 173.52 65.54 177.83"/>
  <line class="cls-2" x1="65.54" y1="177.83" x2="54.27" y2="172.83"/>
  <line class="cls-2" x1="54.27" y1="172.83" x2="42.45" y2="174.22"/>
  <polyline class="cls-2" points="42.45 174.22 41.75 170.32 40.92 166.43 40.36 162.67 39.67 158.78 39.11 154.87 38.56 150.99 38.14 147.09 37.73 143.28"/>
  <line class="cls-2" x1="37.72" y1="143.2" x2="37.73" y2="143.28"/>
  <line class="cls-2" x1="37.72" y1="143.2" x2="52.05" y2="142.08"/>
  <polyline class="cls-2" points="54.41 58.74 53.44 62.1 52.47 65.57 51.63 69.05 50.94 72.38 50.24 75.87 49.54 79.34 49.13 82.96 48.57 86.44"/>
  <line class="cls-2" x1="48.57" y1="86.44" x2="37.72" y2="86.44"/>
  <polyline class="cls-2" points="37.72 86.44 38.14 82.96 38.56 79.48 38.97 76.01 39.53 72.53 40.08 69.05 40.64 65.57 41.34 62.1 41.89 58.74"/>
  <line class="cls-2" x1="41.89" y1="58.74" x2="54.41" y2="58.74"/>
  <polyline class="cls-2" points="48.43 88.39 48.15 91.31 47.88 94.35 47.74 97.29 47.6 100.35 47.6 103.27 47.6 106.33 47.6 109.25 47.74 112.31"/>
  <line class="cls-2" x1="47.74" y1="112.31" x2="36.33" y2="112.31"/>
  <polyline class="cls-2" points="36.33 112.31 36.33 109.25 36.47 106.33 36.61 103.27 36.75 100.35 36.89 97.29 37.16 94.35 37.3 91.31 37.58 88.39"/>
  <line class="cls-2" x1="37.58" y1="88.39" x2="48.43" y2="88.39"/>
  <polyline class="cls-5" points="69.16 199.4 67.63 197.66 58.73 197.11 59 194.03 57.2 193.91 56.64 198.78 69.16 199.6"/>
  <polyline class="cls-2" points="69.16 199.4 67.63 197.66 58.73 197.11 59 194.03 57.2 193.91 56.64 198.78 69.16 199.6"/>
  <line class="cls-3" x1="77.3" y1="31.27" x2="109.78" y2="31.27"/>
  <line class="cls-3" x1="103.13" y1="31.27" x2="103.13" y2="199.32"/>
  <line class="cls-3" x1="35.11" y1="211.18" x2="35.11" y2="243.66"/>
  <line class="cls-3" x1="68.5" y1="211.18" x2="68.5" y2="243.66"/>
  <line class="cls-3" x1="68.5" y1="237.01" x2="35.11" y2="237.01"/>
  <polygon class="cls-5" points="103.13 31.27 100.27 46.19 105.99 46.19 103.13 31.27"/>
  <polygon class="cls-3" points="103.13 31.27 100.27 46.19 105.99 46.19 103.13 31.27"/>
  <polygon class="cls-5" points="103.13 199.22 100.27 184.3 105.99 184.3 103.13 199.22"/>
  <polygon class="cls-3" points="103.13 199.22 100.27 184.3 105.99 184.3 103.13 199.22"/>
  <polygon class="cls-5" points="68.5 237.01 83.42 234.15 83.42 239.87 68.5 237.01"/>
  <polygon class="cls-1" points="68.5 237.01 83.42 234.15 83.42 239.87 68.5 237.01"/>
  <polygon class="cls-5" points="34.87 236.93 19.95 239.79 19.95 234.07 34.87 236.93"/>
  <polygon class="cls-1" points="34.87 236.93 19.95 239.79 19.95 234.07 34.87 236.93"/>
  <line class="cls-3" x1="77.3" y1="199.6" x2="109.78" y2="199.6"/>
  <text class="cls-4" transform="translate(99.37 122.88) rotate(-90)"><tspan x="0" y="0">45</tspan></text>
  <text class="cls-4" transform="translate(43.72 232.59)"><tspan x="0" y="0">9.7</tspan></text>
</svg>