<?xml version="1.0" encoding="UTF-8"?>
<svg id="Capa_1" data-name="Capa 1" xmlns="http://www.w3.org/2000/svg" viewBox="0 0 300 127">
  <defs>
    <style>
      .cls-1, .cls-2 {
        fill: #818080;
      }

      .cls-2 {
        stroke: #818080;
        stroke-miterlimit: 10;
        stroke-width: .3px;
      }

      .cls-3 {
        fill: #727276;
      }
    </style>
  </defs>
  <g>
    <path class="cls-1" d="m233.3,41.95H77.48c-.07,0-.12-.06-.12-.12s.06-.12.12-.12h155.82c.07,0,.12.06.12.12s-.06.12-.12.12Z"/>
    <polygon class="cls-1" points="233.3 41.82 222.57 39.77 222.57 43.88 233.3 41.82"/>
    <path class="cls-1" d="m222.57,44s-.06,0-.08-.03c-.03-.02-.04-.06-.04-.1v-4.11s.02-.07.04-.1c.03-.02.07-.03.1-.03l10.72,2.06c.06.01.1.06.1.12s-.04.11-.1.12l-10.72,2.06s-.02,0-.02,0Zm.12-4.09v3.81l9.94-1.9-9.94-1.9Z"/>
    <polygon class="cls-1" points="66.75 41.82 77.48 39.77 77.48 43.88 66.75 41.82"/>
    <path class="cls-1" d="m77.48,44s-.02,0-.02,0l-10.73-2.06c-.06-.01-.1-.06-.1-.12s.04-.11.1-.12l10.73-2.06s.07,0,.1.03c.03.02.04.06.04.1v4.11s-.02.07-.04.1c-.02.02-.05.03-.08.03Zm-10.06-2.18l9.94,1.9v-3.81l-9.94,1.9Z"/>
    <path class="cls-1" d="m66.67,59.73c-.07,0-.12-.06-.12-.12v-23.35c0-.07.06-.12.12-.12s.12.06.12.12v23.35c0,.07-.06.12-.12.12Z"/>
    <polygon class="cls-1" points="143.92 33.5 143.9 33.5 142.77 34.11 142.6 33.44 144.02 32.68 144.77 32.68 144.77 39.18 143.92 39.18 143.92 33.5"/>
    <path class="cls-1" d="m151.46,35.86c0,2.21-.82,3.43-2.26,3.43-1.27,0-2.13-1.19-2.15-3.34,0-2.18.94-3.38,2.26-3.38s2.15,1.22,2.15,3.29m-3.53.1c0,1.69.52,2.65,1.32,2.65.9,0,1.33-1.05,1.33-2.71s-.41-2.65-1.32-2.65c-.77,0-1.33.94-1.33,2.71"/>
    <path class="cls-1" d="m154.99,39.18v-1.77h-3.02v-.58l2.9-4.15h.95v4.04h.91v.69h-.91v1.77h-.83Zm0-2.46v-2.17c0-.34.01-.68.03-1.02h-.03c-.2.38-.36.66-.54.96l-1.59,2.21v.02h2.13Z"/>
    <path class="cls-1" d="m233.67,59.73c-.07,0-.12-.06-.12-.12v-23.35c0-.07.06-.12.12-.12s.12.06.12.12v23.35c0,.07-.06.12-.12.12Z"/>
    <path class="cls-3" d="m232.2,94.43H67.8s-.01,0-.02,0c0,0-.01,0-.02,0l-.55-.1s-.06-.02-.08-.03l-.5-.3s-.06-.05-.09-.09l-.29-.43s-.04-.07-.05-.11l-.1-.54s0-.02,0-.04c0,0,0-.02,0-.02v-1.99s0-.01,0-.02c0,0,0-.02,0-.03l.1-.55s.02-.06.03-.08l.31-.47s.03-.03.04-.05l.25-.2s.04-.03.06-.04l.5-.2s.06-.02.09-.02h3.1s.08,0,.11.03l.1.05s.05.03.07.05l.1.1s.03.04.04.06l.05.1s.03.07.03.11v.75c0,.07-.03.13-.08.18l-.05.08s-.03.05-.05.07l-.05.05s-.04.03-.06.05l-.1.05s-.07.03-.11.03h-.15l-2.12.02-.06.06s-.04.04-.07.05l-.09.06-.07.27v.81l.12.25.04.02s.05.03.07.05l.03.03h.05s.05,0,.08.01l.11.04h9.82l.11-.04s.05-.01.08-.01l.07-.03s.04-.03.07-.05l.04-.02.12-.24v-.87l-.1-.24-.06-.03s-.05-.03-.07-.05l-.11-.08h-2.16s-.13,0-.16-.03l-.1-.05s-.05-.03-.06-.05l-.05-.05s-.04-.04-.05-.07l-.05-.08s-.08-.11-.08-.18v-.1s0-.02,0-.03c0,0,0-.02,0-.02v-.55s0-.13.03-.16l.05-.1s.03-.04.04-.06l.1-.1s.04-.03.07-.05l.1-.05s.07-.03.11-.03h3.1s.06,0,.09.02l.5.2s.06.03.08.06l.4.4s.04.05.05.08l.2.5.06.34s0,.02,0,.03c0,0,0,.01,0,.02v1.45h19.2v-25.85h-19.2v1.45s0,.02,0,.02c0,.01,0,.02,0,.04l-.05.24-.21.59s-.03.06-.05.08l-.2.2-.23.17-.27.16-.29.12s-.06.02-.09.02h-3.05c-.05,0-.11-.02-.15-.05h0c-.07,0-.13-.03-.18-.07l-.05-.05s-.04-.04-.05-.07l-.05-.08s-.07-.11-.07-.18v-.1s0-.02,0-.03c0,0,0-.02,0-.02v-.55s0-.13.03-.16l.05-.1s.03-.04.04-.06l.1-.1s.04-.03.06-.05l.1-.05s.07-.03.11-.03h2.06l.11-.04s.05-.01.08-.01l.07-.03.2-.23.02-.08v-.87l-.07-.21-.19-.16-.08-.02h-10.12l-.14.05-.13.13-.07.27v.81l.05.14.2.2h.05s.05,0,.08.01l.11.04h2.06s.08,0,.11.03l.1.05s.05.03.06.05l.1.1s.03.04.04.06l.05.1s.03.07.03.11v.75c0,.07-.03.13-.07.18l-.05.08s-.03.05-.05.07l-.05.05s-.11.07-.18.07l-.09.02s-.09.03-.14.02c0,0-.02,0-.02,0h-2.95s-.06,0-.09-.02l-.25-.1-.54-.32s-.05-.04-.07-.06l-.31-.47s-.03-.06-.03-.09l-.1-.54s0-.02,0-.04c0,0,0-.02,0-.02v-1.99s0-.02,0-.02c0-.01,0-.02,0-.04l.1-.54s.02-.06.03-.09l.31-.47s.04-.05.07-.06l.5-.3.29-.12s.06-.02.09-.02h165s.06,0,.09.02l.25.1.51.33.23.22.19.3s.03.06.03.09l.1.54s0,.02,0,.03c0,.01,0,.02,0,.03v1.99s0,.02,0,.03c0,0,0,.02,0,.03l-.1.54s-.02.06-.03.09l-.15.25-.24.25-.23.17-.27.16-.29.12s-.06.02-.09.02h-3.05c-.05,0-.11-.02-.15-.05h0c-.07,0-.13-.03-.18-.07l-.05-.05s-.04-.04-.05-.07l-.05-.09s-.07-.11-.07-.18v-.1s0-.02,0-.03c0,0,0-.02,0-.02v-.55s0-.13.03-.16l.05-.1s.03-.05.05-.06l.1-.1s.04-.03.07-.05l.1-.05s.07-.03.11-.03h2.06l.11-.04s.05-.01.08-.01l.07-.03.2-.23.02-.08v-.87l-.07-.21-.19-.16-.08-.02h-10.12l-.14.05-.13.13-.07.26v.81l.05.14.2.2h.05s.05,0,.08.01l.11.04h2.01s.13,0,.16.03l.1.05s.04.03.06.04l.1.1s.03.04.05.06l.05.1s.03.07.03.11v.75c0,.07-.03.13-.07.18l-.05.09s-.03.05-.05.07l-.05.05s-.11.07-.17.07c-.04.03-.09.05-.15.05h-3.05s-.06,0-.09-.02l-.25-.1-.51-.33-.23-.22-.19-.3s-.03-.06-.03-.09l-.1-.54s0-.02,0-.03c0-.01,0-.02,0-.03v-1.44h-19.2v25.85h19.2v-1.44s0-.02,0-.03c0,0,0-.01,0-.02l.1-.55s.02-.06.03-.08l.15-.25.44-.45s.05-.04.08-.06l.5-.2s.06-.02.09-.02h3.05s.13,0,.16.03l.1.05s.05.03.06.04l.1.1s.03.04.05.06l.05.1s.03.07.03.11v.75c0,.07-.03.13-.07.18l-.05.08s-.03.05-.05.07l-.05.05s-.04.03-.06.04l-.1.05s-.07.03-.11.03l-2.27.02-.06.06s-.04.04-.07.05l-.09.06-.07.26v.81l.12.25.04.02s.05.03.06.05l.03.03h.05s.05,0,.08.01l.11.04h9.82l.11-.04s.05-.01.08-.01l.07-.03s.04-.03.06-.05l.04-.02.12-.24v-.87l-.1-.23-.06-.03s-.05-.03-.07-.05l-.11-.08h-2.16s-.13,0-.16-.03l-.1-.05s-.05-.03-.07-.05l-.05-.05s-.04-.04-.05-.07l-.05-.08s-.07-.11-.07-.18v-.1s0-.02,0-.03c0,0,0-.02,0-.02v-.55s0-.13.03-.16l.05-.1s.03-.05.05-.06l.1-.1s.04-.04.07-.05l.1-.05s.07-.03.11-.03h3.1s.06,0,.09.02l.5.2s.06.03.08.06l.4.4.19.3s.02.05.03.08l.1.55s0,.02,0,.03c0,0,0,.02,0,.02v1.99s0,.02,0,.03c0,0,0,.02,0,.03l-.1.54s-.02.08-.05.11l-.35.46s-.03.03-.05.04l-.47.31s-.05.02-.08.03l-.55.1s-.03,0-.05,0Zm-164.38-.5h164.36l.48-.09.37-.24.29-.37.09-.47v-1.96l-.09-.48-.13-.21-.33-.32-.41-.16-3.05.06v.59s.02.02.02.04l.04.06h2.19s.05,0,.08.01l.15.05s.07.03.1.06l.13.1s.05.03.07.05l.1.1s.05.06.06.1l.1.3s.01.05.01.08v.95s0,.05-.01.08l-.11.28-.12.18s-.06.06-.1.08l-.06.03-.07.07s-.11.07-.18.07h-.11l-.11.04s-.03,0-.05.01c-.01,0-.03,0-.04,0h-9.89s-.03,0-.04,0h0s-.03,0-.05-.01l-.11-.04h-.11c-.07,0-.13-.03-.18-.07l-.13-.1s-.07-.05-.1-.08l-.17-.28-.06-.18s-.01-.05-.01-.08v-.95s0-.05.01-.08l.1-.3s.03-.07.06-.1l.1-.1s.04-.03.07-.05l.06-.03.07-.07s.06-.05.1-.06l.15-.05s.05-.01.08-.01h2.2s.03-.06.03-.06c0-.01.01-.03.02-.04h0s0-.02,0-.03c0,0,0-.02,0-.02l-.06-.6h-2.99l-.41.16-.36.36-.09.16-.09.48v1.68c0,.14-.11.25-.25.25h-19.7c-.14,0-.25-.11-.25-.25v-26.35c0-.14.11-.25.25-.25h19.7c.14,0,.25.11.25.25v1.68l.09.49.12.21.34.28.4.2h2.9s.08-.04.12-.05h0s.01-.04.02-.05h0s0-.02,0-.03c0,0,0-.02,0-.02l-.06-.6h-2.03s-.03,0-.04,0c-.02,0-.03,0-.05-.01l-.11-.04h-.11c-.07,0-.13-.03-.18-.07l-.3-.3s-.04-.04-.05-.07l-.11-.28s-.01-.05-.01-.08v-.95s0-.05.01-.08l.1-.3s.03-.07.06-.1l.2-.2s.04-.04.07-.05l.28-.11s.05-.01.08-.01h10.2s.05,0,.08.01l.28.11s.05.03.07.05l.2.2s.05.06.06.1l.1.3s.01.05.01.08v.95s0,.05-.01.08l-.11.28s-.03.05-.05.07l-.3.3s-.11.07-.18.07h-.11l-.11.04s-.03,0-.05.01c-.01,0-.03,0-.04,0l-2.09.06v.59s.02.02.02.04h0s.08.03.12.06h2.9l.2-.08.39-.27.17-.18.09-.16.09-.49v-1.95l-.09-.49-.13-.21-.33-.28-.4-.2H67.55l-.21.08-.42.26-.23.35-.09.49v1.95l.09.49.23.35.63.34,2.94-.02s.05-.02.08-.02h0s.01-.04.02-.05c0,0,0-.02,0-.02,0,0,0-.02,0-.02l-.06-.6h-2.04s-.03,0-.05,0c-.01,0-.03,0-.04-.01l-.11-.04h-.11c-.07,0-.13-.03-.18-.07l-.3-.3s-.04-.04-.05-.07l-.11-.28s-.01-.05-.01-.08v-.95s0-.05.01-.08l.1-.3s.03-.07.06-.1l.2-.2s.04-.03.07-.05l.28-.11s.05-.01.08-.01h10.2s.05,0,.08.01l.28.11s.05.03.07.05l.2.2s.05.06.06.1l.1.3s.01.05.01.08v.95s0,.05-.01.08l-.11.28s-.03.05-.05.07l-.3.3s-.11.07-.18.07h-.11l-.11.04s-.03,0-.05.01c-.01,0-.03,0-.04,0l-2.09.06v.59s.02.03.02.04h0s.08.04.12.06h2.9l.21-.08.39-.27.13-.14.18-.49.04-.19v-1.68c0-.14.11-.25.25-.25h19.7c.14,0,.25.11.25.25v26.35c0,.14-.11.25-.25.25h-19.7c-.14,0-.25-.11-.25-.25v-1.68l-.05-.28-.17-.4-.33-.33-.41-.16-3.05.06v.59s.02.03.02.04l.04.06h2.19s.05,0,.08.01l.15.05s.07.03.1.06l.13.1s.05.03.07.05l.1.1s.05.06.06.1l.1.3s.01.05.01.08v.95s0,.05-.01.08l-.11.28-.12.18s-.06.07-.1.09l-.13.1s-.11.07-.18.07h-.11l-.11.04s-.03,0-.04.01c-.02,0-.03,0-.05,0h-9.89s-.03,0-.05,0c-.02,0-.03,0-.04-.01l-.11-.04h-.11c-.07,0-.13-.03-.18-.07l-.13-.1s-.07-.05-.1-.09l-.16-.28-.06-.18s-.01-.05-.01-.08v-.95s0-.05.01-.08l.1-.3s.03-.07.06-.1l.1-.1s.04-.04.07-.05l.06-.03.07-.07s.06-.05.1-.06l.15-.05s.05-.01.08-.01h2.2s.03-.06.03-.06c0-.01.01-.03.02-.04,0,0,0-.02,0-.02,0,0,0-.02,0-.02l-.06-.6h-2.99l-.42.17-.2.16-.24.37-.09.48v1.95l.09.47.25.37.41.25.48.09Zm130.23-1.2h-96.1c-.14,0-.25-.11-.25-.25v-26.35c0-.14.11-.25.25-.25h96.1c.14,0,.25.11.25.25v26.35c0,.14-.11.25-.25.25Zm-95.85-.5h95.6v-25.85h-95.6v25.85Z"/>
  </g>
  <g>
    <path class="cls-2" d="m252.64,91.02v-23.35"/>
    <polygon class="cls-1" points="252.64 64.28 250.58 75 254.69 75 252.64 64.28"/>
    <polygon class="cls-1" points="252.64 94.43 254.69 83.7 250.58 83.7 252.64 94.43"/>
    <g>
      <path class="cls-1" d="m257.88,73.65h.5l.62.64c1.46,1.54,2.24,2.23,3.14,2.24.61,0,1.17-.3,1.17-1.19,0-.54-.28-1-.51-1.28l.57-.26c.35.42.61,1.01.61,1.7,0,1.29-.89,1.84-1.75,1.84-1.11,0-2.01-.8-3.23-2.07l-.44-.48h-.02v2.7h-.67v-3.84Z"/>
      <path class="cls-1" d="m260.95,82.39c-2.04,0-3.17-.76-3.17-2.09,0-1.17,1.1-1.97,3.09-1.99,2.02,0,3.13.87,3.13,2.09s-1.13,1.99-3.04,1.99Zm-.09-3.26c-1.56,0-2.45.48-2.45,1.22,0,.83.97,1.23,2.51,1.23s2.45-.38,2.45-1.22c0-.71-.87-1.23-2.51-1.23Z"/>
    </g>
  </g>
  <path class="cls-2" d="m236.17,64.28h23.35"/>
  <path class="cls-2" d="m236.17,94.28h23.35"/>
</svg>