<?xml version="1.0" encoding="utf-8"?>
<!-- Generator: Adobe Illustrator 27.2.0, SVG Export Plug-In . SVG Version: 6.00 Build 0)  -->
<svg version="1.1" id="Capa_1" xmlns="http://www.w3.org/2000/svg" xmlns:xlink="http://www.w3.org/1999/xlink" x="0px" y="0px"
	 viewBox="0 0 300 127" style="enable-background:new 0 0 300 127;" xml:space="preserve">
<style type="text/css">
	.st0{fill:#818080;}
	.st1{fill:#727276;}
	.st2{fill:#818080;stroke:#818080;stroke-width:0.3;stroke-miterlimit:10;}
</style>
<g>
	<path class="st0" d="M233.3,42H77.5c-0.1,0-0.1-0.1-0.1-0.1s0.1-0.1,0.1-0.1h155.8c0.1,0,0.1,0.1,0.1,0.1S233.4,42,233.3,42
		L233.3,42z"/>
	<polygon class="st0" points="233.3,41.8 222.6,39.8 222.6,43.9 	"/>
	<path class="st0" d="M222.6,44C222.6,44,222.5,44,222.6,44c-0.1,0-0.1-0.1-0.1-0.1v-4.1c0,0,0-0.1,0-0.1c0,0,0.1,0,0.1,0l10.7,2.1
		c0.1,0,0.1,0.1,0.1,0.1s0,0.1-0.1,0.1L222.6,44L222.6,44L222.6,44z M222.7,39.9v3.8l9.9-1.9L222.7,39.9L222.7,39.9z"/>
	<polygon class="st0" points="66.8,41.8 77.5,39.8 77.5,43.9 	"/>
	<path class="st0" d="M77.5,44L77.5,44l-10.7-2.1c-0.1,0-0.1-0.1-0.1-0.1s0-0.1,0.1-0.1l10.7-2.1c0,0,0.1,0,0.1,0c0,0,0,0.1,0,0.1
		v4.1C77.6,43.9,77.6,43.9,77.5,44C77.5,44,77.5,44,77.5,44L77.5,44z M67.4,41.8l9.9,1.9v-3.8L67.4,41.8L67.4,41.8z"/>
	<path class="st0" d="M66.7,59.7c-0.1,0-0.1-0.1-0.1-0.1V36.3c0-0.1,0.1-0.1,0.1-0.1s0.1,0.1,0.1,0.1v23.3
		C66.8,59.7,66.7,59.7,66.7,59.7z"/>
	<polygon class="st0" points="143.9,33.5 143.9,33.5 142.8,34.1 142.6,33.4 144,32.7 144.8,32.7 144.8,39.2 143.9,39.2 	"/>
	<path class="st0" d="M151.5,35.9c0,2.2-0.8,3.4-2.3,3.4c-1.3,0-2.1-1.2-2.1-3.3c0-2.2,0.9-3.4,2.3-3.4S151.5,33.8,151.5,35.9
		 M147.9,36c0,1.7,0.5,2.7,1.3,2.7c0.9,0,1.3-1,1.3-2.7s-0.4-2.7-1.3-2.7C148.5,33.2,147.9,34.2,147.9,36"/>
	<path class="st0" d="M155,39.2v-1.8h-3v-0.6l2.9-4.2h0.9v4h0.9v0.7h-0.9v1.8L155,39.2L155,39.2z M155,36.7v-2.2c0-0.3,0-0.7,0-1h0
		c-0.2,0.4-0.4,0.7-0.5,1l-1.6,2.2v0H155L155,36.7z"/>
	<path class="st0" d="M233.7,59.7c-0.1,0-0.1-0.1-0.1-0.1V36.3c0-0.1,0.1-0.1,0.1-0.1s0.1,0.1,0.1,0.1v23.3
		C233.8,59.7,233.7,59.7,233.7,59.7z"/>
	<path class="st1" d="M232.2,94.4H67.8c0,0,0,0,0,0c0,0,0,0,0,0l-0.6-0.1c0,0-0.1,0-0.1,0L66.6,94c0,0-0.1-0.1-0.1-0.1l-0.3-0.4
		c0,0,0-0.1-0.1-0.1l-0.1-0.5c0,0,0,0,0,0v0v-2c0,0,0,0,0,0c0,0,0,0,0,0l0.1-0.6c0,0,0-0.1,0-0.1l0.3-0.5c0,0,0,0,0-0.1l0.2-0.2
		c0,0,0,0,0.1,0l0.5-0.2c0,0,0.1,0,0.1,0h3.1c0,0,0.1,0,0.1,0l0.1,0.1c0,0,0.1,0,0.1,0.1l0.1,0.1c0,0,0,0,0,0.1l0.1,0.1
		c0,0,0,0.1,0,0.1v0.8c0,0.1,0,0.1-0.1,0.2l-0.1,0.1c0,0,0,0.1-0.1,0.1l-0.1,0.1c0,0,0,0-0.1,0.1l-0.1,0.1c0,0-0.1,0-0.1,0h-0.2
		l-2.1,0L68.2,91c0,0,0,0-0.1,0.1l-0.1,0.1L68,91.3v0.8l0.1,0.2l0,0c0,0,0.1,0,0.1,0.1l0,0h0.1c0,0,0.1,0,0.1,0l0.1,0h9.8l0.1,0
		c0,0,0.1,0,0.1,0l0.1,0c0,0,0,0,0.1-0.1l0,0l0.1-0.2v-0.9l-0.1-0.2l-0.1,0c0,0-0.1,0-0.1-0.1l-0.1-0.1h-2.2c0,0-0.1,0-0.2,0
		l-0.1-0.1c0,0-0.1,0-0.1-0.1L76,90.7c0,0,0,0-0.1-0.1l-0.1-0.1c0,0-0.1-0.1-0.1-0.2v-0.1c0,0,0,0,0,0v0v-0.6c0,0,0-0.1,0-0.2
		l0.1-0.1c0,0,0,0,0-0.1l0.1-0.1c0,0,0,0,0.1-0.1l0.1-0.1c0,0,0.1,0,0.1,0h3.1c0,0,0.1,0,0.1,0l0.5,0.2c0,0,0.1,0,0.1,0.1l0.4,0.4
		c0,0,0,0.1,0.1,0.1l0.2,0.5l0.1,0.3c0,0,0,0,0,0c0,0,0,0,0,0v1.4H100V66.4H80.8v1.4v0c0,0,0,0,0,0l-0.1,0.2l-0.2,0.6
		c0,0,0,0.1-0.1,0.1L80.2,69L80,69.2l-0.3,0.2l-0.3,0.1c0,0-0.1,0-0.1,0h-3.1c-0.1,0-0.1,0-0.2-0.1l0,0c-0.1,0-0.1,0-0.2-0.1
		l-0.1-0.1c0,0,0,0-0.1-0.1l-0.1-0.1c0,0-0.1-0.1-0.1-0.2v-0.1c0,0,0,0,0,0v0v-0.6c0,0,0-0.1,0-0.2l0.1-0.1c0,0,0,0,0-0.1l0.1-0.1
		c0,0,0,0,0.1-0.1l0.1-0.1c0,0,0.1,0,0.1,0h2.1l0.1,0c0,0,0.1,0,0.1,0l0.1,0l0.2-0.2l0-0.1v-0.9l-0.1-0.2l-0.2-0.2l-0.1,0H68.3
		l-0.1,0.1l-0.1,0.1L68,66.5v0.8l0.1,0.1l0.2,0.2h0.1c0,0,0.1,0,0.1,0l0.1,0h2.1c0,0,0.1,0,0.1,0l0.1,0.1c0,0,0.1,0,0.1,0.1l0.1,0.1
		c0,0,0,0,0,0.1l0.1,0.1c0,0,0,0.1,0,0.1V69c0,0.1,0,0.1-0.1,0.2l-0.1,0.1c0,0,0,0.1-0.1,0.1l-0.1,0.1c0,0-0.1,0.1-0.2,0.1l-0.1,0
		c0,0-0.1,0-0.1,0h0h-2.9c0,0-0.1,0-0.1,0l-0.2-0.1L66.6,69c0,0-0.1,0-0.1-0.1l-0.3-0.5c0,0,0-0.1,0-0.1L66,67.9c0,0,0,0,0,0v0v-2v0
		c0,0,0,0,0,0l0.1-0.5c0,0,0-0.1,0-0.1l0.3-0.5c0,0,0-0.1,0.1-0.1l0.5-0.3l0.3-0.1c0,0,0.1,0,0.1,0h165c0,0,0.1,0,0.1,0l0.2,0.1
		l0.5,0.3l0.2,0.2l0.2,0.3c0,0,0,0.1,0,0.1l0.1,0.5c0,0,0,0,0,0s0,0,0,0v2c0,0,0,0,0,0c0,0,0,0,0,0l-0.1,0.5c0,0,0,0.1,0,0.1
		l-0.1,0.2l-0.2,0.2l-0.2,0.2l-0.3,0.2l-0.3,0.1c0,0-0.1,0-0.1,0h-3.1c-0.1,0-0.1,0-0.1-0.1l0,0c-0.1,0-0.1,0-0.2-0.1l-0.1-0.1
		c0,0,0,0-0.1-0.1l-0.1-0.1c0,0-0.1-0.1-0.1-0.2v-0.1c0,0,0,0,0,0v0v-0.6c0,0,0-0.1,0-0.2l0.1-0.1c0,0,0-0.1,0.1-0.1l0.1-0.1
		c0,0,0,0,0.1-0.1l0.1-0.1c0,0,0.1,0,0.1,0h2.1l0.1,0c0,0,0.1,0,0.1,0l0.1,0l0.2-0.2l0-0.1v-0.9l-0.1-0.2l-0.2-0.2l-0.1,0h-10.1
		l-0.1,0.1l-0.1,0.1l-0.1,0.3v0.8l0.1,0.1l0.2,0.2h0.1c0,0,0.1,0,0.1,0l0.1,0h2c0,0,0.1,0,0.2,0l0.1,0.1c0,0,0,0,0.1,0l0.1,0.1
		c0,0,0,0,0.1,0.1l0.1,0.1c0,0,0,0.1,0,0.1v0.8c0,0.1,0,0.1-0.1,0.2l-0.1,0.1c0,0,0,0.1-0.1,0.1l-0.1,0.1c0,0-0.1,0.1-0.2,0.1
		c0,0-0.1,0.1-0.1,0.1h-3.1c0,0-0.1,0-0.1,0l-0.2-0.1l-0.5-0.3l-0.2-0.2l-0.2-0.3c0,0,0-0.1,0-0.1l-0.1-0.5c0,0,0,0,0,0s0,0,0,0
		v-1.4h-19.2v25.8h19.2v-1.4c0,0,0,0,0,0c0,0,0,0,0,0l0.1-0.6c0,0,0-0.1,0-0.1l0.1-0.2l0.4-0.4c0,0,0.1,0,0.1-0.1l0.5-0.2
		c0,0,0.1,0,0.1,0h3.1c0,0,0.1,0,0.2,0l0.1,0.1c0,0,0.1,0,0.1,0l0.1,0.1c0,0,0,0,0.1,0.1l0.1,0.1c0,0,0,0.1,0,0.1v0.8
		c0,0.1,0,0.1-0.1,0.2l-0.1,0.1c0,0,0,0.1-0.1,0.1l-0.1,0.1c0,0,0,0-0.1,0l-0.1,0.1c0,0-0.1,0-0.1,0l-2.3,0l-0.1,0.1
		c0,0,0,0-0.1,0.1l-0.1,0.1l-0.1,0.3v0.8l0.1,0.2l0,0c0,0,0.1,0,0.1,0.1l0,0h0.1c0,0,0.1,0,0.1,0l0.1,0h9.8l0.1,0c0,0,0.1,0,0.1,0
		l0.1,0c0,0,0,0,0.1-0.1l0,0l0.1-0.2v-0.9l-0.1-0.2l-0.1,0c0,0-0.1,0-0.1-0.1l-0.1-0.1h-2.2c0,0-0.1,0-0.2,0l-0.1-0.1
		c0,0-0.1,0-0.1-0.1l-0.1-0.1c0,0,0,0-0.1-0.1l-0.1-0.1c0,0-0.1-0.1-0.1-0.2v-0.1c0,0,0,0,0,0v0v-0.6c0,0,0-0.1,0-0.2l0.1-0.1
		c0,0,0-0.1,0.1-0.1l0.1-0.1c0,0,0,0,0.1-0.1l0.1-0.1c0,0,0.1,0,0.1,0h3.1c0,0,0.1,0,0.1,0l0.5,0.2c0,0,0.1,0,0.1,0.1l0.4,0.4
		l0.2,0.3c0,0,0,0.1,0,0.1l0.1,0.6c0,0,0,0,0,0v0v2c0,0,0,0,0,0c0,0,0,0,0,0l-0.1,0.5c0,0,0,0.1-0.1,0.1l-0.4,0.5c0,0,0,0-0.1,0
		l-0.5,0.3c0,0-0.1,0-0.1,0L232.2,94.4C232.2,94.4,232.1,94.4,232.2,94.4L232.2,94.4z M67.8,93.9h164.4l0.5-0.1l0.4-0.2l0.3-0.4
		l0.1-0.5v-2l-0.1-0.5l-0.1-0.2l-0.3-0.3l-0.4-0.2l-3.1,0.1v0.6c0,0,0,0,0,0l0,0.1h2.2c0,0,0.1,0,0.1,0l0.1,0.1c0,0,0.1,0,0.1,0.1
		l0.1,0.1c0,0,0.1,0,0.1,0.1l0.1,0.1c0,0,0.1,0.1,0.1,0.1l0.1,0.3c0,0,0,0.1,0,0.1v0.9c0,0,0,0.1,0,0.1l-0.1,0.3l-0.1,0.2
		c0,0-0.1,0.1-0.1,0.1l-0.1,0l-0.1,0.1c0,0-0.1,0.1-0.2,0.1h-0.1l-0.1,0c0,0,0,0-0.1,0c0,0,0,0,0,0h-9.9c0,0,0,0,0,0l0,0
		c0,0,0,0-0.1,0l-0.1,0h-0.1c-0.1,0-0.1,0-0.2-0.1l-0.1-0.1c0,0-0.1-0.1-0.1-0.1l-0.2-0.3l-0.1-0.2c0,0,0-0.1,0-0.1v-0.9
		c0,0,0-0.1,0-0.1l0.1-0.3c0,0,0-0.1,0.1-0.1l0.1-0.1c0,0,0,0,0.1-0.1l0.1,0l0.1-0.1c0,0,0.1-0.1,0.1-0.1l0.1-0.1c0,0,0.1,0,0.1,0
		h2.2l0-0.1c0,0,0,0,0,0l0,0c0,0,0,0,0,0v0l-0.1-0.6h-3l-0.4,0.2l-0.4,0.4l-0.1,0.2l-0.1,0.5v1.7c0,0.1-0.1,0.2-0.2,0.2h-19.7
		c-0.1,0-0.2-0.1-0.2-0.2V66.1c0-0.1,0.1-0.2,0.2-0.2h19.7c0.1,0,0.2,0.1,0.2,0.2v1.7l0.1,0.5l0.1,0.2l0.3,0.3l0.4,0.2h2.9
		c0,0,0.1,0,0.1-0.1l0,0c0,0,0,0,0-0.1l0,0c0,0,0,0,0,0v0l-0.1-0.6h-2c0,0,0,0,0,0c0,0,0,0-0.1,0l-0.1,0h-0.1c-0.1,0-0.1,0-0.2-0.1
		l-0.3-0.3c0,0,0,0-0.1-0.1l-0.1-0.3c0,0,0-0.1,0-0.1v-0.9c0,0,0-0.1,0-0.1l0.1-0.3c0,0,0-0.1,0.1-0.1l0.2-0.2c0,0,0,0,0.1-0.1
		l0.3-0.1c0,0,0.1,0,0.1,0h10.2c0,0,0.1,0,0.1,0l0.3,0.1c0,0,0.1,0,0.1,0.1l0.2,0.2c0,0,0.1,0.1,0.1,0.1l0.1,0.3c0,0,0,0.1,0,0.1
		v0.9c0,0,0,0.1,0,0.1l-0.1,0.3c0,0,0,0.1-0.1,0.1l-0.3,0.3c0,0-0.1,0.1-0.2,0.1h-0.1l-0.1,0c0,0,0,0-0.1,0c0,0,0,0,0,0l-2.1,0.1
		v0.6c0,0,0,0,0,0l0,0c0,0,0.1,0,0.1,0.1h2.9l0.2-0.1l0.4-0.3l0.2-0.2l0.1-0.2l0.1-0.5v-1.9l-0.1-0.5l-0.1-0.2l-0.3-0.3l-0.4-0.2
		H67.6l-0.2,0.1L66.9,65l-0.2,0.3l-0.1,0.5v1.9l0.1,0.5l0.2,0.3l0.6,0.3l2.9,0c0,0,0.1,0,0.1,0l0,0c0,0,0,0,0-0.1v0v0l-0.1-0.6h-2
		c0,0,0,0-0.1,0c0,0,0,0,0,0l-0.1,0h-0.1c-0.1,0-0.1,0-0.2-0.1l-0.3-0.3c0,0,0,0-0.1-0.1l-0.1-0.3c0,0,0-0.1,0-0.1v-0.9
		c0,0,0-0.1,0-0.1l0.1-0.3c0,0,0-0.1,0.1-0.1l0.2-0.2c0,0,0,0,0.1-0.1l0.3-0.1c0,0,0.1,0,0.1,0h10.2c0,0,0.1,0,0.1,0l0.3,0.1
		c0,0,0.1,0,0.1,0.1l0.2,0.2c0,0,0.1,0.1,0.1,0.1l0.1,0.3c0,0,0,0.1,0,0.1v0.9c0,0,0,0.1,0,0.1l-0.1,0.3c0,0,0,0.1-0.1,0.1l-0.3,0.3
		c0,0-0.1,0.1-0.2,0.1h-0.1l-0.1,0c0,0,0,0-0.1,0c0,0,0,0,0,0l-2.1,0.1v0.6c0,0,0,0,0,0l0,0c0,0,0.1,0,0.1,0.1h2.9l0.2-0.1l0.4-0.3
		l0.1-0.1l0.2-0.5l0-0.2v-1.7c0-0.1,0.1-0.2,0.2-0.2h19.7c0.1,0,0.2,0.1,0.2,0.2v26.3c0,0.1-0.1,0.2-0.2,0.2H80.5
		c-0.1,0-0.2-0.1-0.2-0.2v-1.7l-0.1-0.3L80,90.1l-0.3-0.3l-0.4-0.2l-3.1,0.1v0.6c0,0,0,0,0,0l0,0.1h2.2c0,0,0.1,0,0.1,0l0.2,0.1
		c0,0,0.1,0,0.1,0.1l0.1,0.1c0,0,0.1,0,0.1,0.1l0.1,0.1c0,0,0.1,0.1,0.1,0.1l0.1,0.3c0,0,0,0.1,0,0.1v0.9c0,0,0,0.1,0,0.1l-0.1,0.3
		l-0.1,0.2c0,0-0.1,0.1-0.1,0.1l-0.1,0.1c0,0-0.1,0.1-0.2,0.1h-0.1l-0.1,0c0,0,0,0,0,0c0,0,0,0-0.1,0h-9.9c0,0,0,0-0.1,0
		c0,0,0,0,0,0l-0.1,0h-0.1c-0.1,0-0.1,0-0.2-0.1l-0.1-0.1c0,0-0.1-0.1-0.1-0.1l-0.2-0.3l-0.1-0.2c0,0,0-0.1,0-0.1v-0.9
		c0,0,0-0.1,0-0.1l0.1-0.3c0,0,0-0.1,0.1-0.1l0.1-0.1c0,0,0,0,0.1-0.1l0.1,0l0.1-0.1c0,0,0.1-0.1,0.1-0.1l0.2-0.1c0,0,0.1,0,0.1,0
		h2.2l0-0.1c0,0,0,0,0,0v0v0l-0.1-0.6h-3l-0.4,0.2L66.9,90l-0.2,0.4l-0.1,0.5v1.9l0.1,0.5l0.2,0.4l0.4,0.2L67.8,93.9L67.8,93.9z
		 M198,92.7h-96.1c-0.1,0-0.2-0.1-0.2-0.2V66.1c0-0.1,0.1-0.2,0.2-0.2H198c0.1,0,0.2,0.1,0.2,0.2v26.3
		C198.3,92.6,198.2,92.7,198,92.7z M102.2,92.2h95.6V66.4h-95.6V92.2z"/>
</g>
<g>
	<path class="st2" d="M252.6,91V67.7"/>
	<polygon class="st0" points="252.6,64.3 250.6,75 254.7,75 	"/>
	<polygon class="st0" points="252.6,94.4 254.7,83.7 250.6,83.7 	"/>
	<g>
		<path class="st0" d="M257.9,73.7h0.5l0.6,0.6c1.5,1.5,2.2,2.2,3.1,2.2c0.6,0,1.2-0.3,1.2-1.2c0-0.5-0.3-1-0.5-1.3l0.6-0.3
			c0.4,0.4,0.6,1,0.6,1.7c0,1.3-0.9,1.8-1.8,1.8c-1.1,0-2-0.8-3.2-2.1l-0.4-0.5h0v2.7h-0.7L257.9,73.7L257.9,73.7z"/>
	</g>
	<g>
		<path class="st0" d="M257.9,78.5h0.5l0.6,0.6c1.5,1.5,2.2,2.2,3.1,2.2c0.6,0,1.2-0.3,1.2-1.2c0-0.5-0.3-1-0.5-1.3l0.6-0.3
			c0.4,0.4,0.6,1,0.6,1.7c0,1.3-0.9,1.8-1.8,1.8c-1.1,0-2-0.8-3.2-2.1l-0.4-0.5h0v2.7h-0.7L257.9,78.5L257.9,78.5z"/>
	</g>
</g>
<path class="st2" d="M236.2,64.3h23.3"/>
<path class="st2" d="M236.2,94.3h23.3"/>
</svg>
