<?xml version="1.0" encoding="UTF-8"?>
<svg id="Capa_1" data-name="Capa 1" xmlns="http://www.w3.org/2000/svg" viewBox="0 0 300 127">
  <defs>
    <style>
      .cls-1 {
        fill: #818080;
      }

      .cls-2 {
        fill: #727276;
      }
    </style>
  </defs>
  <path class="cls-1" d="m226.58,53.66c-.07,0-.12-.06-.12-.12V12.87c0-.07.06-.12.12-.12s.12.06.12.12v40.66c0,.07-.06.12-.12.12Z"/>
  <path class="cls-1" d="m226.58,18.57H52.58c-.07,0-.12-.06-.12-.12s.06-.12.12-.12h174c.07,0,.12.06.12.12s-.06.12-.12.12Z"/>
  <polygon class="cls-1" points="226.58 18.44 215.85 16.38 215.85 20.5 226.58 18.44"/>
  <path class="cls-1" d="m215.85,20.62s-.06,0-.08-.03c-.03-.02-.04-.06-.04-.1v-4.11s.02-.07.04-.1c.03-.02.07-.03.1-.03l10.73,2.06c.06.01.1.06.1.12s-.04.11-.1.12l-10.73,2.06s-.02,0-.02,0Zm.12-4.09v3.81l9.94-1.9-9.94-1.9Z"/>
  <polygon class="cls-1" points="41.85 18.44 52.58 16.38 52.58 20.5 41.85 18.44"/>
  <path class="cls-1" d="m52.58,20.62s-.02,0-.02,0l-10.73-2.06c-.06-.01-.1-.06-.1-.12s.04-.11.1-.12l10.73-2.06s.07,0,.1.03c.03.02.05.06.05.1v4.11s-.02.07-.05.1c-.02.02-.05.03-.08.03Zm-10.06-2.18l9.94,1.9v-3.81l-9.94,1.9Z"/>
  <path class="cls-1" d="m41.78,36.35c-.07,0-.12-.06-.12-.12V12.87c0-.07.06-.12.12-.12s.12.06.12.12v23.35c0,.07-.06.12-.12.12Z"/>
  <polygon class="cls-1" points="133.02 10.11 133 10.11 131.87 10.72 131.7 10.05 133.12 9.29 133.87 9.29 133.87 15.79 133.02 15.79 133.02 10.11"/>
  <path class="cls-1" d="m145.69,12.47c0,2.21-.82,3.43-2.26,3.43-1.27,0-2.13-1.19-2.15-3.34,0-2.18.94-3.38,2.26-3.38s2.15,1.22,2.15,3.29m-3.53.1c0,1.69.52,2.65,1.32,2.65.9,0,1.33-1.05,1.33-2.71s-.41-2.65-1.32-2.65c-.77,0-1.33.94-1.33,2.71"/>
  <path class="cls-1" d="m254.79,115.59h-23.35c-.07,0-.12-.06-.12-.12s.06-.12.12-.12h23.35c.07,0,.12.06.12.12s-.06.12-.12.12Z"/>
  <path class="cls-1" d="m249.23,115.59c-.07,0-.12-.06-.12-.12v-53.73c0-.07.06-.12.12-.12s.12.06.12.12v53.73c0,.07-.06.12-.12.12Z"/>
  <polygon class="cls-1" points="249.23 115.47 251.28 104.74 247.17 104.74 249.23 115.47"/>
  <path class="cls-1" d="m249.23,115.59c-.06,0-.11-.04-.12-.1l-2.06-10.73s0-.07.03-.1c.02-.03.06-.05.1-.05h4.11s.07.02.1.05c.02.03.03.07.03.1l-2.06,10.73c-.01.06-.06.1-.12.1Zm-1.9-10.73l1.9,9.94,1.91-9.94h-3.81Z"/>
  <polygon class="cls-1" points="249.23 61.74 251.28 72.47 247.17 72.47 249.23 61.74"/>
  <path class="cls-1" d="m251.29,72.59h-4.12s-.07-.02-.1-.05c-.02-.03-.03-.07-.03-.1l2.06-10.73c.02-.12.22-.12.25,0l2.05,10.69s.02.04.02.06c0,.07-.06.12-.12.12Zm-3.97-.25h3.81l-1.91-9.94-1.9,9.94Z"/>
  <path class="cls-1" d="m254.79,61.79h-23.35c-.07,0-.12-.06-.12-.12s.06-.12.12-.12h23.35c.07,0,.12.06.12.12s-.06.12-.12.12Z"/>
  <path class="cls-1" d="m251.87,85.72h1.77v-3.02h.58l4.15,2.9v.95h-4.04v.91h-.69v-.91h-1.77v-.83Zm2.46,0h2.17c.34,0,.68.01,1.02.03v-.03c-.38-.2-.66-.36-.96-.54l-2.21-1.59h-.02v2.13Z"/>
  <path class="cls-1" d="m255.19,92.45c-2.21,0-3.43-.82-3.43-2.26,0-1.27,1.19-2.13,3.34-2.15,2.18,0,3.38.94,3.38,2.26s-1.22,2.15-3.29,2.15m-.1-3.53c-1.69,0-2.65.52-2.65,1.32,0,.9,1.05,1.33,2.71,1.33s2.65-.41,2.65-1.32c0-.77-.94-1.33-2.71-1.33"/>
  <path class="cls-2" d="m225.73,117.81h-1.15s-.08,0-.11-.03l-.1-.05s-.05-.03-.07-.05l-.05-.05s-.04-.04-.05-.07l-.05-.08s-.07-.11-.07-.18v-.1s0-.02,0-.02c0,0,0-.02,0-.02v-1.45h-19c-.07,0-.13-.03-.17-.07l-.09-.06s-.05-.03-.06-.05l-.1-.1s-.03-.04-.04-.06l-.05-.1s-.03-.07-.03-.11v-1.15c0-.07.03-.13.08-.18l.05-.08s.03-.05.05-.07l.05-.05s.04-.03.06-.05l.1-.05s.07-.03.11-.03h19.05v-49.95h-53.35v1.1h0s0,.06-.02.09h0s0,0,0,0h0s-.02.04-.03.06h0c0,.07-.03.13-.07.18l-.05.08s-.03.05-.05.07l-.05.05s-.11.07-.17.07c-.04.03-.1.05-.15.05h-1.05c-.05,0-.11-.02-.15-.05-.07,0-.13-.03-.18-.07l-.05-.05s-.04-.04-.05-.07l-.05-.08s-.08-.11-.08-.18v-.1s0-.02,0-.02c0,0,0-.02,0-.02v-1.1h-46.45v1.25c0,.07-.03.13-.07.18l-.05.09s-.06.09-.11.11l-.1.05s-.07.02-.1.03l-.05.02s-.09.03-.14.03c0,0-.02,0-.02,0h-.95s-.08,0-.11-.03l-.06-.03c-.06-.01-.12-.03-.15-.06l-.05-.05s-.03-.04-.05-.06l-.05-.09s-.04-.04-.05-.07l-.05-.1s-.03-.07-.03-.11c0,0,0-.02,0-.02,0,0,0-.02,0-.02v-1.1h-47.25v52.6s0,.02,0,.02c0,.01,0,.02,0,.04l-.1.54s-.02.06-.03.09l-.31.47s-.04.05-.07.06l-.5.3-.29.12s-.06.02-.09.02h-28.35s-.06,0-.09-.02l-.25-.1-.51-.33-.23-.22s-.04-.05-.06-.08l-.2-.56s-.01-.05-.01-.08V43.61s0-.05.01-.08l.1-.3.11-.23.23-.29s.03-.03.05-.04l.2-.15.27-.16.29-.12s.06-.02.09-.02h2.55s.05,0,.08.01l.3.1s.05.02.07.04l.43.29s.06.05.09.09l.29.43s.03.05.04.07l.1.3s.01.05.01.08v2.95h0s0,.13-.03.16l-.03.06s-.01.07-.02.09l-.05.1s-.06.09-.11.11l-.1.05s-.07.03-.1.03l-.05.02s-.09.03-.14.03c0,0-.02,0-.02,0h-.55c-.05,0-.11-.02-.15-.05h0c-.07,0-.13-.03-.18-.07l-.05-.05s-.03-.04-.05-.06l-.05-.08s-.07-.11-.07-.18v-.1s0-.02,0-.02c0,0,0-.02,0-.02l-.02-1.99-.15-.32-.04-.02s-.05-.03-.06-.05l-.03-.03h-.05s-.05,0-.08-.01l-.11-.04h-.62l-.11.04s-.05.01-.08.01h-.02l-.15.09-.12.25.02,10.15.04.13.12.12.27.07h.81l.14-.05.13-.13.12-.3v-2.11c0-.07.03-.13.07-.18l.15-.15s.04-.04.07-.05l.08-.05s.11-.07.18-.07h.55s.13,0,.16.03l.1.05s.04.03.06.05l.09.05s.05.03.06.05l.05.05s.07.1.07.17l.02.05s.03.07.03.11v3.05s0,.06-.02.09l-.1.25-.33.51s-.03.03-.04.05l-.25.2-.25.13-.33.11s-.05.01-.08.01h-1.7v22.2h26.7v-22.2h-1.75s-.06,0-.09-.02l-.5-.2s-.06-.03-.08-.06l-.4-.4s-.04-.05-.06-.08l-.2-.5s-.02-.06-.02-.09v-3.15c0-.07.03-.13.07-.18l.15-.15s.04-.04.07-.05l.08-.05s.11-.07.18-.07h.55s.13,0,.16.03l.1.05s.04.03.06.05l.09.05s.05.03.06.05l.05.05s.07.1.07.17l.02.05s.03.07.03.11l.02,2.19.04.13.12.12.26.07h.81l.14-.05.2-.25s0-.05.01-.08l.04-.11-.02-9.9s-.03-.07-.03-.11l-.03-.07-.14-.15s-.04-.03-.06-.05l-.03-.03h-.05s-.05,0-.08-.01l-.11-.04h-.62l-.11.04s-.05.01-.08.01h-.02l-.15.09-.12.25v2.06h0s0,.13-.03.16l-.03.06s-.01.07-.02.09l-.05.1s-.06.09-.11.11l-.1.05s-.07.03-.1.03l-.05.02s-.09.03-.14.03c0,0-.02,0-.02,0h-.55c-.05,0-.11-.02-.15-.05h0c-.07,0-.13-.03-.18-.07l-.05-.05s-.03-.04-.05-.06l-.05-.08s-.07-.11-.07-.18v-.1s0-.02,0-.02c0,0,0-.02,0-.02v-2.95s0-.05.01-.08l.1-.3.11-.23.23-.29s.03-.03.05-.04l.2-.15.27-.16.29-.12s.06-.02.09-.02h2.55s.06,0,.09.02l.25.1.54.32s.06.05.09.09l.29.43s.04.07.05.11l.1.54s0,.02,0,.04c0,0,0,.02,0,.02v17.5h151.45v-1.65c0-.07.03-.13.07-.18l.05-.08s.03-.05.05-.06l.05-.05s.11-.07.18-.07l.09-.02s.09-.03.14-.03c0,0,.02,0,.02,0h.95c.05,0,.11.02.15.05h0c.07,0,.13.03.18.07l.05.05s.03.04.05.06l.05.08s.04.04.05.07l.05.1s.03.07.03.11c0,0,0,.02,0,.02,0,0,0,.02,0,.02v57.3h0s0,.13-.03.16l-.05.1s-.03.05-.05.07l-.05.08s-.03.05-.05.07l-.05.05s-.04.03-.07.05l-.1.05s-.07.03-.11.03Zm-1.09-.5h.04s.03,0,.05,0h.95s.03-.06.03-.06c.01-.02.03-.05.05-.07l.03-.03v-57.29s-.03-.02-.03-.02c-.02-.02-.04-.04-.05-.07h0s-.08-.04-.12-.06l-.89.02s-.05.02-.08.02h0s-.01.04-.02.05h0s0,.02,0,.02c0,0,0,.02,0,.02v1.75c0,.14-.11.25-.25.25H72.38c-.14,0-.25-.11-.25-.25v-17.73l-.09-.47-.25-.37-.61-.33h-2.46l-.21.08-.37.25-.18.23-.15.38v2.96s.02.03.02.04h0s.08.04.12.06l.49-.02s.05-.02.07-.02c0-.03.01-.05.02-.06l.02-.05v-2.09s0-.05.01-.08l.11-.28.12-.18s.06-.07.1-.08l.22-.13s.09-.04.14-.04h.06l.11-.04s.03,0,.04-.01c.02,0,.03,0,.05,0h.69s.03,0,.05,0c.02,0,.03,0,.04.01l.11.04h.11c.07,0,.13.03.18.07l.14.1s.07.05.1.08l.17.21s.07.11.07.18l.02.13s.02.04.02.06c0,.02,0,.04,0,.06v9.94s0,.03,0,.05h0s0,0,0,0c0,.01,0,.03-.01.04l-.04.17s-.01.1-.04.14l-.1.15-.23.24s-.04.04-.06.05l-.28.11s-.05.01-.08.01h-1s-.08,0-.11-.03l-.22-.09s-.07-.03-.1-.06l-.2-.2s-.05-.06-.06-.1l-.09-.22s-.03-.07-.03-.11l-.02-2.19s0-.02-.01-.02h-.03s-.05-.04-.06-.06l-.03-.03h-.44s-.03.02-.04.02l-.11.08v3l.16.41.33.33.41.16h1.95c.14,0,.25.11.25.25v22.7c0,.14-.11.25-.25.25h-27.2c-.14,0-.25-.11-.25-.25v-22.7c0-.14.11-.25.25-.25h1.91l.43-.17.18-.15.27-.41.06-.17-.02-2.99s0-.02-.01-.02h-.03s-.05-.04-.06-.06l-.03-.03h-.44s-.03.02-.04.02l-.11.08v2.04s0,.03,0,.05h0s0,0,0,0c0,.01,0,.03-.01.04l-.15.39s-.03.07-.06.1l-.2.2s-.04.03-.06.05l-.28.11s-.05.01-.08.01h-1s-.08,0-.11-.03l-.22-.09s-.07-.03-.1-.06l-.2-.2s-.05-.06-.06-.1l-.09-.22s-.03-.07-.03-.11v-10.2s0-.05.01-.08l.11-.28.12-.18s.06-.06.1-.08l.22-.14s.09-.04.14-.04h.06l.11-.04s.03,0,.04-.01c.02,0,.03,0,.05,0h.69s.03,0,.05,0c.01,0,.03,0,.04.01l.11.04h.11c.07,0,.13.03.18.07l.14.1s.07.05.1.08l.17.28.09.24s.02.04.03.07c0,.02,0,.04,0,.06v2.04s.02.03.02.04h0s.08.04.12.06l.49-.02s.05-.02.07-.02c0-.03.01-.05.02-.06l.02-.05v-2.9l-.07-.22-.26-.39-.39-.26-.22-.07h-2.46l-.21.08-.37.25-.18.23-.14.38v72.72l.16.45.16.16.4.26.17.06h28.25l.21-.08.42-.26.23-.35.09-.49v-52.83c0-.14.11-.25.25-.25h47.75c.14,0,.25.11.25.25l.03,1.37s.03.04.05.06v.03s.03,0,.04,0l.09.02.89-.02s.05-.02.08-.02h0s.01-.04.02-.05h0s0-.02,0-.02c0,0,0-.02,0-.02v-1.35c0-.14.11-.25.25-.25h46.95c.14,0,.25.11.25.25v1.4s.02.03.02.04h0s.08.04.12.06h.85s.08-.04.12-.05h0s.01-.04.02-.05h0c0-.05.02-.11.05-.15v-1.25c0-.14.11-.25.25-.25h53.85c.14,0,.25.11.25.25v50.45c0,.14-.11.25-.25.25h-19.25s-.03.06-.03.06c0,.01-.01.03-.02.04,0,0,0,.02,0,.02,0,0,0,.02,0,.02l.05.99.06.03s.03.01.04.02h19.15c.14,0,.25.11.25.25v1.75s.02.02.02.04l.04.06Zm-153.96-1.2h-27.2c-.14,0-.25-.11-.25-.25v-4.6c0-.14.11-.25.25-.25h1.4s.08-.04.12-.05h0s.01-.04.02-.05c0-.05.02-.11.05-.15l-.02-.74s-.03-.07-.03-.11l-.11-.08s-.03-.01-.04-.02h-1.35c-.14,0-.25-.11-.25-.25v-10.5c0-.14.11-.25.25-.25l1.5-.07s.01-.07.02-.09l.02-.05-.02-.78s-.02-.07-.03-.1l-.05-.05-.06-.03s-.03-.01-.04-.02h-1.35c-.14,0-.25-.11-.25-.25v-10.45c0-.14.11-.25.25-.25l1.34-.02s.07-.03.1-.03l.06-.07s.01-.07.02-.09l.02-.05-.02-.78s-.02-.07-.03-.1l-.06-.06h-1.49c-.14,0-.25-.11-.25-.25v-4.2c0-.14.11-.25.25-.25h27.2c.14,0,.25.11.25.25v4.2c0,.14-.11.25-.25.25l-1.54.05-.03.06s-.01.03-.02.04v.85s.02.03.02.04l.08.11s.08,0,.11.03l.05.02h1.34c.14,0,.25.11.25.25v10.45c0,.14-.11.25-.25.25l-1.47.03-.1.13s-.01.03-.02.04v.85s.02.03.02.04l.08.11h1.5c.14,0,.25.11.25.25v10.5c0,.14-.11.25-.25.25l-1.47.03-.13.17.03.87s.03.04.05.06v.03s.03,0,.04,0l.09.02h1.4c.14,0,.25.11.25.25v4.6c0,.14-.11.25-.25.25Zm-26.95-.5h26.7v-4.1h-1.25s-.08,0-.11-.03l-.06-.03c-.06-.01-.12-.03-.15-.06l-.05-.05s-.04-.04-.05-.07l-.05-.09s-.03-.04-.05-.06l-.05-.1s-.03-.07-.03-.11c0,0,0-.02,0-.03,0,0,0-.02,0-.02v-.95s0-.08.03-.11l.05-.1s.03-.04.05-.06l.2-.2s.04-.04.07-.05l.1-.05s.07-.03.11-.03h1.25v-10h-1.35c-.07,0-.13-.03-.18-.07l-.15-.15s-.04-.04-.05-.07l-.05-.08s-.07-.11-.07-.18v-1.05c0-.07.03-.13.07-.18l.05-.08s.03-.05.05-.06l.15-.15s.04-.03.06-.05l.1-.05s.07-.03.11-.03h1.25v-9.95h-1.14s-.05,0-.07,0c-.02,0-.03-.01-.05-.02l-.08-.02c-.07,0-.13-.03-.18-.07l-.15-.15s-.04-.04-.05-.07l-.05-.08s-.07-.11-.07-.18v-1.05c0-.07.03-.13.07-.18l.05-.08s.03-.05.05-.07l.15-.15s.11-.07.18-.07h1.35v-3.7h-26.7v3.7h1.25s.13,0,.16.03l.1.05s.05.03.07.05l.1.1s.03.04.05.06l.05.1s.02.07.03.1l.02.04s.02.04.02.06c0,.02,0,.04,0,.07v.84s0,.05,0,.07c0,.02-.01.04-.02.05l-.03.05s-.01.07-.02.09l-.05.1s-.03.05-.05.06l-.1.1s-.04.04-.07.05l-.1.05s-.07.02-.1.03l-.04.02s-.04.02-.06.02c0,0,0,0,0,0h0s-.03,0-.06,0h-1.1v9.95h1.2c.07,0,.13.03.18.07l.08.05s.05.03.07.05l.1.1s.03.04.05.06l.05.1s.02.07.03.1l.02.04s.02.04.02.06c0,.02,0,.04,0,.06v.84s0,.05,0,.07c0,.02-.01.04-.02.05l-.03.05s-.01.07-.02.09l-.05.1s-.03.05-.05.06l-.1.1s-.04.03-.06.05l-.1.05s-.07.03-.11.03h-1.25v10h1.2c.07,0,.13.03.18.07l.09.05s.05.03.06.05l.15.15s.07.11.07.18l.02.08s.02.03.02.05c0,.02,0,.05,0,.07v.84s0,.02,0,.03c0,.02,0,.04-.01.05,0,.02-.02.05-.04.07h0c0,.07-.03.13-.07.18l-.05.08s-.03.05-.05.07l-.05.05s-.11.07-.18.07h0s-.1.05-.15.05h-1.25v4.1Z"/>
  <path class="cls-1" d="m135.54,15.79v-.53l.68-.66c1.63-1.55,2.37-2.38,2.38-3.34,0-.65-.31-1.25-1.27-1.25-.58,0-1.06.3-1.36.54l-.28-.61c.44-.37,1.07-.65,1.81-.65,1.38,0,1.96.94,1.96,1.86,0,1.18-.86,2.13-2.2,3.43l-.51.47v.02h2.87v.72h-4.08Z"/>
</svg>