<?xml version="1.0" encoding="UTF-8"?>
<svg id="Capa_1" data-name="Capa 1" xmlns="http://www.w3.org/2000/svg" viewBox="0 0 300 127">
  <defs>
    <style>
      .cls-1 {
        fill: #818080;
      }

      .cls-2 {
        stroke: #818080;
        stroke-width: .25px;
      }

      .cls-2, .cls-3 {
        fill: none;
        stroke-linecap: round;
        stroke-linejoin: round;
      }

      .cls-3 {
        stroke: #727276;
        stroke-width: .5px;
      }
    </style>
  </defs>
  <line class="cls-2" x1="262.31" y1="14.07" x2="262.31" y2="54.73"/>
  <line class="cls-2" x1="250.97" y1="19.63" x2="17.89" y2="19.63"/>
  <polygon class="cls-1" points="262.31 19.63 251.59 17.58 251.59 21.69 262.31 19.63"/>
  <polygon class="cls-2" points="262.31 19.63 251.59 17.58 251.59 21.69 262.31 19.63"/>
  <polygon class="cls-1" points="7.16 19.63 17.89 17.58 17.89 21.69 7.16 19.63"/>
  <polygon class="cls-2" points="7.16 19.63 17.89 17.58 17.89 21.69 7.16 19.63"/>
  <line class="cls-2" x1="7.09" y1="14.07" x2="7.09" y2="37.42"/>
  <polygon class="cls-1" points="118.34 11.31 118.32 11.31 117.19 11.92 117.02 11.25 118.44 10.49 119.19 10.49 119.19 16.99 118.34 16.99 118.34 11.31"/>
  <path class="cls-1" d="m121.48,15.34c0-.82.49-1.4,1.29-1.74v-.03c-.73-.34-1.04-.9-1.04-1.46,0-1.03.87-1.73,2.01-1.73,1.26,0,1.89.79,1.89,1.6,0,.55-.27,1.14-1.07,1.52v.03c.81.32,1.31.89,1.31,1.68,0,1.13-.97,1.89-2.21,1.89-1.36,0-2.18-.81-2.18-1.76m3.5-.04c0-.79-.55-1.17-1.43-1.42-.76.22-1.17.72-1.17,1.34-.03.66.47,1.24,1.3,1.24s1.3-.49,1.3-1.16m-2.42-3.25c0,.65.49,1,1.24,1.2.56-.19.99-.59.99-1.18,0-.52-.31-1.06-1.1-1.06-.73,0-1.13.48-1.13,1.04"/>
  <path class="cls-1" d="m131.01,13.67c0,2.21-.82,3.43-2.26,3.43-1.27,0-2.13-1.19-2.15-3.34,0-2.18.94-3.38,2.26-3.38s2.15,1.22,2.15,3.29m-3.53.1c0,1.69.52,2.65,1.32,2.65.9,0,1.33-1.05,1.33-2.71s-.41-2.65-1.32-2.65c-.77,0-1.33.94-1.33,2.71"/>
  <line class="cls-2" x1="289.23" y1="116.62" x2="265.88" y2="116.62"/>
  <line class="cls-2" x1="283.66" y1="113.5" x2="283.66" y2="59.78"/>
  <polygon class="cls-1" points="283.66 116.62 285.72 105.89 281.61 105.89 283.66 116.62"/>
  <polygon class="cls-2" points="283.66 116.62 285.72 105.89 281.61 105.89 283.66 116.62"/>
  <polygon class="cls-1" points="283.66 59.78 285.72 70.5 281.61 70.5 283.66 59.78"/>
  <polygon class="cls-2" points="283.66 59.78 285.72 70.5 281.61 70.5 283.66 59.78"/>
  <line class="cls-2" x1="289.23" y1="59.7" x2="265.88" y2="59.7"/>
  <path class="cls-1" d="m286.3,85.76h1.77v-3.02h.58l4.15,2.9v.95h-4.04v.91h-.69v-.91h-1.77v-.83Zm2.46,0h2.17c.34,0,.68.01,1.02.03v-.03c-.38-.2-.66-.36-.96-.54l-2.21-1.59h-.02v2.13Z"/>
  <path class="cls-1" d="m289.62,92.49c-2.21,0-3.43-.82-3.43-2.26,0-1.27,1.19-2.13,3.34-2.15,2.18,0,3.38.94,3.38,2.26s-1.22,2.15-3.29,2.15m-.1-3.53c-1.69,0-2.65.52-2.65,1.32,0,.9,1.05,1.33,2.71,1.33s2.65-.41,2.65-1.32c0-.77-.94-1.33-2.71-1.33"/>
  <path class="cls-3" d="m86.74,63.84h.1l.1-.05.05-.05.05-.05.05-.05.05-.05.05-.1v-.1m0,0v-1.35m0,0h46.9m0,0v1.35m0,0v.1l.05.1.05.05.05.05.05.05.05.05.1.05h.1m0,0h.85m0,0h.05l.1-.05.05-.05.1-.05.05-.05v-.05l.05-.1v-.1m0,0v-1.35m0,0h46.9m0,0v1.35m0,0l.05.1v.1l.05.05.05.05.05.05.1.05.05.05h.1m0,0h.85m0,0h.1l.05-.05.1-.05.05-.05.05-.05.05-.05v-.2m0,0v-1.35m0,0h76.15m0,0v52.6m0,0h-19.15m0,0h-.1l-.05.05h-.1l-.05.1-.05.05-.05.05v.1l-.05.1m0,0v.85m0,0l.05.05v.1l.05.05.05.1.05.05h.1l.05.05h.1m0,0h20.4m0,0h.1l.05-.05h.1l.05-.05.05-.1.05-.05v-.1l.05-.05m0,0v-59.4m0,0l-.05-.1v-.05l-.05-.1-.05-.05-.05-.05-.1-.05-.05-.05h-.1m0,0h-.85m0,0h-.1l-.05.05-.1.05-.05.05-.05.05-.05.1v.15m0,0v3.8m0,0H37.74m0,0v-17.7m0,0l-.05-.3-.1-.25-.1-.25-.2-.2-.2-.2-.25-.1-.25-.1h-.3m0,0h-1.95m0,0h-.3l-.25.1-.25.1-.25.2-.15.2-.15.25-.05.25-.05.3m0,0v2.65m0,0v.1l.05.1.05.05.05.05.05.05.05.05.1.05h.1m0,0h.4m0,0h.1l.05-.05.1-.05.05-.05.05-.05.05-.05.05-.1v-.1m0,0v-1.95m0,0v-.15l.05-.1.05-.15.1-.1.1-.1.1-.05.15-.05h.15m0,0h.7m0,0h.15l.1.05.15.05.1.1.1.1.05.15.05.1v.15m0,0v9.95m0,0v.1l-.05.15-.05.1-.1.15-.1.05-.15.1-.1.05h-.15m0,0h-.7m0,0h-.15l-.15-.05-.1-.1-.1-.05-.1-.15-.05-.1-.05-.15v-.1m0,0v-2m0,0v-.05l-.05-.1-.05-.05-.05-.1-.05-.05h-.1l-.05-.05h-.1m0,0h-.4m0,0h-.1l-.1.05h-.05l-.05.05-.05.1-.05.05-.05.1v.05m0,0v2.7m0,0l.05.25.05.3.15.25.15.2.25.15.25.15.25.1h.3m0,0h1.7m0,0v22.7m0,0H8.79m0,0v-22.7m0,0h1.7m0,0h.3l.25-.1.25-.15.2-.15.2-.2.1-.25.1-.3.05-.25m0,0v-2.7m0,0l-.05-.05v-.1l-.05-.05-.05-.1-.05-.05h-.1l-.05-.05h-.1m0,0h-.4m0,0h-.1l-.1.05h-.05l-.05.05-.05.1-.05.05-.05.1v.05m0,0v2m0,0v.1l-.05.15-.05.1-.1.15-.1.05-.15.1-.1.05h-.15m0,0h-.7m0,0h-.15l-.15-.05-.1-.1-.1-.05-.1-.15-.05-.1-.05-.15v-.1m0,0v-9.95m0,0v-.15l.05-.1.05-.15.1-.1.1-.1.1-.05.15-.05h.15m0,0h.7m0,0h.15l.1.05.15.05.1.1.1.1.05.15.05.1v.15m0,0v1.95m0,0v.1l.05.1.05.05.05.05.05.05.05.05.1.05h.1m0,0h.4m0,0h.1l.05-.05.1-.05.05-.05.05-.05.05-.05v-.1l.05-.1m0,0v-2.65m0,0l-.05-.3-.1-.25-.1-.25-.2-.2-.2-.2-.25-.1-.25-.1h-.3m0,0h-1.95m0,0h-.3l-.25.1-.25.1-.2.2-.2.2-.15.25-.05.25-.05.3m0,0v72.3m0,0l.05.25.05.3.15.2.2.25.2.15.25.15.25.05.3.05m0,0h27.75m0,0l.3-.05.25-.05.25-.15.2-.15.2-.25.1-.2.1-.3.05-.25m0,0v-52.9m0,0h47.75m0,0v1.35m0,0v.2l.05.05.05.05.1.05.05.05.1.05h.05m0,0h.85M8.79,83.94h1.45m-1.45-4.15v4.15m27.25-4.15H8.79m27.25,4.15v-4.15m-1.45,4.15h1.45m-1.85.45v-.15l.05-.1.05-.05.05-.05.1-.05.1-.05h.05m-.4,1.3v-.85m.4,1.25h-.15l-.1-.05-.05-.05-.05-.05-.05-.1v-.15m1.85.4h-1.45m1.45,10.5v-10.5m-1.45,10.5h1.45m-1.85.45v-.2l.05-.05.05-.05.05-.05.1-.05.1-.05h.05m-.4,1.3v-.85m.4,1.25h-.05l-.1-.05h-.1l-.05-.05-.05-.1-.05-.05v-.15m1.85.4h-1.45m1.45,10.5v-10.5m-1.45,10.5h1.45m-1.85.4v-.15l.05-.05.05-.1.05-.05h.1l.1-.05h.05m-.4,1.25v-.85m.4,1.3h-.05l-.1-.05-.1-.05-.05-.05-.05-.05-.05-.05v-.2m1.85.45h-1.45m1.45,4.6v-4.6m-27.25,4.6h27.25m-27.25-4.6v4.6m1.45-4.6h-1.45m1.85-.45v.1l-.05.1v.05l-.05.05-.1.05-.05.05-.1.05h-.05m.4-1.3v.85m-.4-1.25h.05l.1.05h.05l.1.05.05.1v.05l.05.1v.05m-1.75-.4h1.35m-1.35-10.5v10.5m1.35-10.5h-1.35m1.75-.4v.05l-.05.1v.05l-.05.1-.1.05h-.05l-.1.05h-.05m.4-1.25v.85m-.4-1.3h.05l.1.05.05.05.1.05.05.05v.05l.05.1v.1m-1.75-.45h1.35m-1.35-10.5v10.5m1.35-10.5h-1.35m1.75-.4v.05l-.05.1v.1l-.05.05-.1.05-.05.05h-.15m.4-1.25v.85m-.4-1.3h.05l.1.05.05.05.1.05.05.05v.1l.05.05v.1"/>
</svg>