<?xml version="1.0" encoding="UTF-8"?>
<svg id="Capa_1" data-name="Capa 1" xmlns="http://www.w3.org/2000/svg" viewBox="0 0 300 127">
  <defs>
    <style>
      .cls-1 {
        fill: #818080;
      }

      .cls-2 {
        stroke: #818080;
        stroke-width: .25px;
      }

      .cls-2, .cls-3 {
        fill: none;
        stroke-linecap: round;
        stroke-linejoin: round;
      }

      .cls-3 {
        stroke: #727276;
        stroke-width: .5px;
      }
    </style>
  </defs>
  <line class="cls-2" x1="240.95" y1="13.66" x2="240.95" y2="54.32"/>
  <line class="cls-2" x1="229.49" y1="19.23" x2="38.95" y2="19.23"/>
  <polygon class="cls-1" points="240.95 19.23 230.23 17.17 230.23 21.28 240.95 19.23"/>
  <polygon class="cls-2" points="240.95 19.23 230.23 17.17 230.23 21.28 240.95 19.23"/>
  <polygon class="cls-1" points="28.23 19.23 38.95 17.17 38.95 21.28 28.23 19.23"/>
  <polygon class="cls-2" points="28.23 19.23 38.95 17.17 38.95 21.28 28.23 19.23"/>
  <line class="cls-2" x1="28.15" y1="13.66" x2="28.15" y2="37.01"/>
  <polygon class="cls-1" points="129.4 10.91 129.38 10.91 128.25 11.52 128.08 10.85 129.5 10.09 130.25 10.09 130.25 16.58 129.4 16.58 129.4 10.91"/>
  <path class="cls-1" d="m136.5,10.83h-2.48l-.25,1.67c.15-.02.29-.04.53-.04.5,0,1,.11,1.4.35.51.29.93.85.93,1.67,0,1.27-1.01,2.22-2.42,2.22-.71,0-1.31-.2-1.62-.4l.22-.67c.27.16.8.36,1.39.36.83,0,1.54-.54,1.54-1.41-.01-.84-.57-1.44-1.87-1.44-.37,0-.66.04-.9.07l.42-3.12h3.11v.74Z"/>
  <path class="cls-1" d="m142.07,13.27c0,2.21-.82,3.43-2.26,3.43-1.27,0-2.13-1.19-2.15-3.34,0-2.18.94-3.38,2.26-3.38s2.15,1.22,2.15,3.29m-3.53.1c0,1.69.52,2.65,1.32,2.65.9,0,1.33-1.05,1.33-2.71s-.41-2.65-1.32-2.65c-.77,0-1.33.94-1.33,2.71"/>
  <line class="cls-2" x1="268.17" y1="115.25" x2="244.82" y2="115.25"/>
  <line class="cls-2" x1="262.6" y1="115.25" x2="262.6" y2="61.53"/>
  <polygon class="cls-1" points="262.6 115.25 264.66 104.53 260.54 104.53 262.6 115.25"/>
  <polygon class="cls-2" points="262.6 115.25 264.66 104.53 260.54 104.53 262.6 115.25"/>
  <polygon class="cls-1" points="262.6 61.53 264.66 72.25 260.54 72.25 262.6 61.53"/>
  <polygon class="cls-2" points="262.6 61.53 264.66 72.25 260.54 72.25 262.6 61.53"/>
  <line class="cls-2" x1="268.17" y1="61.45" x2="244.82" y2="61.45"/>
  <path class="cls-1" d="m265.24,85.51h1.77v-3.02h.58l4.15,2.9v.95h-4.04v.91h-.69v-.91h-1.77v-.83Zm2.46,0h2.17c.34,0,.68.01,1.02.03v-.03c-.38-.2-.66-.36-.96-.54l-2.21-1.59h-.02v2.13Z"/>
  <path class="cls-1" d="m268.56,92.24c-2.21,0-3.43-.82-3.43-2.26,0-1.27,1.19-2.13,3.34-2.15,2.18,0,3.38.94,3.38,2.26s-1.22,2.15-3.29,2.15m-.1-3.53c-1.69,0-2.65.52-2.65,1.32,0,.9,1.05,1.33,2.71,1.33s2.65-.41,2.65-1.32c0-.77-.94-1.33-2.71-1.33"/>
  <path class="cls-3" d="m108.08,64.52h.2l.05-.05.05-.05.05-.1.05-.05.05-.1v-.05m0,0v-1.35m0,0h46.9m0,0v1.35m0,0v.05l.05.1v.05l.1.1.05.05.05.05h.2m0,0h.85m0,0h.15l.05-.05.1-.05.05-.1v-.05l.05-.1v-.05m0,0v-1.35m0,0h46.9m0,0v1.35m0,0v.05l.05.1.05.05.05.1.05.05.1.05h.15m0,0h.85m0,0h.15l.1-.05.05-.05.05-.1.05-.05v-.15m0,0v-1.35m0,0h33.6m0,0v50.45m0,0h-19.15m0,0h-.05l-.1.05h-.05l-.1.05-.05.1v.05l-.05.1v.05m0,0v.85m0,0v.1l.05.1v.05l.05.05.1.05.05.05.1.05h.05m0,0h19.15m0,0v1.7m0,0v.1l.05.05.05.1.05.05.05.05.05.05h.2m0,0h.85m0,0h.15l.05-.05.1-.05.05-.05v-.1l.05-.05v-.1m0,0v-57.25m0,0v-.1l-.05-.1v-.05l-.05-.05-.1-.05-.05-.05-.1-.05h-.05m0,0h-.85m0,0h-.1l-.1.05-.05.05-.05.05-.05.05-.05.05-.05.1v.1m0,0v1.7m0,0H59.03m0,0v-17.75m0,0v-.25l-.1-.25-.1-.25-.2-.25-.2-.15-.25-.15-.25-.05-.3-.05m0,0h-2m0,0l-.25.05-.25.05-.25.15-.25.15-.15.25-.15.25-.05.25-.05.25m0,0v2.7m0,0v.05l.05.1.05.05.05.1.05.05.05.05h.2m0,0h.4m0,0h.15l.1-.05.05-.05.05-.1.05-.05v-.1l.05-.05m0,0v-1.95m0,0v-.15l.05-.15.05-.1.1-.1.1-.1.1-.1h.15l.15-.05m0,0h.7m0,0l.15.05h.1l.15.1.1.1.1.1.05.1.05.15v.15m0,0v9.9m0,0v.15l-.05.1-.05.15-.1.1-.1.1-.15.05-.1.05h-.15m0,0h-.7m0,0h-.15l-.15-.05-.1-.05-.1-.1-.1-.1-.05-.15-.05-.1v-.15m0,0v-1.95m0,0l-.05-.1v-.05l-.05-.1-.05-.05-.05-.05-.1-.05h-.05l-.1-.05m0,0h-.4m0,0l-.1.05h-.1l-.05.05-.05.05-.05.05-.05.1-.05.05v.1m0,0v2.65m0,0l.05.3.05.25.15.25.15.2.25.2.25.1.25.1.25.05m0,0h1.7m0,0v22.65m0,0h-27.2m0,0v-22.65m0,0h1.7m0,0l.3-.05.25-.1.25-.1.2-.2.2-.2.1-.25.1-.25.05-.3m0,0v-2.65m0,0l-.05-.1v-.05l-.05-.1-.05-.05-.05-.05-.1-.05h-.05l-.1-.05m0,0h-.4m0,0l-.1.05h-.1l-.05.05-.05.05-.1.05v.1l-.05.05v.1m0,0v1.95m0,0v.15l-.05.1-.05.15-.1.1-.1.1-.15.05-.1.05h-.15m0,0h-.7m0,0h-.15l-.15-.05-.1-.05-.1-.1-.1-.1-.05-.15-.05-.1v-.15m0,0v-9.9m0,0v-.15l.05-.15.05-.1.1-.1.1-.1.1-.1h.15l.15-.05m0,0h.7m0,0l.15.05h.1l.15.1.1.1.1.1.05.1.05.15v.15m0,0v1.95m0,0v.05l.05.1v.05l.1.1.05.05.05.05h.2m0,0h.4m0,0h.15l.1-.05.05-.05.05-.1.05-.05v-.1l.05-.05m0,0v-2.7m0,0l-.05-.25-.1-.25-.1-.25-.2-.25-.2-.15-.25-.15-.25-.05-.3-.05m0,0h-1.95m0,0l-.3.05-.25.05-.25.15-.25.15-.15.25-.15.25-.05.25-.05.25m0,0v72.3m0,0l.05.3.05.25.15.25.15.2.25.2.25.1.25.1h.3m0,0h27.75m0,0h.3l.25-.1.25-.1.2-.2.2-.2.1-.25.1-.25v-.3m0,0v-52.85m0,0h47.8m0,0v1.35m0,0v.15l.05.05.05.1.1.05.05.05h.15m0,0h.85m-77.95,20.15h1.45m-1.45-4.2v4.2m27.2-4.2h-27.2m27.2,4.2v-4.2m-1.4,4.2h1.4m-1.8.4v-.15l.05-.1.05-.05.05-.05.1-.05h.15m-.4,1.25v-.85m.4,1.3h-.1l-.05-.05-.1-.05-.05-.05-.05-.05-.05-.1v-.15m1.8.45h-1.4m1.4,10.45v-10.45m-1.4,10.45h1.4m-1.8.45v-.15l.05-.1.05-.05.05-.05.1-.05h.05l.1-.05m-.4,1.3v-.85m.4,1.25h-.15l-.1-.05-.05-.05-.05-.05-.05-.1v-.15m1.8.4h-1.4m1.4,10.5v-10.5m-1.4,10.5h1.4m-1.8.45v-.2l.05-.05.05-.05.05-.05.1-.05.05-.05h.1m-.4,1.3v-.85m.4,1.25h-.15l-.1-.05-.05-.05-.05-.1-.05-.05v-.15m1.8.4h-1.4m1.4,4.6v-4.6m-27.2,4.6h27.2m-27.2-4.6v4.6m1.45-4.6h-1.45m1.85-.4v.05l-.05.1v.05l-.05.1-.1.05-.05.05h-.15m.4-1.25v.85m-.4-1.3h.05l.1.05.05.05.1.05.05.05v.05l.05.1v.1m-1.75-.45h1.35m-1.35-10.5v10.5m1.35-10.5h-1.35m1.75-.4v.1l-.05.05v.1l-.05.05-.1.05-.05.05h-.15m.4-1.25v.85m-.4-1.3l.05.05h.1l.05.05.1.05.05.05v.1l.05.05v.1m-1.75-.45h1.35m-1.35-10.45v10.45m1.35-10.45h-1.35m1.75-.45v.1l-.05.05v.1l-.05.05-.1.05-.05.05-.1.05h-.05m.4-1.3v.85m-.4-1.25h.15l.05.05.1.05.05.05v.1l.05.1v.05"/>
</svg>