<?xml version="1.0" encoding="UTF-8"?>
<svg id="Capa_1" data-name="Capa 1" xmlns="http://www.w3.org/2000/svg" viewBox="0 0 300 127">
  <defs>
    <style>
      .cls-1 {
        fill: #818080;
      }

      .cls-2 {
        fill: #727276;
      }
    </style>
  </defs>
  <path class="cls-1" d="m249.51,54.11c-.07,0-.12-.06-.12-.12V13.33c0-.07.06-.12.12-.12s.12.06.12.12v40.66c0,.07-.06.12-.12.12Z"/>
  <path class="cls-1" d="m239.12,19.02H29.51c-.07,0-.12-.06-.12-.12s.06-.12.12-.12h209.6c.07,0,.12.06.12.12s-.06.12-.12.12Z"/>
  <polygon class="cls-1" points="249.51 18.9 238.79 16.84 238.79 20.95 249.51 18.9"/>
  <path class="cls-1" d="m238.79,21.08s-.06,0-.08-.03c-.03-.02-.04-.06-.04-.1v-4.11s.02-.07.04-.1c.03-.02.07-.03.1-.03l10.72,2.06c.06.01.1.06.1.12s-.04.11-.1.12l-10.72,2.06s-.02,0-.02,0Zm.12-4.09v3.81l9.94-1.91-9.94-1.9Z"/>
  <polygon class="cls-1" points="18.79 18.9 29.51 16.84 29.51 20.95 18.79 18.9"/>
  <path class="cls-1" d="m29.51,21.08s-.02,0-.02,0l-10.72-2.06c-.06-.01-.1-.06-.1-.12s.04-.11.1-.12l10.72-2.06s.07,0,.1.03c.03.02.05.06.05.1v4.11s-.02.07-.05.1c-.02.02-.05.03-.08.03Zm-10.06-2.18l9.94,1.91v-3.81l-9.94,1.9Z"/>
  <path class="cls-1" d="m18.71,36.8c-.07,0-.12-.06-.12-.12V13.33c0-.07.06-.12.12-.12s.12.06.12.12v23.35c0,.07-.06.12-.12.12Z"/>
  <polygon class="cls-1" points="129.96 10.58 129.94 10.58 128.81 11.18 128.64 10.51 130.06 9.76 130.81 9.76 130.81 16.25 129.96 16.25 129.96 10.58"/>
  <path class="cls-1" d="m136.89,10.38c-.18-.01-.41,0-.66.04-1.38.23-2.11,1.24-2.26,2.31h.03c.31-.41.85-.75,1.57-.75,1.15,0,1.96.83,1.96,2.1,0,1.19-.81,2.29-2.16,2.29s-2.3-1.08-2.3-2.77c0-1.28.46-2.29,1.1-2.93.54-.53,1.26-.86,2.08-.96.26-.04.48-.05.64-.05v.72Zm-.25,3.75c0-.93-.53-1.49-1.34-1.49-.53,0-1.02.33-1.26.8-.06.1-.1.23-.1.39.02,1.07.51,1.86,1.43,1.86.76,0,1.27-.63,1.27-1.56"/>
  <path class="cls-1" d="m142.63,12.93c0,2.21-.82,3.43-2.26,3.43-1.27,0-2.13-1.19-2.15-3.34,0-2.18.94-3.38,2.26-3.38s2.15,1.22,2.15,3.29m-3.53.1c0,1.69.52,2.65,1.32,2.65.9,0,1.33-1.05,1.33-2.71s-.41-2.65-1.32-2.65c-.77,0-1.33.94-1.33,2.71"/>
  <path class="cls-1" d="m277.86,117h-23.35c-.07,0-.12-.06-.12-.12s.06-.12.12-.12h23.35c.07,0,.12.06.12.12s-.06.12-.12.12Z"/>
  <path class="cls-1" d="m272.29,114.89c-.07,0-.12-.06-.12-.12v-53.73c0-.07.06-.12.12-.12s.12.06.12.12v53.73c0,.07-.06.12-.12.12Z"/>
  <polygon class="cls-1" points="272.29 116.88 274.34 106.15 270.23 106.15 272.29 116.88"/>
  <path class="cls-1" d="m272.29,117c-.06,0-.11-.04-.12-.1l-2.06-10.72s0-.07.03-.1c.02-.03.06-.04.1-.04h4.11s.07.02.1.04c.02.03.03.07.03.1l-2.06,10.72c-.01.06-.06.1-.12.1Zm-1.9-10.72l1.9,9.94,1.9-9.94h-3.81Z"/>
  <polygon class="cls-1" points="272.29 61.04 274.34 71.76 270.23 71.76 272.29 61.04"/>
  <path class="cls-1" d="m274.35,71.89h-4.12s-.07-.02-.1-.04c-.02-.03-.03-.07-.03-.1l2.06-10.72c.02-.12.22-.12.25,0l2.05,10.69s.02.04.02.06c0,.07-.06.12-.12.12Zm-3.97-.25h3.81l-1.9-9.94-1.9,9.94Z"/>
  <path class="cls-1" d="m277.86,61.09h-23.35c-.07,0-.12-.06-.12-.12s.06-.12.12-.12h23.35c.07,0,.12.06.12.12s-.06.12-.12.12Z"/>
  <path class="cls-1" d="m274.93,87.02h1.77v-3.02h.58l4.15,2.9v.95h-4.04v.91h-.69v-.91h-1.77v-.83Zm2.46,0h2.17c.34,0,.68.01,1.02.03v-.03c-.38-.2-.66-.36-.96-.54l-2.21-1.59h-.02v2.13Z"/>
  <path class="cls-1" d="m278.25,93.75c-2.21,0-3.43-.82-3.43-2.26,0-1.27,1.19-2.13,3.34-2.15,2.18,0,3.38.94,3.38,2.26s-1.22,2.15-3.29,2.15m-.1-3.53c-1.69,0-2.65.52-2.65,1.32,0,.9,1.05,1.33,2.71,1.33s2.65-.41,2.65-1.32c0-.77-.94-1.33-2.71-1.33"/>
  <path class="cls-2" d="m47.92,117.35h-27.8s-.02,0-.03,0c0,0-.02,0-.03,0l-.54-.1s-.06-.02-.09-.03l-.47-.31s-.05-.04-.06-.07l-.3-.5-.12-.29s-.02-.06-.02-.09V43.1s0-.06.02-.09l.1-.25.33-.51.22-.23s.05-.04.08-.06l.56-.2.27-.06s.04,0,.06,0h1.99s.02,0,.03,0c.01,0,.02,0,.03,0l.24.05.59.21s.06.03.08.06l.2.2.17.23.16.27.12.29s.02.06.02.09v3.05s0,.13-.03.16l-.05.1s-.03.04-.04.06l-.05.05s-.04.04-.07.05l-.09.05s-.11.07-.18.07h0s-.03.02-.04.03c0,0,0,0,0,0-.03.01-.07.02-.11.02h-.45s-.07,0-.1-.02c0,0,0,0,0,0h0s-.03-.02-.05-.03h0s-.08,0-.11-.03l-.1-.05s-.05-.03-.06-.05l-.1-.1s-.03-.04-.04-.06l-.05-.1s-.03-.07-.03-.11v-2.06l-.04-.11s-.01-.05-.01-.08v-.02l-.09-.15-.25-.12h-.87l-.24.1-.16.26.02,10.16.06.06s.03.04.05.06l.03.06.11.1h.08s.08,0,.11.03l.05.02.68-.02s.07-.03.11-.03l.07-.03.15-.13s.03-.05.05-.07l.03-.03v-.05s0-.05.01-.08l.04-.11v-2.06c0-.07.03-.13.07-.18l.05-.08s.03-.05.05-.07l.05-.05s.04-.03.06-.05l.1-.05s.07-.03.11-.03h.75c.07,0,.13.03.18.07l.09.05s.09.06.11.11l.05.08s.07.11.07.18v.1s0,.02,0,.03c0,0,0,.02,0,.02v2.95s0,.06-.02.09l-.1.25-.32.54s-.04.05-.06.07l-.47.31s-.06.03-.09.03l-.54.1s-.03.01-.03,0h0s-.02,0-.03,0h-1.44v22.15h26.7v-22.15h-1.44s-.02,0-.03,0c-.01,0-.02,0-.03,0l-.54-.1s-.06-.02-.09-.03l-.47-.31s-.05-.04-.06-.07l-.3-.5-.12-.29s-.02-.06-.02-.09v-3.1c0-.07.03-.13.07-.18l.05-.08s.06-.09.11-.11l.08-.05s.11-.07.18-.07h.75c.07,0,.13.03.18.07l.09.05s.09.06.11.11l.05.08s.07.11.07.18v.1s0,.02,0,.03c0,0,0,.02,0,.02v1.91l.04.11s.01.05.01.08l.03.07s.03.04.05.07l.02.04.21.12s.08,0,.11.03l.05.02.68-.02s.07-.03.11-.03l.07-.03.15-.13s.03-.05.05-.07l.03-.03v-.05s0-.05.01-.08l.04-.11v-9.82l-.04-.11s-.01-.05-.01-.08v-.02l-.09-.15-.25-.12h-.87l-.25.12-.09.18s0,.05-.01.08l-.04.11v2.01s0,.13-.03.16l-.05.1s-.03.04-.04.06l-.05.05s-.04.04-.07.05l-.09.05s-.11.07-.18.07h0s-.03.02-.04.03c0,0,0,0,0,0-.03.01-.07.02-.11.02h-.45s-.07,0-.1-.02c0,0,0,0,0,0h0s-.03-.02-.05-.03h0c-.07,0-.13-.03-.18-.07l-.08-.05s-.05-.03-.07-.05l-.05-.05s-.03-.04-.04-.06l-.05-.1s-.03-.07-.03-.11v-3.1s0-.06.02-.09l.1-.25.33-.51.22-.23s.05-.04.08-.06l.56-.2.27-.06s.04,0,.06,0h1.99s.02,0,.03,0c.01,0,.02,0,.03,0l.24.05.59.21s.06.03.08.06l.2.2.17.23.16.27.12.29s.02.06.02.09v17.75h198.2v-3.65s0-.08.03-.11l.05-.1s.03-.05.05-.07l.15-.15s.04-.04.07-.05l.09-.05s.11-.07.17-.07h.95s.13,0,.16.03l.2.1s.04.03.06.04l.15.15s.07.11.07.17v59.75c0,.07-.03.13-.07.18l-.15.15s-.04.03-.06.04l-.2.1s-.09.03-.14.03c0,0-.02,0-.03,0h-20.5s-.08,0-.11-.03l-.1-.05s-.04-.03-.06-.05l-.2-.2s-.04-.04-.05-.07l-.05-.1s-.03-.07-.03-.11v-.95h0s0-.13.03-.16l.05-.1s.03-.05.05-.07l.05-.09s.03-.05.05-.06l.1-.1s.11-.07.18-.07h19.05v-52.1h-51.5v1.2c0,.05-.02.11-.05.15h0c0,.1-.05.18-.14.22l-.13.1s-.11.07-.18.07l-.08.02s-.05.02-.07.03h0s-.03,0-.05,0h-.85s-.08,0-.11-.03h0s-.03-.02-.04-.02c-.07,0-.13-.03-.18-.07l-.08-.05s-.05-.03-.07-.05l-.05-.05s-.07-.11-.07-.18c-.03-.04-.05-.1-.05-.15v-1.2h-46.4v1.2c0,.07-.03.13-.07.18l-.05.09s-.03.05-.05.06l-.1.1s-.04.04-.07.05l-.1.05s-.07.02-.1.03l-.04.02s-.05.02-.07.02c-.02,0-.03,0-.05,0h-.85s-.06,0-.09-.02h0s-.04-.02-.05-.03c-.04,0-.08,0-.11-.03l-.1-.05s-.04-.03-.06-.04l-.1-.1s-.04-.04-.05-.07l-.05-.1s-.03-.07-.03-.11v-1.25h-46.45v1.2s0,.13-.03.16l-.05.1s-.03.05-.05.07l-.1.1s-.04.03-.06.05l-.1.05s-.07.02-.1.03l-.04.02s-.04.02-.07.02c-.02,0-.04,0-.06,0h-.84s-.03,0-.05,0c-.03,0-.05-.01-.07-.03l-.05-.03s-.07-.01-.09-.02l-.1-.05s-.05-.03-.07-.05l-.1-.1s-.03-.04-.05-.07l-.05-.1s-.02-.07-.03-.1l-.02-.04s-.02-.04-.02-.07c0-.02,0-.04,0-.05v-1.1h-47.25v52.9s0,.06-.02.09l-.1.25-.32.54s-.04.05-.06.07l-.2.15-.27.16s-.06.03-.09.03l-.54.1s-.04,0-.05,0Zm181-.5l20.44-.02.11-.08-.05-59.59-.11-.06h-.84s-.02.02-.04.02l-.16.13v3.84c0,.14-.11.25-.25.25H49.31c-.14,0-.25-.11-.25-.25v-17.95l-.08-.21-.27-.39-.14-.14-.49-.18-.19-.04h-1.95l-.23.04-.46.17-.16.16-.26.4-.06.17v3s.06.03.06.03c.01,0,.03.01.04.02h0c.05,0,.11.02.15.05h.25s.1-.05.15-.05h0s.02-.02.04-.02l.06-.04v-2.04s0-.03,0-.04c0-.02,0-.03.01-.05l.04-.16s.01-.1.04-.14l.13-.22s.05-.07.08-.1l.28-.17.18-.06s.05-.01.08-.01h.95s.05,0,.08.01l.28.11.18.12s.06.06.08.1l.13.22s.04.09.04.14v.06l.04.11s0,.03.01.05c0,.01,0,.03,0,.04v9.89s0,.03,0,.04c0,.02,0,.03-.01.05l-.04.11v.11c0,.07-.03.13-.07.18l-.1.13s-.05.07-.08.1l-.21.17s-.11.07-.18.07l-.13.02s-.04.02-.06.02c-.02,0-.03,0-.06,0h-.74s-.04,0-.06,0c-.02,0-.04-.01-.06-.02l-.04-.02h-.09c-.07,0-.13-.03-.18-.07l-.21-.17s-.06-.06-.08-.1l-.03-.06-.07-.07s-.07-.11-.07-.18v-.11l-.04-.11s0-.03-.01-.05c0-.01,0-.03,0-.04v-1.99s-.02-.02-.02-.04l-.04-.04s-.03-.01-.04-.02h-.55s-.02.02-.04.02l-.04.04s-.02.03-.02.04c0,0,0,.02,0,.02,0,0,0,.02,0,.02v2.9l.08.21.26.42.35.23.49.09h1.68c.14,0,.25.11.25.25v22.65c0,.14-.11.25-.25.25h-27.2c-.14,0-.25-.11-.25-.25v-22.65c0-.14.11-.25.25-.25h1.68l.49-.09.35-.23.34-.63v-2.95s-.02-.02-.02-.04l-.04-.04s-.03-.01-.04-.02h-.6s-.03.06-.03.06c0,.01-.02.03-.02.04,0,0,0,.02,0,.02,0,0,0,.02,0,.02v1.94s0,.03,0,.04h0s0,0,0,0c0,.02,0,.03-.01.04l-.04.11v.11c0,.07-.03.13-.07.18l-.1.13s-.05.07-.08.1l-.21.17s-.11.07-.18.07l-.13.02s-.04.02-.06.02c-.02,0-.04,0-.06,0h-.74s-.04,0-.06,0c-.02,0-.04-.01-.06-.02l-.04-.02h-.09s-.1-.01-.14-.04l-.15-.1-.14-.13s-.03-.04-.05-.06l-.03-.06-.07-.07s-.05-.06-.06-.1l-.05-.15s-.01-.05-.01-.08v-10.2s0-.08.03-.11l.2-.35s.03-.04.05-.06l.1-.1s.06-.05.1-.06l.3-.1s.05-.01.08-.01h.95s.05,0,.08.01l.28.11.18.12s.06.06.08.1l.13.22s.04.09.04.14v.06l.04.11s0,.03.01.04c0,.02,0,.03,0,.05l.06,2.09h.04c.05,0,.11.02.15.05h.25s.1-.05.15-.05h0s.02-.02.04-.02l.06-.04v-2.99l-.08-.21-.27-.39-.14-.14-.49-.18-.19-.04h-1.95l-.23.04-.46.17-.16.16-.26.4-.06.17v72.76l.08.21.26.42.35.23.49.09h27.75l.49-.09.35-.23.34-.63v-53.1c0-.14.11-.25.25-.25h47.75c.14,0,.25.11.25.25l.02,1.34s.02.07.03.1l.07.06s.07.01.1.02l.05.02.78-.02s.07-.03.1-.03l.06-.06v-1.44c0-.14.11-.25.25-.25h46.95c.14,0,.25.11.25.25l.06,1.5h.04c.05,0,.11.02.15.05l.74-.02s.07-.03.1-.03l.05-.05.03-.06s.01-.03.02-.04v-1.35c0-.14.11-.25.25-.25h46.9c.14,0,.25.11.25.25v1.35s.04.08.05.12h.01s.03.02.04.03h0c.05,0,.11.02.15.05l.74-.02s.07-.03.11-.03l.03-.03s.02-.02.03-.03c0-.03.02-.07.04-.1v-1.35c0-.14.11-.25.25-.25h52c.14,0,.25.11.25.25v52.6c0,.14-.11.25-.25.25h-19.2l-.03.06s-.03.05-.05.06l-.03.03.03.91.17.13Zm-181.3-1.2h-27.2c-.14,0-.25-.11-.25-.25v-4.6c0-.14.11-.25.25-.25h1.4s.02-.02.04-.02l.11-.07.03-.06s.01-.03.02-.04l-.02-.89-.08-.11h-1.44c-.14,0-.25-.11-.25-.25v-10.5c0-.14.11-.25.25-.25h1.35s.03-.02.04-.02l.16-.13-.03-.91s-.03-.04-.05-.07h0s-.08-.04-.12-.06h-1.35c-.14,0-.25-.11-.25-.25v-10.5c0-.14.11-.25.25-.25h1.35s.08-.04.12-.05h0s.03-.06.05-.08l.03-.03-.03-.91-.13-.1s-.03-.01-.04-.02h-1.4c-.14,0-.25-.11-.25-.25v-4.2c0-.14.11-.25.25-.25h27.2c.14,0,.25.11.25.25v4.2c0,.14-.11.25-.25.25l-1.47.03-.13.17.03.87s.03.04.05.06l.02.03s.02,0,.02,0l.09.02h1.4c.14,0,.25.11.25.25v10.5c0,.14-.11.25-.25.25l-1.49.02s-.02,0-.02.01v.03s-.04.05-.06.07l-.03.03.03.91.17.13h1.4c.14,0,.25.11.25.25v10.5c0,.14-.11.25-.25.25l-1.54.05-.06.11v.84s.02.03.02.04l.13.16h1.44c.14,0,.25.11.25.25v4.6c0,.14-.11.25-.25.25Zm-26.95-.5h26.7v-4.1h-1.25s-.08,0-.11-.03l-.1-.05s-.05-.03-.07-.05l-.15-.15s-.04-.04-.05-.07l-.05-.08s-.07-.11-.07-.18v-1s0-.08.03-.11l.1-.2s.03-.05.05-.07l.15-.15s.11-.07.18-.07h1.35v-10h-1.25s-.08,0-.11-.03l-.1-.05s-.04-.03-.06-.05l-.2-.2s-.03-.04-.05-.07l-.05-.1s-.03-.07-.03-.11v-1s0-.08.03-.11l.05-.1s.03-.05.05-.06l.05-.08s.03-.05.05-.07l.05-.05s.1-.07.17-.07l.05-.02s.07-.03.11-.03h1.25v-10h-1.25s-.08,0-.11-.03l-.06-.03c-.06-.01-.12-.03-.15-.07l-.05-.05s-.03-.04-.04-.06l-.05-.08s-.03-.04-.05-.07l-.05-.1s-.03-.07-.03-.11c0,0,0-.02,0-.03,0,0,0-.02,0-.02v-.95s0-.08.03-.11l.05-.1s.03-.05.05-.06l.2-.2s.04-.04.07-.05l.1-.05s.07-.03.11-.03h1.25v-3.7h-26.7v3.7h1.25c.07,0,.13.03.18.07l.08.05s.05.03.07.05l.15.15s.03.04.05.07l.05.1s.03.07.03.11v1s0,.08-.03.11l-.05.1s-.03.05-.05.07l-.05.08s-.03.04-.04.06l-.05.05s-.11.08-.18.08h0s-.1.05-.15.05h-1.2v10h1.2c.05,0,.11.02.15.05h0c.07,0,.13.03.18.07l.05.05s.03.04.05.07l.05.08s.03.04.05.07l.05.1s.03.07.03.11c0,0,0,.02,0,.03,0,0,0,.02,0,.02v.95s0,.08-.03.11l-.05.1s-.03.05-.05.07l-.15.15s-.04.04-.07.05l-.08.05s-.11.08-.18.08h-1.2v10h1.2s.13,0,.16.03l.1.05s.05.03.07.05l.1.1s.04.04.05.07l.1.2s.03.07.03.11c0,0,0,.02,0,.03,0,0,0,.02,0,.02v.95c0,.07-.03.13-.07.18l-.05.08s-.03.05-.05.07l-.1.1s-.04.04-.07.05l-.08.05s-.11.07-.18.07h-1.25v4.1Z"/>
</svg>