<?xml version="1.0" encoding="UTF-8"?>
<svg id="Capa_1" data-name="Capa 1" xmlns="http://www.w3.org/2000/svg" viewBox="0 0 216.51 435.06">
  <defs>
    <style>
      .cls-1 {
        fill: gray;
      }

      .cls-2 {
        stroke-width: 6px;
      }

      .cls-2, .cls-3 {
        fill: none;
        stroke: gray;
        stroke-miterlimit: 10;
      }
    </style>
  </defs>
  <g>
    <g>
      <path class="cls-2" d="m86.99,164.37v-6.9c0-8.33-8.88-7.06-8.88-1.56v124.8h47.37"/>
      <path class="cls-2" d="m86.15,193.55v7.19c0,5.22-7.19,5.07-9.3,4.65"/>
    </g>
    <g>
      <path class="cls-2" d="m162.69,164.37v-6.9c0-8.33,8.88-7.06,8.88-1.56v124.8h-47.37"/>
      <path class="cls-2" d="m163.54,193.55v7.19c0,5.22,7.19,5.07,9.3,4.65"/>
    </g>
  </g>
  <g>
    <line class="cls-3" x1="38.53" y1="271.63" x2="40.15" y2="159.21"/>
    <polygon class="cls-1" points="42.93 268.72 38.35 284.92 34.22 268.6 42.93 268.72"/>
    <polygon class="cls-1" points="44.47 162.24 40.35 145.92 35.75 162.12 44.47 162.24"/>
  </g>
  <g>
    <path class="cls-1" d="m18.34,240.52l-9.34-1.01v-9.96h2.67v7.38l4.43.51c-.49-.86-.74-1.82-.74-2.9,0-1.77.57-3.14,1.69-4.12,1.13-.98,2.65-1.47,4.56-1.47s3.38.54,4.5,1.63c1.12,1.09,1.67,2.58,1.67,4.47,0,1.7-.48,3.1-1.45,4.22-.96,1.12-2.23,1.72-3.81,1.81v-2.99c.9-.12,1.59-.44,2.07-.97s.72-1.21.72-2.06c0-.95-.34-1.69-1.02-2.22-.68-.53-1.6-.79-2.78-.79s-2.02.29-2.68.88c-.66.59-.99,1.39-.99,2.42,0,.56.07,1.04.22,1.43s.44.81.87,1.27l-.61,2.47Z"/>
    <path class="cls-1" d="m19.73,214.45c2.67,0,4.67.5,6.03,1.5,1.35,1,2.03,2.51,2.03,4.55s-.66,3.51-1.98,4.53c-1.32,1.01-3.27,1.53-5.86,1.56h-3.21c-2.66,0-4.66-.5-6-1.5-1.33-1-2-2.52-2-4.56s.65-3.54,1.95-4.54c1.3-1,3.24-1.51,5.83-1.53h3.21Zm-3.46,3.09c-1.74,0-3.01.24-3.83.71-.81.47-1.22,1.23-1.22,2.27s.38,1.75,1.15,2.23c.77.48,1.97.73,3.6.75h4.2c1.73,0,3.02-.24,3.87-.73.85-.48,1.27-1.24,1.27-2.28s-.39-1.73-1.18-2.2-2.01-.73-3.69-.75h-4.19Z"/>
  </g>
  <g>
    <line class="cls-3" x1="132.34" y1="264.63" x2="132.34" y2="158.71"/>
    <polygon class="cls-1" points="136.7 261.66 132.35 277.92 127.99 261.66 136.7 261.66"/>
    <polygon class="cls-1" points="136.7 161.68 132.35 145.42 127.99 161.68 136.7 161.68"/>
  </g>
  <g>
    <path class="cls-1" d="m118.43,218.88v-2.3h2.48v2.3h4.12v3.09h-4.12v8.01l-1.88.09-12.53-8v-3.2h11.93Zm0,7.94v-4.85h-7.74l.41.23,7.33,4.62Z"/>
    <path class="cls-1" d="m111.39,202.86c.91,0,1.72.23,2.43.7.71.47,1.27,1.1,1.67,1.91.45-.97,1.07-1.71,1.85-2.23.78-.52,1.66-.78,2.65-.78,1.63,0,2.92.55,3.88,1.65.96,1.1,1.43,2.57,1.43,4.41s-.48,3.32-1.44,4.42-2.25,1.66-3.87,1.66c-.99,0-1.88-.26-2.67-.79s-1.4-1.26-1.82-2.21c-.41.8-.97,1.43-1.67,1.89-.71.46-1.52.69-2.43.69-1.58,0-2.83-.51-3.75-1.53-.93-1.02-1.39-2.39-1.39-4.12s.46-3.12,1.39-4.14c.92-1.02,2.18-1.53,3.75-1.53Zm.12,3.08c-.81,0-1.47.23-1.99.7-.52.47-.78,1.09-.78,1.88s.25,1.41.74,1.87c.5.46,1.17.69,2.03.69s1.52-.23,2.02-.69c.5-.46.75-1.09.75-1.88s-.25-1.42-.75-1.88c-.5-.46-1.17-.69-2.02-.69Zm8.33-.39c-.92,0-1.66.27-2.22.82-.56.55-.85,1.27-.85,2.17s.28,1.62.84,2.16c.56.54,1.3.81,2.23.81s1.63-.26,2.18-.79c.54-.53.82-1.26.82-2.2s-.26-1.66-.79-2.18c-.53-.52-1.26-.78-2.2-.78Z"/>
  </g>
  <g>
    <line class="cls-3" x1="85.63" y1="340.42" x2="160.55" y2="340.42"/>
    <polygon class="cls-1" points="88.6 344.78 72.34 340.42 88.6 336.06 88.6 344.78"/>
    <polygon class="cls-1" points="157.58 344.78 173.84 340.42 157.58 336.06 157.58 344.78"/>
  </g>
  <g>
    <path class="cls-1" d="m109.49,318.44h1.88c.95,0,1.7-.25,2.26-.74.55-.48.83-1.18.83-2.1s-.23-1.57-.69-2.06c-.46-.49-1.17-.73-2.12-.73-.83,0-1.51.24-2.05.72s-.8,1.11-.8,1.88h-3.09c0-.95.25-1.82.76-2.6.51-.78,1.21-1.39,2.11-1.83.9-.44,1.92-.66,3.04-.66,1.85,0,3.3.46,4.36,1.39,1.06.93,1.59,2.22,1.59,3.88,0,.83-.27,1.61-.8,2.35-.53.73-1.21,1.29-2.05,1.66,1.02.35,1.79.9,2.32,1.64.53.75.8,1.64.8,2.67,0,1.66-.57,2.99-1.71,3.97-1.14.98-2.64,1.48-4.5,1.48s-3.24-.48-4.38-1.43c-1.14-.95-1.71-2.22-1.71-3.79h3.09c0,.81.27,1.48.82,1.99.55.51,1.29.76,2.21.76s1.71-.25,2.27-.76c.55-.51.83-1.25.83-2.22s-.29-1.73-.87-2.25c-.58-.53-1.43-.79-2.57-.79h-1.82v-2.44Z"/>
    <path class="cls-1" d="m132.41,315.47c0,.91-.23,1.72-.7,2.43-.47.71-1.1,1.27-1.91,1.67.97.45,1.71,1.07,2.23,1.85.52.78.78,1.66.78,2.65,0,1.63-.55,2.92-1.65,3.88s-2.57,1.43-4.4,1.43-3.32-.48-4.42-1.44-1.66-2.25-1.66-3.87c0-.99.26-1.88.79-2.67.53-.79,1.27-1.4,2.21-1.82-.8-.41-1.43-.97-1.89-1.67-.46-.71-.69-1.52-.69-2.43,0-1.58.51-2.83,1.53-3.75,1.02-.93,2.39-1.39,4.12-1.39s3.12.46,4.14,1.39c1.02.92,1.53,2.18,1.53,3.75Zm-2.69,8.44c0-.92-.27-1.66-.82-2.22-.55-.56-1.27-.85-2.17-.85s-1.62.28-2.16.84c-.54.56-.81,1.3-.81,2.23s.27,1.63.79,2.18c.53.54,1.26.82,2.2.82s1.66-.26,2.18-.79c.52-.53.78-1.26.78-2.2Zm-.39-8.33c0-.81-.23-1.47-.7-1.99-.47-.52-1.1-.78-1.88-.78s-1.41.25-1.87.74c-.46.5-.69,1.17-.69,2.03s.23,1.52.69,2.02c.46.5,1.09.75,1.88.75s1.41-.25,1.88-.75c.46-.5.69-1.17.69-2.02Z"/>
    <path class="cls-1" d="m136.19,333.29l-1.67-.99c.49-.77.83-1.45,1.01-2.02.18-.57.28-1.16.29-1.75v-2.41h2.79v2.23c-.02.9-.25,1.8-.69,2.71s-1.02,1.65-1.72,2.23Z"/>
    <path class="cls-1" d="m144.86,318.44h1.88c.95,0,1.7-.25,2.26-.74.55-.48.83-1.18.83-2.1s-.23-1.57-.69-2.06c-.46-.49-1.17-.73-2.12-.73-.83,0-1.51.24-2.05.72s-.8,1.11-.8,1.88h-3.09c0-.95.25-1.82.76-2.6.51-.78,1.21-1.39,2.11-1.83.9-.44,1.92-.66,3.04-.66,1.85,0,3.3.46,4.36,1.39,1.06.93,1.59,2.22,1.59,3.88,0,.83-.27,1.61-.8,2.35-.53.73-1.21,1.29-2.05,1.66,1.02.35,1.79.9,2.32,1.64.53.75.8,1.64.8,2.67,0,1.66-.57,2.99-1.71,3.97-1.14.98-2.64,1.48-4.5,1.48s-3.24-.48-4.38-1.43c-1.14-.95-1.71-2.22-1.71-3.79h3.09c0,.81.27,1.48.82,1.99.55.51,1.29.76,2.21.76s1.71-.25,2.27-.76c.55-.51.83-1.25.83-2.22s-.29-1.73-.87-2.25c-.58-.53-1.43-.79-2.57-.79h-1.82v-2.44Z"/>
  </g>
  <g>
    <line class="cls-3" x1="103.87" y1="107.46" x2="144.79" y2="107.46"/>
    <polygon class="cls-1" points="106.85 111.82 90.58 107.46 106.85 103.1 106.85 111.82"/>
    <polygon class="cls-1" points="141.82 111.82 158.08 107.46 141.82 103.1 141.82 111.82"/>
  </g>
  <g>
    <path class="cls-1" d="m126.12,89.15h-12.46v-2.13l6.17-6.73c.89-.99,1.53-1.82,1.9-2.49.38-.67.57-1.33.57-2,0-.88-.25-1.6-.74-2.14-.5-.54-1.17-.81-2-.81-1,0-1.78.31-2.33.92-.55.61-.83,1.45-.83,2.51h-3.09c0-1.13.26-2.14.77-3.05.51-.9,1.25-1.61,2.2-2.11s2.06-.75,3.3-.75c1.8,0,3.22.45,4.26,1.36,1.04.9,1.56,2.15,1.56,3.75,0,.93-.26,1.9-.78,2.91-.52,1.01-1.38,2.17-2.57,3.46l-4.53,4.85h8.61v2.47Z"/>
    <path class="cls-1" d="m137.24,81.4c-1.04,1.09-2.25,1.64-3.63,1.64-1.63,0-2.93-.57-3.9-1.71-.97-1.14-1.45-2.64-1.45-4.5,0-1.22.25-2.33.74-3.32.49-.99,1.19-1.77,2.1-2.32s1.96-.83,3.16-.83c1.87,0,3.35.7,4.44,2.09,1.09,1.39,1.64,3.25,1.64,5.59v.87c0,3.34-.76,5.89-2.27,7.65s-3.76,2.65-6.76,2.67h-.37v-2.56h.45c1.83-.03,3.23-.46,4.2-1.32.98-.85,1.52-2.17,1.64-3.95Zm-2.98-.78c.62,0,1.2-.18,1.74-.54s.96-.85,1.26-1.48v-1.21c0-1.37-.28-2.47-.84-3.3-.56-.83-1.29-1.25-2.18-1.25s-1.6.37-2.13,1.1c-.53.73-.8,1.66-.8,2.78s.27,2.1.8,2.81c.54.71,1.25,1.07,2.14,1.07Z"/>
  </g>
</svg>