<?xml version="1.0" encoding="UTF-8"?>
<svg id="Capa_1" data-name="Capa 1" xmlns="http://www.w3.org/2000/svg" viewBox="0 0 216.51 435.06">
  <defs>
    <style>
      .cls-1 {
        stroke: #666;
        stroke-width: 6px;
      }

      .cls-1, .cls-2 {
        fill: none;
        stroke-miterlimit: 10;
      }

      .cls-3 {
        fill: gray;
      }

      .cls-2 {
        stroke: gray;
      }
    </style>
  </defs>
  <g>
    <line class="cls-1" x1="82.68" y1="256.83" x2="130.97" y2="256.83"/>
    <line class="cls-1" x1="82.25" y1="319.36" x2="100.79" y2="319.36"/>
    <line class="cls-1" x1="84.83" y1="153.77" x2="91.3" y2="153.77"/>
    <polyline class="cls-1" points="82.87 202.92 88.07 202.92 91.3 199.55 91.3 190.1"/>
    <path class="cls-1" d="m113.73,315.05h-11.44c-1.07,0-1.61.94-1.61,2.62v8.1"/>
    <line class="cls-1" x1="111.57" y1="343.51" x2="111.57" y2="351.7"/>
    <line class="cls-1" x1="130.97" y1="343.51" x2="130.97" y2="351.7"/>
    <line class="cls-1" x1="155.12" y1="343.51" x2="155.12" y2="351.7"/>
    <line class="cls-1" x1="166.33" y1="334.02" x2="175.39" y2="334.02"/>
    <line class="cls-1" x1="166.33" y1="273.22" x2="175.39" y2="273.22"/>
    <path class="cls-1" d="m108.59,256.83v12.92s-.41,2.75.9,3.47c.79.43,4.67.43,4.67.43"/>
    <path class="cls-1" d="m167.99,113.23c.03-2.92,0-7.33,0-10.35,0-6.75,7.76,2.53,7.76,4.74,0,21.13,1.72,205.26,1.29,236.74-.05,3.84-5.17,7.33-5.17,7.33h-84.45s-5.12-3.5-5.17-7.33c-.43-31.48,1.29-215.61,1.29-236.74,0-2.21,7.76-11.49,7.76-4.74,0,3.02-.03,7.43,0,10.35"/>
    <line class="cls-1" x1="176.61" y1="256.83" x2="128.32" y2="256.83"/>
    <line class="cls-1" x1="167.99" y1="141.7" x2="167.99" y2="165.84"/>
    <line class="cls-1" x1="174.46" y1="153.77" x2="167.99" y2="153.77"/>
    <polyline class="cls-1" points="176.42 202.92 171.22 202.92 167.99 199.55 167.99 190.1"/>
    <line class="cls-1" x1="83.11" y1="256.83" x2="131.41" y2="256.83"/>
    <line class="cls-1" x1="91.73" y1="141.7" x2="91.73" y2="165.84"/>
  </g>
  <g>
    <line class="cls-2" x1="37.61" y1="345.18" x2="37.61" y2="108.75"/>
    <polygon class="cls-3" points="41.97 342.2 37.62 358.47 33.26 342.2 41.97 342.2"/>
    <polygon class="cls-3" points="41.97 111.73 37.62 95.47 33.26 111.73 41.97 111.73"/>
  </g>
  <g>
    <path class="cls-3" d="m18.13,234.32v-1.88c0-.95-.25-1.7-.74-2.26-.48-.56-1.18-.83-2.1-.83s-1.57.23-2.06.69c-.49.46-.73,1.17-.73,2.12,0,.83.24,1.51.72,2.05.48.53,1.11.8,1.88.8v3.09c-.95,0-1.82-.25-2.6-.76-.78-.5-1.39-1.21-1.83-2.11-.44-.9-.66-1.92-.66-3.04,0-1.85.46-3.3,1.39-4.36.93-1.06,2.22-1.58,3.88-1.58.83,0,1.61.27,2.35.8s1.29,1.22,1.66,2.06c.35-1.02.9-1.79,1.64-2.32s1.64-.8,2.67-.8c1.66,0,2.99.57,3.97,1.71.98,1.14,1.48,2.64,1.48,4.5s-.48,3.24-1.43,4.38c-.95,1.14-2.22,1.71-3.79,1.71v-3.09c.81,0,1.48-.27,1.99-.82.51-.55.76-1.28.76-2.21s-.25-1.71-.76-2.27c-.51-.55-1.25-.83-2.22-.83s-1.73.29-2.25.87c-.53.58-.79,1.43-.79,2.57v1.82h-2.44Z"/>
    <path class="cls-3" d="m21,210.99c2.67,0,4.67.5,6.03,1.5,1.35,1,2.03,2.51,2.03,4.55s-.66,3.51-1.98,4.53c-1.32,1.01-3.27,1.53-5.86,1.56h-3.21c-2.66,0-4.66-.5-6-1.5-1.33-1-2-2.52-2-4.56s.65-3.54,1.95-4.54c1.3-1,3.24-1.51,5.83-1.53h3.21Zm-3.46,3.09c-1.74,0-3.01.24-3.83.71-.81.47-1.22,1.23-1.22,2.27s.38,1.75,1.15,2.23c.77.48,1.97.73,3.6.75h4.2c1.73,0,3.02-.24,3.87-.73.85-.48,1.27-1.24,1.27-2.28s-.39-1.73-1.18-2.2-2.01-.73-3.69-.75h-4.19Z"/>
    <path class="cls-3" d="m21,196.18c2.67,0,4.67.5,6.03,1.5,1.35,1,2.03,2.51,2.03,4.55s-.66,3.51-1.98,4.53c-1.32,1.01-3.27,1.53-5.86,1.56h-3.21c-2.66,0-4.66-.5-6-1.5-1.33-1-2-2.52-2-4.56s.65-3.54,1.95-4.54c1.3-1,3.24-1.51,5.83-1.53h3.21Zm-3.46,3.09c-1.74,0-3.01.24-3.83.71-.81.47-1.22,1.23-1.22,2.27s.38,1.75,1.15,2.23c.77.48,1.97.73,3.6.75h4.2c1.73,0,3.02-.24,3.87-.73.85-.48,1.27-1.24,1.27-2.28s-.39-1.73-1.18-2.2-2.01-.73-3.69-.75h-4.19Z"/>
  </g>
  <g>
    <line class="cls-2" x1="140.61" y1="243.18" x2="140.61" y2="113.75"/>
    <polygon class="cls-3" points="144.97 240.2 140.62 256.47 136.26 240.2 144.97 240.2"/>
    <polygon class="cls-3" points="144.97 116.73 140.62 100.47 136.26 116.73 144.97 116.73"/>
  </g>
  <g>
    <path class="cls-3" d="m109.68,183.27h2.56v.38c.03,1.73.5,3.11,1.43,4.15.93,1.04,2.24,1.65,3.93,1.85-1.04-.99-1.57-2.26-1.57-3.81,0-1.64.58-2.93,1.73-3.88s2.64-1.42,4.47-1.42,3.41.55,4.58,1.66,1.75,2.56,1.75,4.36-.68,3.35-2.05,4.5c-1.37,1.15-3.16,1.73-5.37,1.73h-1.06c-3.25,0-5.8-.79-7.64-2.37-1.84-1.58-2.76-3.86-2.76-6.83v-.32Zm8.85,3.32c0,.68.19,1.3.57,1.87s.89.98,1.53,1.24h.94c1.38,0,2.47-.29,3.28-.87s1.22-1.32,1.22-2.24-.34-1.64-1.03-2.18-1.59-.8-2.71-.8-2.03.27-2.74.81c-.7.54-1.06,1.26-1.06,2.16Z"/>
    <path class="cls-3" d="m128.31,169.7v3.08h-14.89l1.55,4.54h-2.6l-2.66-7.23v-.39h18.6Z"/>
  </g>
  <g>
    <line class="cls-2" x1="91.9" y1="420.97" x2="163.33" y2="420.97"/>
    <polygon class="cls-3" points="94.88 425.32 78.61 420.97 94.88 416.61 94.88 425.32"/>
    <polygon class="cls-3" points="160.35 425.32 176.61 420.97 160.35 416.61 160.35 425.32"/>
  </g>
  <g>
    <path class="cls-3" d="m112.26,398.98h1.88c.95,0,1.7-.25,2.26-.74.56-.48.83-1.18.83-2.1s-.23-1.57-.69-2.06c-.46-.49-1.17-.73-2.12-.73-.83,0-1.51.24-2.05.72-.53.48-.8,1.11-.8,1.88h-3.09c0-.95.25-1.82.76-2.6.5-.78,1.21-1.39,2.11-1.83.9-.44,1.92-.66,3.04-.66,1.85,0,3.3.46,4.36,1.39,1.06.93,1.58,2.22,1.58,3.88,0,.83-.27,1.61-.8,2.35s-1.22,1.29-2.06,1.66c1.02.35,1.79.9,2.32,1.64s.8,1.64.8,2.67c0,1.66-.57,2.99-1.71,3.97-1.14.98-2.64,1.48-4.5,1.48s-3.24-.48-4.38-1.43c-1.14-.95-1.71-2.22-1.71-3.79h3.09c0,.81.27,1.48.82,1.99.55.51,1.28.76,2.21.76s1.71-.25,2.27-.76c.55-.51.83-1.25.83-2.22s-.29-1.73-.87-2.25c-.58-.53-1.43-.79-2.57-.79h-1.82v-2.44Z"/>
    <path class="cls-3" d="m135.17,396.01c0,.91-.23,1.72-.7,2.43-.47.71-1.1,1.27-1.91,1.67.97.45,1.71,1.07,2.23,1.85.52.78.78,1.66.78,2.65,0,1.63-.55,2.92-1.65,3.88-1.1.96-2.57,1.43-4.41,1.43s-3.32-.48-4.42-1.44-1.66-2.25-1.66-3.87c0-.99.26-1.88.79-2.67s1.26-1.4,2.21-1.82c-.8-.41-1.43-.97-1.89-1.67-.46-.71-.69-1.52-.69-2.43,0-1.58.51-2.83,1.53-3.75,1.02-.93,2.39-1.39,4.12-1.39s3.12.46,4.14,1.39c1.02.92,1.53,2.18,1.53,3.75Zm-2.69,8.44c0-.92-.27-1.66-.82-2.22-.55-.56-1.27-.85-2.17-.85s-1.62.28-2.16.84c-.54.56-.81,1.3-.81,2.23s.26,1.63.79,2.18c.53.54,1.26.82,2.2.82s1.66-.26,2.18-.79c.52-.53.78-1.26.78-2.2Zm-.39-8.33c0-.81-.23-1.47-.7-1.99-.47-.52-1.09-.78-1.88-.78s-1.41.25-1.87.74c-.46.5-.69,1.17-.69,2.03s.23,1.52.69,2.02c.46.5,1.09.75,1.88.75s1.42-.25,1.88-.75c.46-.5.69-1.17.69-2.02Z"/>
    <path class="cls-3" d="m138.96,413.84l-1.67-.99c.49-.77.83-1.45,1.01-2.02.18-.57.28-1.16.29-1.75v-2.41h2.79v2.23c-.02.9-.25,1.8-.69,2.71s-1.02,1.65-1.72,2.23Z"/>
    <path class="cls-3" d="m156.38,392.84l-7.41,16.82h-3.25l7.4-16.05h-9.59v-2.48h12.85v1.72Z"/>
  </g>
  <g>
    <line class="cls-2" x1="107.4" y1="52.97" x2="148.33" y2="52.97"/>
    <polygon class="cls-3" points="110.38 57.32 94.11 52.97 110.38 48.61 110.38 57.32"/>
    <polygon class="cls-3" points="145.35 57.32 161.61 52.97 145.35 48.61 145.35 57.32"/>
  </g>
  <g>
    <path class="cls-3" d="m127.65,38.66h-12.46v-2.13l6.17-6.73c.89-.99,1.53-1.82,1.9-2.49.38-.67.57-1.33.57-2,0-.88-.25-1.6-.74-2.14-.5-.54-1.17-.81-2-.81-1,0-1.78.31-2.33.92-.55.61-.83,1.45-.83,2.51h-3.09c0-1.13.26-2.14.77-3.05.51-.9,1.25-1.61,2.2-2.11s2.06-.75,3.3-.75c1.8,0,3.22.45,4.26,1.36,1.04.9,1.56,2.15,1.56,3.75,0,.93-.26,1.9-.78,2.91-.52,1.01-1.38,2.17-2.57,3.46l-4.53,4.85h8.61v2.47Z"/>
    <path class="cls-3" d="m130.83,29.47l1.01-9.34h9.96v2.67h-7.38l-.51,4.43c.86-.49,1.82-.74,2.9-.74,1.77,0,3.14.57,4.12,1.69.98,1.13,1.47,2.65,1.47,4.56s-.54,3.38-1.63,4.5c-1.09,1.12-2.58,1.67-4.47,1.67-1.7,0-3.1-.48-4.22-1.45-1.12-.96-1.72-2.23-1.81-3.81h2.99c.12.9.44,1.59.97,2.07s1.21.72,2.06.72c.95,0,1.69-.34,2.22-1.02.53-.68.79-1.6.79-2.78s-.29-2.02-.88-2.68c-.59-.66-1.39-.99-2.42-.99-.56,0-1.04.07-1.43.22s-.81.44-1.27.87l-2.47-.61Z"/>
  </g>
</svg>