<?xml version="1.0" encoding="UTF-8"?>
<svg id="Capa_1" data-name="Capa 1" xmlns="http://www.w3.org/2000/svg" viewBox="0 0 300 127">
  <defs>
    <style>
      .cls-1 {
        fill: #818080;
      }

      .cls-2 {
        fill: #727276;
      }
    </style>
  </defs>
  <path class="cls-1" d="m183,19.95h-75.33c-.07,0-.12-.06-.12-.12s.06-.12.12-.12h75.33c.07,0,.12.06.12.12s-.06.12-.12.12Z"/>
  <polygon class="cls-1" points="129.76 19.83 119.04 17.77 119.04 21.88 129.76 19.83"/>
  <path class="cls-1" d="m119.04,22.01s-.06,0-.08-.03c-.03-.02-.04-.06-.04-.1v-4.11s.02-.07.04-.1c.03-.02.07-.03.1-.03l10.72,2.06c.06.01.1.06.1.12s-.04.11-.1.12l-10.72,2.06s-.02,0-.02,0Zm.12-4.09v3.81l9.94-1.9-9.94-1.9Z"/>
  <polygon class="cls-1" points="161.2 19.83 171.93 17.77 171.93 21.88 161.2 19.83"/>
  <path class="cls-1" d="m171.93,22.01s-.02,0-.02,0l-10.73-2.06c-.06-.01-.1-.06-.1-.12s.04-.11.1-.12l10.73-2.06s.07,0,.1.03c.03.02.04.06.04.1v4.11s-.02.07-.04.1c-.02.02-.05.03-.08.03Zm-10.06-2.18l9.94,1.9v-3.81l-9.94,1.9Z"/>
  <path class="cls-1" d="m129.76,37.73c-.07,0-.12-.06-.12-.12V14.26c0-.07.06-.12.12-.12s.12.06.12.12v23.35c0,.07-.06.12-.12.12Z"/>
  <path class="cls-1" d="m140.1,17.18v-.54l.69-.67c1.66-1.58,2.41-2.42,2.42-3.4,0-.66-.32-1.27-1.29-1.27-.59,0-1.08.3-1.38.55l-.28-.62c.45-.38,1.09-.66,1.84-.66,1.4,0,1.99.96,1.99,1.89,0,1.2-.87,2.17-2.24,3.49l-.52.48v.02h2.92v.73h-4.15Z"/>
  <path class="cls-1" d="m145.23,17.18v-.54l.69-.67c1.66-1.58,2.41-2.42,2.42-3.4,0-.66-.32-1.27-1.29-1.27-.59,0-1.08.3-1.38.55l-.28-.62c.45-.38,1.09-.66,1.84-.66,1.4,0,1.99.96,1.99,1.89,0,1.2-.87,2.17-2.24,3.49l-.52.48v.02h2.92v.73h-4.15Z"/>
  <path class="cls-1" d="m188.78,115.98h-23.35c-.07,0-.12-.06-.12-.12s.06-.12.12-.12h23.35c.07,0,.12.06.12.12s-.06.12-.12.12Z"/>
  <path class="cls-1" d="m183.21,115.98c-.07,0-.12-.06-.12-.12v-64c0-.07.06-.12.12-.12s.12.06.12.12v64c0,.07-.06.12-.12.12Z"/>
  <polygon class="cls-1" points="183.21 115.85 185.27 105.13 181.16 105.13 183.21 115.85"/>
  <path class="cls-1" d="m183.21,115.98c-.06,0-.11-.04-.12-.1l-2.06-10.73s0-.07.03-.1c.02-.03.06-.05.1-.05h4.11s.07.02.1.05c.02.03.03.07.03.1l-2.06,10.73c-.01.06-.06.1-.12.1Zm-1.9-10.73l1.9,9.94,1.91-9.94h-3.81Z"/>
  <polygon class="cls-1" points="183.21 41.13 185.27 51.85 181.16 51.85 183.21 41.13"/>
  <path class="cls-1" d="m185.28,51.98h-4.12s-.07-.02-.1-.05c-.02-.03-.03-.07-.03-.1l2.06-10.73c.02-.12.22-.12.25,0l2.05,10.69s.02.04.02.06c0,.07-.06.12-.12.12Zm-3.97-.25h3.81l-1.91-9.94-1.9,9.94Z"/>
  <path class="cls-1" d="m188.78,41.18h-23.35c-.07,0-.12-.06-.12-.12s.06-.12.12-.12h23.35c.07,0,.12.06.12.12s-.06.12-.12.12Z"/>
  <path class="cls-1" d="m191.61,72.27v-2.48l-1.67-.25c.02.15.04.29.04.53,0,.5-.11,1-.35,1.4-.29.51-.85.93-1.67.93-1.27,0-2.22-1.01-2.22-2.42,0-.71.2-1.31.4-1.62l.67.22c-.16.27-.36.8-.36,1.39,0,.83.54,1.54,1.41,1.54.84-.01,1.44-.57,1.44-1.87,0-.37-.04-.66-.07-.9l3.12.42v3.11h-.74Z"/>
  <path class="cls-1" d="m185.86,73.52h.54l.67.69c1.58,1.66,2.42,2.41,3.4,2.42.66,0,1.27-.32,1.27-1.29,0-.59-.3-1.08-.55-1.38l.62-.28c.38.45.66,1.09.66,1.84,0,1.4-.96,1.99-1.89,1.99-1.2,0-2.17-.87-3.49-2.24l-.48-.52h-.02v2.92h-.73v-4.15Z"/>
  <path class="cls-1" d="m186.38,78.72c.37,0,.63.25.63.6s-.26.59-.63.59-.63-.23-.63-.6c0-.35.27-.59.63-.59"/>
  <path class="cls-1" d="m191.73,84.43c0-.18,0-.41-.04-.66-.23-1.38-1.24-2.11-2.31-2.26v.03c.41.31.75.85.75,1.57,0,1.15-.83,1.96-2.1,1.96-1.19,0-2.29-.81-2.29-2.16s1.08-2.3,2.77-2.3c1.28,0,2.29.46,2.93,1.1.53.54.86,1.26.96,2.08.04.26.05.48.05.64h-.72Zm-3.75-.25c.93,0,1.49-.53,1.49-1.34,0-.53-.33-1.02-.8-1.26-.1-.06-.23-.1-.39-.1-1.07.02-1.86.51-1.86,1.43,0,.76.63,1.27,1.56,1.27"/>
  <path class="cls-1" d="m160.76,37.73c-.07,0-.12-.06-.12-.12V14.26c0-.07.06-.12.12-.12s.12.06.12.12v23.35c0,.07-.06.12-.12.12Z"/>
  <path class="cls-2" d="m159.46,116.42h-27.79s-.02,0-.03,0c0,0-.02,0-.03,0l-.54-.1s-.08-.02-.11-.05l-.43-.29s-.06-.05-.08-.09l-.3-.5-.12-.29s-.02-.06-.02-.09V42.17s0-.06.02-.09l.1-.25.33-.51s.03-.03.04-.04l.25-.2.25-.13.33-.11s.05-.01.08-.01h2.55s.06,0,.09.02l.5.2s.06.03.08.06l.4.4s.04.05.06.08l.2.5s.02.06.02.09v3.05s0,.13-.03.16l-.05.1s-.03.04-.04.06l-.1.1s-.04.03-.06.05l-.2.1s-.09.03-.14.02c0,0-.02,0-.02,0h-.45s-.12,0-.16-.03l-.1-.05s-.05-.03-.06-.05l-.09-.05s-.05-.03-.07-.05l-.05-.05s-.03-.04-.05-.06l-.05-.1s-.03-.07-.03-.11l-.02-2.24-.16-.24-.26-.07h-.81l-.25.12-.1.18s0,.05-.01.08l-.04.11.02,9.9s.03.07.03.11l.03.07s.05.06.06.1l.04.04s.07.03.1.06l.03.03h.05s.08,0,.11.03l.05.02.68-.02s.07-.03.11-.03h.07l.12-.08.02-.05s.03-.07.06-.1l.08-.11v-2.21c0-.07.03-.13.07-.18l.05-.08s.06-.09.11-.11l.1-.05s.07-.02.1-.03l.05-.02s.09-.03.14-.03c0,0,.02,0,.02,0h.45s.12,0,.16.03l.09.02c.07,0,.13.03.18.07l.05.05s.04.04.05.07l.05.08s.08.11.08.18v.1s0,.02,0,.02c0,0,0,.02,0,.02v2.95s0,.05-.01.08l-.1.3-.11.23-.23.29s-.03.03-.05.04l-.47.31-.29.12s-.06.02-.09.02h-1.75v22.2h26.7v-22.2h-1.7s-.05,0-.08-.01l-.3-.1-.3-.17-.22-.16s-.05-.04-.07-.07l-.29-.43s-.03-.05-.04-.07l-.1-.3s-.01-.05-.01-.08v-3.1c0-.07.03-.13.07-.18l.05-.08s.06-.09.11-.11l.1-.05s.07-.02.1-.03l.05-.02s.09-.03.14-.03c0,0,.02,0,.02,0h.55c.05,0,.11.02.15.05h0c.07,0,.13.03.18.07l.05.05s.04.04.05.07l.05.08s.08.11.08.18v.1s0,.02,0,.02c0,0,0,.02,0,.02l.02,1.99s.03.07.03.11l.03.07.14.15s.05.03.06.05l.03.03h.05s.05,0,.08.01l.11.04.65-.02s.07-.03.11-.03h.07l.12-.08.02-.05s.03-.07.06-.1l.08-.11-.02-10.15-.16-.24-.27-.07h-.81l-.14.05-.2.25s0,.05-.01.08l-.04.11v2.01s0,.13-.03.16l-.05.1s-.03.04-.05.06l-.1.1s-.04.03-.06.05l-.09.06s-.11.07-.17.07h-.55s-.12,0-.16-.03l-.1-.05s-.05-.03-.06-.05l-.09-.05s-.05-.03-.07-.05l-.05-.05s-.03-.04-.05-.06l-.05-.1s-.03-.07-.03-.11v-3.1s0-.06.02-.09l.1-.25.33-.51.22-.23s.05-.04.08-.06l.56-.21s.05-.01.08-.01h2.5s.05,0,.08.01l.56.21s.06.03.08.06l.2.2.17.23.16.27.12.29s.02.06.02.09v72.85s0,.06-.02.09l-.1.25-.32.54s-.04.05-.06.07l-.47.31s-.06.03-.09.03l-.54.1s-.04,0-.05,0Zm-27.78-.5h27.75l.49-.09.35-.23.34-.63V42.22l-.08-.2-.27-.39-.14-.14-.45-.16h-2.42l-.45.16-.16.16-.26.4-.06.17v3s.06.03.06.03c.02.01.05.03.06.05l.03.03h.44s.02-.02.04-.02l.11-.09v-2.03s0-.03,0-.05c0-.02,0-.03.01-.04l.04-.17s.01-.1.04-.14l.1-.15.23-.24s.04-.04.07-.05l.28-.11s.05-.01.08-.01h.95s.05,0,.08.01l.3.1s.07.03.1.06l.1.1s.03.04.05.06l.2.35s.03.07.03.11v10.2s0,.05-.01.08l-.05.15s-.03.07-.06.1l-.06.06-.03.09c-.02.06-.07.11-.12.14l-.22.14s-.09.04-.14.04l-.13.02s-.04.02-.06.02c-.02,0-.04,0-.06,0h-.69s-.03,0-.04,0c-.02,0-.03,0-.05-.01l-.11-.04h-.11c-.07,0-.13-.03-.18-.07l-.13-.1s-.07-.05-.1-.08l-.17-.21s-.07-.11-.07-.18l-.02-.13s-.02-.04-.02-.06c0-.02,0-.04,0-.06v-2.04s-.02-.03-.02-.04h0s-.08-.04-.12-.06l-.49.02s-.05.02-.08.02h0s-.01.04-.02.05h0s0,.02,0,.02c0,0,0,.02,0,.02v2.91l.07.22.26.4.39.26.21.06h1.91c.14,0,.25.11.25.25v22.7c0,.14-.11.25-.25.25h-27.2c-.14,0-.25-.11-.25-.25v-22.7c0-.14.11-.25.25-.25h1.95l.2-.08.37-.25.18-.23.15-.38v-2.96s-.02-.03-.02-.04h0s-.06-.02-.08-.04l-.05-.02-.48.02s-.05.02-.08.02h0s-.01.04-.02.05h0s0,.02,0,.02c0,0,0,.02,0,.02v2.1s0,.05-.01.08l-.05.15s-.03.07-.06.1l-.06.06-.03.09c-.02.06-.07.12-.13.14l-.22.13s-.09.04-.14.04l-.13.02s-.04.02-.06.02c-.02,0-.02,0-.06,0h-.74s-.04,0-.06,0c-.02,0-.04-.01-.06-.02l-.04-.02h-.09c-.07,0-.13-.03-.18-.07l-.06-.06-.09-.03c-.07-.02-.13-.08-.16-.16l-.03-.09-.06-.06s-.07-.11-.07-.18l-.02-.13s-.02-.04-.02-.06c0-.02,0-.04,0-.06v-9.94s0-.03,0-.05c0-.02,0-.03.01-.04l.04-.17s.01-.1.04-.14l.13-.22s.05-.07.08-.1l.28-.17.18-.06s.05-.01.08-.01h.95s.05,0,.08.01l.3.1s.07.03.1.06l.1.1s.04.04.05.07l.2.35s.03.07.03.11v2.2s.06.03.06.03c.02.01.05.03.06.05l.03.03.48-.02.11-.09v-2.99l-.16-.41-.33-.33-.41-.16h-2.46l-.43.17-.18.15-.27.41-.07.17v72.75l.08.2.25.41.37.25.47.09Zm27.48-1.2h-27.2c-.14,0-.25-.11-.25-.25v-4.6c0-.14.11-.25.25-.25l1.47-.03.13-.17-.03-.87s-.03-.04-.05-.06l-.03-.06h-1.45c-.14,0-.25-.11-.25-.25v-10.5c0-.14.11-.25.25-.25l1.44-.02s.02,0,.02-.01v-.03s.04-.05.06-.07l.03-.03-.03-.91-.05-.05s-.03-.04-.04-.06l-.08-.02h-1.35c-.14,0-.25-.11-.25-.25v-10.5c0-.14.11-.25.25-.25h1.45l.03-.06s.03-.05.05-.06l.03-.03-.03-.91-.17-.13h-1.4c-.14,0-.25-.11-.25-.25v-4.15c0-.14.11-.25.25-.25h27.2c.14,0,.25.11.25.25v4.15c0,.14-.11.25-.25.25h-1.4s-.02.02-.04.02l-.11.08s0,.07-.03.11l-.02.05v.69s.05.1.05.15h0s.02.03.02.04l.04.06h1.49c.14,0,.25.11.25.25v10.5c0,.14-.11.25-.25.25h-1.4s-.06.04-.1.04c0,.01-.02.02-.03.03l-.03.03s0,.07-.03.11l-.02.05v.69s.05.1.05.15h0s.02.02.02.04h0s.08.04.12.06h1.4c.14,0,.25.11.25.25v10.5c0,.14-.11.25-.25.25h-1.5s-.03.06-.03.06c0,.01-.01.03-.02.04h0c0,.05-.02.11-.05.15l.02.74s.03.07.03.11l.11.08s.03.01.04.02h1.4c.14,0,.25.11.25.25v4.6c0,.14-.11.25-.25.25Zm-26.95-.5h26.7v-4.1h-1.25c-.07,0-.13-.03-.18-.07l-.08-.05s-.05-.03-.07-.05l-.15-.15s-.07-.11-.07-.18l-.02-.08s-.02-.04-.02-.06c0-.02,0-.04,0-.06v-.84h0s0-.07.02-.09h0s0,0,0,0c0-.02.02-.04.03-.06h0c0-.07.03-.13.07-.18l.05-.09s.03-.05.05-.06l.05-.05s.04-.04.07-.05l.1-.05s.07-.03.11-.03h1.3v-10h-1.25c-.05,0-.11-.02-.15-.05-.07,0-.13-.03-.18-.07l-.05-.05s-.04-.04-.05-.07l-.05-.08s-.07-.11-.07-.18h0s-.02-.04-.03-.06h0s-.02-.05-.02-.08h0v-.85s0-.04,0-.06c0-.02.01-.04.02-.06l.02-.08c0-.07.03-.13.07-.18l.1-.13c.04-.08.13-.14.22-.14.04-.03.1-.05.15-.05h1.25v-10h-1.25s-.13,0-.16-.03l-.1-.05s-.05-.03-.07-.05l-.05-.05s-.03-.04-.05-.06l-.05-.09s-.07-.11-.07-.18h0s-.02-.04-.03-.05h0s-.02-.06-.02-.09h0v-.85s0-.04,0-.06c0-.02.01-.04.02-.06l.02-.08c0-.07.03-.13.07-.18l.15-.15s.04-.04.07-.05l.08-.05s.11-.07.18-.07h1.25v-3.65h-26.7v3.65h1.25s.08,0,.11.03l.1.05s.05.03.07.05l.2.2s.03.04.04.06l.05.1s.03.07.03.11v1s0,.08-.03.11l-.05.1s-.03.04-.04.06l-.05.09s-.03.05-.05.06l-.1.1s-.11.07-.18.07h-1.3v10h1.2s.08,0,.11.03l.07.03c.08.02.16.07.19.13l.1.13s.03.04.05.06l.05.1s.03.07.03.11v1s0,.08-.03.11l-.05.1s-.03.04-.05.06l-.05.08s-.03.05-.05.07l-.05.05s-.1.07-.17.07l-.05.02s-.07.03-.11.03h-1.2v10h1.3c.07,0,.13.03.18.07l.1.1s.03.04.05.06l.05.09s.03.04.04.06l.05.1s.03.07.03.11c0,0,0,.02,0,.02,0,0,0,.02,0,.02v.95s0,.08-.03.11l-.05.1s-.03.04-.04.06l-.2.2s-.04.04-.07.05l-.1.05s-.07.03-.11.03h-1.25v4.1Z"/>
</svg>