<?xml version="1.0" encoding="UTF-8"?>
<svg id="Capa_1" data-name="Capa 1" xmlns="http://www.w3.org/2000/svg" viewBox="0 0 300 127">
  <defs>
    <style>
      .cls-1 {
        fill: #818080;
      }

      .cls-2 {
        fill: #727276;
      }
    </style>
  </defs>
  <path class="cls-1" d="m252.91,115.61c-.07,0-.12-.06-.12-.12v-23.35c0-.07.06-.12.12-.12s.12.06.12.12v23.35c0,.07-.06.12-.12.12Z"/>
  <path class="cls-1" d="m252.91,110.83H92.91c-.07,0-.12-.06-.12-.12s.06-.12.12-.12h160c.07,0,.12.06.12.12s-.06.12-.12.12Z"/>
  <polygon class="cls-1" points="252.91 110.71 242.18 108.65 242.18 112.76 252.91 110.71"/>
  <path class="cls-1" d="m242.18,112.89s-.06,0-.08-.03c-.03-.02-.05-.06-.05-.1v-4.11s.02-.07.05-.1c.03-.02.07-.03.1-.03l10.73,2.06c.06.01.1.06.1.12s-.04.11-.1.12l-10.73,2.06s-.02,0-.02,0Zm.12-4.09v3.81l9.94-1.9-9.94-1.91Z"/>
  <polygon class="cls-1" points="82.18 110.71 92.91 108.65 92.91 112.76 82.18 110.71"/>
  <path class="cls-1" d="m92.91,112.89s-.02,0-.02,0l-10.73-2.06c-.06-.01-.1-.06-.1-.12s.04-.11.1-.12l10.73-2.06s.07,0,.1.03c.03.02.05.06.05.1v4.11s-.02.07-.05.1c-.02.02-.05.03-.08.03Zm-10.06-2.18l9.94,1.9v-3.81l-9.94,1.91Z"/>
  <path class="cls-1" d="m82.11,115.61c-.07,0-.12-.06-.12-.12v-23.35c0-.07.06-.12.12-.12s.12.06.12.12v23.35c0,.07-.06.12-.12.12Z"/>
  <polygon class="cls-1" points="162.36 102.38 162.34 102.38 161.21 102.99 161.04 102.32 162.46 101.56 163.21 101.56 163.21 108.06 162.36 108.06 162.36 102.38"/>
  <path class="cls-1" d="m165.58,108.06v-.54l.69-.67c1.66-1.58,2.41-2.42,2.42-3.4,0-.66-.32-1.27-1.29-1.27-.59,0-1.08.3-1.38.55l-.28-.62c.45-.38,1.09-.66,1.84-.66,1.4,0,1.99.96,1.99,1.89,0,1.2-.87,2.17-2.24,3.49l-.52.48v.02h2.92v.73h-4.15Z"/>
  <path class="cls-1" d="m175.03,104.74c0,2.21-.82,3.43-2.26,3.43-1.27,0-2.13-1.19-2.15-3.34,0-2.18.94-3.38,2.26-3.38s2.15,1.22,2.15,3.29m-3.53.1c0,1.69.52,2.65,1.32,2.65.9,0,1.33-1.05,1.33-2.71s-.41-2.65-1.32-2.65c-.77,0-1.33.94-1.33,2.71"/>
  <path class="cls-1" d="m76.49,87.61h-23.35c-.07,0-.12-.06-.12-.12s.06-.12.12-.12h23.35c.07,0,.12.06.12.12s-.06.12-.12.12Z"/>
  <path class="cls-1" d="m57.93,87.61c-.07,0-.12-.06-.12-.12V11.51c0-.07.06-.12.12-.12s.12.06.12.12v75.97c0,.07-.06.12-.12.12Z"/>
  <polygon class="cls-1" points="57.93 87.49 59.98 76.76 55.87 76.76 57.93 87.49"/>
  <path class="cls-1" d="m57.93,87.61c-.06,0-.11-.04-.12-.1l-2.06-10.72s0-.07.03-.1c.02-.03.06-.04.1-.04h4.11s.07.02.1.04c.02.03.03.07.03.1l-2.06,10.72c-.01.06-.06.1-.12.1Zm-1.9-10.72l1.9,9.94,1.9-9.94h-3.81Z"/>
  <polygon class="cls-1" points="57.93 11.76 59.98 22.49 55.87 22.49 57.93 11.76"/>
  <path class="cls-1" d="m59.99,22.61h-4.12s-.07-.02-.1-.04c-.02-.03-.03-.07-.03-.1l2.06-10.72c.02-.12.22-.12.25,0l2.05,10.69s.02.04.02.06c0,.07-.06.12-.12.12Zm-3.97-.25h3.81l-1.9-9.94-1.9,9.94Z"/>
  <path class="cls-1" d="m76.49,11.81h-23.35c-.07,0-.12-.06-.12-.12s.06-.12.12-.12h23.35c.07,0,.12.06.12.12s-.06.12-.12.12Z"/>
  <path class="cls-1" d="m47.68,49.51v2.48l1.67.25c-.02-.15-.04-.29-.04-.53,0-.5.11-1,.35-1.4.29-.51.85-.93,1.67-.93,1.27,0,2.22,1.01,2.22,2.42,0,.71-.2,1.31-.4,1.62l-.67-.22c.16-.27.36-.8.36-1.39,0-.83-.54-1.54-1.41-1.54-.84.01-1.44.57-1.44,1.87,0,.37.04.66.07.9l-3.12-.42v-3.11h.74Z"/>
  <path class="cls-1" d="m53.44,48.26h-.54l-.67-.69c-1.58-1.66-2.42-2.41-3.4-2.42-.66,0-1.27.32-1.27,1.29,0,.59.3,1.08.55,1.38l-.62.28c-.38-.45-.66-1.09-.66-1.84,0-1.4.96-1.99,1.89-1.99,1.2,0,2.17.87,3.49,2.24l.48.52h.02v-2.92h.73v4.15Z"/>
  <path class="cls-1" d="m52.92,43.06c-.37,0-.63-.25-.63-.6s.26-.59.63-.59.63.23.63.6-.27.59-.63.59"/>
  <path class="cls-1" d="m52.82,40.55c.02-.19,0-.41-.03-.71-.07-.51-.28-.99-.63-1.36-.39-.43-.96-.74-1.73-.86v.03c.44.36.7.88.7,1.53,0,1.17-.88,1.92-1.99,1.92-1.23,0-2.31-.89-2.31-2.22s1.08-2.15,2.74-2.15c1.43,0,2.43.48,3.05,1.12.49.5.79,1.19.87,1.89.05.32.06.6.05.81h-.72Zm-3.74-.32c.81,0,1.38-.49,1.38-1.25,0-.59-.29-1.05-.68-1.28-.08-.05-.18-.08-.32-.08-1.11,0-1.96.41-1.96,1.33,0,.75.66,1.28,1.58,1.28"/>
  <path class="cls-2" d="m252.32,87.04H83.97s-.06,0-.09-.02l-.25-.1-.51-.33-.23-.22-.19-.3s-.03-.06-.03-.09l-.1-.54s0-.02,0-.03c0,0,0-.02,0-.03V13.09s0-.02,0-.03c0-.01,0-.02,0-.03l.1-.54s.02-.06.03-.09l.15-.25.24-.25.23-.17.27-.16.29-.12s.06-.02.09-.02h2.55s.06,0,.09.02l.25.1.51.33.23.22.19.3s.03.06.03.09l.1.54s0,.02,0,.03c0,0,0,.02,0,.03v2.75s0,.08-.03.11l-.05.1s-.03.05-.05.07l-.1.13c-.04.08-.13.14-.22.14h0s-.1.05-.15.05h-.6s-.08,0-.11-.03l-.07-.03c-.08-.02-.16-.06-.19-.13l-.1-.13s-.04-.04-.05-.07l-.05-.1s-.03-.07-.03-.11v-2.11l-.1-.24-.26-.16-.96.02-.06.06s-.04.03-.06.05l-.09.06-.07.27.02,10.09.04.13.19.16.08.02.95-.02.13-.04.12-.12.07-.26v-2.05s0-.08.03-.11l.05-.1s.03-.05.05-.07l.2-.2s.04-.04.07-.05l.1-.05s.07-.03.11-.03h.6c.07,0,.13.03.18.07l.08.05s.05.03.07.05l.15.15s.03.04.05.07l.05.1s.03.07.03.11v2.75s0,.02,0,.03c0,.01,0,.02,0,.03l-.1.54s-.02.06-.03.09l-.15.25-.24.25-.23.17-.27.16-.29.12s-.06.02-.09.02h-1.75v22.2h26.75v-22.2h-1.75s-.06,0-.09-.02l-.25-.1-.51-.33-.23-.22-.19-.3s-.03-.06-.03-.09l-.1-.54s0-.02,0-.03c0,0,0-.02,0-.03v-2.75s0-.08.03-.11l.05-.1s.03-.05.05-.07l.2-.2s.04-.04.07-.05l.1-.05s.07-.03.11-.03h.6c.07,0,.13.03.18.07l.08.05s.05.03.07.05l.15.15s.03.04.05.07l.05.1s.03.07.03.11l.02,2.19.04.13.19.16.08.02h.92l.14-.05.13-.13.07-.27v-10.01l-.1-.24-.06-.03s-.04-.03-.06-.05l-.11-.08-.97.02-.06.06s-.04.03-.06.05l-.09.06-.07.27v2.05s0,.08-.03.11l-.05.1s-.03.05-.05.07l-.1.13c-.04.08-.13.14-.22.14h0s-.1.05-.15.05h-.6s-.08,0-.11-.03l-.07-.03c-.08-.02-.16-.06-.19-.13l-.1-.13s-.04-.04-.05-.07l-.05-.1s-.03-.07-.03-.11v-2.75s0-.02,0-.03c0-.01,0-.02,0-.03l.1-.54s.02-.06.03-.09l.15-.25.24-.25.23-.17.27-.16.29-.12s.06-.02.09-.02h2.55s.06,0,.09.02l.25.1.51.33.23.22s.04.05.06.08l.21.56.06.27s0,.02,0,.02c0,.01,0,.03,0,.04v71.34h138.6s.05,0,.08.01l.28.12.17.11s.07.06.09.1l.2.35s.03.07.03.11v1s0,.08-.03.11l-.2.35s-.05.07-.09.1l-.28.17-.18.06s-.05.01-.08.01Zm-.15-.5h.11l.25-.12.14-.24-.02-.93-.12-.19-.24-.12H113.47c-.14,0-.25-.11-.25-.25V13.11l-.05-.23-.17-.46-.16-.16-.4-.26-.17-.07h-2.46l-.2.08-.39.27-.17.18-.09.16-.09.49.03,2.7.05.05s.03.03.04.05l.08.02h.4s.06-.04.1-.04c0-.01.02-.02.03-.03l.08-.12v-2.05s0-.05.01-.08l.1-.3s.03-.07.06-.1l.1-.1s.04-.03.06-.05l.14-.1s.06-.05.1-.06l.15-.05s.05-.01.08-.01h1s.05,0,.08.01l.15.05s.07.03.1.06l.14.1s.04.03.06.05l.1.1s.05.06.06.1l.1.3s.01.05.01.08v10.2s0,.08-.03.11l-.09.22s-.03.07-.06.1l-.2.2s-.04.04-.07.05l-.28.11s-.05.01-.08.01h-1s-.05,0-.08-.01l-.28-.11s-.05-.03-.07-.05l-.2-.2s-.05-.06-.06-.1l-.09-.22s-.03-.07-.03-.11l-.03-2.17-.13-.1s-.03-.01-.04-.02l-.47.03-.13.17v2.62l.09.49.13.21.34.28.4.2h1.95c.14,0,.25.11.25.25v22.7c0,.14-.11.25-.25.25h-27.25c-.14,0-.25-.11-.25-.25v-22.7c0-.14.11-.25.25-.25h1.95l.2-.08.39-.27.17-.18.09-.16.09-.49-.03-2.7-.13-.1s-.03-.01-.04-.02l-.47.03-.13.17v2.1s0,.08-.03.11l-.09.22s-.03.07-.06.1l-.2.2s-.06.05-.1.06l-.22.09s-.07.03-.11.03h-1s-.05,0-.08-.01l-.28-.11s-.05-.03-.07-.05l-.2-.2s-.05-.06-.06-.1l-.09-.22s-.03-.07-.03-.11v-10.2s0-.05.01-.08l.1-.3s.03-.07.06-.1l.1-.1s.04-.03.06-.05l.14-.1s.06-.05.1-.06l.15-.05s.05-.01.08-.01h1s.08,0,.11.03l.35.2s.04.03.06.05l.1.1s.05.06.06.1l.1.3s.01.05.01.08l.03,2.12.05.05s.03.03.04.05l.08.02h.4s.06-.04.1-.04c0-.01.02-.02.03-.03l.08-.12v-2.62l-.09-.49-.13-.21-.34-.28-.4-.2h-2.45l-.2.08-.39.27-.17.18-.09.16-.09.49v72.25l.09.49.13.21.34.28.4.2h168.15Zm-140.4-1.2h-27.25c-.14,0-.25-.11-.25-.25v-4.6c0-.14.11-.25.25-.25l1.49-.02s.05-.02.08-.02h0s.01-.04.02-.05h0s0-.02,0-.03c0,0,0-.02,0-.02l-.03-.97-.04-.04s-.03,0-.05-.01l-.05-.02h-1.34c-.14,0-.25-.11-.25-.25v-10.5c0-.14.11-.25.25-.25h1.4s.03-.02.04-.02l.04-.04s.01-.03.02-.04h0s0-.02,0-.03c0,0,0-.02,0-.02v-.95l-.06-.03s-.05-.03-.07-.05l-.03-.03h-1.34c-.14,0-.25-.11-.25-.25v-10.5c0-.14.11-.25.25-.25h1.4s.02-.02.04-.02l.06-.04v-1.04s-.06-.03-.06-.03c-.01,0-.02-.01-.04-.02h0c-.05,0-.11-.02-.15-.05h-1.35c-.14,0-.25-.11-.25-.25v-4.15c0-.14.11-.25.25-.25h27.25c.14,0,.25.11.25.25v4.15c0,.14-.11.25-.25.25h-1.35s-.1.05-.15.05h0s-.02.02-.04.02l-.06.04v1.04s.06.03.06.03c.01,0,.02.01.04.02h1.5c.14,0,.25.11.25.25v10.5c0,.14-.11.25-.25.25l-1.47.03s-.04.04-.07.05l-.06.03v1s.02.03.02.04l.04.04s.03.01.04.02h1.5c.14,0,.25.11.25.25v10.5c0,.14-.11.25-.25.25l-1.49.02s-.03.01-.05.02l-.06.06v1s.02.03.02.04v.02s.07.01.09.02l.05.02h1.44c.14,0,.25.11.25.25v4.6c0,.14-.11.25-.25.25Zm-27-.5h26.75v-4.1h-1.25s-.08,0-.11-.03l-.06-.03s-.07-.01-.09-.02l-.1-.05s-.09-.06-.11-.11l-.05-.09s-.07-.11-.07-.18v-.1s0-.02,0-.03c0,0,0-.02,0-.02v-1.05c0-.07.03-.13.07-.18l.2-.2s.1-.07.17-.07l.05-.02s.09-.03.14-.03c0,0,.02,0,.02,0h1.2v-10h-1.35c-.07,0-.13-.03-.18-.08l-.08-.05s-.09-.06-.11-.11l-.05-.08s-.07-.11-.07-.18v-.1s0-.02,0-.03c0,0,0-.02,0-.02v-1.05c0-.07.03-.13.07-.18l.1-.1s.04-.04.07-.05l.08-.05s.04-.04.07-.05l.1-.05s.09-.03.14-.03c0,0,.02,0,.02,0h1.2v-10h-1.35c-.07,0-.13-.03-.18-.07l-.09-.05s-.04-.03-.06-.05l-.05-.05s-.03-.04-.05-.06l-.05-.1s-.03-.07-.03-.11v-1.1s0-.13.03-.16l.05-.1s.03-.05.05-.06l.05-.05s.04-.03.06-.05l.09-.05s.11-.07.18-.07h0s.03-.02.05-.03h0s.06-.02.1-.02h1.2v-3.65h-26.75v3.65h1.2s.01,0,.02,0h0s.05,0,.07.01h0s0,0,0,0h0s.04.02.06.03h0c.07,0,.13.03.18.07l.09.05s.04.03.06.04l.05.05s.04.04.05.07l.05.1s.03.07.03.11v1.1s0,.13-.03.16l-.05.1s-.03.05-.05.07l-.05.05s-.04.03-.06.04l-.09.05s-.11.07-.18.07h-1.25v10h1.15s.08,0,.11.03l.1.05s.05.03.07.05l.08.05s.05.03.07.05l.1.1s.07.11.07.18v1.2c0,.07-.03.13-.07.18l-.05.08s-.06.09-.11.11l-.08.05s-.11.08-.18.08h-1.25v10h1.15s.08,0,.11.03l.06.03c.06.01.12.03.15.07l.2.2s.07.11.07.17v1.2c0,.07-.03.13-.07.17l-.06.09s-.06.09-.11.11l-.1.05s-.07.02-.1.03l-.05.02s-.09.03-.14.03c0,0-.02,0-.02,0h-1.2v4.1Z"/>
</svg>