<?xml version="1.0" encoding="UTF-8"?>
<svg id="Capa_1" data-name="Capa 1" xmlns="http://www.w3.org/2000/svg" viewBox="0 0 300 127">
  <defs>
    <style>
      .cls-1 {
        fill: #818080;
      }

      .cls-2 {
        stroke: #818080;
        stroke-width: .25px;
      }

      .cls-2, .cls-3 {
        fill: none;
        stroke-linecap: round;
        stroke-linejoin: round;
      }

      .cls-3 {
        stroke: #727276;
        stroke-width: .5px;
      }
    </style>
  </defs>
  <line class="cls-2" x1="280.29" y1="92.14" x2="280.29" y2="115.49"/>
  <line class="cls-2" x1="269.56" y1="110.71" x2="65.29" y2="110.71"/>
  <polygon class="cls-1" points="280.29 110.71 269.56 108.65 269.56 112.76 280.29 110.71"/>
  <polygon class="cls-2" points="280.29 110.71 269.56 108.65 269.56 112.76 280.29 110.71"/>
  <polygon class="cls-1" points="54.56 110.71 65.29 108.65 65.29 112.76 54.56 110.71"/>
  <polygon class="cls-2" points="54.56 110.71 65.29 108.65 65.29 112.76 54.56 110.71"/>
  <line class="cls-2" x1="54.49" y1="92.14" x2="54.49" y2="115.49"/>
  <polygon class="cls-1" points="159.74 102.38 159.72 102.38 158.59 102.99 158.42 102.32 159.84 101.56 160.59 101.56 160.59 108.06 159.74 108.06 159.74 102.38"/>
  <path class="cls-1" d="m166.67,102.18c-.18-.01-.41,0-.66.04-1.38.23-2.11,1.24-2.26,2.31h.03c.31-.41.85-.75,1.57-.75,1.15,0,1.96.83,1.96,2.1,0,1.19-.81,2.29-2.16,2.29s-2.3-1.08-2.3-2.77c0-1.28.46-2.29,1.1-2.93.54-.53,1.26-.86,2.08-.96.26-.04.48-.05.64-.05v.72Zm-.25,3.75c0-.93-.53-1.49-1.34-1.49-.53,0-1.02.33-1.26.8-.06.1-.1.23-.1.39.02,1.07.51,1.86,1.43,1.86.76,0,1.27-.63,1.27-1.56"/>
  <path class="cls-1" d="m172.41,104.74c0,2.21-.82,3.43-2.26,3.43-1.27,0-2.13-1.19-2.15-3.34,0-2.18.94-3.38,2.26-3.38s2.15,1.22,2.15,3.29m-3.53.1c0,1.69.52,2.65,1.32,2.65.9,0,1.33-1.05,1.33-2.71s-.41-2.65-1.32-2.65c-.77,0-1.33.94-1.33,2.71"/>
  <line class="cls-2" x1="48.87" y1="87.49" x2="25.52" y2="87.49"/>
  <line class="cls-2" x1="30.3" y1="87.49" x2="30.3" y2="11.51"/>
  <polygon class="cls-1" points="30.3 87.49 32.36 76.76 28.25 76.76 30.3 87.49"/>
  <polygon class="cls-2" points="30.3 87.49 32.36 76.76 28.25 76.76 30.3 87.49"/>
  <polygon class="cls-1" points="30.3 11.76 32.36 22.49 28.25 22.49 30.3 11.76"/>
  <polygon class="cls-2" points="30.3 11.76 32.36 22.49 28.25 22.49 30.3 11.76"/>
  <line class="cls-2" x1="48.87" y1="11.69" x2="25.52" y2="11.69"/>
  <path class="cls-1" d="m20.06,55.51v2.48l1.67.25c-.02-.15-.04-.29-.04-.53,0-.5.11-1,.35-1.4.29-.51.85-.93,1.67-.93,1.27,0,2.22,1.01,2.22,2.42,0,.71-.2,1.31-.4,1.62l-.67-.22c.16-.27.36-.8.36-1.39,0-.83-.54-1.54-1.41-1.54-.84.01-1.44.57-1.44,1.87,0,.37.04.66.07.9l-3.12-.42v-3.11h.74Z"/>
  <path class="cls-1" d="m25.82,54.26h-.54l-.67-.69c-1.58-1.66-2.42-2.41-3.4-2.42-.66,0-1.27.32-1.27,1.29,0,.59.3,1.08.55,1.38l-.62.28c-.38-.45-.66-1.09-.66-1.84,0-1.4.96-1.99,1.89-1.99,1.2,0,2.17.87,3.49,2.24l.48.52h.02v-2.92h.73v4.15Z"/>
  <path class="cls-1" d="m25.3,49.06c-.37,0-.63-.25-.63-.6s.26-.59.63-.59.63.23.63.6-.27.59-.63.59"/>
  <path class="cls-1" d="m25.82,47.06h-.54l-.67-.69c-1.58-1.66-2.42-2.41-3.4-2.42-.66,0-1.27.32-1.27,1.29,0,.59.3,1.08.55,1.38l-.62.28c-.38-.45-.66-1.09-.66-1.84,0-1.4.96-1.99,1.89-1.99,1.2,0,2.17.87,3.49,2.24l.48.52h.02v-2.92h.73v4.15Z"/>
  <path class="cls-1" d="m20.06,38.05v2.48l1.67.25c-.02-.15-.04-.29-.04-.53,0-.5.11-1,.35-1.4.29-.51.85-.93,1.67-.93,1.27,0,2.22,1.01,2.22,2.42,0,.71-.2,1.31-.4,1.62l-.67-.22c.16-.27.36-.8.36-1.39,0-.83-.54-1.54-1.41-1.54-.84.01-1.44.57-1.44,1.87,0,.37.04.66.07.9l-3.12-.42v-3.11h.74Z"/>
  <path class="cls-3" d="m280.09,86.98h.15l.15-.05.1-.1.1-.05.1-.1.05-.15.05-.15v-.1m0,0v-1.15m0,0v-.15l-.05-.1-.05-.15-.1-.1-.1-.1-.1-.05-.15-.05h-.15m0,0H84.69m0,0V13.28m0,0v-.3l-.1-.25-.15-.25-.15-.2-.25-.2-.2-.1-.3-.1-.25-.05m0,0h-2m0,0l-.25.05-.3.1-.25.1-.2.2-.2.2-.1.25-.1.25v.3m0,0v2.65m0,0v.15l.05.1.05.05.05.05.1.05h.1l.05.05m0,0h.45m0,0l.05-.05h.1l.05-.05.1-.05.05-.05.05-.1v-.15m0,0v-1.95m0,0v-.15l.05-.1.1-.15.05-.1.15-.1.1-.05.15-.05h.1m0,0h.75m0,0h.1l.15.05.1.05.15.1.05.1.1.15v.1l.05.15m0,0v9.9m0,0l-.05.15v.15l-.1.1-.05.1-.15.1-.1.1h-.15l-.1.05m0,0h-.75m0,0l-.1-.05h-.15l-.1-.1-.15-.1-.05-.1-.1-.1-.05-.15v-.15m0,0v-1.95m0,0v-.15l-.05-.05-.05-.1-.1-.05-.05-.05h-.15m0,0h-.45m0,0h-.15l-.1.05-.05.05-.05.1-.05.05v.15m0,0v2.7m0,0v.25l.1.25.1.25.2.25.2.15.25.15.3.05.25.05m0,0h1.7m0,0v22.65m0,0h-27.2m0,0v-22.65m0,0h1.7m0,0l.25-.05.3-.05.25-.15.2-.15.15-.25.15-.25.1-.25v-.25m0,0v-2.7m0,0v-.15l-.05-.05-.05-.1-.1-.05-.05-.05h-.15m0,0h-.45m0,0h-.15l-.1.05-.05.05-.05.1-.05.05v.15m0,0v1.95m0,0l-.05.15v.15l-.1.1-.05.1-.15.1-.1.1h-.15l-.15.05m0,0h-.7m0,0l-.1-.05h-.15l-.15-.1-.1-.1-.05-.1-.1-.1-.05-.15v-.15m0,0v-9.9m0,0v-.15l.05-.1.1-.15.05-.1.1-.1.15-.05.15-.05h.1m0,0h.7m0,0h.15l.15.05.1.05.15.1.05.1.1.15v.1l.05.15m0,0v1.95m0,0v.15l.05.1.05.05.05.05.1.05h.05l.1.05m0,0h.45m0,0l.05-.05h.1l.05-.05.1-.05.05-.05.05-.1v-.15m0,0v-2.65m0,0v-.3l-.1-.25-.15-.25-.15-.2-.2-.2-.25-.1-.3-.1-.25-.05m0,0h-2m0,0l-.25.05-.3.1-.25.1-.2.2-.15.2-.15.25-.1.25v.3m0,0v72.25m0,0v.3l.1.25.15.25.15.25.2.15.25.15.3.05.25.05m0,0h224.6M55.79,50.38v4.2m27.2-4.2h-27.2m27.2,4.2v-4.2m-1.4,4.2h1.4m-1.85.45v-.1l.05-.1.05-.05.05-.05.05-.05.05-.05.1-.05h.1m-.45,1.3v-.85m.45,1.25h-.1l-.1-.05h-.05l-.05-.05-.05-.1-.05-.05-.05-.1v-.05m1.85.4h-1.4m1.4,10.5v-10.5m-1.4,10.5h1.4m-1.85.4v-.05l.05-.1.05-.05.05-.1.05-.05h.05l.1-.05h.1m-.45,1.25v-.85m.45,1.3h-.1l-.1-.05-.05-.05-.05-.05-.05-.05-.05-.05-.05-.1v-.1m1.85.45h-1.4m1.4,10.5v-10.5m-1.4,10.5h1.4m-1.85.4v-.05l.05-.1.05-.1.05-.05.05-.05.05-.05h.2m-.45,1.25v-.85m.45,1.3h-.1l-.1-.05-.05-.05-.05-.05-.05-.05-.05-.1-.05-.05v-.1m1.85.45h-1.4m1.4,4.6v-4.6m-27.2,4.6h27.2m-27.2-4.6v4.6m1.4-4.6h-1.4m1.85-.45l-.05.1v.05l-.05.1-.05.05-.05.05-.1.05-.05.05h-.1m.45-1.3v.85m-.45-1.25h.15l.1.05.05.05.05.05.05.1v.1l.05.05m-1.8-.4h1.35m-1.35-10.5v10.5m1.35-10.5h-1.35m1.8-.45l-.05.1v.1l-.05.05-.05.05-.05.05-.1.05-.05.05h-.1m.45-1.3v.85m-.45-1.25h.1l.05.05h.1l.05.05.05.1.05.05v.1l.05.05m-1.8-.4h1.35m-1.35-10.5v10.5m1.35-10.5h-1.35m1.8-.4l-.05.05v.1l-.05.05-.05.1-.05.05h-.1l-.05.05h-.1m.45-1.25v.85m-.45-1.3h.1l.05.05.1.05.05.05.05.05.05.05v.1l.05.1m-1.85-.45h1.4"/>
</svg>