<?xml version="1.0" encoding="UTF-8"?>
<svg id="Capa_1" data-name="Capa 1" xmlns="http://www.w3.org/2000/svg" viewBox="0 0 300 127">
  <defs>
    <style>
      .cls-1 {
        fill: #818080;
      }

      .cls-2 {
        fill: #727276;
      }
    </style>
  </defs>
  <path class="cls-1" d="m170.43,25.3h-42.33c-.07,0-.12-.06-.12-.12s.06-.12.12-.12h42.33c.07,0,.12.06.12.12s-.06.12-.12.12Z"/>
  <polygon class="cls-1" points="170.43 25.17 159.7 23.12 159.7 27.23 170.43 25.17"/>
  <path class="cls-1" d="m159.7,27.35s-.06,0-.08-.03c-.03-.02-.04-.06-.04-.1v-4.11s.02-.07.04-.1c.03-.02.07-.03.1-.03l10.72,2.06c.06.01.1.06.1.12s-.04.11-.1.12l-10.72,2.06s-.02,0-.02,0Zm.12-4.09v3.81l9.94-1.9-9.94-1.9Z"/>
  <polygon class="cls-1" points="128.1 25.17 138.83 23.12 138.83 27.23 128.1 25.17"/>
  <path class="cls-1" d="m138.83,27.35s-.02,0-.02,0l-10.73-2.06c-.06-.01-.1-.06-.1-.12s.04-.11.1-.12l10.73-2.06s.07,0,.1.03c.03.02.04.06.04.1v4.11s-.02.07-.04.1c-.02.02-.05.03-.08.03Zm-10.06-2.18l9.94,1.9v-3.81l-9.94,1.9Z"/>
  <path class="cls-1" d="m128.01,43.84c-.07,0-.12-.06-.12-.12v-24.12c0-.07.06-.12.12-.12s.12.06.12.12v24.12c0,.07-.06.12-.12.12Z"/>
  <path class="cls-1" d="m143.89,21.52c.25.16.83.41,1.44.41,1.13,0,1.48-.72,1.47-1.26-.01-.91-.83-1.3-1.68-1.3h-.49v-.66h.49c.64,0,1.45-.33,1.45-1.1,0-.52-.33-.98-1.14-.98-.52,0-1.02.23-1.3.43l-.23-.64c.34-.25,1-.5,1.7-.5,1.28,0,1.86.76,1.86,1.55,0,.67-.4,1.24-1.2,1.53v.02c.8.16,1.45.76,1.45,1.67,0,1.04-.81,1.95-2.37,1.95-.73,0-1.37-.23-1.69-.44l.24-.68Z"/>
  <path class="cls-1" d="m153.12,19.21c0,2.21-.82,3.43-2.26,3.43-1.27,0-2.13-1.19-2.15-3.34,0-2.18.94-3.38,2.26-3.38s2.15,1.22,2.15,3.29m-3.53.1c0,1.69.52,2.65,1.32,2.65.9,0,1.33-1.05,1.33-2.71s-.41-2.65-1.32-2.65c-.77,0-1.33.94-1.33,2.71"/>
  <path class="cls-1" d="m191.36,82.32h-26.16c-.07,0-.12-.06-.12-.12s.06-.12.12-.12h26.16c.07,0,.12.06.12.12s-.06.12-.12.12Z"/>
  <path class="cls-1" d="m185.79,103.68c-.07,0-.12-.06-.12-.12V33.22c0-.07.06-.12.12-.12s.12.06.12.12v70.33c0,.07-.06.12-.12.12Z"/>
  <polygon class="cls-1" points="185.79 56.2 187.84 45.47 183.73 45.47 185.79 56.2"/>
  <path class="cls-1" d="m185.79,56.32c-.06,0-.11-.04-.12-.1l-2.06-10.73s0-.07.03-.1c.02-.03.06-.05.1-.05h4.11s.07.02.1.05c.02.03.03.07.03.1l-2.06,10.73c-.01.06-.06.1-.12.1Zm-1.9-10.73l1.9,9.94,1.91-9.94h-3.81Z"/>
  <polygon class="cls-1" points="185.79 81.47 187.84 92.2 183.73 92.2 185.79 81.47"/>
  <path class="cls-1" d="m187.85,92.32h-4.12s-.07-.02-.1-.04c-.02-.03-.03-.07-.03-.1l2.06-10.72c.02-.12.22-.12.25,0l2.05,10.69s.02.04.02.06c0,.07-.06.12-.12.12Zm-3.97-.25h3.81l-1.91-9.94-1.9,9.94Z"/>
  <path class="cls-1" d="m191.36,56.52h-14.35c-.07,0-.12-.06-.12-.12s.06-.12.12-.12h14.35c.07,0,.12.06.12.12s-.06.12-.12.12Z"/>
  <polygon class="cls-1" points="194.11 65.48 194.11 65.46 193.5 64.33 194.17 64.16 194.93 65.58 194.93 66.33 188.43 66.33 188.43 65.48 194.11 65.48"/>
  <path class="cls-1" d="m190.08,68.62c.82,0,1.4.49,1.74,1.29h.03c.34-.73.9-1.04,1.46-1.04,1.03,0,1.73.87,1.73,2.01,0,1.26-.79,1.89-1.6,1.89-.55,0-1.14-.27-1.52-1.07h-.03c-.32.81-.89,1.31-1.68,1.31-1.13,0-1.89-.97-1.89-2.21,0-1.36.81-2.18,1.76-2.18m.04,3.5c.79,0,1.17-.55,1.42-1.43-.22-.76-.72-1.17-1.34-1.17-.66-.03-1.24.47-1.24,1.3s.49,1.3,1.16,1.3m3.25-2.42c-.65,0-1,.49-1.2,1.24.19.56.59.99,1.18.99.52,0,1.06-.31,1.06-1.1,0-.73-.48-1.13-1.04-1.13"/>
  <path class="cls-1" d="m170.34,43.84c-.07,0-.12-.06-.12-.12v-24.12c0-.07.06-.12.12-.12s.12.06.12.12v24.12c0,.07-.06.12-.12.12Z"/>
  <path class="cls-1" d="m179.07,107.3h-59.67c-.07,0-.12-.06-.12-.12s.06-.12.12-.12h59.67c.07,0,.12.06.12.12s-.06.12-.12.12Z"/>
  <polygon class="cls-1" points="138.83 107.17 128.1 105.12 128.1 109.23 138.83 107.17"/>
  <path class="cls-1" d="m128.1,109.35s-.06,0-.08-.03c-.03-.02-.04-.06-.04-.1v-4.11s.02-.07.04-.1c.03-.02.07-.03.1-.03l10.73,2.06c.06.01.1.06.1.12s-.04.11-.1.12l-10.73,2.06s-.02,0-.02,0Zm.12-4.08v3.81l9.94-1.9-9.94-1.9Z"/>
  <polygon class="cls-1" points="159.84 107.17 170.56 105.12 170.56 109.23 159.84 107.17"/>
  <path class="cls-1" d="m170.56,109.35s-.02,0-.02,0l-10.73-2.06c-.06-.01-.1-.06-.1-.12s.04-.11.1-.12l10.73-2.06s.07,0,.1.03c.03.02.04.06.04.1v4.11s-.02.07-.04.1c-.02.02-.05.03-.08.03Zm-10.06-2.18l9.94,1.9v-3.81l-9.94,1.9Z"/>
  <path class="cls-1" d="m138.16,111.08c-.07,0-.12-.06-.12-.12v-23.35c0-.07.06-.12.12-.12s.12.06.12.12v23.35c0,.07-.06.12-.12.12Z"/>
  <polygon class="cls-1" points="145.59 98.85 145.57 98.85 144.44 99.46 144.27 98.79 145.69 98.03 146.44 98.03 146.44 104.53 145.59 104.53 145.59 98.85"/>
  <path class="cls-1" d="m152.68,98.77h-2.48l-.25,1.67c.15-.02.29-.04.53-.04.5,0,1,.11,1.4.35.51.29.93.85.93,1.67,0,1.27-1.01,2.22-2.42,2.22-.71,0-1.31-.2-1.62-.4l.22-.67c.27.16.8.36,1.39.36.83,0,1.54-.54,1.54-1.41-.01-.84-.57-1.44-1.87-1.44-.37,0-.66.04-.9.07l.42-3.12h3.11v.74Z"/>
  <path class="cls-1" d="m160.29,111.08c-.07,0-.12-.06-.12-.12v-23.35c0-.07.06-.12.12-.12s.12.06.12.12v23.35c0,.07-.06.12-.12.12Z"/>
  <path class="cls-1" d="m128.71,47.7h-20.07c-.07,0-.12-.06-.12-.12s.06-.12.12-.12h20.07c.07,0,.12.06.12.12s-.06.12-.12.12Z"/>
  <path class="cls-1" d="m114.21,105.68c-.07,0-.12-.06-.12-.12V35.22c0-.07.06-.12.12-.12s.12.06.12.12v70.33c0,.07-.06.12-.12.12Z"/>
  <polygon class="cls-1" points="114.21 82.57 112.16 93.3 116.27 93.3 114.21 82.57"/>
  <path class="cls-1" d="m116.27,93.42h-4.11s-.07-.02-.1-.04c-.02-.03-.03-.07-.03-.1l2.06-10.72c.02-.12.22-.12.25,0l2.06,10.72s0,.07-.03.1c-.02.03-.06.04-.1.04Zm-3.96-.25h3.81l-1.91-9.94-1.9,9.94Z"/>
  <path class="cls-1" d="m131.99,82.5h-23.35c-.07,0-.12-.06-.12-.12s.06-.12.12-.12h23.35c.07,0,.12.06.12.12s-.06.12-.12.12Z"/>
  <path class="cls-1" d="m111.57,73.2h-.54l-.67-.69c-1.58-1.66-2.42-2.41-3.4-2.42-.66,0-1.27.32-1.27,1.29,0,.59.3,1.08.55,1.38l-.62.28c-.38-.45-.66-1.09-.66-1.84,0-1.4.96-1.99,1.89-1.99,1.2,0,2.17.87,3.49,2.24l.48.52h.02v-2.92h.73v4.15Z"/>
  <path class="cls-1" d="m111.57,65.35h-1.77v3.02h-.58l-4.15-2.9v-.95h4.04v-.91h.69v.91h1.77v.83Zm-2.46,0h-2.17c-.34,0-.68-.01-1.02-.03v.03c.38.2.66.36.96.54l2.21,1.59h.02v-2.13Z"/>
  <path class="cls-1" d="m111.05,62.87c-.37,0-.63-.25-.63-.6s.26-.59.63-.59.63.23.63.6c0,.35-.27.59-.63.59"/>
  <path class="cls-1" d="m110.56,60.66c.16-.25.41-.83.41-1.44,0-1.13-.72-1.48-1.26-1.47-.91.01-1.3.83-1.3,1.68v.49h-.66v-.49c0-.64-.33-1.45-1.1-1.45-.52,0-.98.33-.98,1.14,0,.52.23,1.02.43,1.3l-.64.23c-.25-.34-.5-1-.5-1.7,0-1.28.76-1.86,1.55-1.86.67,0,1.24.4,1.53,1.2h.02c.16-.8.76-1.45,1.67-1.45,1.04,0,1.95.81,1.95,2.37,0,.73-.23,1.37-.44,1.69l-.68-.24Z"/>
  <path class="cls-2" d="m159.56,82.2h-20.85s-.05,0-.08-.01l-.28-.11s-.05-.03-.07-.05l-.2-.2s-.05-.06-.06-.1l-.09-.22s-.03-.07-.03-.11v-24.7h-4.55s-.08,0-.11-.03l-.3-.15s-.09-.06-.11-.11l-.15-.3s-.03-.07-.03-.11v-6.27l-.33.31-.63.73-.59.79-.54.84-.44.83-.39.93-.29.93-.19.97s0,.03-.01.04c0,.01,0,.02-.02.04l-.05.09s-.03.04-.04.06l-.05.09s-.03.05-.05.07l-.05.05s-.04.04-.07.05l-.3.15s-.07.03-.11.03h-.35s-.08,0-.11-.03l-.2-.1s-.05-.03-.07-.05l-.2-.2s-.07-.11-.07-.18l-.02-.14s-.03-.07-.03-.11v-.09s0-.02,0-.04c0-.01,0-.02,0-.03l.3-1.19.4-1.22.46-1.12.61-1.08.71-1.06.82-.97.87-.87.97-.81s.04-.03.06-.04c.04-.04.1-.07.15-.07.04-.03.09-.05.15-.05h.1s.03,0,.05,0h4.4s.08,0,.11.03l.3.15s.09.06.11.11l.15.3s.03.07.03.11v2.35s0,.08-.03.11l-.15.3s-.06.09-.11.11l-.3.15s-.07.03-.11.03h-.35s-.08,0-.11-.03l-.3-.15s-.09-.06-.11-.11l-.15-.3s-.03-.07-.03-.11v-1.25h-2.05v5.85h2.05v-1.15s0-.05.01-.08l.11-.28s.03-.05.05-.06l.2-.2s.04-.03.07-.05l.28-.11s.05-.01.08-.01h.65c.05,0,.17.02.24.05.07,0,.09.01.14.04l.25.15.48.42s.04.04.06.07l.46.82s.02.05.02.07l.1.54s0,.02,0,.03c0,.01,0,.02,0,.03v25.24h18.95v-25.25s0-.02,0-.03c0-.01,0-.02,0-.03l.1-.54s.01-.05.02-.07l.46-.82.24-.25.27-.22.28-.17s.08-.04.13-.04h0s.1-.05.15-.05h.1s.03,0,.05,0c.02,0,.03,0,.05,0h.55s.08,0,.11.03l.22.09s.07.03.1.06l.2.2s.03.04.05.06l.12.29s.01.05.01.08v1.15h2v-5.85h-2v1.25s0,.08-.03.11l-.15.3s-.06.09-.11.11l-.3.15s-.07.03-.11.03h-.35s-.08,0-.11-.03l-.3-.15s-.09-.06-.11-.11l-.15-.3s-.03-.07-.03-.11v-2.35s0-.08.03-.11l.15-.3s.06-.09.11-.11l.3-.15s.07-.03.11-.03h4.5c.07,0,.18.03.23.07h0s.04.02.06.03c.04,0,.08.03.12.06l.95.8.87.86.81.97.72,1.07.56,1.07.51,1.11.41,1.22.29,1.27c.04.07.04.15,0,.22l-.15.35s-.03.05-.05.07l-.1.1s-.04.03-.07.05l-.2.1s-.07.03-.11.03h-.4c-.07,0-.13-.03-.18-.07l-.08-.05-.1-.05s-.05-.03-.07-.05l-.05-.05s-.04-.04-.05-.07l-.05-.09s-.03-.04-.05-.06l-.05-.09s-.01-.02-.02-.04c0-.01,0-.02,0-.04l-.2-.99-.29-.92-.39-.93-.44-.83-.54-.83-.59-.79-.64-.74-.31-.29v6.28s0,.08-.03.11l-.15.3s-.06.09-.11.11l-.3.15s-.07.03-.11.03h-4.55v24.7s0,.08-.03.11l-.09.22s-.03.07-.06.1l-.2.2s-.06.05-.1.06l-.22.09s-.07.03-.11.03Zm-.15-.5l.14-.02.12-.04.12-.12.07-.26v-24.8c0-.14.11-.25.25-.25l4.79-.02.14-.09.07-.19v-6.76h0s0-.05.02-.08h0s.02-.05.04-.07h0s0,0,0,0h0s0,0,0-.01h0s0,0,0,0c0,0,0,0,0,0h0s.05-.04.07-.05c.06-.03.15-.03.21,0h0s0,0,0,0c.01,0,.03.01.04.02h0s0,0,0,0h0s0,0,0,0c0,0,.02.01.02.02l.75.7.67.77.61.81.56.86.46.87.41.97.31.97.24,1.05s.03.04.05.06l.03.06.16.08s.03.01.04.02l.29-.02.11-.07.08-.2s0-.02,0-.02c0-.01,0-.02,0-.03l-.25-1.2-.39-1.17-.49-1.08-.54-1.04-.69-1.03-.78-.93-.84-.83-.87-.73s-.08-.03-.11-.05c-.03,0-.06-.02-.09-.04h-.05l-4.39.02-.14.09-.07.19.02,2.24.09.14.19.07.24-.02.14-.09.07-.19v-1.4c0-.14.11-.25.25-.25h2.5c.14,0,.25.11.25.25v6.35c0,.14-.11.25-.25.25h-2.5c-.14,0-.25-.11-.25-.25v-1.36l-.05-.14-.13-.13-.27-.07h-.5s-.11.06-.18.05l-.19.12-.4.36-.39.7-.09.5v25.48c0,.14-.11.25-.25.25h-19.45c-.14,0-.25-.11-.25-.25v-25.48l-.09-.5-.4-.71-.21-.17-.22-.22-.14-.08c-.05,0-.13-.02-.18-.05h0s-.03,0-.05,0c-.02,0-.03,0-.05,0h-.51l-.14.05-.18.21-.02.08v1.36c0,.14-.11.25-.25.25h-2.55c-.14,0-.25-.11-.25-.25v-6.35c0-.14.11-.25.25-.25h2.55c.14,0,.25.11.25.25l.02,1.49.09.14.19.07.24-.02.14-.09.07-.19-.02-2.24-.09-.14-.19-.07h-4.35s-.07.04-.12.05c-.02.02-.05.04-.08.04l-.89.75-.83.84-.79.93-.68,1.03-.59,1.04-.44,1.07-.39,1.18-.29,1.16.02.05s.03.07.03.11l.03.07.18.13.28-.02.16-.08.03-.06s.03-.05.05-.06l.04-.06.19-.97.31-.98.41-.97.46-.87.56-.87.61-.81.66-.76.77-.72s.02-.02.03-.02h0s0,0,0,0h0s.02-.01.03-.02h0c.06-.03.15-.03.21,0h0s.05.03.07.05h0s.01.01.02.02h0s0,0,0,0c.01.02.03.04.04.06,0,0,0,0,0,0,0,.02.02.05.02.08h0s0,.01,0,.02l.02,6.84.09.14.19.07h4.7c.14,0,.25.11.25.25l.02,24.94.04.12.19.16.08.02h20.66Z"/>
</svg>