<?xml version="1.0" encoding="UTF-8"?>
<svg id="Capa_1" data-name="Capa 1" xmlns="http://www.w3.org/2000/svg" xmlns:xlink="http://www.w3.org/1999/xlink" viewBox="0 0 300 127">
  <defs>
    <style>
      .cls-1 {
        fill: #818080;
      }

      .cls-2 {
        clip-path: url(#clippath-1);
      }

      .cls-3 {
        clip-path: url(#clippath);
      }

      .cls-4 {
        fill: none;
      }

      .cls-5 {
        fill: #9b999e;
      }

      .cls-6 {
        fill: #727276;
      }
    </style>
    <clipPath id="clippath">
      <rect class="cls-4" x="169.07" y="43.22" width="28.2" height="21.1"/>
    </clipPath>
    <clipPath id="clippath-1">
      <rect class="cls-4" x="169.07" y="43.22" width="28.2" height="21.1"/>
    </clipPath>
  </defs>
  <path class="cls-1" d="m239.07,35.96c-.07,0-.12-.06-.12-.12V12.48c0-.07.06-.12.12-.12s.12.06.12.12v23.35c0,.07-.06.12-.12.12Z"/>
  <path class="cls-1" d="m228.35,18.17H26.27c-.07,0-.12-.06-.12-.12s.06-.12.12-.12h202.07c.07,0,.12.06.12.12s-.06.12-.12.12Z"/>
  <polygon class="cls-1" points="239.07 18.05 228.35 15.99 228.35 20.11 239.07 18.05"/>
  <path class="cls-1" d="m228.35,20.23s-.06,0-.08-.03c-.03-.02-.05-.06-.05-.1v-4.11s.02-.07.05-.1c.03-.02.07-.03.1-.03l10.73,2.06c.06.01.1.06.1.12s-.04.11-.1.12l-10.73,2.06s-.02,0-.02,0Zm.12-4.09v3.81l9.94-1.9-9.94-1.9Z"/>
  <polygon class="cls-1" points="26.35 18.05 37.07 15.99 37.07 20.11 26.35 18.05"/>
  <path class="cls-1" d="m37.07,20.23s-.02,0-.02,0l-10.73-2.06c-.06-.01-.1-.06-.1-.12s.04-.11.1-.12l10.73-2.06s.07,0,.1.03c.03.02.05.06.05.1v4.11s-.02.07-.05.1c-.02.02-.05.03-.08.03Zm-10.06-2.18l9.94,1.9v-3.81l-9.94,1.9Z"/>
  <path class="cls-1" d="m26.27,35.96c-.07,0-.12-.06-.12-.12V12.48c0-.07.06-.12.12-.12s.12.06.12.12v23.35c0,.07-.06.12-.12.12Z"/>
  <polygon class="cls-1" points="127.52 9.73 127.5 9.73 126.37 10.34 126.2 9.67 127.62 8.91 128.37 8.91 128.37 15.41 127.52 15.41 127.52 9.73"/>
  <path class="cls-1" d="m134.62,9.65h-2.48l-.25,1.67c.15-.02.29-.04.53-.04.5,0,1,.11,1.4.35.51.29.93.85.93,1.67,0,1.27-1.01,2.22-2.42,2.22-.71,0-1.31-.2-1.62-.4l.22-.67c.27.16.8.36,1.39.36.83,0,1.54-.54,1.54-1.41-.01-.84-.57-1.44-1.87-1.44-.37,0-.66.04-.9.07l.42-3.12h3.11v.74Z"/>
  <path class="cls-1" d="m140.19,12.09c0,2.21-.82,3.43-2.26,3.43-1.27,0-2.13-1.19-2.15-3.34,0-2.18.94-3.38,2.26-3.38s2.15,1.22,2.15,3.29m-3.53.1c0,1.69.52,2.65,1.32,2.65.9,0,1.33-1.05,1.33-2.71s-.41-2.65-1.32-2.65c-.77,0-1.33.94-1.33,2.71"/>
  <path class="cls-1" d="m141.07,14.89c0-.37.25-.63.6-.63s.59.26.59.63-.23.63-.6.63c-.35,0-.59-.27-.59-.63"/>
  <path class="cls-1" d="m143.07,15.41v-.54l.69-.67c1.66-1.58,2.41-2.42,2.42-3.4,0-.66-.32-1.27-1.29-1.27-.59,0-1.08.3-1.38.55l-.28-.62c.45-.38,1.09-.66,1.84-.66,1.4,0,1.99.96,1.99,1.89,0,1.2-.87,2.17-2.24,3.49l-.52.48v.02h2.92v.73h-4.15Z"/>
  <path class="cls-1" d="m270.29,118.2h-23.35c-.07,0-.12-.06-.12-.12s.06-.12.12-.12h23.35c.07,0,.12.06.12.12s-.06.12-.12.12Z"/>
  <path class="cls-1" d="m264.73,118.2c-.07,0-.12-.06-.12-.12V40.35c0-.07.06-.12.12-.12s.12.06.12.12v77.73c0,.07-.06.12-.12.12Z"/>
  <polygon class="cls-1" points="264.73 118.08 266.78 107.35 262.67 107.35 264.73 118.08"/>
  <path class="cls-1" d="m264.73,118.2c-.06,0-.11-.04-.12-.1l-2.06-10.73s0-.07.03-.1c.02-.03.06-.05.1-.05h4.11s.07.02.1.05c.02.03.03.07.03.1l-2.06,10.73c-.01.06-.06.1-.12.1Zm-1.9-10.73l1.9,9.94,1.9-9.94h-3.81Z"/>
  <polygon class="cls-1" points="264.73 40.35 266.78 51.08 262.67 51.08 264.73 40.35"/>
  <path class="cls-1" d="m266.79,51.2h-4.12s-.07-.02-.1-.05c-.02-.03-.03-.07-.03-.1l2.06-10.73c.02-.12.22-.12.25,0l2.05,10.69s.02.04.02.06c0,.07-.06.12-.12.12Zm-3.97-.25h3.81l-1.9-9.94-1.9,9.94Z"/>
  <path class="cls-1" d="m270.29,40.4h-23.35c-.07,0-.12-.06-.12-.12s.06-.12.12-.12h23.35c.07,0,.12.06.12.12s-.06.12-.12.12Z"/>
  <path class="cls-1" d="m273.13,76.49v-2.48l-1.67-.25c.02.15.04.29.04.53,0,.5-.11,1-.35,1.4-.29.51-.85.93-1.67.93-1.27,0-2.22-1.01-2.22-2.42,0-.71.2-1.31.4-1.62l.67.22c-.16.27-.36.8-.36,1.39,0,.83.54,1.54,1.41,1.54.84-.01,1.44-.57,1.44-1.87,0-.37-.04-.66-.07-.9l3.12.42v3.11h-.74Z"/>
  <path class="cls-1" d="m268.38,77.95c-.16.25-.41.83-.41,1.44,0,1.13.72,1.48,1.26,1.47.91-.01,1.3-.83,1.3-1.68v-.49h.66v.49c0,.64.33,1.45,1.1,1.45.52,0,.98-.33.98-1.14,0-.52-.23-1.02-.43-1.3l.64-.23c.25.34.5,1,.5,1.7,0,1.28-.76,1.86-1.55,1.86-.67,0-1.24-.4-1.53-1.2h-.02c-.16.8-.76,1.45-1.67,1.45-1.04,0-1.95-.81-1.95-2.37,0-.73.23-1.37.44-1.69l.68.24Z"/>
  <g class="cls-3">
    <g class="cls-2">
      <polygon class="cls-5" points="197.27 55.67 197.27 62.07 194.9 60.19 194.88 60.17 194.82 60.12 194.77 60.12 194.72 60.07 194.67 60.07 192.72 60.07 191.32 64.32 175.02 64.32 173.97 61.01 173.67 60.07 171.72 60.07 171.67 60.07 171.63 60.07 171.63 60.12 171.57 60.12 171.52 60.12 171.52 60.17 171.47 60.17 169.07 62.07 169.07 55.67 173.02 57.22 175.72 57.22 177.13 61.52 189.27 61.52 190.63 57.22 193.32 57.22 197.27 55.67"/>
      <polygon class="cls-5" points="197.27 45.47 197.27 51.92 193.32 50.32 190.63 50.32 189.27 46.07 177.13 46.07 175.72 50.32 173.02 50.32 169.07 51.92 169.07 45.47 171.47 47.37 171.52 47.42 171.57 47.42 171.57 47.47 171.63 47.47 171.67 47.47 171.72 47.47 173.67 47.47 173.96 46.58 175.02 43.22 191.32 43.22 192.72 47.47 194.67 47.47 194.72 47.47 194.77 47.47 194.82 47.42 194.88 47.42 194.88 47.37 197.27 45.47"/>
    </g>
  </g>
  <path class="cls-6" d="m175.02,64.57c-.11,0-.2-.07-.24-.17l-1.35-4.25c-.04-.13.03-.27.16-.31.13-.04.27.03.31.16l1.35,4.25c.04.13-.03.27-.16.31-.02,0-.05.01-.08.01Z"/>
  <path class="cls-6" d="m194.88,60.42c-.06,0-.12-.02-.17-.07-.04-.01-.08-.03-.1-.05l-.02-.02c-.08-.04-.13-.12-.13-.21,0-.14.09-.25.23-.25h.05c.06,0,.13.02.17.07.04.01.08.03.1.05l.05.05c.1.1.1.26,0,.35-.05.05-.11.07-.18.07Z"/>
  <path class="cls-6" d="m189.27,61.77h-12.15c-.14,0-.25-.11-.25-.25s.11-.25.25-.25h12.15c.14,0,.25.11.25.25s-.11.25-.25.25Z"/>
  <path class="cls-6" d="m171.52,60.42c-.14,0-.27-.11-.27-.25,0-.1.04-.18.12-.22.03-.04.08-.06.12-.07.04-.03.08-.05.13-.05h.1c.14,0,.25.11.25.25,0,.13-.09.23-.22.25-.03.02-.06.04-.1.05-.04.03-.08.05-.13.05Z"/>
  <path class="cls-6" d="m173.67,60.32h-1.95c-.14,0-.25-.11-.25-.25s.11-.25.25-.25h1.95c.14,0,.25.11.25.25s-.11.25-.25.25Z"/>
  <path class="cls-6" d="m173.02,57.47s-.06,0-.09-.02l-3.95-1.55c-.13-.05-.19-.2-.14-.32.05-.13.2-.19.32-.14l3.95,1.55c.13.05.19.2.14.32-.04.1-.13.16-.23.16Z"/>
  <path class="cls-6" d="m191.32,64.57h-16.3c-.14,0-.25-.11-.25-.25s.11-.25.25-.25h16.3c.14,0,.25.11.25.25s-.11.25-.25.25Z"/>
  <path class="cls-6" d="m191.32,64.57s-.05,0-.08-.01c-.13-.04-.2-.18-.16-.32l1.4-4.25c.04-.13.18-.2.32-.16.13.04.2.18.16.32l-1.4,4.25c-.03.11-.13.17-.24.17Z"/>
  <path class="cls-6" d="m194.67,60.32h-1.95c-.14,0-.25-.11-.25-.25s.11-.25.25-.25h1.95c.14,0,.25.11.25.25s-.11.25-.25.25Z"/>
  <path class="cls-6" d="m197.27,62.32c-.05,0-.11-.02-.16-.05l-2.37-1.88.13-.22.16-.19,2.4,1.9c.11.09.13.24.04.35-.05.06-.12.09-.2.09Z"/>
  <path class="cls-6" d="m197.27,62.32c-.14,0-.25-.11-.25-.25v-6.4c0-.14.11-.25.25-.25s.25.11.25.25v6.4c0,.14-.11.25-.25.25Z"/>
  <path class="cls-6" d="m193.32,57.47c-.1,0-.19-.06-.23-.16-.05-.13.01-.27.14-.32l3.95-1.55c.13-.05.27.01.32.14.05.13-.01.27-.14.32l-3.95,1.55s-.06.02-.09.02Z"/>
  <path class="cls-6" d="m193.32,57.47h-2.7c-.14,0-.25-.11-.25-.25s.11-.25.25-.25h2.7c.14,0,.25.11.25.25s-.11.25-.25.25Z"/>
  <path class="cls-6" d="m189.27,61.77s-.05,0-.07-.01c-.13-.04-.21-.18-.16-.31l1.35-4.3c.04-.13.18-.21.31-.16.13.04.21.18.16.31l-1.35,4.3c-.03.11-.13.18-.24.18Z"/>
  <path class="cls-6" d="m177.13,61.77c-.11,0-.2-.07-.24-.17l-1.4-4.3c-.04-.13.03-.27.16-.32.13-.04.27.03.32.16l1.4,4.3c.04.13-.03.27-.16.32-.03,0-.05.01-.08.01Z"/>
  <path class="cls-6" d="m175.72,57.47h-2.7c-.14,0-.25-.11-.25-.25s.11-.25.25-.25h2.7c.14,0,.25.11.25.25s-.11.25-.25.25Z"/>
  <path class="cls-6" d="m169.07,62.32c-.14,0-.25-.11-.25-.25v-6.4c0-.14.11-.25.25-.25s.25.11.25.25v6.4c0,.14-.11.25-.25.25Z"/>
  <path class="cls-6" d="m169.07,62.32c-.07,0-.15-.03-.2-.09-.09-.11-.07-.27.04-.35l2.4-1.9c.11-.09.27-.07.35.04.09.11.07.27-.04.35l-2.4,1.9s-.1.05-.16.05Z"/>
  <path class="cls-6" d="m169.07,52.17c-.14,0-.25-.11-.25-.25v-6.45c0-.14.11-.25.25-.25s.25.11.25.25v6.45c0,.14-.11.25-.25.25Z"/>
  <path class="cls-6" d="m169.07,52.17c-.1,0-.19-.06-.23-.16-.05-.13.01-.27.14-.33l3.95-1.6c.13-.05.27,0,.33.14.05.13-.01.27-.14.33l-3.95,1.6s-.06.02-.09.02Z"/>
  <path class="cls-6" d="m175.72,50.57h-2.7c-.14,0-.25-.11-.25-.25s.11-.25.25-.25h2.7c.14,0,.25.11.25.25s-.11.25-.25.25Z"/>
  <path class="cls-6" d="m175.72,50.57s-.05,0-.08-.01c-.13-.04-.2-.18-.16-.32l1.4-4.25c.04-.13.18-.2.32-.16.13.04.2.18.16.32l-1.4,4.25c-.03.11-.13.17-.24.17Z"/>
  <path class="cls-6" d="m189.27,46.32h-12.15c-.14,0-.25-.11-.25-.25s.11-.25.25-.25h12.15c.14,0,.25.11.25.25s-.11.25-.25.25Z"/>
  <path class="cls-6" d="m190.63,50.57c-.11,0-.2-.07-.24-.17l-1.35-4.25c-.04-.13.03-.27.16-.31.13-.04.27.03.31.16l1.35,4.25c.04.13-.03.27-.16.31-.03,0-.05.01-.08.01Z"/>
  <path class="cls-6" d="m193.32,50.57h-2.7c-.14,0-.25-.11-.25-.25s.11-.25.25-.25h2.7c.14,0,.25.11.25.25s-.11.25-.25.25Z"/>
  <path class="cls-6" d="m197.27,52.17s-.06,0-.09-.02l-3.95-1.6c-.13-.05-.19-.2-.14-.33.05-.13.2-.19.33-.14l3.95,1.6c.13.05.19.2.14.33-.04.1-.13.16-.23.16Z"/>
  <path class="cls-6" d="m197.27,52.17c-.14,0-.25-.11-.25-.25v-6.45c0-.14.11-.25.25-.25s.25.11.25.25v6.45c0,.14-.11.25-.25.25Z"/>
  <path class="cls-6" d="m194.88,47.62c-.07,0-.15-.03-.2-.09-.09-.11-.07-.27.04-.35l2.4-1.9c.11-.09.27-.07.35.04.09.11.07.27-.04.35l-2.4,1.9s-.1.05-.16.05Z"/>
  <path class="cls-6" d="m194.77,47.72c-.14,0-.3-.11-.3-.25s.06-.25.2-.25c.03-.02.05-.03.09-.04.15-.09.37.01.37.19v.05c0,.12-.08.22-.19.24-.04.04-.1.06-.16.06Z"/>
  <path class="cls-6" d="m194.67,47.72h-1.95c-.14,0-.25-.11-.25-.25s.11-.25.25-.25h1.95c.14,0,.25.11.25.25s-.11.25-.25.25Z"/>
  <path class="cls-6" d="m192.72,47.72c-.1,0-.2-.07-.24-.17l-1.4-4.25c-.04-.13.03-.27.16-.32.13-.04.27.03.32.16l1.4,4.25c.04.13-.03.27-.16.32-.03,0-.05.01-.08.01Z"/>
  <path class="cls-6" d="m191.32,43.47h-16.3c-.14,0-.25-.11-.25-.25s.11-.25.25-.25h16.3c.14,0,.25.11.25.25s-.11.25-.25.25Z"/>
  <path class="cls-6" d="m173.67,47.72s-.05,0-.08-.01c-.13-.04-.2-.18-.16-.31l1.35-4.25c.04-.13.18-.2.31-.16.13.04.2.18.16.31l-1.35,4.25c-.03.11-.13.17-.24.17Z"/>
  <path class="cls-6" d="m173.67,47.72h-1.95c-.14,0-.25-.11-.25-.25s.11-.25.25-.25h1.95c.14,0,.25.11.25.25s-.11.25-.25.25Z"/>
  <path class="cls-6" d="m171.72,47.72h-.15c-.08,0-.16-.04-.2-.11,0,0-.02-.01-.02-.02l-.05-.05c-.1-.1-.1-.26,0-.35.1-.1.26-.1.35,0h.01s.02.02.03.03c.13,0,.25.12.25.25,0,.14-.09.25-.23.25Z"/>
  <path class="cls-6" d="m171.47,47.62c-.05,0-.11-.02-.16-.05l-2.4-1.9c-.11-.09-.13-.24-.04-.35.09-.11.24-.13.35-.04l2.4,1.9c.11.09.13.24.04.35-.05.06-.12.09-.2.09Z"/>
  <path class="cls-6" d="m238.47,117.87h-.45c-.14,0-.25-.11-.25-.25s.11-.25.25-.25h.45c.14,0,.25.11.25.25s-.11.25-.25.25Z"/>
  <path class="cls-6" d="m239.17,41.32c-.14,0-.25-.11-.25-.25v-.06l-.12-.25-.18-.09s-.05,0-.08-.01l-.15-.05c-.13-.04-.2-.19-.16-.32.04-.13.18-.2.32-.16l.17.04s.1.01.14.04l.22.13s.07.05.1.08l.17.28.06.18s.01.05.01.08v.1c0,.14-.11.25-.25.25Z"/>
  <path class="cls-6" d="m238.47,40.62h-.45c-.14,0-.25-.11-.25-.25s.11-.25.25-.25h.45c.14,0,.25.11.25.25s-.11.25-.25.25Z"/>
  <path class="cls-6" d="m237.32,41.32c-.14,0-.25-.11-.25-.25v-.1s0-.05.01-.08l.05-.15s.03-.07.06-.1l.06-.06.03-.09c.02-.06.07-.12.13-.14l.22-.13s.09-.04.14-.04l.14-.02c.12-.06.27-.01.33.11.06.12.01.27-.11.33l-.1.05s-.07.03-.11.03h-.07l-.12.08-.02.05s-.03.07-.06.1l-.08.11v.06c0,.14-.11.25-.25.25Z"/>
  <path class="cls-6" d="m237.32,42.77c-.14,0-.25-.11-.25-.25v-1.45c0-.14.11-.25.25-.25s.25.11.25.25v1.45c0,.14-.11.25-.25.25Z"/>
  <path class="cls-6" d="m237.32,42.77h-39.55c-.14,0-.25-.11-.25-.25s.11-.25.25-.25h39.55c.14,0,.25.11.25.25s-.11.25-.25.25Z"/>
  <path class="cls-6" d="m197.38,43.15c-.14,0-.25-.09-.25-.23v-.15c0-.07.03-.13.07-.18l.05-.08s.06-.09.11-.11l.09-.05s.11-.07.18-.07h.1c.14,0,.27.11.27.25s-.09.25-.22.25h-.05s-.02.02-.04.02l-.04.04s-.01.03-.02.04h0c0,.14-.11.27-.25.27Z"/>
  <path class="cls-6" d="m197.38,43.52c-.14,0-.25-.11-.25-.25v-.35c0-.14.11-.25.25-.25s.25.11.25.25v.35c0,.14-.11.25-.25.25Z"/>
  <path class="cls-6" d="m197.02,43.97c-.06,0-.13-.02-.18-.07-.1-.1-.1-.26,0-.35l.05-.05s.11-.07.17-.07h0c0-.06.02-.11.05-.15,0-.14.11-.25.25-.25s.25.11.25.25v.1c0,.05-.02.11-.05.15,0,.07-.03.13-.07.18l-.1.1s-.04.03-.06.05l-.1.05s-.03.01-.05.02c-.05.04-.1.06-.16.06Z"/>
  <path class="cls-6" d="m196.17,44.12c-.12,0-.22-.09-.25-.21-.02-.14.07-.27.2-.29l.85-.15c.13-.03.27.07.29.2.02.14-.07.27-.2.29l-.85.15s-.03,0-.04,0Z"/>
  <path class="cls-6" d="m196.17,44.12h-.1s-.08,0-.11-.03l-.09-.02c-.07,0-.13-.03-.18-.07l-.05-.05s-.04-.04-.05-.07l-.05-.08s-.04-.04-.05-.07l-.05-.1s-.03-.07-.03-.11v-.1c0-.14.11-.25.25-.25s.25.11.25.25l.03.07s.04.04.05.07h0s.06.02.08.04l.09.02c.14,0,.25.11.25.25s-.11.25-.25.25Z"/>
  <path class="cls-6" d="m195.67,43.65c-.14,0-.25-.09-.25-.23v-.05c0-.14.11-.25.25-.25s.25.11.25.25-.11.27-.25.27Z"/>
  <path class="cls-6" d="m195.67,43.6c-.11,0-.2-.05-.23-.14-.1-.03-.17-.13-.17-.24,0-.14.11-.25.25-.25h.1c.12,0,.22.08.24.19.04.04.06.1.06.16,0,.14-.11.27-.25.27Z"/>
  <path class="cls-6" d="m195.52,43.47h-3.55c-.14,0-.25-.11-.25-.25s.11-.25.25-.25h3.55c.14,0,.25.11.25.25s-.11.25-.25.25Z"/>
  <path class="cls-6" d="m191.57,44.02c-.14,0-.25-.11-.25-.25v-.2s0-.08.03-.11l.1-.2s.03-.05.05-.06l.05-.05s.04-.04.07-.05l.09-.05s.11-.07.18-.07h.1c.14,0,.25.11.25.25s-.11.25-.25.25h0s-.02.02-.04.02l-.06.03-.05.15v.1c0,.14-.11.25-.25.25Z"/>
  <path class="cls-6" d="m192.47,46.82c-.11,0-.2-.07-.24-.17l-.9-2.8c-.04-.13.03-.27.16-.31.13-.04.27.03.31.16l.9,2.8c.04.13-.03.27-.16.31-.03,0-.05.01-.08.01Z"/>
  <path class="cls-6" d="m192.77,47.07c-.06,0-.17-.02-.22-.07-.04-.01-.08-.03-.1-.05l-.15-.15s-.07-.11-.07-.18c0-.14.11-.27.25-.27.12,0,.21.06.24.16l.03.03s.08.03.1.05l.02.02c.08.04.13.12.13.21,0,.14-.09.25-.23.25Z"/>
  <path class="cls-6" d="m194.47,47.67s-.06,0-.08-.01l-1.7-.6c-.13-.05-.2-.19-.15-.32.05-.13.19-.2.32-.15l1.7.6c.13.05.2.19.15.32-.04.1-.13.17-.24.17Z"/>
  <path class="cls-6" d="m194.72,47.67h-.2c-.14,0-.28-.11-.28-.25s.09-.25.23-.25h.15s.06-.03.09-.04c.1-.08.24-.08.34.02.1.1.1.26,0,.35l-.05.05s-.07.06-.12.07c-.04.04-.1.06-.16.06Z"/>
  <path class="cls-6" d="m194.88,47.57c-.07,0-.15-.03-.2-.1-.08-.11-.07-.27.04-.35l2.5-1.95c.11-.08.27-.06.35.05.08.11.06.27-.05.35l-2.5,1.95s-.1.05-.15.05Z"/>
  <path class="cls-6" d="m197.38,52.27c-.14,0-.25-.11-.25-.25v-6.65c0-.14.11-.25.25-.25s.25.11.25.25v6.65c0,.14-.11.25-.25.25Z"/>
  <path class="cls-6" d="m197.38,52.27s-.06,0-.09-.02l-3.35-1.35c-.13-.05-.19-.2-.14-.33.05-.13.2-.19.33-.14l3.35,1.35c.13.05.19.2.14.33-.04.1-.13.16-.23.16Z"/>
  <path class="cls-6" d="m193.82,51.07c-.14,0-.25-.11-.25-.25v-.1c0-.1.06-.19.15-.23.04-.04.1-.07.15-.07h.1c.14,0,.27.11.27.25,0,.13-.07.23-.19.25-.04.09-.13.15-.23.15Z"/>
  <path class="cls-6" d="m193.82,57.02c-.14,0-.25-.11-.25-.25v-5.95c0-.14.11-.25.25-.25s.25.11.25.25v5.95c0,.14-.11.25-.25.25Z"/>
  <path class="cls-6" d="m193.97,57.17c-.07,0-.16-.03-.22-.08-.02-.01-.05-.02-.06-.04l-.05-.05s-.07-.11-.07-.18c0-.14.11-.27.25-.27.08,0,.15.03.19.08.06,0,.13.02.19.07.1.1.1.26,0,.35l-.05.05s-.11.07-.18.07Z"/>
  <path class="cls-6" d="m194.02,57.12c-.1,0-.19-.06-.23-.16-.05-.13.01-.27.14-.32l3.35-1.3c.13-.05.27.01.32.14.05.13-.01.27-.14.32l-3.35,1.3s-.06.02-.09.02Z"/>
  <path class="cls-6" d="m197.38,62.47c-.14,0-.25-.11-.25-.25v-6.65c0-.14.11-.25.25-.25s.25.11.25.25v6.65c0,.14-.11.25-.25.25Z"/>
  <path class="cls-6" d="m197.38,62.47c-.06,0-.11-.02-.16-.05l-2.5-2c-.11-.09-.12-.24-.04-.35.09-.11.24-.12.35-.04l2.5,2c.11.09.12.24.04.35-.05.06-.12.09-.2.09Z"/>
  <path class="cls-6" d="m194.88,60.47h-.05c-.06,0-.13-.03-.17-.07,0,0-.01,0-.02,0-.16.08-.38-.05-.38-.22,0-.12.06-.22.17-.24.04-.04.1-.06.16-.06.06,0,.22.02.27.07.04.01.08.03.1.05l.02.02c.08.04.13.12.13.21,0,.14-.09.25-.23.25Z"/>
  <path class="cls-6" d="m192.77,60.97c-.11,0-.2-.07-.24-.17-.04-.13.03-.27.16-.31l1.7-.55c.13-.04.27.03.31.16.04.13-.03.27-.16.31l-1.7.55s-.05.01-.08.01Z"/>
  <path class="cls-6" d="m192.47,61.25c-.14,0-.25-.09-.25-.23,0-.06.02-.17.07-.22.01-.04.03-.08.05-.1l.05-.05s.07-.06.12-.07c.03-.02.06-.04.1-.05.1-.08.24-.08.34.02.1.1.1.26,0,.35l-.05.05s-.07.05-.12.06c-.01.01-.03.02-.05.03,0,.02-.02.04-.03.05l-.02.02c-.04.08-.12.13-.21.13Z"/>
  <path class="cls-6" d="m191.57,64.02s-.05,0-.08-.01c-.13-.04-.2-.18-.16-.32l.9-2.75c.04-.13.19-.2.32-.16.13.04.2.18.16.32l-.9,2.75c-.03.11-.13.17-.24.17Z"/>
  <path class="cls-6" d="m191.97,64.57h-.1c-.07,0-.13-.03-.18-.07l-.09-.05s-.05-.03-.07-.05l-.05-.05s-.03-.04-.05-.06l-.1-.2s-.03-.07-.03-.11v-.2c0-.14.11-.25.25-.25s.25.11.25.25l.05.25.06.03s.03.01.04.02h0c.14,0,.25.11.25.25s-.11.25-.25.25Z"/>
  <path class="cls-6" d="m195.52,64.57h-3.55c-.14,0-.25-.11-.25-.25s.11-.25.25-.25h3.55c.14,0,.25.11.25.25s-.11.25-.25.25Z"/>
  <path class="cls-6" d="m195.63,64.57h-.1c-.14,0-.25-.11-.25-.25,0-.13.1-.23.22-.25.02-.01.03-.02.05-.03.15-.1.38,0,.38.18,0,.09-.05.2-.12.25-.04.06-.11.1-.18.1Z"/>
  <path class="cls-6" d="m195.67,64.47c-.14,0-.25-.11-.25-.25v-.1c0-.14.11-.25.25-.25s.25.11.25.25v.1c0,.14-.11.25-.25.25Z"/>
  <path class="cls-6" d="m195.67,64.37c-.14,0-.25-.11-.25-.25v-.1c0-.07.03-.13.07-.18l.05-.09s.03-.04.05-.06l.1-.1s.04-.03.06-.05l.1-.05s.07-.03.11-.03h.2c.14,0,.25.11.25.25s-.11.25-.25.25l-.19.05-.03.06s-.01.03-.02.04h0c0,.14-.11.25-.25.25Z"/>
  <path class="cls-6" d="m197.03,64.12s-.03,0-.04,0l-.85-.15c-.14-.02-.23-.15-.2-.29.02-.14.16-.23.29-.2l.85.15c.14.02.23.15.2.29-.02.12-.13.21-.25.21Z"/>
  <path class="cls-6" d="m197.38,64.5c-.13,0-.24-.08-.25-.22l-.02-.05s-.01-.03-.02-.05l-.07-.04s-.04-.03-.06-.05l-.02-.02c-.08-.04-.13-.12-.13-.21,0-.14.09-.25.23-.25h.05c.07,0,.13.03.18.07l.09.05s.04.03.06.05l.1.1s.07.1.07.17l.02.05s.03.07.03.11c0,.14-.11.27-.25.27Z"/>
  <path class="cls-6" d="m197.38,64.87c-.14,0-.25-.11-.25-.25v-.35c0-.14.11-.25.25-.25s.25.11.25.25v.35c0,.14-.11.25-.25.25Z"/>
  <path class="cls-6" d="m197.77,65.32c-.05,0-.11-.02-.15-.05h0c-.07,0-.13-.03-.18-.07l-.09-.05s-.05-.03-.06-.05l-.05-.05s-.04-.04-.05-.07l-.05-.1s-.03-.07-.03-.11v-.15c0-.14.11-.25.25-.25s.25.11.25.25v.1s.06.03.06.03c.01,0,.03.01.04.02h0c.07,0,.13.03.18.07l.05.05c.1.1.1.26,0,.35-.05.05-.11.07-.18.07Z"/>
  <path class="cls-6" d="m199.77,65.32h-2c-.14,0-.25-.11-.25-.25s.11-.25.25-.25h2c.14,0,.25.11.25.25s-.11.25-.25.25Z"/>
  <path class="cls-6" d="m199.77,65.32c-.09,0-.18-.05-.22-.14-.06-.12-.01-.27.11-.33l.1-.05s.07-.02.1-.03l.06-.06v-.09c0-.14.11-.25.25-.25s.25.11.25.25v.1s0,.13-.03.16l-.05.1s-.03.05-.05.07l-.1.1s-.04.04-.07.05l-.1.05s-.07.02-.1.03l-.05.02s-.07.03-.11.03Z"/>
  <path class="cls-6" d="m200.17,64.87c-.14,0-.25-.11-.25-.25v-18.2c0-.14.11-.25.25-.25s.25.11.25.25v18.2c0,.14-.11.25-.25.25Z"/>
  <path class="cls-6" d="m200.18,46.67s-.02,0-.04,0c-.14-.02-.23-.15-.21-.28l.05-.35.11-.38.22-.41.22-.28.34-.29.35-.18.39-.12.38-.06c.13-.02.26.07.28.21.02.14-.08.26-.21.28l-.35.05-.32.09-.26.13-.25.22-.16.21-.18.32-.08.29-.04.32c-.02.12-.12.21-.25.21Z"/>
  <path class="cls-6" d="m237.32,44.82h-35.3c-.14,0-.25-.11-.25-.25s.11-.25.25-.25h35.3c.14,0,.25.11.25.25s-.11.25-.25.25Z"/>
  <path class="cls-6" d="m237.32,113.77c-.14,0-.25-.11-.25-.25V44.57c0-.14.11-.25.25-.25s.25.11.25.25v68.95c0,.14-.11.25-.25.25Z"/>
  <path class="cls-6" d="m237.32,113.77h-13.45c-.14,0-.25-.11-.25-.25s.11-.25.25-.25h13.45c.14,0,.25.11.25.25s-.11.25-.25.25Z"/>
  <path class="cls-6" d="m223.17,114.47c-.14,0-.25-.11-.25-.25v-.15s0-.08.03-.11l.09-.22s.03-.07.06-.1l.2-.2s.04-.04.06-.05l.28-.11s.05-.01.08-.01h.15c.14,0,.25.11.25.25s-.11.25-.25.25h-.11l-.14.05-.13.13-.07.27c0,.14-.11.25-.25.25Z"/>
  <path class="cls-6" d="m223.17,114.92c-.14,0-.25-.11-.25-.25v-.45c0-.14.11-.25.25-.25s.25.11.25.25v.45c0,.14-.11.25-.25.25Z"/>
  <path class="cls-6" d="m223.88,115.62h-.15s-.05,0-.08-.01l-.15-.05s-.07-.03-.1-.06l-.14-.1s-.05-.03-.06-.05l-.1-.1s-.05-.06-.06-.1l-.1-.3s-.01-.05-.01-.08v-.1c0-.14.11-.25.25-.25s.25.11.25.25v.06l.1.24.06.03s.04.03.06.05l.11.08h.11c.14,0,.25.11.25.25s-.11.25-.25.25Z"/>
  <path class="cls-6" d="m237.32,115.62h-13.45c-.14,0-.25-.11-.25-.25s.11-.25.25-.25h13.45c.14,0,.25.11.25.25s-.11.25-.25.25Z"/>
  <path class="cls-6" d="m237.32,117.17c-.14,0-.25-.11-.25-.25v-1.55c0-.14.11-.25.25-.25s.25.11.25.25v1.55c0,.14-.11.25-.25.25Z"/>
  <path class="cls-6" d="m238.02,117.87h-.1s-.05,0-.08-.01l-.3-.1s-.07-.03-.1-.06l-.1-.1s-.03-.04-.05-.06l-.2-.35s-.03-.07-.03-.11v-.15c0-.14.11-.25.25-.25s.25.11.25.25l.02.14.16.24.27.07c.14,0,.25.11.25.25s-.11.25-.25.25Z"/>
  <path class="cls-6" d="m238.63,117.87h-.15c-.14,0-.25-.11-.25-.25s.11-.25.25-.25l.14-.02.13-.04.12-.12.07-.26c0-.14.11-.25.25-.25s.25.11.25.25v.15s0,.08-.03.11l-.09.22s-.03.07-.06.1l-.2.2s-.06.05-.1.06l-.22.09s-.07.03-.11.03Z"/>
  <path class="cls-6" d="m239.17,117.17c-.14,0-.25-.11-.25-.25V41.07c0-.14.11-.25.25-.25s.25.11.25.25v75.85c0,.14-.11.25-.25.25Z"/>
  <path class="cls-6" d="m28.13,85.87c-.14,0-.25-.11-.25-.25v-4.7c0-.14.11-.25.25-.25s.25.11.25.25v4.7c0,.14-.11.25-.25.25Z"/>
  <path class="cls-6" d="m55.77,81.17h-27.65c-.14,0-.25-.11-.25-.25s.11-.25.25-.25h27.65c.14,0,.25.11.25.25s-.11.25-.25.25Z"/>
  <path class="cls-6" d="m55.77,85.87c-.14,0-.25-.11-.25-.25v-4.7c0-.14.11-.25.25-.25s.25.11.25.25v4.7c0,.14-.11.25-.25.25Z"/>
  <path class="cls-6" d="m55.77,85.87h-1.3c-.14,0-.25-.11-.25-.25s.11-.25.25-.25h1.3c.14,0,.25.11.25.25s-.11.25-.25.25Z"/>
  <path class="cls-6" d="m53.77,86.57s-.05,0-.08-.01c-.13-.04-.2-.18-.16-.32l.04-.11v-.11c0-.07.03-.13.07-.18l.1-.13s.05-.07.09-.1l.28-.16.18-.06s.05-.01.08-.01h.1c.14,0,.25.11.25.25s-.11.25-.25.25h-.06l-.25.12-.02.04s-.03.05-.05.07l-.03.03v.05s0,.05-.01.08l-.05.15c-.03.1-.13.17-.24.17Z"/>
  <path class="cls-6" d="m53.77,86.97c-.14,0-.25-.11-.25-.25v-.4c0-.14.11-.25.25-.25s.25.11.25.25v.4c0,.14-.11.25-.25.25Z"/>
  <path class="cls-6" d="m54.47,87.67h-.1s-.05,0-.08-.01l-.28-.11-.18-.11s-.07-.06-.09-.1l-.03-.06-.07-.07s-.07-.11-.07-.18v-.11l-.04-.11c-.04-.13.03-.27.16-.32.13-.04.27.03.32.16l.05.15s.01.05.01.08l.03.07s.04.04.05.07l.02.04.24.12h.06c.14,0,.25.11.25.25s-.11.25-.25.25Z"/>
  <path class="cls-6" d="m56.92,87.67h-2.45c-.14,0-.25-.11-.25-.25s.11-.25.25-.25h2.45c.14,0,.25.11.25.25s-.11.25-.25.25Z"/>
  <path class="cls-6" d="m57.02,87.67h-.1c-.14,0-.25-.11-.25-.25s.11-.25.25-.25h.06l.23-.1.03-.06s.03-.05.05-.07l.08-.11v-.11c0-.14.11-.25.25-.25s.25.11.25.25v.15s0,.05-.01.08l-.05.15s-.03.07-.06.1l-.1.13s-.03.05-.05.07l-.1.1s-.06.05-.1.06l-.3.1s-.05.01-.08.01Z"/>
  <path class="cls-6" d="m57.63,86.97c-.14,0-.25-.11-.25-.25v-42.15c0-.14.11-.25.25-.25s.25.11.25.25v42.15c0,.14-.11.25-.25.25Z"/>
  <path class="cls-6" d="m164.32,44.82H57.63c-.14,0-.25-.11-.25-.25s.11-.25.25-.25h106.7c.14,0,.25.11.25.25s-.11.25-.25.25Z"/>
  <path class="cls-6" d="m166.17,46.67c-.12,0-.23-.09-.25-.21l-.05-.35-.09-.32-.12-.28-.43-.43-.59-.22-.35-.04c-.14-.02-.23-.14-.22-.28.02-.14.14-.23.28-.22l.4.05.35.11.37.16s.06.03.08.05l.5.5s.04.05.05.08l.15.35.11.38.06.38c.02.14-.08.26-.21.28-.01,0-.02,0-.04,0Z"/>
  <path class="cls-6" d="m166.17,64.87c-.14,0-.25-.11-.25-.25v-18.2c0-.14.11-.25.25-.25s.25.11.25.25v18.2c0,.14-.11.25-.25.25Z"/>
  <path class="cls-6" d="m166.63,65.32s-.08,0-.11-.03l-.09-.02c-.07,0-.13-.03-.18-.07l-.15-.15s-.03-.04-.05-.06l-.05-.09s-.07-.11-.07-.18v-.1c0-.14.11-.25.25-.25s.25.11.25.25h0s.02.02.02.04l.08.11s.07,0,.11.03l.1.05c.12.06.17.21.11.33-.04.09-.13.14-.22.14Z"/>
  <path class="cls-6" d="m168.57,65.32h-1.95c-.14,0-.25-.11-.25-.25s.11-.25.25-.25h1.95c.14,0,.25.11.25.25s-.11.25-.25.25Z"/>
  <path class="cls-6" d="m168.57,65.32c-.09,0-.18-.05-.22-.14-.06-.12-.01-.27.11-.33l.1-.05s.07-.03.11-.03l.08-.11s.01-.03.02-.04c0-.14.11-.25.25-.25s.25.11.25.25v.1c0,.07-.03.13-.07.18l-.05.08s-.03.05-.05.07l-.15.15s-.11.07-.18.07l-.09.02s-.07.03-.11.03Z"/>
  <path class="cls-6" d="m169.02,64.87c-.14,0-.25-.11-.25-.25v-.35c0-.14.11-.25.25-.25s.25.11.25.25v.35c0,.14-.11.25-.25.25Z"/>
  <path class="cls-6" d="m169.02,64.5c-.14,0-.25-.09-.25-.23v-.15c0-.07.03-.13.07-.18l.2-.2s.04-.04.07-.05l.1-.05c.16-.08.39.05.39.22,0,.14-.08.25-.22.25l-.11.1c0,.14-.11.27-.25.27Z"/>
  <path class="cls-6" d="m169.37,64.12c-.12,0-.22-.09-.25-.21-.02-.14.07-.27.2-.29l.85-.15c.13-.02.27.07.29.2.02.14-.07.27-.2.29l-.85.15s-.03,0-.04,0Z"/>
  <path class="cls-6" d="m170.72,64.37c-.14,0-.25-.11-.25-.25h0s-.02-.02-.02-.04l-.03-.06-.06-.03s-.03-.01-.04-.02h-.1c-.14,0-.25-.11-.25-.25s.11-.25.25-.25h.2c.07,0,.13.03.18.07l.08.05s.05.03.07.05l.05.05s.04.04.05.07l.05.08s.07.11.07.18v.1c0,.14-.11.25-.25.25Z"/>
  <path class="cls-6" d="m170.72,64.47c-.14,0-.25-.11-.25-.25v-.1c0-.14.11-.25.25-.25s.25.11.25.25v.1c0,.14-.11.25-.25.25Z"/>
  <path class="cls-6" d="m170.88,64.57c-.07,0-.23-.03-.28-.07l-.05-.05s-.07-.11-.07-.18c0-.14.11-.27.25-.27.1,0,.19.05.23.13.07.05.12.12.12.19,0,.14-.06.25-.2.25Z"/>
  <path class="cls-6" d="m174.38,64.57h-3.5c-.14,0-.25-.11-.25-.25s.11-.25.25-.25h3.5c.14,0,.25.11.25.25s-.11.25-.25.25Z"/>
  <path class="cls-6" d="m174.47,64.57h-.1c-.14,0-.25-.11-.25-.25s.11-.25.25-.25l.15-.05.05-.1-.02-.04c-.06-.12-.01-.27.11-.33.12-.06.27-.01.33.11l.05.1s.03.07.03.11v.1s0,.08-.03.11l-.1.2s-.03.04-.05.06l-.05.05s-.04.04-.07.05l-.2.1s-.07.03-.11.03Z"/>
  <path class="cls-6" d="m174.77,64.02c-.11,0-.21-.07-.24-.18l-.85-2.75c-.04-.13.03-.27.17-.31.13-.04.27.03.31.17l.85,2.75c.04.13-.03.27-.17.31-.02,0-.05.01-.07.01Z"/>
  <path class="cls-6" d="m173.92,61.27c-.06,0-.13-.02-.18-.07l-.05-.05s-.06-.07-.07-.12c0,0,0,0-.01-.02,0,0-.01,0-.02-.01-.04-.01-.08-.03-.1-.05l-.05-.05c-.1-.1-.1-.26,0-.35.1-.1.25-.1.35,0,.04.01.08.03.1.05h.01c.07.04.13.1.15.16.03.03.05.07.06.11.08.1.08.24-.02.34-.05.05-.11.07-.18.07Z"/>
  <path class="cls-6" d="m173.63,60.97s-.05,0-.08-.01l-1.7-.55c-.13-.04-.2-.18-.16-.31.04-.13.18-.2.31-.16l1.7.55c.13.04.2.18.16.31-.03.11-.13.17-.24.17Z"/>
  <path class="cls-6" d="m171.57,60.47c-.14,0-.27-.11-.27-.25,0-.12.06-.21.17-.24.03-.02.06-.04.1-.05.04-.04.1-.06.16-.06.07,0,.23.03.28.07l.02.02c.08.04.13.12.13.21,0,.14-.09.25-.23.25h-.05s-.07,0-.1-.02c-.01,0-.03.01-.04.01-.04.04-.1.06-.16.06Z"/>
  <path class="cls-6" d="m169.02,62.47c-.07,0-.15-.03-.2-.09-.09-.11-.07-.27.04-.35l2.5-2c.11-.09.27-.07.35.04.09.11.07.27-.04.35l-2.5,2s-.1.05-.16.05Z"/>
  <path class="cls-6" d="m169.02,62.47c-.14,0-.25-.11-.25-.25v-6.65c0-.14.11-.25.25-.25s.25.11.25.25v6.65c0,.14-.11.25-.25.25Z"/>
  <path class="cls-6" d="m172.38,57.12s-.06,0-.09-.02l-3.35-1.3c-.13-.05-.19-.19-.14-.32.05-.13.19-.19.32-.14l3.35,1.3c.13.05.19.19.14.32-.04.1-.13.16-.23.16Z"/>
  <path class="cls-6" d="m172.42,57.17c-.06,0-.13-.02-.18-.07l-.05-.05c-.1-.1-.1-.26,0-.35.05-.05.11-.07.17-.07l.03-.03c.1-.1.26-.1.35,0,.1.1.1.26,0,.35h0c-.03.08-.09.14-.15.16-.05.04-.11.06-.16.06Z"/>
  <path class="cls-6" d="m172.57,57.02c-.14,0-.25-.11-.25-.25v-5.95c0-.14.11-.25.25-.25s.25.11.25.25v5.95c0,.14-.11.25-.25.25Z"/>
  <path class="cls-6" d="m172.57,51.05c-.11,0-.21-.06-.24-.16-.09-.04-.16-.12-.16-.21,0-.14.06-.25.2-.25.07,0,.23.03.28.07l.1.1s.07.11.07.18c0,.14-.11.27-.25.27Z"/>
  <path class="cls-6" d="m169.02,52.27c-.1,0-.19-.06-.23-.16-.05-.13.01-.27.14-.33l3.35-1.35c.13-.05.27.01.33.14.05.13-.01.27-.14.33l-3.35,1.35s-.06.02-.09.02Z"/>
  <path class="cls-6" d="m169.02,52.27c-.14,0-.25-.11-.25-.25v-6.65c0-.14.11-.25.25-.25s.25.11.25.25v6.65c0,.14-.11.25-.25.25Z"/>
  <path class="cls-6" d="m171.52,47.57c-.05,0-.11-.02-.15-.05l-2.5-1.95c-.11-.08-.13-.24-.04-.35.08-.11.24-.13.35-.04l2.5,1.95c.11.08.13.24.04.35-.05.06-.12.1-.2.1Z"/>
  <path class="cls-6" d="m171.92,47.67h-.2c-.06,0-.17-.02-.22-.07-.04-.01-.08-.03-.1-.05l-.05-.05c-.1-.1-.1-.26,0-.35.1-.1.25-.1.35,0,.03,0,.05.02.07.03h.1c.14,0,.27.11.27.25s-.09.25-.23.25Z"/>
  <path class="cls-6" d="m171.92,47.67c-.1,0-.2-.06-.24-.17-.05-.13.02-.27.15-.32l1.7-.6c.13-.05.27.02.32.15.05.13-.02.27-.15.32l-1.7.6s-.06.01-.08.01Z"/>
  <path class="cls-6" d="m173.67,47.07c-.14,0-.27-.11-.27-.25,0-.12.06-.21.17-.24.02-.02.04-.03.07-.04,0-.01.02-.02.03-.03.01-.02.02-.04.04-.06l.05-.05c.1-.1.26-.1.35,0,.1.1.1.26,0,.35h0s-.03.07-.05.09c-.01.02-.02.05-.04.06l-.05.05s-.07.06-.12.07c-.04.04-.1.06-.16.06Z"/>
  <path class="cls-6" d="m173.92,46.82s-.05,0-.07-.01c-.13-.04-.21-.18-.17-.31l.85-2.8c.04-.13.18-.21.31-.17.13.04.21.18.17.31l-.85,2.8c-.03.11-.13.18-.24.18Z"/>
  <path class="cls-6" d="m174.77,44.02s-.08,0-.11-.03c-.12-.06-.17-.21-.11-.33l.02-.04-.05-.1-.15-.05c-.14,0-.25-.11-.25-.25s.11-.25.25-.25h.1s.08,0,.11.03l.2.1s.05.03.07.05l.05.05s.03.04.05.06l.1.2s.03.07.03.11v.1s0,.08-.03.11l-.05.1c-.04.09-.13.14-.22.14Z"/>
  <path class="cls-6" d="m174.38,43.47h-3.5c-.14,0-.25-.11-.25-.25s.11-.25.25-.25h3.5c.14,0,.25.11.25.25s-.11.25-.25.25Z"/>
  <path class="cls-6" d="m170.72,43.62c-.14,0-.25-.11-.25-.25v-.1c0-.1.06-.19.15-.23.04-.04.1-.07.15-.07h.1c.14,0,.25.11.25.25,0,.11-.07.2-.17.24-.03.1-.13.16-.23.16Z"/>
  <path class="cls-6" d="m170.72,43.67c-.14,0-.25-.11-.25-.25s.11-.27.25-.27.25.09.25.23v.05c0,.14-.11.25-.25.25Z"/>
  <path class="cls-6" d="m170.32,44.12h-.1c-.14,0-.25-.11-.25-.25s.11-.25.25-.25l.09-.02s.05-.02.08-.02h0s.03-.06.05-.08l.03-.07c0-.14.11-.25.25-.25s.25.11.25.25v.1s0,.08-.03.11l-.05.1s-.03.05-.05.07l-.05.09s-.06.09-.11.11l-.1.05s-.07.02-.1.03l-.05.02s-.07.03-.11.03Z"/>
  <path class="cls-6" d="m170.23,44.12s-.03,0-.04,0l-.85-.15c-.14-.02-.23-.15-.2-.29.02-.14.16-.23.29-.2l.85.15c.14.02.23.15.2.29-.02.12-.13.21-.25.21Z"/>
  <path class="cls-6" d="m169.38,43.97c-.05,0-.11-.02-.15-.05-.07,0-.13-.03-.18-.07l-.15-.15s-.04-.04-.05-.07l-.05-.1s-.03-.07-.03-.11v-.15c0-.14.11-.25.25-.25s.25.11.25.25l.05.15c.06,0,.13.03.17.07l.05.05c.1.1.1.26,0,.35-.05.05-.11.07-.18.07Z"/>
  <path class="cls-6" d="m169.02,43.52c-.14,0-.25-.11-.25-.25v-.35c0-.14.11-.25.25-.25s.25.11.25.25v.35c0,.14-.11.25-.25.25Z"/>
  <path class="cls-6" d="m169.02,43.15c-.13,0-.24-.08-.25-.22l-.03-.03s-.04-.04-.05-.07l-.03-.06h-.1c-.14,0-.25-.11-.25-.25s.11-.25.25-.25h.2c.07,0,.13.03.18.07l.1.1s.04.04.05.07l.05.08s.03.04.05.06l.05.1s.03.07.03.11c0,.14-.11.27-.25.27Z"/>
  <path class="cls-6" d="m168.57,42.77H52.77c-.14,0-.25-.11-.25-.25s.11-.25.25-.25h115.8c.14,0,.25.11.25.25s-.11.25-.25.25Z"/>
  <path class="cls-6" d="m52.07,43.47s-.05,0-.08-.01c-.13-.04-.2-.19-.16-.32l.04-.17s.01-.1.04-.14l.14-.22s.05-.07.08-.1l.28-.17.18-.06s.05-.01.08-.01h.1c.14,0,.25.11.25.25s-.11.25-.25.25h-.06l-.25.12-.09.18s0,.05-.01.08l-.05.15c-.04.1-.13.17-.24.17Z"/>
  <path class="cls-6" d="m52.07,47.02c-.14,0-.25-.11-.25-.25v-3.55c0-.14.11-.25.25-.25s.25.11.25.25v3.55c0,.14-.11.25-.25.25Z"/>
  <path class="cls-6" d="m52.77,47.72h-.1s-.05,0-.08-.01l-.28-.11-.18-.12s-.07-.06-.08-.1l-.13-.22s-.04-.09-.04-.14v-.06l-.04-.11c-.04-.13.03-.27.16-.32.13-.05.27.03.32.16l.05.15s.01.05.01.08v.02l.09.15.25.12h.06c.14,0,.25.11.25.25s-.11.25-.25.25Z"/>
  <path class="cls-6" d="m52.92,47.72h-.15c-.14,0-.25-.11-.25-.25s.11-.25.25-.25h.15c.14,0,.25.11.25.25s-.11.25-.25.25Z"/>
  <path class="cls-6" d="m53.07,47.72h-.15c-.14,0-.25-.11-.25-.25s.11-.25.25-.25h.11l.14-.05.13-.13.07-.27c0-.14.11-.25.25-.25s.25.11.25.25v.15s0,.08-.03.11l-.09.22s-.03.07-.06.1l-.2.2s-.04.04-.07.05l-.28.11s-.05.01-.08.01Z"/>
  <path class="cls-6" d="m53.63,47.02c-.14,0-.25-.11-.25-.25v-2.7c0-.14.11-.25.25-.25s.25.11.25.25v2.7c0,.14-.11.25-.25.25Z"/>
  <path class="cls-6" d="m55.77,44.32h-2.15c-.14,0-.25-.11-.25-.25s.11-.25.25-.25h2.15c.14,0,.25.11.25.25s-.11.25-.25.25Z"/>
  <path class="cls-6" d="m55.77,55.82c-.14,0-.25-.11-.25-.25v-11.5c0-.14.11-.25.25-.25s.25.11.25.25v11.5c0,.14-.11.25-.25.25Z"/>
  <path class="cls-6" d="m55.77,55.82h-2.15c-.14,0-.25-.11-.25-.25s.11-.25.25-.25h2.15c.14,0,.25.11.25.25s-.11.25-.25.25Z"/>
  <path class="cls-6" d="m53.63,55.82c-.14,0-.25-.11-.25-.25v-2.7c0-.14.11-.25.25-.25s.25.11.25.25v2.7c0,.14-.11.25-.25.25Z"/>
  <path class="cls-6" d="m53.63,53.12c-.14,0-.25-.11-.25-.25v-.11l-.05-.14-.21-.18-.08-.02h-.11c-.14,0-.25-.11-.25-.25s.11-.25.25-.25h.15s.05,0,.08.01l.28.11s.05.03.07.05l.2.2s.03.04.05.06l.11.28s.01.05.01.08v.15c0,.14-.11.25-.25.25Z"/>
  <path class="cls-6" d="m52.92,52.42h-.15c-.14,0-.25-.11-.25-.25s.11-.25.25-.25h.15c.14,0,.25.11.25.25s-.11.25-.25.25Z"/>
  <path class="cls-6" d="m52.07,53.12s-.05,0-.08-.01c-.13-.04-.2-.19-.16-.32l.04-.11v-.11c0-.07.03-.13.07-.18l.1-.14s.05-.07.08-.1l.28-.17.18-.06s.05-.01.08-.01h.1c.14,0,.25.11.25.25s-.11.25-.25.25h-.06l-.25.12-.02.04s-.03.05-.05.06l-.03.03v.05s0,.05-.01.08l-.05.15c-.03.1-.13.17-.24.17Z"/>
  <path class="cls-6" d="m52.07,56.67c-.14,0-.25-.11-.25-.25v-3.55c0-.14.11-.25.25-.25s.25.11.25.25v3.55c0,.14-.11.25-.25.25Z"/>
  <path class="cls-6" d="m52.77,57.37h-.1s-.05,0-.08-.01l-.15-.05s-.07-.03-.1-.06l-.06-.06-.09-.03c-.06-.02-.11-.07-.14-.12l-.13-.22s-.04-.09-.04-.14l-.02-.14c-.06-.12-.01-.27.11-.34.12-.06.27-.01.34.11l.05.1s.03.07.03.11v.07l.08.12.05.02s.07.03.1.06l.11.08h.06c.14,0,.25.11.25.25s-.11.25-.25.25Z"/>
  <path class="cls-6" d="m55.07,57.37h-2.3c-.14,0-.25-.11-.25-.25s.11-.25.25-.25h2.3c.14,0,.25.11.25.25s-.11.25-.25.25Z"/>
  <path class="cls-6" d="m55.77,58.07c-.14,0-.25-.11-.25-.25l-.02-.14-.04-.13-.12-.12-.27-.07c-.14,0-.25-.11-.25-.25s.11-.25.25-.25h.15s.08,0,.11.03l.22.09s.07.03.1.06l.2.2s.05.06.06.1l.09.22s.03.07.03.11v.15c0,.14-.11.25-.25.25Z"/>
  <path class="cls-6" d="m55.77,78.62c-.14,0-.25-.11-.25-.25v-20.55c0-.14.11-.25.25-.25s.25.11.25.25v20.55c0,.14-.11.25-.25.25Z"/>
  <path class="cls-6" d="m55.22,79.32h-.15c-.14,0-.25-.11-.25-.25s.11-.25.25-.25l.14-.02.12-.04.12-.12.07-.27c0-.14.11-.25.25-.25s.25.11.25.25v.15s0,.08-.03.11l-.09.22s-.03.07-.06.1l-.2.2s-.06.05-.1.06l-.22.09s-.07.03-.11.03Z"/>
  <path class="cls-6" d="m55.07,79.32h-26.25c-.14,0-.25-.11-.25-.25s.11-.25.25-.25h26.25c.14,0,.25.11.25.25s-.11.25-.25.25Z"/>
  <path class="cls-6" d="m28.82,79.32h-.1s-.05,0-.08-.01l-.28-.11-.18-.12s-.07-.06-.08-.1l-.2-.35s-.03-.07-.03-.11v-.15c0-.14.11-.25.25-.25s.25.11.25.25l.02.14.12.19.25.12h.06c.14,0,.25.11.25.25s-.11.25-.25.25Z"/>
  <path class="cls-6" d="m28.13,78.62c-.14,0-.25-.11-.25-.25v-20.55c0-.14.11-.25.25-.25s.25.11.25.25v20.55c0,.14-.11.25-.25.25Z"/>
  <path class="cls-6" d="m28.13,58.07c-.14,0-.25-.11-.25-.25v-.15s0-.08.03-.11l.2-.35s.05-.07.09-.1l.28-.16.18-.06s.05-.01.08-.01h.1c.14,0,.25.11.25.25s-.11.25-.25.25h-.06l-.25.12-.14.24v.09c0,.14-.11.25-.25.25Z"/>
  <path class="cls-6" d="m31.13,57.37h-2.3c-.14,0-.25-.11-.25-.25s.11-.25.25-.25h2.3c.14,0,.25.11.25.25s-.11.25-.25.25Z"/>
  <path class="cls-6" d="m31.27,57.37h-.15c-.14,0-.25-.11-.25-.25s.11-.25.25-.25l.14-.02.24-.16.07-.27c0-.14.11-.25.25-.25s.25.11.25.25v.1s0,.05-.01.08l-.1.3s-.03.07-.06.1l-.1.1s-.04.04-.06.05l-.35.2s-.07.03-.11.03Z"/>
  <path class="cls-6" d="m31.82,56.67c-.14,0-.25-.11-.25-.25v-3.55c0-.14.11-.25.25-.25s.25.11.25.25v3.55c0,.14-.11.25-.25.25Z"/>
  <path class="cls-6" d="m31.82,53.12c-.14,0-.25-.11-.25-.25v-.11l-.05-.14-.13-.13-.27-.07c-.14,0-.25-.11-.25-.25s.11-.25.25-.25h.15s.08,0,.11.03l.22.09s.07.03.1.06l.2.2s.03.04.05.06l.11.28s.01.05.01.08v.15c0,.14-.11.25-.25.25Z"/>
  <path class="cls-6" d="m31.13,52.42h-.15c-.14,0-.25-.11-.25-.25s.11-.25.25-.25h.15c.14,0,.25.11.25.25s-.11.25-.25.25Z"/>
  <path class="cls-6" d="m30.27,53.12c-.14,0-.25-.11-.25-.25v-.15s0-.05.01-.08l.11-.28s.03-.04.05-.06l.2-.2s.04-.04.07-.05l.28-.11s.05-.01.08-.01h.15c.14,0,.25.11.25.25s-.11.25-.25.25h-.11l-.14.05-.18.21-.02.07v.11c0,.14-.11.25-.25.25Z"/>
  <path class="cls-6" d="m30.27,55.82c-.14,0-.25-.11-.25-.25v-2.7c0-.14.11-.25.25-.25s.25.11.25.25v2.7c0,.14-.11.25-.25.25Z"/>
  <path class="cls-6" d="m30.27,55.82h-2.15c-.14,0-.25-.11-.25-.25s.11-.25.25-.25h2.15c.14,0,.25.11.25.25s-.11.25-.25.25Z"/>
  <path class="cls-6" d="m28.13,55.82c-.14,0-.25-.11-.25-.25v-11.5c0-.14.11-.25.25-.25s.25.11.25.25v11.5c0,.14-.11.25-.25.25Z"/>
  <path class="cls-6" d="m30.27,44.32h-2.15c-.14,0-.25-.11-.25-.25s.11-.25.25-.25h2.15c.14,0,.25.11.25.25s-.11.25-.25.25Z"/>
  <path class="cls-6" d="m30.27,47.02c-.14,0-.25-.11-.25-.25v-2.7c0-.14.11-.25.25-.25s.25.11.25.25v2.7c0,.14-.11.25-.25.25Z"/>
  <path class="cls-6" d="m30.97,47.72h-.15s-.05,0-.08-.01l-.28-.11s-.05-.03-.07-.05l-.2-.2s-.05-.06-.06-.1l-.09-.22s-.03-.07-.03-.11v-.15c0-.14.11-.25.25-.25s.25.11.25.25l.02.14.04.12.19.16.08.02h.11c.14,0,.25.11.25.25s-.11.25-.25.25Z"/>
  <path class="cls-6" d="m31.13,47.72h-.15c-.14,0-.25-.11-.25-.25s.11-.25.25-.25h.15c.14,0,.25.11.25.25s-.11.25-.25.25Z"/>
  <path class="cls-6" d="m31.27,47.72h-.15c-.14,0-.25-.11-.25-.25s.11-.25.25-.25l.14-.02.13-.04.12-.12.07-.27c0-.14.11-.25.25-.25s.25.11.25.25v.15s0,.08-.03.11l-.09.22s-.03.07-.06.1l-.2.2s-.06.05-.1.06l-.22.09s-.07.03-.11.03Z"/>
  <path class="cls-6" d="m31.82,47.02c-.14,0-.25-.11-.25-.25v-3.55c0-.14.11-.25.25-.25s.25.11.25.25v3.55c0,.14-.11.25-.25.25Z"/>
  <path class="cls-6" d="m31.82,43.47c-.14,0-.25-.11-.25-.25l-.02-.14-.04-.13-.12-.12-.26-.07c-.14,0-.25-.11-.25-.25s.11-.25.25-.25h.15s.08,0,.11.03l.22.09s.07.03.1.06l.2.2s.05.06.06.1l.09.22s.03.07.03.11v.15c0,.14-.11.25-.25.25Z"/>
  <path class="cls-6" d="m31.13,42.77h-4.85c-.14,0-.25-.11-.25-.25s.11-.25.25-.25h4.85c.14,0,.25.11.25.25s-.11.25-.25.25Z"/>
  <path class="cls-6" d="m26.27,117.17c-.14,0-.25-.11-.25-.25V42.52c0-.14.11-.25.25-.25s.25.11.25.25v74.4c0,.14-.11.25-.25.25Z"/>
  <path class="cls-6" d="m27.02,117.87h-.15s-.05,0-.08-.01l-.28-.11s-.05-.03-.07-.05l-.2-.2-.13-.19s-.04-.09-.04-.14v-.06l-.04-.11c-.04-.13.03-.27.16-.32.13-.05.27.03.32.16l.05.15s.01.05.01.08v.02l.2.22.14.06h.11c.14,0,.25.11.25.25s-.11.25-.25.25Z"/>
  <path class="cls-6" d="m56.92,117.87h-29.9c-.14,0-.25-.11-.25-.25s.11-.25.25-.25h29.9c.14,0,.25.11.25.25s-.11.25-.25.25Z"/>
  <path class="cls-6" d="m57.02,117.87h-.1c-.14,0-.25-.11-.25-.25s.11-.25.25-.25h.06l.24-.1.16-.26v-.09c0-.14.11-.25.25-.25s.25.11.25.25v.15s0,.08-.03.11l-.2.35s-.03.05-.05.07l-.1.1s-.06.05-.1.06l-.3.1s-.05.01-.08.01Z"/>
  <path class="cls-6" d="m57.63,117.17c-.14,0-.25-.11-.25-.25v-6.8c0-.14.11-.25.25-.25s.25.11.25.25v6.8c0,.14-.11.25-.25.25Z"/>
  <path class="cls-6" d="m57.63,110.37c-.14,0-.25-.11-.25-.25l-.02-.14-.16-.24-.27-.07c-.14,0-.25-.11-.25-.25s.11-.25.25-.25h.1s.05,0,.08.01l.3.1s.07.03.1.06l.1.1s.04.04.05.07l.2.35s.03.07.03.11v.15c0,.14-.11.25-.25.25Z"/>
  <path class="cls-6" d="m56.92,109.67h-2.45c-.14,0-.25-.11-.25-.25s.11-.25.25-.25h2.45c.14,0,.25.11.25.25s-.11.25-.25.25Z"/>
  <path class="cls-6" d="m53.77,110.37s-.05,0-.08-.01c-.13-.04-.2-.19-.16-.32l.04-.17s.01-.1.04-.14l.13-.22s.05-.07.08-.1l.28-.17.18-.06s.05-.01.08-.01h.1c.14,0,.25.11.25.25s-.11.25-.25.25h-.06l-.25.12-.09.18s0,.05-.01.08l-.05.15c-.03.1-.13.17-.24.17Z"/>
  <path class="cls-6" d="m53.77,110.77c-.14,0-.25-.11-.25-.25v-.4c0-.14.11-.25.25-.25s.25.11.25.25v.4c0,.14-.11.25-.25.25Z"/>
  <path class="cls-6" d="m54.47,111.52s-.08,0-.11-.03l-.05-.02h-.09c-.07,0-.13-.03-.18-.07l-.21-.17s-.07-.06-.08-.1l-.03-.06-.07-.07s-.07-.11-.07-.18v-.11l-.04-.11c-.04-.13.03-.27.16-.32.13-.05.27.03.32.16l.05.15s.01.05.01.08l.03.07s.04.04.05.07l.02.04.21.12s.08,0,.11.03l.1.05c.12.06.17.21.11.34-.04.09-.13.14-.22.14Z"/>
  <path class="cls-6" d="m55.77,111.52h-1.3c-.14,0-.25-.11-.25-.25s.11-.25.25-.25h1.3c.14,0,.25.11.25.25s-.11.25-.25.25Z"/>
  <path class="cls-6" d="m55.77,116.02c-.14,0-.25-.11-.25-.25v-4.5c0-.14.11-.25.25-.25s.25.11.25.25v4.5c0,.14-.11.25-.25.25Z"/>
  <path class="cls-6" d="m55.77,116.02h-27.65c-.14,0-.25-.11-.25-.25s.11-.25.25-.25h27.65c.14,0,.25.11.25.25s-.11.25-.25.25Z"/>
  <path class="cls-6" d="m28.13,116.02c-.14,0-.25-.11-.25-.25v-4.5c0-.14.11-.25.25-.25s.25.11.25.25v4.5c0,.14-.11.25-.25.25Z"/>
  <path class="cls-6" d="m29.42,111.52h-1.3c-.14,0-.25-.11-.25-.25s.11-.25.25-.25h1.3c.14,0,.25.11.25.25s-.11.25-.25.25Z"/>
  <path class="cls-6" d="m29.42,111.52c-.09,0-.18-.05-.22-.14-.06-.12-.01-.27.11-.33l.1-.05s.07-.03.11-.03h.07l.22-.2.06-.14v-.11c0-.14.11-.25.25-.25s.25.11.25.25v.15s0,.05-.01.08l-.11.28s-.03.05-.05.07l-.2.2-.19.13s-.09.04-.14.04l-.14.02s-.07.03-.11.03Z"/>
  <path class="cls-6" d="m30.13,110.77c-.14,0-.25-.11-.25-.25v-.4c0-.14.11-.25.25-.25s.25.11.25.25v.4c0,.14-.11.25-.25.25Z"/>
  <path class="cls-6" d="m30.13,110.37c-.14,0-.25-.11-.25-.25l-.02-.14-.04-.13-.12-.12-.27-.07c-.14,0-.25-.11-.25-.25s.11-.25.25-.25h.1s.05,0,.08.01l.3.1s.07.03.1.06l.2.2s.05.06.06.1l.09.22s.03.07.03.11v.15c0,.14-.11.25-.25.25Z"/>
  <path class="cls-6" d="m29.42,109.67h-1.3c-.14,0-.25-.11-.25-.25s.11-.25.25-.25h1.3c.14,0,.25.11.25.25s-.11.25-.25.25Z"/>
  <path class="cls-6" d="m28.13,109.67c-.14,0-.25-.11-.25-.25v-22c0-.14.11-.25.25-.25s.25.11.25.25v22c0,.14-.11.25-.25.25Z"/>
  <path class="cls-6" d="m29.42,87.67h-1.3c-.14,0-.25-.11-.25-.25s.11-.25.25-.25h1.3c.14,0,.25.11.25.25s-.11.25-.25.25Z"/>
  <path class="cls-6" d="m29.52,87.67h-.1c-.14,0-.25-.11-.25-.25s.11-.25.25-.25h.06l.21-.07.16-.19.02-.08v-.11c0-.14.11-.25.25-.25s.25.11.25.25v.15s0,.05-.01.08l-.11.28s-.03.05-.05.07l-.2.2s-.06.05-.1.06l-.3.1s-.05.01-.08.01Z"/>
  <path class="cls-6" d="m30.13,86.97c-.14,0-.25-.11-.25-.25v-.4c0-.14.11-.25.25-.25s.25.11.25.25v.4c0,.14-.11.25-.25.25Z"/>
  <path class="cls-6" d="m30.13,86.57c-.14,0-.25-.11-.25-.25v-.11l-.05-.14-.13-.13-.27-.07c-.14,0-.25-.11-.25-.25s.11-.25.25-.25h.1s.05,0,.08.01l.3.1s.07.03.1.06l.2.2s.04.04.05.07l.11.28s.01.05.01.08v.15c0,.14-.11.25-.25.25Z"/>
  <path class="cls-6" d="m29.42,85.87h-1.3c-.14,0-.25-.11-.25-.25s.11-.25.25-.25h1.3c.14,0,.25.11.25.25s-.11.25-.25.25Z"/>
</svg>