<?xml version="1.0" encoding="UTF-8"?>
<svg id="Capa_1" data-name="Capa 1" xmlns="http://www.w3.org/2000/svg" xmlns:xlink="http://www.w3.org/1999/xlink" viewBox="0 0 300 127">
  <defs>
    <style>
      .cls-1 {
        fill: #818080;
      }

      .cls-2 {
        clip-path: url(#clippath-1);
      }

      .cls-3 {
        stroke: #818080;
        stroke-width: .25px;
      }

      .cls-3, .cls-4, .cls-5 {
        fill: none;
      }

      .cls-3, .cls-5 {
        stroke-linecap: round;
        stroke-linejoin: round;
      }

      .cls-6 {
        fill: #88868b;
      }

      .cls-7 {
        clip-path: url(#clippath);
      }

      .cls-5 {
        stroke: #727276;
        stroke-width: .5px;
      }
    </style>
    <clipPath id="clippath">
      <rect class="cls-4" x="179.94" y="42.99" width="35.05" height="21.15"/>
    </clipPath>
    <clipPath id="clippath-1">
      <rect class="cls-4" x="179.94" y="42.99" width="35.05" height="21.15"/>
    </clipPath>
  </defs>
  <line class="cls-3" x1="256.26" y1="12.49" x2="256.26" y2="35.84"/>
  <line class="cls-3" x1="245.54" y1="18.06" x2="20.26" y2="18.06"/>
  <polygon class="cls-1" points="256.26 18.06 245.54 16 245.54 20.11 256.26 18.06"/>
  <polygon class="cls-3" points="256.26 18.06 245.54 16 245.54 20.11 256.26 18.06"/>
  <polygon class="cls-1" points="9.54 18.06 20.26 16 20.26 20.11 9.54 18.06"/>
  <polygon class="cls-3" points="9.54 18.06 20.26 16 20.26 20.11 9.54 18.06"/>
  <line class="cls-3" x1="9.46" y1="12.49" x2="9.46" y2="35.84"/>
  <polygon class="cls-1" points="124.71 9.74 124.69 9.74 123.56 10.35 123.39 9.68 124.81 8.92 125.56 8.92 125.56 15.41 124.71 15.41 124.71 9.74"/>
  <polygon class="cls-1" points="132.15 8.92 132.15 9.5 129.32 15.41 128.41 15.41 131.23 9.67 131.23 9.65 128.05 9.65 128.05 8.92 132.15 8.92"/>
  <path class="cls-1" d="m136.94,9.66h-2.48l-.25,1.67c.15-.02.29-.04.53-.04.5,0,1,.11,1.4.35.51.29.93.85.93,1.67,0,1.27-1.01,2.22-2.42,2.22-.71,0-1.31-.2-1.62-.4l.22-.67c.27.16.8.36,1.39.36.83,0,1.54-.54,1.54-1.41-.01-.84-.57-1.44-1.87-1.44-.37,0-.66.04-.9.07l.42-3.12h3.11v.74Z"/>
  <line class="cls-3" x1="287.48" y1="118.08" x2="264.13" y2="118.08"/>
  <line class="cls-3" x1="281.91" y1="118.08" x2="281.91" y2="40.36"/>
  <polygon class="cls-1" points="281.91 118.08 283.97 107.36 279.86 107.36 281.91 118.08"/>
  <polygon class="cls-3" points="281.91 118.08 283.97 107.36 279.86 107.36 281.91 118.08"/>
  <polygon class="cls-1" points="281.91 40.36 283.97 51.08 279.86 51.08 281.91 40.36"/>
  <polygon class="cls-3" points="281.91 40.36 283.97 51.08 279.86 51.08 281.91 40.36"/>
  <line class="cls-3" x1="287.48" y1="40.28" x2="264.13" y2="40.28"/>
  <path class="cls-1" d="m290.31,76.5v-2.48l-1.67-.25c.02.15.04.29.04.53,0,.5-.11,1-.35,1.4-.29.51-.85.93-1.67.93-1.27,0-2.22-1.01-2.22-2.42,0-.71.2-1.31.4-1.62l.67.22c-.16.27-.36.8-.36,1.39,0,.83.54,1.54,1.41,1.54.84-.01,1.44-.57,1.44-1.87,0-.37-.04-.66-.07-.9l3.12.42v3.11h-.74Z"/>
  <path class="cls-1" d="m285.57,77.96c-.16.25-.41.83-.41,1.44,0,1.13.72,1.48,1.26,1.47.91-.01,1.3-.83,1.3-1.68v-.49h.66v.49c0,.64.33,1.45,1.1,1.45.52,0,.98-.33.98-1.14,0-.52-.23-1.02-.43-1.3l.64-.23c.25.34.5,1,.5,1.7,0,1.28-.76,1.86-1.55,1.86-.67,0-1.24-.4-1.53-1.2h-.02c-.16.8-.76,1.45-1.67,1.45-1.04,0-1.95-.81-1.95-2.37,0-.73.23-1.37.44-1.69l.68.24Z"/>
  <g class="cls-7">
    <g class="cls-2">
      <polygon class="cls-6" points="214.99 55.44 214.99 61.84 212.59 59.99 212.59 59.94 212.54 59.94 212.49 59.89 212.44 59.89 212.39 59.89 210.44 59.89 210.16 60.73 209.04 64.14 185.89 64.14 184.54 59.89 182.79 59.89 182.54 59.89 182.49 59.89 182.44 59.89 182.39 59.94 182.34 59.94 182.34 59.99 179.94 61.84 179.94 55.44 183.89 57.04 186.59 57.04 187.94 61.29 206.99 61.29 208.34 57.04 211.04 57.04 214.99 55.44"/>
      <polygon class="cls-6" points="214.99 45.29 214.99 51.69 211.04 50.09 208.34 50.09 206.99 45.84 187.94 45.84 186.59 50.09 183.89 50.09 179.94 51.69 179.94 45.29 182.34 47.19 182.39 47.19 182.39 47.24 182.44 47.24 182.49 47.24 182.54 47.29 184.54 47.29 185.89 42.99 209.04 42.99 210.44 47.29 212.39 47.29 212.44 47.29 212.44 47.24 212.49 47.24 212.54 47.24 212.54 47.19 212.59 47.19 212.61 47.17 214.99 45.29"/>
    </g>
  </g>
  <line class="cls-5" x1="184.54" y1="59.89" x2="185.89" y2="64.14"/>
  <polyline class="cls-5" points="212.39 59.89 212.44 59.89 212.49 59.89 212.54 59.94 212.59 59.94 212.59 59.99"/>
  <line class="cls-5" x1="206.99" y1="61.29" x2="187.94" y2="61.29"/>
  <polyline class="cls-5" points="182.34 59.99 182.34 59.94 182.39 59.94 182.44 59.89 182.49 59.89 182.54 59.89"/>
  <polyline class="cls-5" points="182.54 59.89 182.79 59.89 184.54 59.89"/>
  <line class="cls-5" x1="183.89" y1="57.04" x2="179.94" y2="55.44"/>
  <line class="cls-5" x1="185.89" y1="64.14" x2="209.04" y2="64.14"/>
  <polyline class="cls-5" points="209.04 64.14 210.16 60.73 210.44 59.89"/>
  <line class="cls-5" x1="210.44" y1="59.89" x2="212.39" y2="59.89"/>
  <line class="cls-5" x1="212.59" y1="59.99" x2="214.99" y2="61.84"/>
  <line class="cls-5" x1="214.99" y1="61.84" x2="214.99" y2="55.44"/>
  <line class="cls-5" x1="214.99" y1="55.44" x2="211.04" y2="57.04"/>
  <line class="cls-5" x1="211.04" y1="57.04" x2="208.34" y2="57.04"/>
  <line class="cls-5" x1="208.34" y1="57.04" x2="206.99" y2="61.29"/>
  <line class="cls-5" x1="187.94" y1="61.29" x2="186.59" y2="57.04"/>
  <line class="cls-5" x1="186.59" y1="57.04" x2="183.89" y2="57.04"/>
  <line class="cls-5" x1="179.94" y1="55.44" x2="179.94" y2="61.84"/>
  <line class="cls-5" x1="179.94" y1="61.84" x2="182.34" y2="59.99"/>
  <line class="cls-5" x1="179.94" y1="45.29" x2="179.94" y2="51.69"/>
  <line class="cls-5" x1="179.94" y1="51.69" x2="183.89" y2="50.09"/>
  <line class="cls-5" x1="183.89" y1="50.09" x2="186.59" y2="50.09"/>
  <line class="cls-5" x1="186.59" y1="50.09" x2="187.94" y2="45.84"/>
  <line class="cls-5" x1="187.94" y1="45.84" x2="206.99" y2="45.84"/>
  <line class="cls-5" x1="206.99" y1="45.84" x2="208.34" y2="50.09"/>
  <line class="cls-5" x1="208.34" y1="50.09" x2="211.04" y2="50.09"/>
  <line class="cls-5" x1="211.04" y1="50.09" x2="214.99" y2="51.69"/>
  <line class="cls-5" x1="214.99" y1="51.69" x2="214.99" y2="45.29"/>
  <polyline class="cls-5" points="214.99 45.29 212.61 47.17 212.59 47.19"/>
  <polyline class="cls-5" points="212.59 47.19 212.54 47.19 212.54 47.24 212.49 47.24 212.44 47.24 212.44 47.29 212.39 47.29"/>
  <line class="cls-5" x1="212.39" y1="47.29" x2="210.44" y2="47.29"/>
  <line class="cls-5" x1="210.44" y1="47.29" x2="209.04" y2="42.99"/>
  <line class="cls-5" x1="209.04" y1="42.99" x2="185.89" y2="42.99"/>
  <line class="cls-5" x1="185.89" y1="42.99" x2="184.54" y2="47.29"/>
  <line class="cls-5" x1="184.54" y1="47.29" x2="182.54" y2="47.29"/>
  <polyline class="cls-5" points="182.54 47.29 182.49 47.24 182.44 47.24 182.39 47.24 182.39 47.19 182.34 47.19"/>
  <line class="cls-5" x1="182.34" y1="47.19" x2="179.94" y2="45.29"/>
  <line class="cls-5" x1="255.74" y1="117.44" x2="256.19" y2="117.44"/>
  <polyline class="cls-5" points="256.89 40.89 256.89 40.74 256.84 40.64 256.79 40.49 256.69 40.39 256.59 40.29 256.44 40.24 256.34 40.19 256.19 40.19"/>
  <line class="cls-5" x1="256.19" y1="40.19" x2="255.74" y2="40.19"/>
  <polyline class="cls-5" points="255.74 40.19 255.64 40.19 255.49 40.24 255.34 40.29 255.24 40.39 255.19 40.49 255.09 40.64 255.04 40.74 255.04 40.89"/>
  <line class="cls-5" x1="255.04" y1="40.89" x2="255.04" y2="42.29"/>
  <line class="cls-5" x1="255.04" y1="42.29" x2="215.49" y2="42.29"/>
  <polyline class="cls-5" points="215.49 42.29 215.44 42.29 215.34 42.34 215.29 42.39 215.19 42.44 215.14 42.49 215.09 42.59 215.09 42.64 215.09 42.74"/>
  <line class="cls-5" x1="215.09" y1="42.74" x2="215.09" y2="43.09"/>
  <polyline class="cls-5" points="215.09 43.09 215.09 43.14 215.04 43.24 215.04 43.29 214.99 43.34 214.94 43.39 214.89 43.44 214.79 43.49 214.74 43.49"/>
  <line class="cls-5" x1="214.74" y1="43.49" x2="213.89" y2="43.64"/>
  <polyline class="cls-5" points="213.89 43.64 213.79 43.64 213.69 43.64 213.59 43.59 213.54 43.54 213.49 43.49 213.44 43.39 213.39 43.29 213.39 43.24"/>
  <line class="cls-5" x1="213.39" y1="43.24" x2="213.39" y2="43.14"/>
  <polyline class="cls-5" points="213.39 43.14 213.39 43.09 213.34 43.09 213.34 43.04 213.29 43.04 213.24 42.99"/>
  <line class="cls-5" x1="213.24" y1="42.99" x2="209.69" y2="42.99"/>
  <polyline class="cls-5" points="209.69 42.99 209.59 43.04 209.54 43.04 209.44 43.14 209.39 43.19 209.34 43.29 209.29 43.39 209.29 43.49 209.29 43.59"/>
  <line class="cls-5" x1="209.29" y1="43.59" x2="210.19" y2="46.34"/>
  <polyline class="cls-5" points="210.19 46.34 210.19 46.39 210.24 46.44 210.29 46.49 210.29 46.54 210.34 46.54 210.39 46.59 210.44 46.59 210.49 46.64"/>
  <line class="cls-5" x1="210.49" y1="46.64" x2="212.19" y2="47.19"/>
  <polyline class="cls-5" points="212.19 47.19 212.24 47.19 212.29 47.19 212.34 47.19 212.39 47.19 212.44 47.19 212.49 47.19 212.54 47.14 212.59 47.14"/>
  <line class="cls-5" x1="212.59" y1="47.14" x2="215.09" y2="45.14"/>
  <line class="cls-5" x1="215.09" y1="45.14" x2="215.09" y2="51.79"/>
  <line class="cls-5" x1="215.09" y1="51.79" x2="211.74" y2="50.44"/>
  <polyline class="cls-5" points="211.74 50.44 211.69 50.44 211.64 50.44 211.59 50.49 211.54 50.54 211.54 50.59"/>
  <line class="cls-5" x1="211.54" y1="50.59" x2="211.54" y2="56.54"/>
  <polyline class="cls-5" points="211.54 56.54 211.54 56.59 211.54 56.64 211.59 56.64 211.59 56.69 211.64 56.69 211.69 56.69 211.74 56.69"/>
  <line class="cls-5" x1="211.74" y1="56.69" x2="215.09" y2="55.34"/>
  <line class="cls-5" x1="215.09" y1="55.34" x2="215.09" y2="61.99"/>
  <line class="cls-5" x1="215.09" y1="61.99" x2="212.59" y2="60.04"/>
  <polyline class="cls-5" points="212.59 60.04 212.54 59.99 212.49 59.99 212.44 59.94 212.39 59.94 212.34 59.94 212.29 59.94 212.24 59.94 212.19 59.94"/>
  <line class="cls-5" x1="212.19" y1="59.94" x2="210.49" y2="60.54"/>
  <polyline class="cls-5" points="210.49 60.54 210.44 60.54 210.39 60.54 210.34 60.59 210.29 60.64 210.24 60.69 210.19 60.74 210.19 60.79"/>
  <line class="cls-5" x1="210.19" y1="60.79" x2="209.29" y2="63.59"/>
  <polyline class="cls-5" points="209.29 63.59 209.29 63.69 209.29 63.79 209.34 63.89 209.39 63.94 209.44 64.04 209.54 64.09 209.59 64.14 209.69 64.14"/>
  <line class="cls-5" x1="209.69" y1="64.14" x2="213.24" y2="64.14"/>
  <polyline class="cls-5" points="213.24 64.14 213.29 64.14 213.34 64.09 213.39 64.04 213.39 63.99"/>
  <line class="cls-5" x1="213.39" y1="63.99" x2="213.39" y2="63.94"/>
  <polyline class="cls-5" points="213.39 63.94 213.39 63.84 213.44 63.74 213.49 63.69 213.54 63.59 213.59 63.54 213.69 63.54 213.79 63.49 213.89 63.49"/>
  <line class="cls-5" x1="213.89" y1="63.49" x2="214.74" y2="63.64"/>
  <polyline class="cls-5" points="214.74 63.64 214.79 63.69 214.89 63.69 214.94 63.74 214.99 63.79 215.04 63.84 215.04 63.94 215.09 63.99 215.09 64.09"/>
  <line class="cls-5" x1="215.09" y1="64.09" x2="215.09" y2="64.44"/>
  <polyline class="cls-5" points="215.09 64.44 215.09 64.49 215.09 64.59 215.14 64.64 215.19 64.74 215.29 64.79 215.34 64.79 215.44 64.84 215.49 64.84"/>
  <line class="cls-5" x1="215.49" y1="64.84" x2="217.49" y2="64.84"/>
  <polyline class="cls-5" points="217.49 64.84 217.59 64.84 217.64 64.79 217.74 64.79 217.79 64.74 217.84 64.64 217.89 64.59 217.89 64.49 217.94 64.44"/>
  <line class="cls-5" x1="217.94" y1="64.44" x2="217.94" y2="46.19"/>
  <polyline class="cls-5" points="217.94 46.19 217.94 45.84 218.04 45.49 218.24 45.19 218.44 44.89 218.74 44.69 219.04 44.49 219.39 44.39 219.74 44.34"/>
  <line class="cls-5" x1="219.74" y1="44.34" x2="255.04" y2="44.34"/>
  <line class="cls-5" x1="255.04" y1="44.34" x2="255.04" y2="113.29"/>
  <line class="cls-5" x1="255.04" y1="113.29" x2="241.59" y2="113.29"/>
  <polyline class="cls-5" points="241.59 113.29 241.44 113.34 241.29 113.39 241.19 113.44 241.09 113.54 240.99 113.64 240.94 113.74 240.89 113.89 240.89 114.04"/>
  <line class="cls-5" x1="240.89" y1="114.04" x2="240.89" y2="114.44"/>
  <polyline class="cls-5" points="240.89 114.44 240.89 114.59 240.94 114.74 240.99 114.84 241.09 114.94 241.19 115.04 241.29 115.09 241.44 115.14 241.59 115.14"/>
  <line class="cls-5" x1="241.59" y1="115.14" x2="255.04" y2="115.14"/>
  <line class="cls-5" x1="255.04" y1="115.14" x2="255.04" y2="116.69"/>
  <polyline class="cls-5" points="255.04 116.69 255.04 116.84 255.09 116.99 255.19 117.09 255.24 117.24 255.34 117.29 255.49 117.39 255.64 117.39 255.74 117.44"/>
  <polyline class="cls-5" points="256.19 117.44 256.34 117.39 256.44 117.39 256.59 117.29 256.69 117.24 256.79 117.09 256.84 116.99 256.89 116.84 256.89 116.69"/>
  <line class="cls-5" x1="256.89" y1="116.69" x2="256.89" y2="40.89"/>
  <line class="cls-5" x1="10.69" y1="85.39" x2="10.69" y2="80.69"/>
  <line class="cls-5" x1="10.69" y1="80.69" x2="38.34" y2="80.69"/>
  <line class="cls-5" x1="38.34" y1="80.69" x2="38.34" y2="85.39"/>
  <line class="cls-5" x1="38.34" y1="85.39" x2="37.04" y2="85.39"/>
  <polyline class="cls-5" points="37.04 85.39 36.94 85.39 36.79 85.44 36.69 85.49 36.54 85.59 36.49 85.69 36.39 85.84 36.39 85.94 36.34 86.09"/>
  <line class="cls-5" x1="36.34" y1="86.09" x2="36.34" y2="86.54"/>
  <polyline class="cls-5" points="36.34 86.54 36.39 86.64 36.39 86.79 36.49 86.94 36.54 87.04 36.69 87.14 36.79 87.19 36.94 87.24 37.04 87.24"/>
  <line class="cls-5" x1="37.04" y1="87.24" x2="39.49" y2="87.24"/>
  <polyline class="cls-5" points="39.49 87.24 39.59 87.24 39.74 87.19 39.89 87.14 39.99 87.04 40.04 86.94 40.14 86.79 40.19 86.64 40.19 86.54"/>
  <line class="cls-5" x1="40.19" y1="86.54" x2="40.19" y2="44.34"/>
  <line class="cls-5" x1="40.19" y1="44.34" x2="175.19" y2="44.34"/>
  <polyline class="cls-5" points="175.19 44.34 175.54 44.39 175.89 44.49 176.19 44.69 176.49 44.89 176.69 45.19 176.89 45.49 176.99 45.84 177.04 46.19"/>
  <line class="cls-5" x1="177.04" y1="46.19" x2="177.04" y2="64.44"/>
  <polyline class="cls-5" points="177.04 64.44 177.04 64.49 177.04 64.59 177.09 64.64 177.14 64.74 177.19 64.79 177.29 64.79 177.39 64.84 177.44 64.84"/>
  <line class="cls-5" x1="177.44" y1="64.84" x2="179.44" y2="64.84"/>
  <polyline class="cls-5" points="179.44 64.84 179.54 64.84 179.59 64.79 179.69 64.79 179.74 64.74 179.79 64.64 179.84 64.59 179.84 64.49 179.84 64.44"/>
  <line class="cls-5" x1="179.84" y1="64.44" x2="179.84" y2="64.09"/>
  <polyline class="cls-5" points="179.84 64.09 179.89 63.99 179.89 63.94 179.94 63.84 179.94 63.79 179.99 63.74 180.09 63.69 180.14 63.69 180.24 63.64"/>
  <line class="cls-5" x1="180.24" y1="63.64" x2="181.09" y2="63.49"/>
  <polyline class="cls-5" points="181.09 63.49 181.14 63.49 181.24 63.54 181.34 63.54 181.39 63.59 181.49 63.69 181.54 63.74 181.54 63.84 181.54 63.94"/>
  <line class="cls-5" x1="181.54" y1="63.94" x2="181.54" y2="63.99"/>
  <polyline class="cls-5" points="181.54 63.99 181.54 64.04 181.59 64.04 181.59 64.09 181.64 64.09 181.64 64.14 181.69 64.14"/>
  <line class="cls-5" x1="181.69" y1="64.14" x2="185.24" y2="64.14"/>
  <polyline class="cls-5" points="185.24 64.14 185.34 64.14 185.44 64.09 185.49 64.04 185.59 63.94 185.64 63.89 185.64 63.79 185.64 63.69 185.64 63.59"/>
  <line class="cls-5" x1="185.64" y1="63.59" x2="184.74" y2="60.79"/>
  <polyline class="cls-5" points="184.74 60.79 184.74 60.74 184.69 60.69 184.69 60.64 184.64 60.64 184.59 60.59 184.54 60.54 184.49 60.54"/>
  <line class="cls-5" x1="184.49" y1="60.54" x2="182.79" y2="59.94"/>
  <polyline class="cls-5" points="182.79 59.94 182.74 59.94 182.69 59.94 182.64 59.94 182.54 59.94 182.49 59.94 182.44 59.99 182.39 60.04"/>
  <line class="cls-5" x1="182.39" y1="60.04" x2="179.84" y2="61.99"/>
  <line class="cls-5" x1="179.84" y1="61.99" x2="179.84" y2="55.34"/>
  <line class="cls-5" x1="179.84" y1="55.34" x2="183.19" y2="56.69"/>
  <polyline class="cls-5" points="183.19 56.69 183.24 56.69 183.29 56.69 183.34 56.69 183.39 56.64 183.39 56.59 183.39 56.54"/>
  <line class="cls-5" x1="183.39" y1="56.54" x2="183.39" y2="50.59"/>
  <polyline class="cls-5" points="183.39 50.59 183.39 50.54 183.39 50.49 183.34 50.49 183.29 50.44 183.24 50.44 183.19 50.44"/>
  <line class="cls-5" x1="183.19" y1="50.44" x2="179.84" y2="51.79"/>
  <line class="cls-5" x1="179.84" y1="51.79" x2="179.84" y2="45.14"/>
  <line class="cls-5" x1="179.84" y1="45.14" x2="182.39" y2="47.14"/>
  <polyline class="cls-5" points="182.39 47.14 182.44 47.14 182.44 47.19 182.49 47.19 182.54 47.19 182.64 47.19 182.69 47.19 182.74 47.19 182.79 47.19"/>
  <line class="cls-5" x1="182.79" y1="47.19" x2="184.49" y2="46.64"/>
  <polyline class="cls-5" points="184.49 46.64 184.54 46.59 184.59 46.54 184.64 46.54 184.69 46.49 184.69 46.44 184.74 46.39 184.74 46.34"/>
  <line class="cls-5" x1="184.74" y1="46.34" x2="185.64" y2="43.59"/>
  <polyline class="cls-5" points="185.64 43.59 185.64 43.49 185.64 43.39 185.64 43.29 185.59 43.19 185.49 43.14 185.44 43.04 185.34 43.04 185.24 42.99"/>
  <line class="cls-5" x1="185.24" y1="42.99" x2="181.69" y2="42.99"/>
  <polyline class="cls-5" points="181.69 42.99 181.69 43.04 181.64 43.04 181.59 43.04 181.59 43.09 181.54 43.14"/>
  <line class="cls-5" x1="181.54" y1="43.14" x2="181.54" y2="43.24"/>
  <polyline class="cls-5" points="181.54 43.24 181.54 43.29 181.54 43.39 181.49 43.49 181.39 43.54 181.34 43.59 181.24 43.64 181.14 43.64 181.09 43.64"/>
  <line class="cls-5" x1="181.09" y1="43.64" x2="180.24" y2="43.49"/>
  <polyline class="cls-5" points="180.24 43.49 180.14 43.49 180.09 43.44 179.99 43.39 179.94 43.34 179.94 43.29 179.89 43.24 179.89 43.14 179.84 43.09"/>
  <line class="cls-5" x1="179.84" y1="43.09" x2="179.84" y2="42.74"/>
  <polyline class="cls-5" points="179.84 42.74 179.84 42.64 179.84 42.59 179.79 42.49 179.74 42.44 179.69 42.39 179.59 42.34 179.54 42.29 179.44 42.29"/>
  <line class="cls-5" x1="179.44" y1="42.29" x2="35.34" y2="42.29"/>
  <polyline class="cls-5" points="35.34 42.29 35.24 42.34 35.09 42.34 34.99 42.44 34.84 42.49 34.79 42.64 34.69 42.74 34.69 42.89 34.64 42.99"/>
  <line class="cls-5" x1="34.64" y1="42.99" x2="34.64" y2="46.54"/>
  <polyline class="cls-5" points="34.64 46.54 34.69 46.69 34.69 46.84 34.79 46.94 34.84 47.04 34.99 47.14 35.09 47.19 35.24 47.24 35.34 47.29"/>
  <line class="cls-5" x1="35.34" y1="47.29" x2="35.49" y2="47.29"/>
  <polyline class="cls-5" points="35.49 47.29 35.64 47.24 35.79 47.19 35.89 47.14 35.99 47.04 36.09 46.94 36.14 46.84 36.19 46.69 36.19 46.54"/>
  <line class="cls-5" x1="36.19" y1="46.54" x2="36.19" y2="43.84"/>
  <line class="cls-5" x1="36.19" y1="43.84" x2="38.34" y2="43.84"/>
  <line class="cls-5" x1="38.34" y1="43.84" x2="38.34" y2="55.34"/>
  <line class="cls-5" x1="38.34" y1="55.34" x2="36.19" y2="55.34"/>
  <line class="cls-5" x1="36.19" y1="55.34" x2="36.19" y2="52.64"/>
  <polyline class="cls-5" points="36.19 52.64 36.19 52.49 36.14 52.39 36.09 52.24 35.99 52.14 35.89 52.04 35.79 51.99 35.64 51.94 35.49 51.94"/>
  <line class="cls-5" x1="35.49" y1="51.94" x2="35.34" y2="51.94"/>
  <polyline class="cls-5" points="35.34 51.94 35.24 51.94 35.09 51.99 34.99 52.04 34.84 52.14 34.79 52.24 34.69 52.39 34.69 52.49 34.64 52.64"/>
  <line class="cls-5" x1="34.64" y1="52.64" x2="34.64" y2="56.19"/>
  <polyline class="cls-5" points="34.64 56.19 34.69 56.34 34.69 56.49 34.79 56.59 34.84 56.69 34.99 56.79 35.09 56.84 35.24 56.89 35.34 56.89"/>
  <line class="cls-5" x1="35.34" y1="56.89" x2="37.64" y2="56.89"/>
  <polyline class="cls-5" points="37.64 56.89 37.79 56.94 37.89 56.94 38.04 57.04 38.14 57.09 38.24 57.24 38.29 57.34 38.34 57.49 38.34 57.59"/>
  <line class="cls-5" x1="38.34" y1="57.59" x2="38.34" y2="78.14"/>
  <polyline class="cls-5" points="38.34 78.14 38.34 78.29 38.29 78.44 38.24 78.54 38.14 78.64 38.04 78.74 37.89 78.84 37.79 78.84 37.64 78.89"/>
  <line class="cls-5" x1="37.64" y1="78.89" x2="11.39" y2="78.89"/>
  <polyline class="cls-5" points="11.39 78.89 11.29 78.84 11.14 78.84 11.04 78.74 10.89 78.64 10.84 78.54 10.74 78.44 10.74 78.29 10.69 78.14"/>
  <line class="cls-5" x1="10.69" y1="78.14" x2="10.69" y2="57.59"/>
  <polyline class="cls-5" points="10.69 57.59 10.74 57.49 10.74 57.34 10.84 57.24 10.89 57.09 11.04 57.04 11.14 56.94 11.29 56.94 11.39 56.89"/>
  <line class="cls-5" x1="11.39" y1="56.89" x2="13.69" y2="56.89"/>
  <polyline class="cls-5" points="13.69 56.89 13.84 56.89 13.94 56.84 14.09 56.79 14.19 56.69 14.29 56.59 14.34 56.49 14.39 56.34 14.39 56.19"/>
  <line class="cls-5" x1="14.39" y1="56.19" x2="14.39" y2="52.64"/>
  <polyline class="cls-5" points="14.39 52.64 14.39 52.49 14.34 52.39 14.29 52.24 14.19 52.14 14.09 52.04 13.94 51.99 13.84 51.94 13.69 51.94"/>
  <line class="cls-5" x1="13.69" y1="51.94" x2="13.54" y2="51.94"/>
  <polyline class="cls-5" points="13.54 51.94 13.39 51.94 13.29 51.99 13.14 52.04 13.04 52.14 12.94 52.24 12.89 52.39 12.84 52.49 12.84 52.64"/>
  <line class="cls-5" x1="12.84" y1="52.64" x2="12.84" y2="55.34"/>
  <line class="cls-5" x1="12.84" y1="55.34" x2="10.69" y2="55.34"/>
  <line class="cls-5" x1="10.69" y1="55.34" x2="10.69" y2="43.84"/>
  <line class="cls-5" x1="10.69" y1="43.84" x2="12.84" y2="43.84"/>
  <line class="cls-5" x1="12.84" y1="43.84" x2="12.84" y2="46.54"/>
  <polyline class="cls-5" points="12.84 46.54 12.84 46.69 12.89 46.84 12.94 46.94 13.04 47.04 13.14 47.14 13.29 47.19 13.39 47.24 13.54 47.29"/>
  <line class="cls-5" x1="13.54" y1="47.29" x2="13.69" y2="47.29"/>
  <polyline class="cls-5" points="13.69 47.29 13.84 47.24 13.94 47.19 14.09 47.14 14.19 47.04 14.29 46.94 14.34 46.84 14.39 46.69 14.39 46.54"/>
  <line class="cls-5" x1="14.39" y1="46.54" x2="14.39" y2="42.99"/>
  <polyline class="cls-5" points="14.39 42.99 14.39 42.89 14.34 42.74 14.29 42.64 14.19 42.49 14.09 42.44 13.94 42.34 13.84 42.34 13.69 42.29"/>
  <line class="cls-5" x1="13.69" y1="42.29" x2="8.84" y2="42.29"/>
  <line class="cls-5" x1="8.84" y1="42.29" x2="8.84" y2="116.69"/>
  <polyline class="cls-5" points="8.84 116.69 8.89 116.84 8.89 116.99 8.99 117.09 9.09 117.24 9.19 117.29 9.29 117.39 9.44 117.39 9.59 117.44"/>
  <line class="cls-5" x1="9.59" y1="117.44" x2="39.49" y2="117.44"/>
  <polyline class="cls-5" points="39.49 117.44 39.59 117.39 39.74 117.39 39.89 117.29 39.99 117.24 40.04 117.09 40.14 116.99 40.19 116.84 40.19 116.69"/>
  <line class="cls-5" x1="40.19" y1="116.69" x2="40.19" y2="109.89"/>
  <polyline class="cls-5" points="40.19 109.89 40.19 109.79 40.14 109.64 40.04 109.54 39.99 109.39 39.89 109.34 39.74 109.24 39.59 109.24 39.49 109.19"/>
  <line class="cls-5" x1="39.49" y1="109.19" x2="37.04" y2="109.19"/>
  <polyline class="cls-5" points="37.04 109.19 36.94 109.24 36.79 109.24 36.69 109.34 36.54 109.39 36.49 109.54 36.39 109.64 36.39 109.79 36.34 109.89"/>
  <line class="cls-5" x1="36.34" y1="109.89" x2="36.34" y2="110.34"/>
  <polyline class="cls-5" points="36.34 110.34 36.39 110.49 36.39 110.59 36.49 110.74 36.54 110.84 36.69 110.94 36.79 110.99 36.94 111.04 37.04 111.04"/>
  <line class="cls-5" x1="37.04" y1="111.04" x2="38.34" y2="111.04"/>
  <line class="cls-5" x1="38.34" y1="111.04" x2="38.34" y2="115.59"/>
  <line class="cls-5" x1="38.34" y1="115.59" x2="10.69" y2="115.59"/>
  <line class="cls-5" x1="10.69" y1="115.59" x2="10.69" y2="111.04"/>
  <line class="cls-5" x1="10.69" y1="111.04" x2="11.99" y2="111.04"/>
  <polyline class="cls-5" points="11.99 111.04 12.14 111.04 12.24 110.99 12.39 110.94 12.49 110.84 12.59 110.74 12.64 110.59 12.69 110.49 12.69 110.34"/>
  <line class="cls-5" x1="12.69" y1="110.34" x2="12.69" y2="109.89"/>
  <polyline class="cls-5" points="12.69 109.89 12.69 109.79 12.64 109.64 12.59 109.54 12.49 109.39 12.39 109.34 12.24 109.24 12.14 109.24 11.99 109.19"/>
  <line class="cls-5" x1="11.99" y1="109.19" x2="10.69" y2="109.19"/>
  <line class="cls-5" x1="10.69" y1="109.19" x2="10.69" y2="87.24"/>
  <line class="cls-5" x1="10.69" y1="87.24" x2="11.99" y2="87.24"/>
  <polyline class="cls-5" points="11.99 87.24 12.14 87.24 12.24 87.19 12.39 87.14 12.49 87.04 12.59 86.94 12.64 86.79 12.69 86.64 12.69 86.54"/>
  <line class="cls-5" x1="12.69" y1="86.54" x2="12.69" y2="86.09"/>
  <polyline class="cls-5" points="12.69 86.09 12.69 85.94 12.64 85.84 12.59 85.69 12.49 85.59 12.39 85.49 12.24 85.44 12.14 85.39 11.99 85.39"/>
  <line class="cls-5" x1="11.99" y1="85.39" x2="10.69" y2="85.39"/>
</svg>