<?xml version="1.0" encoding="UTF-8"?>
<svg id="Capa_1" data-name="Capa 1" xmlns="http://www.w3.org/2000/svg" viewBox="0 0 120 25">
  <defs>
    <style>
      .cls-1 {
        fill: #292929;
      }
    </style>
  </defs>
  <g>
    <path class="cls-1" d="m5.63,4.37h12.59v12.63H5.63V4.37Zm11.95.64H6.27v11.35h11.31V5.01Z"/>
    <path class="cls-1" d="m7.33,20.13c.69-.59,3.54-3.56,4.21-4.3-1.07-1.3-2.86-3.04-2.83-5.91.02-1.58,1.05-3.52,3.55-3.73C5.97,4.56.1,11.48,7.33,20.13c.69-.59,3.54-3.56,4.21-4.3"/>
    <path class="cls-1" d="m16.04,9.76c0,1.85-1.5,3.36-3.35,3.36s-3.35-1.51-3.35-3.36,1.5-3.36,3.35-3.36,3.35,1.5,3.35,3.36"/>
  </g>
  <g>
    <polygon class="cls-1" points="23.08 4.39 27.61 4.39 27.61 13.45 31.44 13.45 31.44 16.99 23.08 16.99 23.08 4.39"/>
    <path class="cls-1" d="m38.37,16.98c5.78,0,5.78-3.41,5.78-5.11v-7.48h-4.52v7.96c0,.13-.05,1.11-1.26,1.09-1.21.01-1.26-.96-1.26-1.09v-7.96h-4.52v7.48c0,1.7,0,5.11,5.78,5.11"/>
    <polyline class="cls-1" points="52.15 14.17 53.57 16.99 58.97 16.99 54.64 10.63 58.76 4.39 53.33 4.38 51.97 7.03 51.97 7.06 50.61 4.41 45.43 4.41 49.51 10.56 45.34 16.99 50.09 16.99 52 13.87"/>
    <polyline class="cls-1" points="68.51 7.86 68.51 4.38 59.9 4.39 59.9 16.98 68.51 16.98 68.51 13.45 64.43 13.45 64.43 12.35 67.85 12.35 67.85 8.95 64.43 8.95 64.43 7.86 68.51 7.86 68.51 4.38"/>
  </g>
  <g>
    <path class="cls-1" d="m71.15,16.99V4.38h4.02c.42,0,.79.04,1.11.12.31.08.63.25.95.5.47.38.81.84,1.01,1.4.21.56.31,1.13.31,1.72s.09.69-.09,1.17c-.17.48-.57,1.37-.87,1.7-.3.33-.64.59-1.02.76-.38.17-.78.26-1.21.26h-2.06v4.99h-2.16Zm2.16-6.94h1.31c.32,0,.59-.06.8-.17.21-.11.39-.26.51-.44.14-.18.23-.38.28-.6.05-.22.09-.45.09-.66,0-.25-.03-.48-.09-.67-.06-.19-.12-.35-.18-.47-.14-.27-.34-.47-.59-.59-.26-.12-.58-.18-.99-.18h-1.15v3.78Z"/>
    <polygon class="cls-1" points="79.57 16.99 79.57 4.38 85.89 4.38 85.89 6.66 81.79 6.69 81.79 9.3 85.79 9.28 85.79 11.5 81.79 11.54 81.79 14.68 85.95 14.64 85.95 16.99 79.57 16.99"/>
    <path class="cls-1" d="m93.09,16.99l-3.19-5.18v5.18h-2.42V4.38h3.86c.62,0,1.13.08,1.52.24.39.16.75.41,1.05.75.25.29.47.66.63,1.1.17.44.25.98.25,1.63,0,.59-.07,1.09-.2,1.48-.14.39-.3.72-.49.97-.19.25-.39.44-.58.58-.2.13-.64.43-1.06.55l3.28,5.32h-2.64Zm-3.19-6.99h.77c.22,0,.44-.03.66-.09.23-.06.43-.16.61-.3.18-.15.33-.34.44-.59.12-.25.17-.58.17-.97,0-.24-.03-.47-.09-.69-.07-.22-.17-.41-.31-.58-.14-.17-.31-.31-.53-.42-.23-.11-.49-.16-.8-.16h-.92v3.8h0Z"/>
    <polygon class="cls-1" points="96.55 16.99 96.55 4.38 102.75 4.38 102.75 6.79 98.99 6.79 98.99 9.17 102.61 9.17 102.61 11.46 98.99 11.46 98.99 16.99 96.55 16.99"/>
    <rect class="cls-1" x="104.04" y="4.38" width="2.55" height="12.61"/>
    <polygon class="cls-1" points="108.36 16.99 108.36 4.38 110.86 4.38 110.86 14.74 114 14.74 114 16.99 108.36 16.99"/>
  </g>
  <g>
    <path class="cls-1" d="m70.81,23.06l1.51-4h.56l1.61,4h-.59l-.46-1.21h-1.64l-.43,1.21h-.55Zm1.13-1.64h1.33l-.41-1.11c-.12-.33-.22-.61-.28-.83-.05.26-.12.51-.21.76l-.43,1.17Z"/>
    <path class="cls-1" d="m76.28,23.06v-4h1.74c.35,0,.62.03.8.11.18.07.33.2.44.38.11.18.16.38.16.6,0,.28-.09.52-.27.72-.18.2-.46.32-.84.37.14.07.24.13.31.2.15.15.29.32.43.53l.68,1.09h-.66l-.52-.83c-.15-.24-.28-.43-.37-.55-.1-.13-.19-.22-.26-.27-.08-.05-.16-.08-.24-.1-.06-.01-.15-.02-.29-.02h-.6v1.77h-.52Zm.52-2.23h1.12c.23,0,.42-.02.55-.07.14-.05.24-.13.31-.24.07-.11.1-.23.1-.36,0-.19-.07-.34-.21-.47-.13-.12-.34-.18-.63-.18h-1.24v1.32Z"/>
    <path class="cls-1" d="m83.43,21.49v-.47h1.66s0,1.48,0,1.48c-.26.2-.52.36-.79.47-.27.1-.55.16-.84.16-.38,0-.73-.08-1.05-.25-.32-.17-.55-.41-.71-.73-.16-.32-.24-.67-.24-1.07s.08-.75.24-1.09c.16-.34.39-.59.69-.75.3-.16.65-.24,1.04-.24.28,0,.54.05.77.14.23.09.41.22.54.39.13.17.23.38.3.66l-.47.13c-.06-.2-.13-.36-.22-.48-.09-.12-.22-.21-.38-.28-.16-.07-.34-.1-.54-.1-.24,0-.44.04-.62.11-.17.07-.31.17-.42.29-.1.12-.19.25-.25.4-.1.25-.15.51-.15.8,0,.36.06.66.18.89.12.24.3.42.53.54.23.12.48.18.73.18.23,0,.44-.05.66-.13.21-.09.38-.18.49-.28v-.75h-1.15Z"/>
    <polygon class="cls-1" points="87.13 23.06 87.13 19.06 89.96 19.06 89.96 19.53 87.65 19.53 87.65 20.76 89.82 20.76 89.82 21.23 87.65 21.23 87.65 22.59 90.06 22.59 90.06 23.06 87.13 23.06"/>
    <polygon class="cls-1" points="92.25 23.06 92.25 19.06 92.78 19.06 94.84 22.2 94.84 19.06 95.34 19.06 95.34 23.06 94.81 23.06 92.74 19.92 92.74 23.06 92.25 23.06"/>
    <polygon class="cls-1" points="98.57 23.06 98.57 19.53 97.28 19.53 97.28 19.06 100.39 19.06 100.39 19.53 99.09 19.53 99.09 23.06 98.57 23.06"/>
    <rect class="cls-1" x="102.27" y="19.06" width=".52" height="4"/>
    <polygon class="cls-1" points="105.18 23.06 105.18 19.06 105.71 19.06 107.78 22.2 107.78 19.06 108.28 19.06 108.28 23.06 107.74 23.06 105.68 19.92 105.68 23.06 105.18 23.06"/>
    <path class="cls-1" d="m110.08,23.06l1.5-4h.56l1.6,4h-.59l-.45-1.21h-1.64l-.43,1.21h-.55Zm1.13-1.64h1.33l-.41-1.11c-.13-.33-.22-.61-.28-.83-.05.26-.12.51-.21.76l-.43,1.17Z"/>
  </g>
</svg>