<?xml version="1.0" encoding="UTF-8"?>
<svg id="Capa_1" data-name="Capa 1" xmlns="http://www.w3.org/2000/svg" viewBox="0 0 367 277">
  <defs>
    <style>
      .cls-1 {
        fill: #e9eaec;
      }

      .cls-1, .cls-2, .cls-3, .cls-4 {
        stroke: #494340;
        stroke-miterlimit: 10;
      }

      .cls-5, .cls-4 {
        fill: #fff;
      }

      .cls-2 {
        stroke-width: .9px;
      }

      .cls-2, .cls-3 {
        fill: none;
      }

      .cls-6 {
        fill: #494340;
      }
    </style>
  </defs>
  <rect class="cls-5" x="45.3" y="22.74" width="67.91" height="31.15"/>
  <rect class="cls-5" x="145.89" y="123.34" width="67.91" height="37.28"/>
  <line class="cls-3" x1="25.46" y1="56.28" x2="127.17" y2="56.28"/>
  <line class="cls-3" x1="142.83" y1="81.39" x2="142.83" y2="197.36"/>
  <g>
    <path class="cls-6" d="m30.23,226.65c.73-.22,1.58-.32,2.52-.32,1.72,0,2.93.44,3.83,1.24,1.26,1.09,2.21,3.2,2.21,6.62,0,3.73-.92,5.77-1.96,6.89-1.07,1.21-2.62,1.77-4.51,1.77-.75,0-1.53-.05-2.09-.17v-16.03Zm1.87,14.57c.27.05.53.05.7.05,2.06,0,4.05-1.48,4.05-7.03,0-4.12-1.26-6.38-3.88-6.38-.29,0-.63.02-.87.1v13.26Z"/>
    <path class="cls-6" d="m42.89,226.41v16.34h-1.87v-16.34h1.87Z"/>
    <path class="cls-6" d="m55.74,235.72c-.12-2.16-.24-4.56-.17-6.4h-.1c-.36,1.82-.8,3.76-1.31,5.67l-2.01,7.66h-1.19l-1.92-7.35c-.53-2.08-1.02-4.1-1.33-5.99h-.07c0,1.92-.1,4.19-.19,6.52l-.32,6.91h-1.67l.97-16.34h2.01l1.92,7.47c.56,2.16.97,3.76,1.31,5.62h.07c.31-1.87.68-3.42,1.21-5.62l1.84-7.47h2.08l.95,16.34h-1.75l-.34-7.03Z"/>
    <path class="cls-6" d="m66.33,234.99h-4.1v6.13h4.66v1.62h-6.52v-16.34h6.23v1.62h-4.36v5.38h4.1v1.58Z"/>
    <path class="cls-6" d="m68.95,242.75v-16.34h1.77l3.01,7.66c.68,1.75,1.53,3.93,2.08,5.7h.05c-.15-2.57-.22-4.68-.22-7.52v-5.84h1.67v16.34h-1.77l-3.1-7.86c-.65-1.65-1.36-3.52-1.94-5.55h-.05c.15,2.18.19,4.27.19,7.76v5.65h-1.7Z"/>
    <path class="cls-6" d="m79.86,240.59c.56.36,1.53.66,2.35.66,1.7,0,2.72-1.12,2.72-2.76,0-1.5-.87-2.42-2.16-3.39-1.29-.9-3.08-2.42-3.08-4.53,0-2.47,1.72-4.29,4.32-4.29,1.02,0,1.92.32,2.3.61l-.46,1.6c-.41-.29-1.09-.56-1.94-.56-1.6,0-2.35,1.21-2.35,2.33,0,1.62.85,2.25,2.4,3.37,1.96,1.38,2.84,2.88,2.84,4.7,0,2.81-1.99,4.58-4.58,4.58-1.12,0-2.3-.36-2.76-.7l.41-1.6Z"/>
    <path class="cls-6" d="m90.84,226.41v16.34h-1.87v-16.34h1.87Z"/>
    <path class="cls-6" d="m102.38,234.46c0,6.13-2.11,8.49-4.73,8.49s-4.53-2.89-4.53-8.39,1.94-8.34,4.8-8.34,4.46,3.03,4.46,8.24Zm-7.32.12c0,3.37.65,6.72,2.72,6.72s2.67-3.56,2.67-6.76-.56-6.67-2.69-6.67-2.69,3.39-2.69,6.72Z"/>
    <path class="cls-6" d="m104.61,242.75v-16.34h1.77l3.01,7.66c.68,1.75,1.53,3.93,2.08,5.7h.05c-.15-2.57-.22-4.68-.22-7.52v-5.84h1.67v16.34h-1.77l-3.1-7.86c-.65-1.65-1.36-3.52-1.94-5.55h-.05c.15,2.18.19,4.27.19,7.76v5.65h-1.7Z"/>
    <path class="cls-6" d="m121.84,234.99h-4.1v6.13h4.66v1.62h-6.52v-16.34h6.23v1.62h-4.36v5.38h4.1v1.58Z"/>
    <path class="cls-6" d="m124.1,240.59c.56.36,1.53.66,2.35.66,1.7,0,2.72-1.12,2.72-2.76,0-1.5-.87-2.42-2.16-3.39-1.28-.9-3.08-2.42-3.08-4.53,0-2.47,1.72-4.29,4.32-4.29,1.02,0,1.92.32,2.3.61l-.46,1.6c-.41-.29-1.09-.56-1.94-.56-1.6,0-2.35,1.21-2.35,2.33,0,1.62.85,2.25,2.4,3.37,1.96,1.38,2.84,2.88,2.84,4.7,0,2.81-1.99,4.58-4.58,4.58-1.12,0-2.3-.36-2.76-.7l.41-1.6Z"/>
    <path class="cls-6" d="m146.91,235.72c-.12-2.16-.24-4.56-.17-6.4h-.1c-.36,1.82-.8,3.76-1.31,5.67l-2.01,7.66h-1.19l-1.92-7.35c-.53-2.08-1.02-4.1-1.33-5.99h-.07c0,1.92-.1,4.19-.19,6.52l-.32,6.91h-1.67l.97-16.34h2.01l1.92,7.47c.56,2.16.97,3.76,1.31,5.62h.07c.31-1.87.68-3.42,1.21-5.62l1.84-7.47h2.08l.95,16.34h-1.75l-.34-7.03Z"/>
    <path class="cls-6" d="m153.33,237.85l-1.09,4.9h-1.79l3.73-16.34h2.06l3.64,16.34h-1.84l-1.09-4.9h-3.61Zm3.37-1.5l-.85-4.15c-.24-1.16-.46-2.52-.65-3.73h-.1c-.19,1.24-.44,2.64-.65,3.73l-.85,4.15h3.1Zm1.79-13.43l-3.01,2.62h-1.48l2.28-2.62h2.21Z"/>
    <path class="cls-6" d="m167.49,242.75l-1.48-3.93c-.34-.9-.63-1.75-.99-2.86h-.07c-.36,1.09-.68,2.04-.99,2.91l-1.41,3.88h-1.92l3.37-8.34-3.25-8h1.94l1.45,3.78c.32.75.58,1.53.97,2.59h.05c.36-1.14.61-1.87.87-2.67l1.33-3.71h1.92l-3.2,7.95,3.37,8.39h-1.96Z"/>
    <path class="cls-6" d="m173.11,226.41v16.34h-1.87v-16.34h1.87Z"/>
    <path class="cls-6" d="m185.96,235.72c-.12-2.16-.24-4.56-.17-6.4h-.1c-.36,1.82-.8,3.76-1.31,5.67l-2.01,7.66h-1.19l-1.92-7.35c-.53-2.08-1.02-4.1-1.33-5.99h-.07c0,1.92-.1,4.19-.19,6.52l-.32,6.91h-1.67l.97-16.34h2.01l1.92,7.47c.56,2.16.97,3.76,1.31,5.62h.07c.32-1.87.68-3.42,1.21-5.62l1.84-7.47h2.08l.95,16.34h-1.75l-.34-7.03Z"/>
    <path class="cls-6" d="m192.39,237.85l-1.09,4.9h-1.79l3.73-16.34h2.06l3.64,16.34h-1.84l-1.09-4.9h-3.61Zm3.37-1.5l-.85-4.15c-.24-1.16-.46-2.52-.65-3.73h-.1c-.19,1.24-.44,2.64-.65,3.73l-.85,4.15h3.1Z"/>
    <path class="cls-6" d="m200.6,240.59c.56.36,1.53.66,2.35.66,1.7,0,2.71-1.12,2.71-2.76,0-1.5-.87-2.42-2.16-3.39-1.29-.9-3.08-2.42-3.08-4.53,0-2.47,1.72-4.29,4.32-4.29,1.02,0,1.92.32,2.3.61l-.46,1.6c-.41-.29-1.09-.56-1.94-.56-1.6,0-2.35,1.21-2.35,2.33,0,1.62.85,2.25,2.4,3.37,1.96,1.38,2.84,2.88,2.84,4.7,0,2.81-1.99,4.58-4.58,4.58-1.12,0-2.3-.36-2.76-.7l.41-1.6Z"/>
    <path class="cls-6" d="m213.53,226.65c.8-.22,1.77-.32,2.69-.32,1.62,0,2.84.34,3.68,1.16.8.82,1.14,1.92,1.14,3.2,0,2.09-.97,3.44-2.62,4.2v.05c1.21.36,1.84,1.53,2.21,3.66.36,2.25.7,3.64.92,4.15h-1.89c-.24-.49-.56-2.04-.87-4.05-.36-2.23-1.07-3.08-2.67-3.08h-.73v7.13h-1.87v-16.1Zm1.87,7.54h.78c1.79,0,2.98-1.31,2.98-3.27s-.78-3.05-2.79-3.08c-.36,0-.73.02-.97.1v6.26Z"/>
    <path class="cls-6" d="m229.4,234.99h-4.1v6.13h4.66v1.62h-6.52v-16.34h6.23v1.62h-4.37v5.38h4.1v1.58Z"/>
    <path class="cls-6" d="m239.15,242.46c-.51.27-1.31.44-2.33.44-3.2,0-5.48-2.57-5.48-8.12,0-6.45,3.2-8.51,5.77-8.51.99,0,1.7.19,2.04.41l-.41,1.58c-.39-.17-.8-.34-1.65-.34-1.75,0-3.78,1.7-3.78,6.69s1.84,6.64,3.83,6.64c.7,0,1.33-.17,1.72-.36l.29,1.58Z"/>
    <path class="cls-6" d="m249.23,234.46c0,6.13-2.11,8.49-4.73,8.49s-4.53-2.89-4.53-8.39,1.94-8.34,4.8-8.34,4.46,3.03,4.46,8.24Zm-7.32.12c0,3.37.65,6.72,2.71,6.72s2.67-3.56,2.67-6.76-.56-6.67-2.69-6.67-2.69,3.39-2.69,6.72Z"/>
    <path class="cls-6" d="m261.36,235.72c-.12-2.16-.24-4.56-.17-6.4h-.1c-.36,1.82-.8,3.76-1.31,5.67l-2.01,7.66h-1.19l-1.92-7.35c-.53-2.08-1.02-4.1-1.33-5.99h-.07c0,1.92-.1,4.19-.19,6.52l-.31,6.91h-1.67l.97-16.34h2.01l1.92,7.47c.56,2.16.97,3.76,1.31,5.62h.07c.32-1.87.68-3.42,1.21-5.62l1.84-7.47h2.08l.95,16.34h-1.75l-.34-7.03Z"/>
    <path class="cls-6" d="m271.95,234.99h-4.1v6.13h4.66v1.62h-6.52v-16.34h6.23v1.62h-4.37v5.38h4.1v1.58Z"/>
    <path class="cls-6" d="m274.57,242.75v-16.34h1.77l3.01,7.66c.68,1.75,1.53,3.93,2.08,5.7h.05c-.15-2.57-.22-4.68-.22-7.52v-5.84h1.67v16.34h-1.77l-3.1-7.86c-.65-1.65-1.36-3.52-1.94-5.55h-.05c.15,2.18.19,4.27.19,7.76v5.65h-1.7Z"/>
    <path class="cls-6" d="m285.84,226.65c.73-.22,1.58-.32,2.52-.32,1.72,0,2.93.44,3.83,1.24,1.26,1.09,2.21,3.2,2.21,6.62,0,3.73-.92,5.77-1.96,6.89-1.07,1.21-2.62,1.77-4.51,1.77-.75,0-1.53-.05-2.08-.17v-16.03Zm1.87,14.57c.27.05.53.05.7.05,2.06,0,4.05-1.48,4.05-7.03,0-4.12-1.26-6.38-3.88-6.38-.29,0-.63.02-.87.1v13.26Z"/>
    <path class="cls-6" d="m298.1,237.85l-1.09,4.9h-1.79l3.73-16.34h2.06l3.64,16.34h-1.84l-1.09-4.9h-3.61Zm3.37-1.5l-.85-4.15c-.24-1.16-.46-2.52-.65-3.73h-.1c-.19,1.24-.44,2.64-.65,3.73l-.85,4.15h3.1Z"/>
    <path class="cls-6" d="m306.69,226.65c.73-.22,1.58-.32,2.52-.32,1.72,0,2.93.44,3.83,1.24,1.26,1.09,2.21,3.2,2.21,6.62,0,3.73-.92,5.77-1.96,6.89-1.07,1.21-2.62,1.77-4.51,1.77-.75,0-1.53-.05-2.08-.17v-16.03Zm1.87,14.57c.27.05.53.05.7.05,2.06,0,4.05-1.48,4.05-7.03,0-4.12-1.26-6.38-3.88-6.38-.29,0-.63.02-.87.1v13.26Z"/>
    <path class="cls-6" d="m318.95,237.85l-1.09,4.9h-1.79l3.73-16.34h2.06l3.64,16.34h-1.84l-1.09-4.9h-3.61Zm3.37-1.5l-.85-4.15c-.24-1.16-.46-2.52-.65-3.73h-.1c-.19,1.24-.44,2.64-.65,3.73l-.85,4.15h3.1Z"/>
    <path class="cls-6" d="m327.17,240.59c.56.36,1.53.66,2.35.66,1.7,0,2.71-1.12,2.71-2.76,0-1.5-.87-2.42-2.16-3.39-1.29-.9-3.08-2.42-3.08-4.53,0-2.47,1.72-4.29,4.32-4.29,1.02,0,1.92.32,2.3.61l-.46,1.6c-.41-.29-1.09-.56-1.94-.56-1.6,0-2.35,1.21-2.35,2.33,0,1.62.85,2.25,2.4,3.37,1.96,1.38,2.84,2.88,2.84,4.7,0,2.81-1.99,4.58-4.58,4.58-1.12,0-2.3-.36-2.76-.7l.41-1.6Z"/>
  </g>
  <g>
    <path class="cls-6" d="m56.77,38.73h-.04l-2.39,1.37-.33-1.33,3.03-1.77h1.41v14.36h-1.68v-12.64Z"/>
    <path class="cls-6" d="m61.5,54.15c.46-1.28,1.06-3.62,1.28-5.15l1.92-.22c-.49,1.79-1.44,4.22-2.03,5.21l-1.17.15Z"/>
    <path class="cls-6" d="m68.37,43.7c-1.19-.82-1.88-2.08-1.88-3.29,0-2.21,1.57-3.58,3.36-3.58,2.05,0,3.07,1.72,3.07,3.38,0,1.26-.6,2.47-1.92,3.38v.07c1.33.88,2.3,2.19,2.3,3.91,0,2.23-1.48,3.98-3.69,3.98-2.39,0-3.58-1.9-3.58-3.69,0-2.01,1.19-3.29,2.36-4.11l-.02-.04Zm3.25,3.98c0-1.66-.95-2.58-2.05-3.31-1.15.71-1.86,1.94-1.86,3.2,0,1.61.73,2.72,1.97,2.72,1.06,0,1.94-.82,1.94-2.61Zm-3.49-7.38c0,1.46.88,2.19,1.77,2.76.86-.62,1.44-1.57,1.44-2.65,0-1.39-.58-2.32-1.61-2.32-.95,0-1.59.91-1.59,2.21Z"/>
    <path class="cls-6" d="m81.83,44.17c0,5.24-1.66,7.38-3.73,7.38-2.23,0-3.58-2.65-3.58-7.34s1.44-7.38,3.78-7.38,3.54,2.76,3.54,7.34Zm-5.61.02c0,3.47.6,5.9,2.01,5.9s1.9-2.45,1.9-5.9-.55-5.9-1.92-5.9-1.99,2.45-1.99,5.9Z"/>
    <path class="cls-6" d="m87.09,43.44c0-1.26-.07-1.9-.09-2.76h1.48l.09,1.33h.04c.46-.86,1.28-1.5,2.41-1.5.99,0,1.83.49,2.23,1.63h.04c.29-.53.66-.95,1.06-1.21.42-.29.93-.42,1.48-.42,1.44,0,2.56,1.06,2.56,3.78v7.09h-1.68v-6.69c0-1.39-.2-2.74-1.5-2.74-.71,0-1.33.6-1.57,1.59-.04.29-.07.62-.07.97v6.87h-1.68v-7c0-1.19-.22-2.43-1.48-2.43-.68,0-1.39.6-1.59,1.72-.04.29-.07.6-.07.93v6.78h-1.68v-7.93Z"/>
  </g>
  <g>
    <path class="cls-6" d="m151.1,149.88v-1.1l1.21-1.65c1.69-2.35,3.72-5.04,3.72-7.72,0-1.58-.7-2.55-2.05-2.55-1.03,0-1.69.55-2.07.79l-.42-1.28c.51-.42,1.5-.97,2.79-.97,2.38,0,3.41,1.76,3.41,3.92,0,2.68-1.76,5.28-3.52,7.7l-.97,1.32v.04h4.77v1.5h-6.89Z"/>
    <path class="cls-6" d="m159.24,152.65c.46-1.28,1.06-3.61,1.28-5.13l1.91-.22c-.48,1.78-1.43,4.2-2.02,5.19l-1.17.15Z"/>
    <path class="cls-6" d="m164.12,148.05c.44.26,1.21.59,2.07.59,1.47,0,2.46-1.08,2.46-2.86,0-1.87-1.17-2.95-2.88-2.95h-.4v-1.28h.33c1.01-.02,2.57-.79,2.57-2.55,0-1.43-.77-2.2-1.89-2.2-.7,0-1.32.35-1.78.68l-.37-1.28c.53-.42,1.5-.81,2.57-.81,2.02,0,3.17,1.45,3.17,3.3,0,1.43-.75,2.68-2.13,3.34v.04c1.28.35,2.51,1.5,2.51,3.74s-1.5,4.22-4.09,4.22c-.92,0-1.94-.26-2.51-.66l.37-1.34Z"/>
    <path class="cls-6" d="m178.93,137.08h-3.85l-.59,3.81c.18-.04.33-.04.53-.04.77,0,1.96.33,2.73,1.08.75.75,1.19,1.8,1.19,3.26,0,2.84-1.78,4.88-4.33,4.88-.86,0-1.85-.24-2.42-.62l.37-1.36c.44.26,1.21.57,2,.57,1.45,0,2.71-1.12,2.71-3.3s-1.39-3.21-3.24-3.21c-.53,0-.86.02-1.12.07l.9-6.62h5.13v1.5Z"/>
    <path class="cls-6" d="m184.71,141.98c0-1.25-.07-1.89-.09-2.75h1.47l.09,1.32h.04c.46-.86,1.28-1.5,2.4-1.5.99,0,1.83.48,2.22,1.63h.04c.29-.53.66-.95,1.06-1.21.42-.29.92-.42,1.47-.42,1.43,0,2.55,1.06,2.55,3.76v7.06h-1.67v-6.67c0-1.39-.2-2.73-1.5-2.73-.7,0-1.32.59-1.56,1.58-.04.29-.07.62-.07.97v6.84h-1.67v-6.97c0-1.19-.22-2.42-1.47-2.42-.68,0-1.39.59-1.58,1.72-.04.29-.07.59-.07.92v6.75h-1.67v-7.9Z"/>
  </g>
  <g>
    <rect class="cls-1" x="30.47" y="88.1" width="91.4" height="64.6"/>
    <rect class="cls-4" x="25.46" y="81.39" width="101.51" height="11.91"/>
    <rect class="cls-4" x="34.55" y="150.39" width="84" height="6.47"/>
    <rect class="cls-4" x="25.48" y="81.35" width="9.98" height="116.49"/>
    <rect class="cls-4" x="116.89" y="81.35" width="9.98" height="116.49"/>
    <line class="cls-3" x1="76.67" y1="153.52" x2="76.67" y2="166.37"/>
    <rect class="cls-4" x="75.63" y="166.14" width="2.4" height="2.98"/>
    <rect class="cls-2" x="48.5" y="153.31" width="13.94" height="1.49"/>
    <rect class="cls-2" x="90.5" y="153.31" width="13.94" height="1.49"/>
  </g>
</svg>